<svg width="30" height="29" viewBox="0 0 30 29" fill="none" xmlns="http://www.w3.org/2000/svg">
<path fill-rule="evenodd" clip-rule="evenodd" d="M15 26.2115C21.4681 26.2115 26.7115 20.9681 26.7115 14.5C26.7115 8.0319 21.4681 2.78846 15 2.78846C8.5319 2.78846 3.28846 8.0319 3.28846 14.5C3.28846 20.9681 8.5319 26.2115 15 26.2115ZM15 29C23.0081 29 29.5 22.5081 29.5 14.5C29.5 6.49187 23.0081 0 15 0C6.99187 0 0.5 6.49187 0.5 14.5C0.5 22.5081 6.99187 29 15 29Z" fill="white"/>
<path fill-rule="evenodd" clip-rule="evenodd" d="M14.9999 15.6154C10.5433 15.6154 7.19219 18.7469 7.19219 22.3077C7.19219 22.9237 6.69282 23.4231 6.07681 23.4231C5.4608 23.4231 4.96143 22.9237 4.96143 22.3077C4.96143 17.2444 9.60036 13.3846 14.9999 13.3846C20.3994 13.3846 25.0383 17.2444 25.0383 22.3077C25.0383 22.9237 24.539 23.4231 23.923 23.4231C23.307 23.4231 22.8076 22.9237 22.8076 22.3077C22.8076 18.7469 19.4565 15.6154 14.9999 15.6154Z" fill="white"/>
<path fill-rule="evenodd" clip-rule="evenodd" d="M15.0001 11.1538C16.2321 11.1538 17.2309 10.1551 17.2309 8.92308C17.2309 7.69106 16.2321 6.69231 15.0001 6.69231C13.7681 6.69231 12.7693 7.69106 12.7693 8.92308C12.7693 10.1551 13.7681 11.1538 15.0001 11.1538ZM15.0001 13.3846C17.4642 13.3846 19.4617 11.3871 19.4617 8.92308C19.4617 6.45904 17.4642 4.46154 15.0001 4.46154C12.5361 4.46154 10.5386 6.45904 10.5386 8.92308C10.5386 11.3871 12.5361 13.3846 15.0001 13.3846Z" fill="white"/>
</svg>
