<svg width="53" height="73" viewBox="0 0 53 73" fill="none" xmlns="http://www.w3.org/2000/svg">
<path fill-rule="evenodd" clip-rule="evenodd" d="M37.1733 0.333577C37.1138 0.333969 37.0544 0.338781 36.9957 0.347974H4.79903C2.15956 0.347974 0 2.50754 0 5.147V67.5343C0 70.1738 2.15956 72.3334 4.79903 72.3334H47.9903C50.6297 72.3334 52.7893 70.1738 52.7893 67.5343V65.7491C52.7893 65.7131 52.7989 65.6771 52.7989 65.6411V51.9279C52.7989 51.8774 52.7957 51.8269 52.7893 51.7767V16.132C52.8239 15.9156 52.7986 15.6938 52.7162 15.4908C52.6337 15.2877 52.4971 15.1111 52.3214 14.9802L38.1499 0.806281C38.0357 0.656307 37.8877 0.535353 37.718 0.453226C37.5484 0.371098 37.3617 0.330108 37.1733 0.333577V0.333577ZM4.79903 2.74749H35.9927V12.3455C35.9927 14.985 38.1523 17.1446 40.7917 17.1446H50.3898V50.7282H2.39951V5.147C2.39951 3.79607 3.4481 2.74749 4.79903 2.74749V2.74749ZM38.3922 4.44394L48.6933 14.7451H40.7917C39.4408 14.7451 38.3922 13.6965 38.3922 12.3455V4.44154V4.44394ZM8.40789 19.5345C8.0897 19.5345 7.78454 19.6609 7.55954 19.8859C7.33454 20.1109 7.20814 20.416 7.20814 20.7342V25.5333C7.20814 25.8515 7.33454 26.1566 7.55954 26.3816C7.78454 26.6066 8.0897 26.733 8.40789 26.733H44.4006C44.7188 26.733 45.024 26.6066 45.2489 26.3816C45.4739 26.1566 45.6003 25.8515 45.6003 25.5333V20.7342C45.6003 20.416 45.4739 20.1109 45.2489 19.8859C45.024 19.6609 44.7188 19.5345 44.4006 19.5345H32.487C32.459 19.5335 32.431 19.5335 32.403 19.5345H8.40789ZM9.60765 21.934H19.2057V24.3335H9.60765V21.934ZM21.6052 21.934H31.2033V24.3335H21.6052V21.934ZM33.6028 21.934H43.2008V24.3335H33.6028V21.934ZM8.40789 29.1325C8.0897 29.1325 7.78454 29.2589 7.55954 29.4839C7.33454 29.7089 7.20814 30.0141 7.20814 30.3323V44.7294C7.20814 45.0476 7.33454 45.3527 7.55954 45.5777C7.78454 45.8027 8.0897 45.9291 8.40789 45.9291H44.4006C44.7188 45.9291 45.024 45.8027 45.2489 45.5777C45.4739 45.3527 45.6003 45.0476 45.6003 44.7294V30.3323C45.6003 30.0141 45.4739 29.7089 45.2489 29.4839C45.024 29.2589 44.7188 29.1325 44.4006 29.1325H32.487C32.459 29.1316 32.431 29.1316 32.403 29.1325H8.40789ZM9.60765 31.532H19.2057V33.9316H9.60765V31.532ZM21.6052 31.532H31.2033V33.9316H21.6052V31.532ZM33.6028 31.532H43.2008V33.9316H33.6028V31.532ZM9.60765 36.3311H19.2057V38.7306H9.60765V36.3311ZM21.6052 36.3311H31.2033V38.7306H21.6052V36.3311ZM33.6028 36.3311H43.2008V38.7306H33.6028V36.3311ZM9.60765 41.1301H19.2057V43.5296H9.60765V41.1301ZM21.6052 41.1301H31.2033V43.5296H21.6052V41.1301ZM33.6028 41.1301H43.2008V43.5296H33.6028V41.1301ZM2.40911 53.1277H50.3898V65.7539C50.3418 68.1918 48.7581 69.9243 47.0209 69.9243H5.78763C4.02158 69.9243 2.40911 68.1414 2.40911 65.6411V53.1277ZM32.3142 55.5272C32.1267 55.5412 31.9452 55.599 31.7841 55.696C31.6231 55.7931 31.4871 55.9266 31.3872 56.0859C31.2872 56.2451 31.2261 56.4256 31.2088 56.6129C31.1914 56.8001 31.2183 56.9887 31.2873 57.1636L34.8865 66.7617C34.9715 66.9917 35.125 67.1901 35.3262 67.3303C35.5274 67.4704 35.7667 67.5456 36.0119 67.5456C36.2571 67.5456 36.4964 67.4704 36.6976 67.3303C36.8988 67.1901 37.0523 66.9917 37.1373 66.7617L40.7365 57.1636C40.8479 56.8652 40.8361 56.5347 40.7038 56.2449C40.5715 55.9551 40.3295 55.7297 40.0311 55.6184C39.7326 55.507 39.4021 55.5188 39.1123 55.651C38.8225 55.7833 38.5972 56.0254 38.4858 56.3238L36.0119 62.9225L33.538 56.3238C33.4564 56.0948 33.3071 55.8961 33.11 55.7538C32.9129 55.6115 32.6772 55.5325 32.4342 55.5272C32.3943 55.5252 32.3542 55.5252 32.3142 55.5272V55.5272ZM13.0749 55.5512C12.9892 55.5605 12.9048 55.579 12.823 55.6064C9.70363 55.8871 7.19854 58.4138 7.19854 61.5548C7.19854 64.7077 9.72523 67.2416 12.8638 67.5008C12.9781 67.5358 13.097 67.5536 13.2165 67.5535H15.616C15.9342 67.5535 16.2394 67.4271 16.4644 67.2021C16.6894 66.9771 16.8158 66.672 16.8158 66.3538C16.8158 66.0356 16.6894 65.7304 16.4644 65.5054C16.2394 65.2804 15.9342 65.154 15.616 65.154H13.3845C11.2441 65.154 9.59805 63.544 9.59805 61.5548C9.59805 59.5632 11.2441 57.9555 13.3845 57.9555H15.5968C15.915 57.9555 16.2202 57.8291 16.4452 57.6041C16.6702 57.3791 16.7966 57.0739 16.7966 56.7557C16.7966 56.4375 16.6702 56.1324 16.4452 55.9074C16.2202 55.6824 15.915 55.556 15.5968 55.556H13.1973C13.1574 55.554 13.1173 55.554 13.0773 55.556V55.5512H13.0749ZM22.7114 55.5512C22.6604 55.5583 22.6099 55.5687 22.5602 55.5824C20.7126 55.7263 19.2345 57.274 19.2345 59.1552C19.2345 61.0509 20.739 62.6105 22.6082 62.7305C22.6825 62.7456 22.758 62.7537 22.8338 62.7545H25.2333C25.9171 62.7545 26.433 63.268 26.433 63.9543C26.433 64.6381 25.9171 65.154 25.2333 65.154H20.4343C20.1161 65.154 19.8109 65.2804 19.5859 65.5054C19.3609 65.7304 19.2345 66.0356 19.2345 66.3538C19.2345 66.672 19.3609 66.9771 19.5859 67.2021C19.8109 67.4271 20.1161 67.5535 20.4343 67.5535H25.2333C25.3164 67.5525 25.3993 67.5429 25.4804 67.5247C26.386 67.4607 27.2341 67.0576 27.8555 66.3957C28.4768 65.7339 28.8257 64.8621 28.8325 63.9543C28.8325 62.0683 27.3449 60.5134 25.49 60.379C25.4057 60.3602 25.3197 60.3505 25.2333 60.3502H22.9178C22.8898 60.3492 22.8618 60.3492 22.8338 60.3502C22.6751 60.3542 22.5174 60.3258 22.37 60.2669C22.2227 60.208 22.0888 60.1198 21.9766 60.0076C21.8644 59.8954 21.7762 59.7616 21.7173 59.6142C21.6584 59.4669 21.6301 59.3091 21.634 59.1504C21.634 58.4642 22.1475 57.9507 22.8338 57.9507H27.6328C27.951 57.9507 28.2562 57.8243 28.4811 57.5993C28.7061 57.3743 28.8325 57.0691 28.8325 56.7509C28.8325 56.4327 28.7061 56.1276 28.4811 55.9026C28.2562 55.6776 27.951 55.5512 27.6328 55.5512H22.9178C22.8898 55.5502 22.8618 55.5502 22.8338 55.5512C22.793 55.5491 22.7522 55.5491 22.7114 55.5512V55.5512Z" fill="url(#paint0_linear_414_529)"/>
<defs>
<linearGradient id="paint0_linear_414_529" x1="26.4022" y1="0.333374" x2="26.4022" y2="72.3334" gradientUnits="userSpaceOnUse">
<stop stop-color="#9D19FF"/>
<stop offset="1" stop-color="#7D9EFF"/>
</linearGradient>
</defs>
</svg>
