<svg width="100" height="101" viewBox="0 0 100 101" fill="none" xmlns="http://www.w3.org/2000/svg">
    <path d="M91.9355 13.4032H69.3548C67.7627 9.5821 65.0751 6.31774 61.6308 4.02153C58.1865 1.72531 54.1396 0.5 50 0.5C45.8604 0.5 41.8135 1.72531 38.3692 4.02153C34.9249 6.31774 32.2373 9.5821 30.6452 13.4032H8.06452C5.92646 13.4058 3.87671 14.2563 2.36487 15.7681C0.853035 17.2799 0.00256106 19.3297 0 21.4677V76.3065C0.00256106 78.4445 0.853035 80.4943 2.36487 82.0061C3.87671 83.5179 5.92646 84.3684 8.06452 84.371H38.4194L37.3435 90.8226H37.0968C35.8135 90.8226 34.5827 91.3324 33.6753 92.2398C32.7679 93.1472 32.2581 94.378 32.2581 95.6613V98.8871C32.2581 99.3149 32.428 99.7251 32.7305 100.028C33.033 100.33 33.4432 100.5 33.871 100.5H66.129C66.5568 100.5 66.9671 100.33 67.2695 100.028C67.572 99.7251 67.7419 99.3149 67.7419 98.8871V95.6613C67.7419 94.378 67.2321 93.1472 66.3247 92.2398C65.4173 91.3324 64.1865 90.8226 62.9032 90.8226H62.6565L61.5807 84.371H91.9355C94.0735 84.3684 96.1233 83.5179 97.6351 82.0061C99.147 80.4943 99.9974 78.4445 100 76.3065V21.4677C99.9974 19.3297 99.147 17.2799 97.6351 15.7681C96.1233 14.2563 94.0735 13.4058 91.9355 13.4032ZM91.9355 16.629C93.2188 16.629 94.4495 17.1388 95.357 18.0463C96.2644 18.9537 96.7742 20.1844 96.7742 21.4677V68.2419H93.5484V21.4677C93.5484 21.04 93.3785 20.6297 93.076 20.3272C92.7735 20.0248 92.3633 19.8548 91.9355 19.8548H70.8855C70.8024 18.7681 70.6341 17.6895 70.3823 16.629H91.9355ZM29.1145 23.0806C29.2766 25.2992 29.7934 27.4774 30.6452 29.5323H27.4194C25.7083 29.5323 24.0673 30.212 22.8574 31.4219C21.6475 32.6318 20.9677 34.2728 20.9677 35.9839V58.5645C20.9677 60.2756 21.6475 61.9166 22.8574 63.1265C24.0673 64.3364 25.7083 65.0161 27.4194 65.0161H72.5807C74.2917 65.0161 75.9327 64.3364 77.1426 63.1265C78.3525 61.9166 79.0323 60.2756 79.0323 58.5645V35.9839C79.0323 34.2728 78.3525 32.6318 77.1426 31.4219C75.9327 30.212 74.2917 29.5323 72.5807 29.5323H69.3548C70.2083 27.4776 70.7267 25.2994 70.8903 23.0806H90.3226V68.2419H9.67742V23.0806H29.1145ZM67.6403 32.7581H72.5807C73.1449 32.7616 73.6981 32.9147 74.1839 33.2016L50 51.6952L25.8161 33.2016C26.3019 32.9147 26.8551 32.7616 27.4194 32.7581H32.3597C34.2493 35.7241 36.8564 38.1658 39.9397 39.8574C43.023 41.5489 46.4831 42.4357 50 42.4357C53.5169 42.4357 56.977 41.5489 60.0603 39.8574C63.1436 38.1658 65.7507 35.7241 67.6403 32.7581ZM39.7129 47.8903L24.4726 59.8645C24.2892 59.4556 24.1941 59.0127 24.1936 58.5645V36.021L39.7129 47.8903ZM42.3597 49.9129L49.021 55.0065C49.3022 55.2212 49.6462 55.3376 50 55.3376C50.3538 55.3376 50.6978 55.2212 50.979 55.0065L57.6403 49.9129L72.7419 61.7742C72.6903 61.7742 72.6403 61.7903 72.5807 61.7903H27.4194C27.3661 61.7903 27.3161 61.7774 27.2581 61.7742L42.3597 49.9129ZM75.8065 58.5645C75.8058 59.0132 75.7107 59.4566 75.5274 59.8661L60.2871 47.8903L75.8065 36.021V58.5645ZM50 3.72581C53.509 3.72581 56.9392 4.76635 59.8569 6.71586C62.7745 8.66537 65.0486 11.4363 66.3914 14.6782C67.7343 17.9201 68.0856 21.4874 67.401 24.929C66.7165 28.3706 65.0267 31.5319 62.5454 34.0132C60.0642 36.4944 56.9029 38.1842 53.4613 38.8688C50.0197 39.5533 46.4524 39.202 43.2105 37.8592C39.9685 36.5163 37.1976 34.2423 35.2481 31.3246C33.2986 28.407 32.2581 24.9768 32.2581 21.4677C32.2636 16.764 34.1346 12.2545 37.4607 8.92843C40.7867 5.60237 45.2963 3.73136 50 3.72581ZM8.06452 16.629H29.6177C29.3659 17.6895 29.1976 18.7681 29.1145 19.8548H8.06452C7.63675 19.8548 7.2265 20.0248 6.92402 20.3272C6.62154 20.6297 6.45161 21.04 6.45161 21.4677V68.2419H3.22581V21.4677C3.22581 20.1844 3.7356 18.9537 4.64303 18.0463C5.55047 17.1388 6.78121 16.629 8.06452 16.629ZM64.5161 95.6613V97.2742H35.4839V95.6613C35.4839 95.2335 35.6538 94.8233 35.9563 94.5208C36.2588 94.2183 36.669 94.0484 37.0968 94.0484H62.9032C63.331 94.0484 63.7412 94.2183 64.0437 94.5208C64.3462 94.8233 64.5161 95.2335 64.5161 95.6613ZM59.3871 90.8226H40.6129L41.6887 84.371H58.3113L59.3871 90.8226ZM91.9355 81.1452H8.06452C6.78121 81.1452 5.55047 80.6354 4.64303 79.7279C3.7356 78.8205 3.22581 77.5898 3.22581 76.3065V71.4677H96.7742V76.3065C96.7742 77.5898 96.2644 78.8205 95.357 79.7279C94.4495 80.6354 93.2188 81.1452 91.9355 81.1452Z" fill="url(#paint0_linear_18_100)" />
    <path d="M50 79.5323C51.7816 79.5323 53.2258 78.088 53.2258 76.3065C53.2258 74.5249 51.7816 73.0806 50 73.0806C48.2184 73.0806 46.7742 74.5249 46.7742 76.3065C46.7742 78.088 48.2184 79.5323 50 79.5323Z" fill="url(#paint0_linear_18_100)" />
    <path fill-rule="evenodd" clip-rule="evenodd" d="M46.7742 24.8952C50.8941 24.8952 54.2339 21.5553 54.2339 17.4355C54.2339 13.3156 50.8941 9.97581 46.7742 9.97581C42.6543 9.97581 39.3145 13.3156 39.3145 17.4355C39.3145 21.5553 42.6543 24.8952 46.7742 24.8952ZM46.7742 27.9194C52.5643 27.9194 57.2581 23.2256 57.2581 17.4355C57.2581 11.6454 52.5643 6.95161 46.7742 6.95161C40.9841 6.95161 36.2903 11.6454 36.2903 17.4355C36.2903 23.2256 40.9841 27.9194 46.7742 27.9194Z" fill="url(#paint0_linear_18_100)" />
    <path fill-rule="evenodd" clip-rule="evenodd" d="M44.8589 13.4032C44.8589 12.5681 45.5359 11.8911 46.371 11.8911C49.7671 11.8911 52.5202 14.6442 52.5202 18.0403C52.5202 18.8754 51.8432 19.5524 51.0081 19.5524C50.173 19.5524 49.496 18.8754 49.496 18.0403C49.496 16.3144 48.0969 14.9153 46.371 14.9153C45.5359 14.9153 44.8589 14.2383 44.8589 13.4032Z" fill="url(#paint0_linear_18_100)" />
    <path fill-rule="evenodd" clip-rule="evenodd" d="M52.6606 22.5155C53.2511 21.925 54.2085 21.925 54.7991 22.5155L62.662 30.3784C63.2525 30.9689 63.2525 31.9263 62.662 32.5168C62.0714 33.1073 61.114 33.1073 60.5235 32.5168L52.6606 24.6539C52.0701 24.0634 52.0701 23.106 52.6606 22.5155Z" fill="url(#paint0_linear_18_100)" />
    <defs>
        <linearGradient id="paint0_linear_18_100" x1="50" y1="0.5" x2="50" y2="100.5" gradientUnits="userSpaceOnUse">
            <stop stop-color="#9D19FF" />
            <stop offset="1" stop-color="#7D9EFF" />
        </linearGradient>

    </defs>
</svg>