<svg width="100" height="100" viewBox="0 0 100 100" fill="none" xmlns="http://www.w3.org/2000/svg">
    <path d="M91.9355 12.9032H69.3548C67.7627 9.0821 65.0751 5.81774 61.6308 3.52153C58.1865 1.22531 54.1396 0 50 0C45.8604 0 41.8135 1.22531 38.3692 3.52153C34.9249 5.81774 32.2373 9.0821 30.6452 12.9032H8.06452C5.92646 12.9058 3.87671 13.7563 2.36487 15.2681C0.853035 16.7799 0.00256106 18.8297 0 20.9677V75.8065C0.00256106 77.9445 0.853035 79.9943 2.36487 81.5061C3.87671 83.0179 5.92646 83.8684 8.06452 83.871H38.4194L37.3435 90.3226H37.0968C35.8135 90.3226 34.5827 90.8324 33.6753 91.7398C32.7679 92.6472 32.2581 93.878 32.2581 95.1613V98.3871C32.2581 98.8149 32.428 99.2251 32.7305 99.5276C33.033 99.8301 33.4432 100 33.871 100H66.129C66.5568 100 66.9671 99.8301 67.2695 99.5276C67.572 99.2251 67.7419 98.8149 67.7419 98.3871V95.1613C67.7419 93.878 67.2321 92.6472 66.3247 91.7398C65.4173 90.8324 64.1865 90.3226 62.9032 90.3226H62.6565L61.5807 83.871H91.9355C94.0735 83.8684 96.1233 83.0179 97.6351 81.5061C99.147 79.9943 99.9974 77.9445 100 75.8065V20.9677C99.9974 18.8297 99.147 16.7799 97.6351 15.2681C96.1233 13.7563 94.0735 12.9058 91.9355 12.9032ZM91.9355 16.129C93.2188 16.129 94.4495 16.6388 95.357 17.5463C96.2644 18.4537 96.7742 19.6844 96.7742 20.9677V67.7419H93.5484V20.9677C93.5484 20.54 93.3785 20.1297 93.076 19.8272C92.7735 19.5248 92.3633 19.3548 91.9355 19.3548H70.8855C70.8024 18.2681 70.6341 17.1895 70.3823 16.129H91.9355ZM29.1145 22.5806C29.2766 24.7992 29.7934 26.9774 30.6452 29.0323H27.4194C25.7083 29.0323 24.0673 29.712 22.8574 30.9219C21.6475 32.1318 20.9677 33.7728 20.9677 35.4839V58.0645C20.9677 59.7756 21.6475 61.4166 22.8574 62.6265C24.0673 63.8364 25.7083 64.5161 27.4194 64.5161H72.5807C74.2917 64.5161 75.9327 63.8364 77.1426 62.6265C78.3525 61.4166 79.0323 59.7756 79.0323 58.0645V35.4839C79.0323 33.7728 78.3525 32.1318 77.1426 30.9219C75.9327 29.712 74.2917 29.0323 72.5807 29.0323H69.3548C70.2083 26.9776 70.7267 24.7994 70.8903 22.5806H90.3226V67.7419H9.67742V22.5806H29.1145ZM67.6403 32.2581H72.5807C73.1449 32.2616 73.6981 32.4147 74.1839 32.7016L50 51.1952L25.8161 32.7016C26.3019 32.4147 26.8551 32.2616 27.4194 32.2581H32.3597C34.2493 35.2241 36.8564 37.6658 39.9397 39.3574C43.023 41.0489 46.4831 41.9357 50 41.9357C53.5169 41.9357 56.977 41.0489 60.0603 39.3574C63.1436 37.6658 65.7507 35.2241 67.6403 32.2581ZM39.7129 47.3903L24.4726 59.3645C24.2892 58.9556 24.1941 58.5127 24.1936 58.0645V35.521L39.7129 47.3903ZM42.3597 49.4129L49.021 54.5065C49.3022 54.7212 49.6462 54.8376 50 54.8376C50.3538 54.8376 50.6978 54.7212 50.979 54.5065L57.6403 49.4129L72.7419 61.2742C72.6903 61.2742 72.6403 61.2903 72.5807 61.2903H27.4194C27.3661 61.2903 27.3161 61.2774 27.2581 61.2742L42.3597 49.4129ZM75.8065 58.0645C75.8058 58.5132 75.7107 58.9566 75.5274 59.3661L60.2871 47.3903L75.8065 35.521V58.0645ZM50 3.22581C53.509 3.22581 56.9392 4.26635 59.8569 6.21586C62.7745 8.16537 65.0486 10.9363 66.3914 14.1782C67.7343 17.4201 68.0856 20.9874 67.401 24.429C66.7165 27.8706 65.0267 31.0319 62.5454 33.5132C60.0642 35.9944 56.9029 37.6842 53.4613 38.3688C50.0197 39.0533 46.4524 38.702 43.2105 37.3592C39.9685 36.0163 37.1976 33.7423 35.2481 30.8246C33.2986 27.907 32.2581 24.4768 32.2581 20.9677C32.2636 16.264 34.1346 11.7545 37.4607 8.42843C40.7867 5.10237 45.2962 3.23136 50 3.22581ZM8.06452 16.129H29.6177C29.3659 17.1895 29.1976 18.2681 29.1145 19.3548H8.06452C7.63675 19.3548 7.2265 19.5248 6.92402 19.8272C6.62154 20.1297 6.45161 20.54 6.45161 20.9677V67.7419H3.22581V20.9677C3.22581 19.6844 3.7356 18.4537 4.64303 17.5463C5.55047 16.6388 6.78121 16.129 8.06452 16.129ZM64.5161 95.1613V96.7742H35.4839V95.1613C35.4839 94.7335 35.6538 94.3233 35.9563 94.0208C36.2588 93.7183 36.669 93.5484 37.0968 93.5484H62.9032C63.331 93.5484 63.7412 93.7183 64.0437 94.0208C64.3462 94.3233 64.5161 94.7335 64.5161 95.1613ZM59.3871 90.3226H40.6129L41.6887 83.871H58.3113L59.3871 90.3226ZM91.9355 80.6452H8.06452C6.78121 80.6452 5.55047 80.1354 4.64303 79.2279C3.7356 78.3205 3.22581 77.0898 3.22581 75.8065V70.9677H96.7742V75.8065C96.7742 77.0898 96.2644 78.3205 95.357 79.2279C94.4495 80.1354 93.2188 80.6452 91.9355 80.6452Z" fill="url(#paint0_linear_18_56)" />
    <path d="M50 79.0323C51.7816 79.0323 53.2258 77.588 53.2258 75.8064C53.2258 74.0249 51.7816 72.5806 50 72.5806C48.2184 72.5806 46.7742 74.0249 46.7742 75.8064C46.7742 77.588 48.2184 79.0323 50 79.0323Z" fill="url(#paint1_linear_18_56)" />
    <path fill-rule="evenodd" clip-rule="evenodd" d="M46.7742 24.3952C50.8941 24.3952 54.2339 21.0553 54.2339 16.9355C54.2339 12.8156 50.8941 9.47581 46.7742 9.47581C42.6543 9.47581 39.3145 12.8156 39.3145 16.9355C39.3145 21.0553 42.6543 24.3952 46.7742 24.3952ZM46.7742 27.4194C52.5643 27.4194 57.2581 22.7256 57.2581 16.9355C57.2581 11.1454 52.5643 6.45161 46.7742 6.45161C40.9841 6.45161 36.2903 11.1454 36.2903 16.9355C36.2903 22.7256 40.9841 27.4194 46.7742 27.4194Z" fill="url(#paint2_linear_18_56)" />
    <path fill-rule="evenodd" clip-rule="evenodd" d="M44.8589 12.9032C44.8589 12.0681 45.5359 11.3911 46.371 11.3911C49.7671 11.3911 52.5202 14.1442 52.5202 17.5403C52.5202 18.3754 51.8432 19.0524 51.0081 19.0524C50.173 19.0524 49.496 18.3754 49.496 17.5403C49.496 15.8144 48.0969 14.4153 46.371 14.4153C45.5359 14.4153 44.8589 13.7383 44.8589 12.9032Z" fill="url(#paint3_linear_18_56)" />
    <path fill-rule="evenodd" clip-rule="evenodd" d="M52.6606 22.0155C53.2511 21.425 54.2085 21.425 54.7991 22.0155L62.662 29.8784C63.2525 30.4689 63.2525 31.4263 62.662 32.0168C62.0714 32.6073 61.114 32.6073 60.5235 32.0168L52.6606 24.1539C52.0701 23.5634 52.0701 22.606 52.6606 22.0155Z" fill="url(#paint4_linear_18_56)" />
    <defs>
        <linearGradient id="paint0_linear_18_56" x1="50" y1="0" x2="50" y2="100" gradientUnits="userSpaceOnUse">
            <stop stop-color="#8C72A0" />
            <stop offset="1" stop-color="#C2C6D4" />
        </linearGradient>
        <linearGradient id="paint1_linear_18_56" x1="50" y1="0" x2="50" y2="100" gradientUnits="userSpaceOnUse">
            <stop stop-color="#8C72A0" />
            <stop offset="1" stop-color="#C2C6D4" />
        </linearGradient>
        <linearGradient id="paint2_linear_18_56" x1="50" y1="0" x2="50" y2="100" gradientUnits="userSpaceOnUse">
            <stop stop-color="#8C72A0" />
            <stop offset="1" stop-color="#C2C6D4" />
        </linearGradient>
        <linearGradient id="paint3_linear_18_56" x1="50" y1="0" x2="50" y2="100" gradientUnits="userSpaceOnUse">
            <stop stop-color="#8C72A0" />
            <stop offset="1" stop-color="#C2C6D4" />
        </linearGradient>
        <linearGradient id="paint4_linear_18_56" x1="50" y1="0" x2="50" y2="100" gradientUnits="userSpaceOnUse">
            <stop stop-color="#8C72A0" />
            <stop offset="1" stop-color="#C2C6D4" />
        </linearGradient>
    </defs>
</svg>
    