<svg width="78" height="79" viewBox="0 0 78 79" fill="none" xmlns="http://www.w3.org/2000/svg">
<path d="M71.7097 10.5645H54.0968C52.8549 7.58404 50.7586 5.03784 48.072 3.24679C45.3855 1.45574 42.2289 0.5 39 0.5C35.7711 0.5 32.6145 1.45574 29.928 3.24679C27.2414 5.03784 25.1451 7.58404 23.9032 10.5645H6.29032C4.62264 10.5665 3.02383 11.2299 1.8446 12.4091C0.665368 13.5883 0.00199763 15.1872 0 16.8548V59.629C0.00199763 61.2967 0.665368 62.8955 1.8446 64.0748C3.02383 65.254 4.62264 65.9174 6.29032 65.9193H29.9671L29.128 70.9516H28.9355C27.9345 70.9516 26.9745 71.3493 26.2667 72.0571C25.5589 72.7649 25.1613 73.7248 25.1613 74.7258V77.2419C25.1613 77.5756 25.2938 77.8956 25.5298 78.1315C25.7657 78.3675 26.0857 78.5 26.4194 78.5H51.5806C51.9143 78.5 52.2343 78.3675 52.4702 78.1315C52.7062 77.8956 52.8387 77.5756 52.8387 77.2419V74.7258C52.8387 73.7248 52.4411 72.7649 51.7333 72.0571C51.0255 71.3493 50.0655 70.9516 49.0645 70.9516H48.872L48.0329 65.9193H71.7097C73.3774 65.9174 74.9762 65.254 76.1554 64.0748C77.3346 62.8955 77.998 61.2967 78 59.629V16.8548C77.998 15.1872 77.3346 13.5883 76.1554 12.4091C74.9762 11.2299 73.3774 10.5665 71.7097 10.5645ZM71.7097 13.0806C72.7107 13.0806 73.6706 13.4783 74.3784 14.1861C75.0862 14.8939 75.4839 15.8539 75.4839 16.8548V53.3387H72.9677V16.8548C72.9677 16.5212 72.8352 16.2012 72.5993 15.9653C72.3633 15.7293 72.0433 15.5968 71.7097 15.5968H55.2907C55.2258 14.7491 55.0946 13.9078 54.8982 13.0806H71.7097ZM22.7093 18.1129C22.8357 19.8434 23.2388 21.5423 23.9032 23.1452H21.3871C20.0525 23.1452 18.7725 23.6753 17.8288 24.6191C16.885 25.5628 16.3548 26.8428 16.3548 28.1774V45.7903C16.3548 47.125 16.885 48.4049 17.8288 49.3487C18.7725 50.2924 20.0525 50.8226 21.3871 50.8226H56.6129C57.9475 50.8226 59.2275 50.2924 60.1712 49.3487C61.115 48.4049 61.6452 47.125 61.6452 45.7903V28.1774C61.6452 26.8428 61.115 25.5628 60.1712 24.6191C59.2275 23.6753 57.9475 23.1452 56.6129 23.1452H54.0968C54.7625 21.5426 55.1668 19.8436 55.2945 18.1129H70.4516V53.3387H7.54839V18.1129H22.7093ZM52.7595 25.6613H56.6129C57.053 25.6641 57.4845 25.7834 57.8634 26.0073L39 40.4322L20.1366 26.0073C20.5155 25.7834 20.947 25.6641 21.3871 25.6613H25.2405C26.7145 27.9748 28.748 29.8794 31.153 31.1988C33.558 32.5182 36.2568 33.2099 39 33.2099C41.7432 33.2099 44.442 32.5182 46.847 31.1988C49.252 29.8794 51.2855 27.9748 52.7595 25.6613ZM30.9761 37.4645L19.0886 46.8043C18.9455 46.4854 18.8714 46.1399 18.871 45.7903V28.2064L30.9761 37.4645ZM33.0405 39.0421L38.2364 43.015C38.4557 43.1826 38.724 43.2733 39 43.2733C39.276 43.2733 39.5443 43.1826 39.7636 43.015L44.9594 39.0421L56.7387 48.2939C56.6985 48.2939 56.6595 48.3065 56.6129 48.3065H21.3871C21.3456 48.3065 21.3066 48.2964 21.2613 48.2939L33.0405 39.0421ZM59.129 45.7903C59.1285 46.1403 59.0543 46.4862 58.9114 46.8056L47.0239 37.4645L59.129 28.2064V45.7903ZM39 3.01613C41.737 3.01613 44.4126 3.82776 46.6884 5.34837C48.9641 6.86899 50.7379 9.0303 51.7853 11.559C52.8327 14.0877 53.1068 16.8702 52.5728 19.5546C52.0388 22.2391 50.7208 24.7049 48.7854 26.6403C46.8501 28.5757 44.3842 29.8937 41.6998 30.4276C39.0154 30.9616 36.2328 30.6876 33.7042 29.6401C31.1755 28.5927 29.0142 26.819 27.4935 24.5432C25.9729 22.2675 25.1613 19.5919 25.1613 16.8548C25.1656 13.1859 26.625 9.6685 29.2193 7.07417C31.8137 4.47985 35.3311 3.02046 39 3.01613ZM6.29032 13.0806H23.1018C22.9054 13.9078 22.7742 14.7491 22.7093 15.5968H6.29032C5.95666 15.5968 5.63667 15.7293 5.40074 15.9653C5.1648 16.2012 5.03226 16.5212 5.03226 16.8548V53.3387H2.51613V16.8548C2.51613 15.8539 2.91377 14.8939 3.62156 14.1861C4.32936 13.4783 5.28934 13.0806 6.29032 13.0806ZM50.3226 74.7258V75.9839H27.6774V74.7258C27.6774 74.3922 27.81 74.0722 28.0459 73.8362C28.2818 73.6003 28.6018 73.4677 28.9355 73.4677H49.0645C49.3982 73.4677 49.7182 73.6003 49.9541 73.8362C50.19 74.0722 50.3226 74.3922 50.3226 74.7258ZM46.3219 70.9516H31.6781L32.5172 65.9193H45.4828L46.3219 70.9516ZM71.7097 63.4032H6.29032C5.28934 63.4032 4.32936 63.0056 3.62156 62.2978C2.91377 61.59 2.51613 60.63 2.51613 59.629V55.8548H75.4839V59.629C75.4839 60.63 75.0862 61.59 74.3784 62.2978C73.6706 63.0056 72.7107 63.4032 71.7097 63.4032Z" fill="#1C55FF"/>
<path d="M39 62.1452C40.3896 62.1452 41.5161 61.0187 41.5161 59.629C41.5161 58.2394 40.3896 57.1129 39 57.1129C37.6104 57.1129 36.4839 58.2394 36.4839 59.629C36.4839 61.0187 37.6104 62.1452 39 62.1452Z" fill="#1C55FF"/>
<path fill-rule="evenodd" clip-rule="evenodd" d="M36.4839 19.5282C39.6974 19.5282 42.3024 16.9232 42.3024 13.7097C42.3024 10.4962 39.6974 7.89113 36.4839 7.89113C33.2704 7.89113 30.6653 10.4962 30.6653 13.7097C30.6653 16.9232 33.2704 19.5282 36.4839 19.5282ZM36.4839 21.8871C41.0001 21.8871 44.6613 18.2259 44.6613 13.7097C44.6613 9.19341 41.0001 5.53226 36.4839 5.53226C31.9676 5.53226 28.3065 9.19341 28.3065 13.7097C28.3065 18.2259 31.9676 21.8871 36.4839 21.8871Z" fill="#1C55FF"/>
<path fill-rule="evenodd" clip-rule="evenodd" d="M34.9899 10.5645C34.9899 9.91313 35.518 9.38508 36.1694 9.38508C38.8183 9.38508 40.9657 11.5325 40.9657 14.1815C40.9657 14.8328 40.4377 15.3609 39.7863 15.3609C39.1349 15.3609 38.6069 14.8328 38.6069 14.1815C38.6069 12.8353 37.5155 11.744 36.1694 11.744C35.518 11.744 34.9899 11.2159 34.9899 10.5645Z" fill="#1C55FF"/>
<path fill-rule="evenodd" clip-rule="evenodd" d="M41.0753 17.6721C41.5359 17.2115 42.2827 17.2115 42.7433 17.6721L48.8763 23.8051C49.3369 24.2657 49.3369 25.0125 48.8763 25.4731C48.4157 25.9337 47.669 25.9337 47.2084 25.4731L41.0753 19.34C40.6147 18.8794 40.6147 18.1327 41.0753 17.6721Z" fill="#1C55FF"/>
</svg>
