<svg width="30" height="30" viewBox="0 0 30 30" fill="none" xmlns="http://www.w3.org/2000/svg">
<path d="M29.5 15.1246C29.5 13.9081 29.4012 13.0204 29.1876 12.0997H15.2959V17.5906H23.45C23.2857 18.9551 22.3979 21.0101 20.4251 22.391L20.3975 22.5748L24.7898 25.9775L25.0941 26.0079C27.8888 23.4268 29.5 19.6292 29.5 15.1246Z" fill="white"/>
<path d="M15.2958 29.5918C19.2907 29.5918 22.6444 28.2765 25.094 26.0079L20.425 22.391C19.1756 23.2623 17.4987 23.8706 15.2958 23.8706C11.3832 23.8706 8.06233 21.2896 6.87855 17.7222L6.70503 17.7369L2.13785 21.2715L2.07812 21.4375C4.5112 26.2708 9.50894 29.5918 15.2958 29.5918Z" fill="white"/>
<path d="M6.87861 17.7222C6.56626 16.8016 6.38549 15.8151 6.38549 14.7959C6.38549 13.7766 6.56626 12.7902 6.86218 11.8696L6.85391 11.6735L2.22949 8.08215L2.07819 8.15412C1.0754 10.1598 0.5 12.4121 0.5 14.7959C0.5 17.1797 1.0754 19.4319 2.07819 21.4376L6.87861 17.7222Z" fill="white"/>
<path d="M15.2958 5.72104C18.0741 5.72104 19.9482 6.92115 21.0169 7.92405L25.1926 3.84693C22.6281 1.46316 19.2907 0 15.2958 0C9.50894 0 4.5112 3.32083 2.07812 8.15412L6.86211 11.8696C8.06233 8.30214 11.3832 5.72104 15.2958 5.72104Z" fill="white"/>
</svg>
