<svg width="134" height="100" viewBox="0 0 134 100" fill="none" xmlns="http://www.w3.org/2000/svg">
    <path fill-rule="evenodd" clip-rule="evenodd" d="M84.2111 24.7412C84.2111 10.7954 95.4896 1.56345e-08 109.006 1.56345e-08H109.013C109.872 -3.0119e-06 110.883 -6.5956e-06 112.316 0.454779C125.703 2.31355 135.578 14.3759 133.791 27.8701C132.906 36.8271 128.028 44.2285 123.084 51.7296L122.887 52.0298C118.571 58.5791 114.163 65.3216 111.685 73.582L124.897 86.7658C125.518 87.3857 125.518 88.3907 124.897 89.0106C124.276 89.6305 123.269 89.6305 122.648 89.0106L110.762 77.1505C110.694 77.4615 110.629 77.7747 110.567 78.0901C110.422 78.8293 109.776 79.3648 109.021 79.3719C108.266 79.379 107.61 78.8557 107.451 78.1193C107.005 76.0562 106.443 74.0842 105.789 72.1881L90.2317 56.6651L81.934 64.9448L114.35 97.2903C114.971 97.9102 114.971 98.9152 114.35 99.5351C113.729 100.155 112.721 100.155 112.1 99.5351L79.6844 67.1896L49.165 97.6428C48.5438 98.2627 47.5365 98.2627 46.9153 97.6428C46.2941 97.0229 46.2941 96.0179 46.9153 95.398L78.5558 63.8262C78.557 63.8249 78.5583 63.8237 78.5595 63.8224C78.5608 63.8211 78.5621 63.8199 78.5633 63.8186L89.1027 53.3021C89.1041 53.3007 89.1055 53.2993 89.1069 53.2979C89.1083 53.2965 89.1097 53.2951 89.1111 53.2937L93.2314 49.1823C90.9438 45.6088 88.7727 42.035 87.1194 38.3007L80.8092 44.5972C80.188 45.2171 79.1808 45.2171 78.5595 44.5972C77.9383 43.9773 77.9383 42.9723 78.5595 42.3524L85.8467 35.0811C85.0429 32.7568 84.4706 30.357 84.219 27.846C84.2137 27.7935 84.2111 27.7408 84.2111 27.6881V24.7412ZM89.198 35.0028C89.1829 34.9561 89.1655 34.9099 89.1459 34.8645C88.2667 32.5139 87.6516 30.117 87.3926 27.6077V24.7412C87.3926 12.5862 97.2088 3.1746 109.006 3.1746C109.803 3.1746 110.439 3.17587 111.456 3.51413C111.552 3.54581 111.65 3.56842 111.749 3.58166C123.592 5.15735 132.197 15.774 130.633 27.4783C130.631 27.4968 130.629 27.5153 130.627 27.5339C129.828 35.7051 125.338 42.5318 120.228 50.2856C116.104 56.5442 111.643 63.3264 108.96 71.6371C108.943 71.5869 108.926 71.5366 108.909 71.4865C108.913 71.1268 108.795 70.7661 108.555 70.4712C105.757 62.6819 101.549 56.1852 97.6651 50.1886L97.6325 50.1383C97.286 49.6032 96.9426 49.0728 96.6032 48.5463C96.602 48.5443 96.6007 48.5423 96.5994 48.5403C93.5959 43.8797 90.9106 39.5246 89.198 35.0028ZM94.994 51.9132L92.4814 54.4203L102.423 64.3402C100.179 59.9322 97.5622 55.8786 94.994 51.9132ZM109.006 15.804C103.978 15.804 100.049 19.7241 100.049 24.7412C100.049 29.7583 103.978 33.6784 109.006 33.6784C114.034 33.6784 117.963 29.7583 117.963 24.7412C117.963 19.7241 114.034 15.804 109.006 15.804ZM96.8679 24.7412C96.8679 17.9708 102.221 12.6294 109.006 12.6294C115.791 12.6294 121.144 17.9708 121.144 24.7412C121.144 31.5116 115.791 36.853 109.006 36.853C102.221 36.853 96.8679 31.5116 96.8679 24.7412Z" fill="url(#paint0_linear_44_6)"/>
    <path fill-rule="evenodd" clip-rule="evenodd" d="M33.5837 16.3216C33.5837 12.0771 37.2492 8.4196 41.5029 8.4196H91.2865C92.165 8.4196 92.8772 9.13026 92.8772 10.0069C92.8772 10.8835 92.165 11.5942 91.2865 11.5942H41.5029C39.0063 11.5942 36.7652 13.8304 36.7652 16.3216V19.7081C36.7652 20.5848 36.053 21.2954 35.1745 21.2954C34.2959 21.2954 33.5837 20.5848 33.5837 19.7081V16.3216ZM123.772 45.8868C124.651 45.8868 125.363 46.5975 125.363 47.4741V92.098C125.363 96.3425 121.698 100 117.444 100H41.5029C37.2492 100 33.5837 96.3425 33.5837 92.098C33.5837 91.2214 34.2959 90.5107 35.1745 90.5107C36.053 90.5107 36.7652 91.2214 36.7652 92.098C36.7652 94.5892 39.0063 96.8254 41.5029 96.8254H117.444C119.941 96.8254 122.182 94.5892 122.182 92.098V47.4741C122.182 46.5975 122.894 45.8868 123.772 45.8868Z" fill="url(#paint1_linear_44_6)"/>
    <path fill-rule="evenodd" clip-rule="evenodd" d="M62.3963 18.8424C65.7498 14.2826 72.3514 13.5234 76.8567 16.7636C77.5695 17.2762 77.7308 18.2682 77.2171 18.9794C76.7034 19.6906 75.7092 19.8516 74.9965 19.339C71.8032 17.0424 67.2067 17.6674 64.9612 20.7207C62.6505 23.8626 63.2722 28.3859 66.3586 30.6056C69.5519 32.9022 74.1484 32.2771 76.3938 29.2239C76.3985 29.2176 76.4031 29.2114 76.4078 29.2052C76.9462 28.4953 77.38 27.5272 77.6227 26.5596H72.4272C71.5487 26.5596 70.8365 25.8489 70.8365 24.9723C70.8365 24.0957 71.5487 23.385 72.4272 23.385H79.426C80.3045 23.385 81.0167 24.0957 81.0167 24.9723C81.0167 27.0456 80.206 29.4528 78.9519 31.1115C75.5962 35.6631 69.0006 36.4189 64.4983 33.181C59.886 29.8639 59.108 23.3136 62.3963 18.8424Z" fill="url(#paint2_linear_44_6)"/>
    <path d="M43.0785 90.9457L81.8839 52.7354C82.3905 52.2045 82.4005 51.3732 81.9067 50.8303L69.5726 38.3574C66.045 34.8155 61.6535 32.2525 56.8307 30.9194C52.008 29.5869 46.9203 29.5309 42.0696 30.7578C41.9919 29.2291 41.4064 27.7693 40.4051 26.61C39.4281 25.598 38.0956 25.0033 36.6884 24.9512C35.8333 24.9356 34.9804 25.0482 34.1584 25.2848C31.5786 25.8019 24.4732 26.1292 19.4768 15.7449L19.4775 15.7449C18.4528 12.4324 15.7728 9.89172 12.4043 9.04068C9.03585 8.19024 5.46676 9.15254 2.98631 11.5797C0.505394 14.0074 -0.527714 17.5495 0.258918 20.9266C1.04627 24.303 3.53935 27.0266 6.83893 28.1132C17.1935 33.213 16.8059 40.298 16.2579 42.8784C15.9911 43.7348 15.864 44.6274 15.8805 45.524C15.9351 46.9002 16.5144 48.2045 17.5005 49.1687C18.6372 50.1774 20.0796 50.7766 21.5977 50.8716C20.8464 53.618 20.5081 56.4605 20.5934 59.3069C20.8204 66.489 23.7648 73.3197 28.8345 78.4239L41.1548 90.8973L41.1542 90.8973C41.4092 91.1479 41.7497 91.2926 42.1077 91.3004C42.4646 91.3102 42.812 91.1839 43.0788 90.9471L43.0785 90.9457ZM2.71097 18.9452C2.6291 16.979 3.35344 15.0644 4.7165 13.6424C6.08024 12.2204 7.96514 11.4136 9.93745 11.4083C11.9098 11.4029 13.799 12.1991 15.1701 13.6141C16.4325 14.9238 17.1763 16.6468 17.2638 18.462C17.3252 20.4326 16.5813 22.3429 15.2035 23.7553C13.8257 25.1677 11.9308 25.961 9.95564 25.9522C8.66826 25.9205 7.40971 25.561 6.30085 24.9078C5.77995 24.592 5.29663 24.2174 4.86116 23.7919C3.55814 22.5041 2.79025 20.7734 2.71097 18.9452ZM18.6325 44.6777C18.6203 44.2998 18.7902 43.9161 18.8625 43.5361C19.4447 40.7164 19.8143 33.9257 12.3632 28.3403L12.3626 28.3404C14.101 27.9229 15.6941 27.0444 16.9733 25.797C18.2525 24.5504 19.1698 22.9816 19.6283 21.2574C24.9004 28.4536 31.3576 28.4836 34.4017 28.007C35.2043 27.7723 36.0413 27.6741 36.8767 27.7171C37.4875 27.7906 38.0554 28.0686 38.4881 28.5055C39.1924 29.4356 39.5343 30.5893 39.4491 31.7519L22.6095 48.2745C21.4452 48.3308 20.2988 47.9708 19.3766 47.2584C18.9539 46.8406 18.6886 46.2902 18.6244 45.7002C18.5777 45.361 18.5809 45.0164 18.6332 44.6777L18.6325 44.6777ZM30.7513 76.4981C27.3974 73.0818 25.0559 68.8065 23.9856 64.1444C22.916 59.4828 23.1588 54.6165 24.6887 50.0843L41.0883 33.8416C45.6795 32.3593 50.5922 32.1777 55.2809 33.3176C59.9688 34.4568 64.2484 36.8729 67.6418 40.2958L79.0187 51.8049L42.1439 88.0626L30.7513 76.4981Z" fill="url(#paint3_linear_44_6)"/>
    <path d="M31.1887 34.1331C31.5729 33.9213 31.8356 33.5408 31.898 33.1067C31.9597 32.6727 31.8146 32.2348 31.5056 31.9233C31.196 31.612 30.7582 31.4629 30.3228 31.5213C29.8873 31.5798 29.5041 31.8385 29.2877 32.22L23.2216 38.1858C22.9571 38.4538 22.8122 38.8167 22.8187 39.1929C22.8737 39.7094 23.2095 40.1531 23.6926 40.3458C24.1757 40.539 24.726 40.4493 25.1224 40.1133L31.1887 34.1331Z" fill="url(#paint4_linear_44_6)"/>
    <path d="M24.4031 31.7895C24.9097 31.2586 24.9197 30.4273 24.4259 29.8844C23.8875 29.3747 23.0453 29.3712 22.5028 29.8764L20.9639 31.3265C20.4737 31.8813 20.5009 32.7207 21.026 33.2433C21.5228 33.7062 22.2817 33.7467 22.8254 33.339L24.4031 31.7895Z" fill="url(#paint5_linear_44_6)"/>
    <path d="M14.1643 18.563C14.1282 17.45 13.6505 16.3962 12.8363 15.6348C12.0215 14.8733 10.9374 14.4657 9.82217 14.5016C8.70678 14.5376 7.6507 15.0143 6.88767 15.8267C6.12465 16.6391 5.71595 17.7215 5.75201 18.8343C5.78806 19.9471 6.26581 21.0011 7.07997 21.7624C7.89413 22.5238 8.97886 22.9316 10.0941 22.8957C11.2095 22.8597 12.2649 22.383 13.0286 21.5706C13.7918 20.7582 14.2003 19.6758 14.1643 18.563ZM8.44398 18.7475C8.42413 18.1348 8.77681 17.5714 9.33636 17.3201C9.89653 17.0688 10.553 17.1796 10.999 17.6003C11.445 18.0217 11.5926 18.6697 11.3718 19.2414C11.1516 19.8136 10.6069 20.1957 9.9927 20.2099C9.59274 20.2228 9.20389 20.0759 8.91302 19.8008C8.62218 19.5264 8.45316 19.1473 8.44398 18.7475Z" fill="url(#paint6_linear_44_6)"/>
    <defs>
    <linearGradient id="paint0_linear_44_6" x1="67" y1="0" x2="67" y2="100" gradientUnits="userSpaceOnUse">
    <stop stop-color="#8C72A0"/>
    <stop offset="1" stop-color="#C2C6D4"/>
    </linearGradient>
    <linearGradient id="paint1_linear_44_6" x1="67" y1="0" x2="67" y2="100" gradientUnits="userSpaceOnUse">
    <stop stop-color="#8C72A0"/>
    <stop offset="1" stop-color="#C2C6D4"/>
    </linearGradient>
    <linearGradient id="paint2_linear_44_6" x1="67" y1="0" x2="67" y2="100" gradientUnits="userSpaceOnUse">
    <stop stop-color="#8C72A0"/>
    <stop offset="1" stop-color="#C2C6D4"/>
    </linearGradient>
    <linearGradient id="paint3_linear_44_6" x1="67" y1="0" x2="67" y2="100" gradientUnits="userSpaceOnUse">
    <stop stop-color="#8C72A0"/>
    <stop offset="1" stop-color="#C2C6D4"/>
    </linearGradient>
    <linearGradient id="paint4_linear_44_6" x1="67" y1="0" x2="67" y2="100" gradientUnits="userSpaceOnUse">
    <stop stop-color="#8C72A0"/>
    <stop offset="1" stop-color="#C2C6D4"/>
    </linearGradient>
    <linearGradient id="paint5_linear_44_6" x1="67" y1="0" x2="67" y2="100" gradientUnits="userSpaceOnUse">
    <stop stop-color="#8C72A0"/>
    <stop offset="1" stop-color="#C2C6D4"/>
    </linearGradient>
    <linearGradient id="paint6_linear_44_6" x1="67" y1="0" x2="67" y2="100" gradientUnits="userSpaceOnUse">
    <stop stop-color="#8C72A0"/>
    <stop offset="1" stop-color="#C2C6D4"/>
    </linearGradient>
    </defs>
    </svg>
    