<svg width="135" height="101" viewBox="0 0 135 101" fill="none" xmlns="http://www.w3.org/2000/svg">
<path fill-rule="evenodd" clip-rule="evenodd" d="M84.2909 25.2412C84.2909 11.2954 95.5801 0.5 109.109 0.5H109.116C109.977 0.499997 110.988 0.499993 112.422 0.954779C125.822 2.81355 135.707 14.8759 133.918 28.3701C133.032 37.3271 128.15 44.7285 123.201 52.2296L123.003 52.5298C118.683 59.0791 114.271 65.8216 111.791 74.082L125.016 87.2658C125.637 87.8857 125.637 88.8907 125.016 89.5106C124.394 90.1305 123.386 90.1305 122.764 89.5106L110.867 77.6505C110.799 77.9615 110.734 78.2747 110.672 78.5901C110.526 79.3293 109.88 79.8648 109.124 79.8719C108.369 79.879 107.712 79.3557 107.553 78.6193C107.106 76.5562 106.544 74.5842 105.889 72.6881L90.3173 57.1651L82.0117 65.4448L114.458 97.7903C115.08 98.4102 115.08 99.4152 114.458 100.035C113.836 100.655 112.828 100.655 112.206 100.035L79.7599 67.6896L49.2116 98.1428C48.5898 98.7627 47.5816 98.7627 46.9598 98.1428C46.338 97.5229 46.338 96.5179 46.9598 95.898L78.6302 64.3262C78.6315 64.3249 78.6327 64.3237 78.634 64.3224C78.6353 64.3211 78.6365 64.3199 78.6378 64.3186L89.1872 53.8021C89.1886 53.8007 89.19 53.7993 89.1914 53.7979C89.1928 53.7965 89.1942 53.7951 89.1956 53.7937L93.3198 49.6823C91.03 46.1088 88.8568 42.535 87.2019 38.8007L80.8858 45.0972C80.264 45.7171 79.2558 45.7171 78.634 45.0972C78.0122 44.4773 78.0122 43.4723 78.634 42.8524L85.9281 35.581C85.1235 33.2568 84.5507 30.857 84.2988 28.346C84.2935 28.2935 84.2909 28.2408 84.2909 28.1881V25.2412ZM89.2825 35.5028C89.2674 35.4561 89.25 35.4099 89.2304 35.3645C88.3503 33.0139 87.7347 30.617 87.4754 28.1077V25.2412C87.4754 13.0862 97.3009 3.6746 109.109 3.6746C109.907 3.6746 110.544 3.67587 111.562 4.01413C111.657 4.04581 111.755 4.06842 111.855 4.08166C123.71 5.65735 132.323 16.274 130.757 27.9783C130.755 27.9968 130.753 28.0153 130.751 28.0339C129.951 36.2051 125.457 43.0318 120.342 50.7856C116.214 57.0442 111.749 63.8264 109.063 72.1371C109.046 72.0869 109.029 72.0366 109.012 71.9865C109.016 71.6268 108.898 71.2661 108.658 70.9712C105.857 63.1819 101.645 56.6852 97.7576 50.6886L97.725 50.6383C97.3782 50.1032 97.0345 49.5728 96.6948 49.0463C96.6935 49.0443 96.6922 49.0423 96.6909 49.0403C93.6846 44.3797 90.9967 40.0246 89.2825 35.5028ZM95.084 52.4132L92.569 54.9203L102.52 64.8402C100.274 60.4322 97.6546 56.3786 95.084 52.4132ZM109.109 16.304C104.077 16.304 100.144 20.2241 100.144 25.2412C100.144 30.2583 104.077 34.1784 109.109 34.1784C114.142 34.1784 118.074 30.2583 118.074 25.2412C118.074 20.2241 114.142 16.304 109.109 16.304ZM96.9597 25.2412C96.9597 18.4708 102.318 13.1294 109.109 13.1294C115.901 13.1294 121.259 18.4708 121.259 25.2412C121.259 32.0116 115.901 37.353 109.109 37.353C102.318 37.353 96.9597 32.0116 96.9597 25.2412Z" fill="url(#paint0_linear_18_99)"/>
<path fill-rule="evenodd" clip-rule="evenodd" d="M33.6156 16.8216C33.6156 12.5771 37.2845 8.9196 41.5422 8.9196H91.373C92.2524 8.9196 92.9652 9.63026 92.9652 10.5069C92.9652 11.3835 92.2524 12.0942 91.373 12.0942H41.5422C39.0433 12.0942 36.8001 14.3304 36.8001 16.8216V20.2081C36.8001 21.0848 36.0872 21.7954 35.2078 21.7954C34.3284 21.7954 33.6156 21.0848 33.6156 20.2081V16.8216ZM123.89 46.3868C124.769 46.3868 125.482 47.0975 125.482 47.9741V92.598C125.482 96.8425 121.813 100.5 117.555 100.5H41.5422C37.2845 100.5 33.6156 96.8425 33.6156 92.598C33.6156 91.7214 34.3284 91.0107 35.2078 91.0107C36.0872 91.0107 36.8001 91.7214 36.8001 92.598C36.8001 95.0892 39.0433 97.3254 41.5422 97.3254H117.555C120.054 97.3254 122.297 95.0892 122.297 92.598V47.9741C122.297 47.0975 123.01 46.3868 123.89 46.3868Z" fill="url(#paint1_linear_18_99)"/>
<path fill-rule="evenodd" clip-rule="evenodd" d="M62.4554 19.3424C65.8122 14.7826 72.42 14.0234 76.9296 17.2636C77.643 17.7762 77.8045 18.7682 77.2903 19.4794C76.7761 20.1906 75.781 20.3516 75.0676 19.839C71.8712 17.5424 67.2704 18.1674 65.0228 21.2207C62.7099 24.3626 63.3322 28.8859 66.4215 31.1056C69.6178 33.4022 74.2186 32.7771 76.4662 29.7239C76.4709 29.7176 76.4755 29.7114 76.4803 29.7052C77.0191 28.9953 77.4534 28.0272 77.6962 27.0596H72.4959C71.6165 27.0596 70.9036 26.3489 70.9036 25.4723C70.9036 24.5957 71.6165 23.885 72.4959 23.885H79.5013C80.3806 23.885 81.0935 24.5957 81.0935 25.4723C81.0935 27.5456 80.282 29.9528 79.0267 31.6115C75.6679 36.1631 69.066 36.9189 64.5595 33.681C59.9428 30.3639 59.164 23.8136 62.4554 19.3424Z" fill="url(#paint2_linear_18_99)"/>
<path d="M43.1193 91.4457L81.9615 53.2354C82.4686 52.7045 82.4786 51.8732 81.9844 51.3303L69.6386 38.8574C66.1076 35.3155 61.7119 32.7525 56.8846 31.4194C52.0573 30.0869 46.9647 30.0309 42.1095 31.2578C42.0317 29.7291 41.4456 28.2693 40.4434 27.11C39.4655 26.098 38.1317 25.5033 36.7232 25.4512C35.8672 25.4356 35.0135 25.5482 34.1908 25.7848C31.6085 26.3019 24.4964 26.6292 19.4953 16.2449L19.4959 16.2449C18.4703 12.9324 15.7877 10.3917 12.416 9.54068C9.04441 8.69024 5.47195 9.65254 2.98914 12.0797C0.505873 14.5074 -0.528214 18.0495 0.259163 21.4266C1.04726 24.803 3.5427 27.5266 6.84541 28.6132C17.2098 33.713 16.8219 40.798 16.2733 43.3784C16.0063 44.2348 15.879 45.1274 15.8956 46.024C15.9502 47.4002 16.53 48.7045 17.5171 49.6687C18.6549 50.6774 20.0986 51.2766 21.6182 51.3716C20.8662 54.118 20.5275 56.9605 20.6129 59.8069C20.8402 66.989 23.7873 73.8197 28.8618 78.9239L41.1938 91.3973L41.1932 91.3973C41.4484 91.6479 41.7893 91.7926 42.1477 91.8004C42.5048 91.8102 42.8526 91.6839 43.1196 91.4471L43.1193 91.4457ZM2.71354 19.4452C2.63159 17.479 3.35661 15.5644 4.72097 14.1424C6.086 12.7204 7.97269 11.9136 9.94687 11.9083C11.9211 11.9029 13.812 12.6991 15.1844 14.1141C16.448 15.4238 17.1926 17.1468 17.2802 18.962C17.3416 20.9326 16.597 22.8429 15.2179 24.2553C13.8388 25.6677 11.9421 26.461 9.96508 26.4522C8.67647 26.4205 7.41673 26.061 6.30682 25.4078C5.78543 25.092 5.30165 24.7174 4.86577 24.2919C3.56151 23.0041 2.79289 21.2734 2.71354 19.4452ZM18.6502 45.1777C18.6379 44.7998 18.808 44.4161 18.8803 44.0361C19.4631 41.2164 19.8331 34.4257 12.3749 28.8403L12.3743 28.8404C14.1144 28.4229 15.7089 27.5444 16.9894 26.297C18.2698 25.0504 19.1879 23.4816 19.6469 21.7574C24.924 28.9536 31.3873 28.9836 34.4343 28.507C35.2376 28.2723 36.0755 28.1741 36.9116 28.2171C37.523 28.2906 38.0914 28.5686 38.5245 29.0055C39.2295 29.9356 39.5718 31.0893 39.4865 32.2519L22.6309 48.7745C21.4655 48.8308 20.318 48.4708 19.395 47.7584C18.9719 47.3406 18.7063 46.7902 18.642 46.2002C18.5953 45.861 18.5985 45.5164 18.6509 45.1777L18.6502 45.1777ZM30.7805 76.9981C27.4234 73.5818 25.0797 69.3065 24.0084 64.6444C22.9378 59.9828 23.1807 55.1165 24.7121 50.5843L41.1272 34.3416C45.7228 32.8593 50.6402 32.6777 55.3333 33.8176C60.0257 34.9568 64.3093 37.3729 67.7059 40.7958L79.0936 52.3049L42.1838 88.5626L30.7805 76.9981Z" fill="url(#paint3_linear_18_99)"/>
<path d="M31.2183 34.6331C31.6028 34.4213 31.8658 34.0408 31.9282 33.6067C31.99 33.1727 31.8447 32.7348 31.5355 32.4233C31.2256 32.112 30.7874 31.9629 30.3515 32.0213C29.9156 32.0798 29.5321 32.3385 29.3155 32.72L23.2436 38.6858C22.9788 38.9538 22.8338 39.3167 22.8404 39.6929C22.8954 40.2094 23.2315 40.6531 23.715 40.8458C24.1986 41.039 24.7494 40.9493 25.1462 40.6133L31.2183 34.6331Z" fill="url(#paint4_linear_18_99)"/>
<path d="M24.4262 32.2895C24.9333 31.7586 24.9434 30.9273 24.4491 30.3844C23.9101 29.8747 23.0671 29.8712 22.5241 30.3764L20.9837 31.8265C20.4931 32.3813 20.5203 33.2207 21.0459 33.7433C21.5432 34.2062 22.3028 34.2467 22.8471 33.839L24.4262 32.2895Z" fill="url(#paint5_linear_18_99)"/>
<path d="M14.1777 19.063C14.1416 17.95 13.6634 16.8962 12.8485 16.1348C12.0329 15.3733 10.9478 14.9657 9.83147 15.0016C8.71503 15.0376 7.65795 15.5143 6.8942 16.3267C6.13045 17.1391 5.72137 18.2215 5.75746 19.3343C5.79354 20.4471 6.27175 21.5011 7.08668 22.2625C7.90161 23.0238 8.98737 23.4316 10.1037 23.3957C11.2201 23.3597 12.2765 22.883 13.0409 22.0706C13.8048 21.2582 14.2138 20.1758 14.1777 19.063ZM8.45198 19.2475C8.43211 18.6348 8.78513 18.0714 9.3452 17.8201C9.90591 17.5688 10.563 17.6796 11.0095 18.1003C11.4559 18.5217 11.6036 19.1697 11.3825 19.7414C11.1621 20.3136 10.617 20.6957 10.0022 20.7099C9.60183 20.7228 9.21262 20.5759 8.92147 20.3008C8.63035 20.0264 8.46117 19.6473 8.45198 19.2475Z" fill="url(#paint6_linear_18_99)"/>
<defs>
<linearGradient id="paint0_linear_18_99" x1="67.0635" y1="0.5" x2="67.0635" y2="100.5" gradientUnits="userSpaceOnUse">
<stop stop-color="#9D19FF"/>
<stop offset="1" stop-color="#7D9EFF"/>
</linearGradient>
<linearGradient id="paint1_linear_18_99" x1="67.0635" y1="0.5" x2="67.0635" y2="100.5" gradientUnits="userSpaceOnUse">
<stop stop-color="#9D19FF"/>
<stop offset="1" stop-color="#7D9EFF"/>
</linearGradient>
<linearGradient id="paint2_linear_18_99" x1="67.0635" y1="0.5" x2="67.0635" y2="100.5" gradientUnits="userSpaceOnUse">
<stop stop-color="#9D19FF"/>
<stop offset="1" stop-color="#7D9EFF"/>
</linearGradient>
<linearGradient id="paint3_linear_18_99" x1="67.0635" y1="0.5" x2="67.0635" y2="100.5" gradientUnits="userSpaceOnUse">
<stop stop-color="#9D19FF"/>
<stop offset="1" stop-color="#7D9EFF"/>
</linearGradient>
<linearGradient id="paint4_linear_18_99" x1="67.0635" y1="0.5" x2="67.0635" y2="100.5" gradientUnits="userSpaceOnUse">
<stop stop-color="#9D19FF"/>
<stop offset="1" stop-color="#7D9EFF"/>
</linearGradient>
<linearGradient id="paint5_linear_18_99" x1="67.0635" y1="0.5" x2="67.0635" y2="100.5" gradientUnits="userSpaceOnUse">
<stop stop-color="#9D19FF"/>
<stop offset="1" stop-color="#7D9EFF"/>
</linearGradient>
<linearGradient id="paint6_linear_18_99" x1="67.0635" y1="0.5" x2="67.0635" y2="100.5" gradientUnits="userSpaceOnUse">
<stop stop-color="#9D19FF"/>
<stop offset="1" stop-color="#7D9EFF"/>
</linearGradient>
</defs>
</svg>
