<svg width="31" height="31" viewBox="0 0 31 31" fill="none" xmlns="http://www.w3.org/2000/svg">
    <path fill-rule="evenodd" clip-rule="evenodd" d="M17.5313 0.781577C16.2267 -0.260527 14.3745 -0.260525 13.0699 0.781578L1.85044 9.74389C-0.781443 11.8463 0.69146 16.0821 4.04738 16.1103C4.00572 16.3286 3.98395 16.5538 3.98395 16.7838V27.3139C3.98395 29.2878 5.58411 30.888 7.55801 30.888H23.1319C25.1058 30.888 26.706 29.2878 26.706 27.3139V16.7838C26.706 16.5532 26.6841 16.3274 26.6422 16.1086C29.9354 16.0075 31.3594 11.8277 28.7508 9.74389L17.5313 0.781577ZM4.43108 15.8104C4.40058 15.9085 4.37456 16.0086 4.35327 16.1104C4.30784 16.3278 4.28395 16.553 4.28395 16.7838V27.3139C4.28395 29.0992 5.71286 30.5507 7.4894 30.5873C5.71295 30.5506 4.28414 29.0991 4.28414 27.3139V16.7838C4.28414 16.4449 4.33565 16.1179 4.43127 15.8104L4.43108 15.8104ZM15.3558 0.300463C14.6146 0.288058 13.87 0.526563 13.2573 1.01598L2.03787 9.97829C-0.343318 11.8804 0.943411 15.6889 3.93727 15.8076C0.943277 15.689 -0.343556 11.8805 2.03768 9.97829L13.2572 1.01597C13.8699 0.526518 14.6145 0.288015 15.3558 0.300463ZM14.8803 3.04794C15.1261 2.85161 15.4751 2.85161 15.7209 3.04794L26.9403 12.0103C27.4379 12.4077 27.1568 13.2097 26.5201 13.2097H4.08113C3.44436 13.2097 3.16334 12.4077 3.66085 12.0103L14.8803 3.04794ZM6.88464 27.3139V16.7838C6.88464 16.4119 7.18612 16.1105 7.55801 16.1105H23.1319C23.5038 16.1105 23.8053 16.4119 23.8053 16.7838V27.3139C23.8053 27.6858 23.5038 27.9873 23.1319 27.9873H20.2463V23.4204C20.2463 21.4465 18.6462 19.8464 16.6723 19.8464H13.7522C11.7783 19.8464 10.1781 21.4465 10.1781 23.4204V27.9873H7.55801C7.18612 27.9873 6.88464 27.6858 6.88464 27.3139ZM24.1053 16.7838V27.3139C24.1053 27.8515 23.6695 28.2873 23.1319 28.2873L19.9465 28.2873H23.1321C23.6697 28.2873 24.1055 27.8515 24.1055 27.3139V16.7838C24.1055 16.2515 23.6781 15.8189 23.1477 15.8106C23.678 15.819 24.1053 16.2515 24.1053 16.7838ZM7.55801 28.2873C7.55069 28.2873 7.54339 28.2872 7.53611 28.287C7.54345 28.2872 7.55082 28.2873 7.5582 28.2873H10.4783V23.4204C10.4783 21.6122 11.9441 20.1464 13.7524 20.1464H16.6725C16.6725 20.1464 16.6725 20.1464 16.6725 20.1464C16.6724 20.1464 16.6723 20.1464 16.6723 20.1464H13.7522C11.944 20.1464 10.4781 21.6122 10.4781 23.4204V28.2873H7.55801ZM17.3457 23.4204V27.9873H13.0788V23.4204C13.0788 23.0485 13.3803 22.7471 13.7522 22.7471H16.6723C17.0442 22.7471 17.3457 23.0485 17.3457 23.4204ZM12.779 28.2873H17.6458V23.4204C17.6458 22.8902 17.2218 22.459 16.6944 22.4473C17.2217 22.4591 17.6457 22.8902 17.6457 23.4204V28.2873L12.779 28.2873ZM15.3183 2.60085C15.5273 2.60464 15.7354 2.67554 15.9081 2.81355L27.1276 11.7759C27.8468 12.3503 27.4405 13.5097 26.5201 13.5097H4.08113C4.08119 13.5097 4.08125 13.5097 4.08131 13.5097H26.5203C27.4407 13.5097 27.8469 12.3503 27.1278 11.7759L15.9083 2.81355C15.7355 2.6755 15.5274 2.60461 15.3183 2.60085Z" fill="white" />
</svg>
    