<svg width="69" height="95" viewBox="0 0 69 95" fill="none" xmlns="http://www.w3.org/2000/svg">
    <path opacity="0.3"
        d="M31.8231 61.8819C29.0617 61.8819 26.7408 59.617 27.3053 56.9139C27.5421 55.7797 27.8662 54.7089 28.2775 53.7014C29.3352 51.3264 30.6133 49.2153 32.1117 47.3681C33.6983 45.5208 35.3731 43.8056 37.1359 42.2222C38.8988 40.6389 40.5295 39.1435 42.0279 37.7361C43.6145 36.2407 44.8926 34.7014 45.8622 33.1181C46.9199 31.5347 47.4488 29.7755 47.4488 27.8403C47.4488 24.6736 46.1266 22.1227 43.4823 20.1875C40.9261 18.2523 37.4885 17.2847 33.1695 17.2847C29.0267 17.2847 25.3246 18.1643 22.0633 19.9236C20.1864 20.8855 18.4992 22.0804 17.0018 23.5084C15.1048 25.3174 12.2466 26.023 9.98461 24.6984L2.54326 20.341C0.0729146 18.8944 -0.702696 15.6437 1.20963 13.5134C4.31222 10.0572 8.13433 7.18002 12.676 4.88194C18.9342 1.62732 26.5146 0 35.4171 0C42.0279 0 47.8454 0.967591 52.8696 2.90277C57.8939 4.75 61.8163 7.47685 64.6369 11.0833C67.5456 14.6898 69 19.1319 69 24.4097C69 27.8403 68.4711 30.875 67.4134 33.5139C66.3557 36.1528 64.9894 38.4398 63.3147 40.375C61.64 42.3102 59.833 44.1134 57.8939 45.7847C56.0428 47.456 54.2799 49.0833 52.6052 50.6667C50.9305 52.25 49.5202 53.9213 48.3743 55.6806C48.1204 56.1028 47.897 56.5428 47.7041 57.0005C46.6315 59.5451 44.5491 61.8819 41.7877 61.8819H31.8231ZM36.8715 95C33.1695 95 30.1285 93.8125 27.7486 91.4375C25.3687 89.0625 24.1788 86.2477 24.1788 82.993C24.1788 79.6505 25.3687 76.8796 27.7486 74.6805C30.1285 72.3935 33.1695 71.25 36.8715 71.25C40.6617 71.25 43.7027 72.3935 45.9944 74.6805C48.3743 76.8796 49.5642 79.6505 49.5642 82.993C49.5642 86.2477 48.3743 89.0625 45.9944 91.4375C43.7027 93.8125 40.6617 95 36.8715 95Z"
        fill="#5781FF" />
</svg>