<svg width="64" height="64" viewBox="0 0 64 64" fill="none" xmlns="http://www.w3.org/2000/svg">
<path d="M64 32C64 49.6731 49.6731 64 32 64C14.3269 64 0 49.6731 0 32C0 14.3269 14.3269 0 32 0C49.6731 0 64 14.3269 64 32Z" fill="white"/>
<path fill-rule="evenodd" clip-rule="evenodd" d="M34.5147 21.3934L44.0607 30.9394C44.6464 31.5251 44.6464 32.4749 44.0607 33.0607L34.5147 42.6066C33.9289 43.1924 32.9792 43.1924 32.3934 42.6066C31.8076 42.0208 31.8076 41.0711 32.3934 40.4853L39.3787 33.5H21C20.1716 33.5 19.5 32.8284 19.5 32C19.5 31.1716 20.1716 30.5 21 30.5H39.3787L32.3934 23.5147C31.8076 22.9289 31.8076 21.9792 32.3934 21.3934C32.9792 20.8076 33.9289 20.8076 34.5147 21.3934Z" fill="#9D1AFF"/>
</svg>
