<svg width="72" height="79" viewBox="0 0 72 79" fill="none" xmlns="http://www.w3.org/2000/svg">
<path d="M6.72614 45.3431C2.9595 45.3431 0 42.3906 0 38.6328C0 34.875 2.9595 31.9225 6.72614 31.9225C10.4928 31.9225 13.4523 34.875 13.4523 38.6328C13.4523 42.3906 10.4928 45.3431 6.72614 45.3431ZM6.72614 34.6066C4.43925 34.6066 2.69046 36.3513 2.69046 38.6328C2.69046 40.9143 4.43925 42.659 6.72614 42.659C9.01303 42.659 10.7618 40.9143 10.7618 38.6328C10.7618 36.3513 9.01303 34.6066 6.72614 34.6066ZM6.72614 60.9111C2.9595 60.9111 0 57.9586 0 54.2008C0 50.443 2.9595 47.4904 6.72614 47.4904C10.4928 47.4904 13.4523 50.443 13.4523 54.2008C13.4523 57.9586 10.4928 60.9111 6.72614 60.9111ZM6.72614 50.1746C4.43925 50.1746 2.69046 51.9193 2.69046 54.2008C2.69046 56.4823 4.43925 58.227 6.72614 58.227C9.01303 58.227 10.7618 56.4823 10.7618 54.2008C10.7618 51.9193 9.01303 50.1746 6.72614 50.1746ZM49.5726 48.5641C48.4964 46.0142 46.7476 43.8669 44.3262 42.2564C43.25 41.5853 42.8464 40.1091 43.3845 38.9012C44.1917 37.2907 44.4607 35.2776 44.1917 33.2645C43.519 29.2383 40.156 26.0174 36.1203 25.6148C30.0667 24.9437 25.2239 29.641 25.493 35.546C25.762 39.438 28.4525 42.7932 32.2191 43.8669C34.9096 44.6721 37.6 44.1353 39.6179 42.9274C43.25 44.4037 45.6714 46.6852 46.8821 49.6377C48.6309 53.6639 47.9583 58.4954 47.1512 61.3137C46.8821 62.5216 45.8059 63.3268 44.5952 63.3268H25.0894C24.0132 63.3268 22.937 62.6558 22.5335 61.5821C19.4394 52.5903 25.3584 46.4168 25.6275 46.1484C26.1656 45.6115 26.1656 44.8063 25.6275 44.2695C25.0894 43.7327 24.2823 43.7327 23.7442 44.2695C23.7442 44.4037 15.1347 53.2613 21.1882 65.3399C21.4573 65.8767 21.8608 66.1452 22.3989 66.1452H47.6892C48.2273 66.1452 48.6309 65.7425 48.7654 65.2057C48.9 64.8031 52.8011 56.0797 49.5726 48.5641ZM28.1834 34.3382C28.4525 31.6541 30.2013 29.3725 32.7572 28.5673C37.4655 27.091 42.1738 30.8488 41.6357 35.6803C41.2322 38.9012 38.5417 41.4511 35.3131 41.5853C31.1429 41.7196 27.9144 38.4986 28.1834 34.3382Z" fill="#1C55FF"/>
<path fill-rule="evenodd" clip-rule="evenodd" d="M15.1496 14.213C11.0263 14.213 7.68373 17.5473 7.68373 21.6603V28.2671C7.68373 29.0897 7.01522 29.7566 6.19056 29.7566C5.3659 29.7566 4.69738 29.0897 4.69738 28.2671V21.6603C4.69738 15.9021 9.37701 11.2341 15.1496 11.2341H38.2632C39.0879 11.2341 39.7564 11.901 39.7564 12.7236C39.7564 13.5462 39.0879 14.213 38.2632 14.213H15.1496ZM60.1997 33.3422C61.0243 33.3422 61.6929 34.0091 61.6929 34.8317V68.0739C61.6929 73.8321 57.0132 78.5 51.2406 78.5H15.1496C9.37701 78.5 4.69738 73.8321 4.69738 68.0739V63.5043C4.69738 62.6817 5.3659 62.0148 6.19056 62.0148C7.01522 62.0148 7.68373 62.6817 7.68373 63.5043V68.0739C7.68373 72.1869 11.0263 75.5211 15.1496 75.5211H51.2406C55.3639 75.5211 58.7065 72.1869 58.7065 68.0739V34.8317C58.7065 34.0091 59.375 33.3422 60.1997 33.3422Z" fill="#1C55FF"/>
<path fill-rule="evenodd" clip-rule="evenodd" d="M65.8307 10.1144C66.2727 10.5912 66.2435 11.3351 65.7655 11.776L53.9527 22.6715L47.4829 17.1644C46.9877 16.7429 46.9288 16.0006 47.3514 15.5066C47.774 15.0126 48.518 14.9539 49.0133 15.3755L53.8899 19.5264L64.1649 10.0493C64.6429 9.60842 65.3887 9.63755 65.8307 10.1144Z" fill="#1C55FF"/>
<path fill-rule="evenodd" clip-rule="evenodd" d="M56.7957 27.8537C63.5435 27.8537 69.0136 22.3972 69.0136 15.6663C69.0136 8.93538 63.5435 3.47889 56.7957 3.47889C50.048 3.47889 44.5778 8.93538 44.5778 15.6663C44.5778 22.3972 50.048 27.8537 56.7957 27.8537ZM56.7957 30.8326C65.1928 30.8326 72 24.0424 72 15.6663C72 7.29018 65.1928 0.5 56.7957 0.5C48.3987 0.5 41.5915 7.29018 41.5915 15.6663C41.5915 24.0424 48.3987 30.8326 56.7957 30.8326Z" fill="#1C55FF"/>
</svg>
