<svg width="92" height="100" viewBox="0 0 92 100" fill="none" xmlns="http://www.w3.org/2000/svg">
    <path d="M8.59451 57.4912C3.78159 57.4912 0 53.7059 0 48.8882C0 44.0705 3.78159 40.2852 8.59451 40.2852C13.4074 40.2852 17.189 44.0705 17.189 48.8882C17.189 53.7059 13.4074 57.4912 8.59451 57.4912ZM8.59451 43.7264C5.67238 43.7264 3.4378 45.9632 3.4378 48.8882C3.4378 51.8132 5.67238 54.05 8.59451 54.05C11.5166 54.05 13.7512 51.8132 13.7512 48.8882C13.7512 45.9632 11.5166 43.7264 8.59451 43.7264ZM8.59451 77.4501C3.78159 77.4501 0 73.6648 0 68.8471C0 64.0295 3.78159 60.2442 8.59451 60.2442C13.4074 60.2442 17.189 64.0295 17.189 68.8471C17.189 73.6648 13.4074 77.4501 8.59451 77.4501ZM8.59451 63.6853C5.67238 63.6853 3.4378 65.9221 3.4378 68.8471C3.4378 71.7721 5.67238 74.0089 8.59451 74.0089C11.5166 74.0089 13.7512 71.7721 13.7512 68.8471C13.7512 65.9221 11.5166 63.6853 8.59451 63.6853ZM63.3427 61.6206C61.9676 58.3515 59.733 55.5985 56.639 53.5338C55.2639 52.6735 54.7482 50.7809 55.4358 49.2323C56.4671 47.1676 56.8109 44.5867 56.4671 42.0058C55.6077 36.844 51.3104 32.7146 46.1537 32.1984C38.4186 31.3381 32.2306 37.3602 32.5743 44.9308C32.9181 49.9206 36.3559 54.2221 41.1689 55.5985C44.6067 56.6309 48.0445 55.9426 50.6229 54.3941C55.2639 56.2868 58.3579 59.2118 59.9049 62.9971C62.1395 68.1589 61.28 74.3531 60.2487 77.9663C59.9049 79.5148 58.5298 80.5472 56.9828 80.5472H32.0587C30.6836 80.5472 29.3084 79.6869 28.7928 78.3104C24.8393 66.7824 32.4025 58.8677 32.7462 58.5236C33.4338 57.8353 33.4338 56.8029 32.7462 56.1147C32.0587 55.4265 31.0273 55.4265 30.3398 56.1147C30.3398 56.2868 19.3388 67.6427 27.0739 83.1281C27.4176 83.8163 27.9333 84.1605 28.6209 84.1605H60.9363C61.6238 84.1605 62.1395 83.6443 62.3114 82.956C62.4833 82.4398 67.4681 71.256 63.3427 61.6206ZM36.0121 43.3823C36.3559 39.9411 38.5905 37.0161 41.8564 35.9837C47.8726 34.0911 53.8888 38.9087 53.2012 45.1029C52.6855 49.2323 49.2477 52.5015 45.1223 52.6735C39.7937 52.8456 35.6684 48.7161 36.0121 43.3823Z" fill="url(#paint0_linear_18_57)" />
    <path fill-rule="evenodd" clip-rule="evenodd" d="M19.3578 17.5808C14.0892 17.5808 9.8181 21.8555 9.8181 27.1285V35.5989C9.8181 36.6535 8.96389 37.5084 7.91016 37.5084C6.85643 37.5084 6.00221 36.6535 6.00221 35.5989V27.1285C6.00221 19.7462 11.9817 13.7617 19.3578 13.7617H48.8919C49.9456 13.7617 50.7998 14.6166 50.7998 15.6713C50.7998 16.7259 49.9456 17.5808 48.8919 17.5808H19.3578ZM76.9218 42.1054C77.9755 42.1054 78.8298 42.9603 78.8298 44.0149V86.6332C78.8298 94.0155 72.8503 100 65.4741 100H19.3578C11.9817 100 6.00221 94.0155 6.00221 86.6332V80.7747C6.00221 79.7201 6.85643 78.8651 7.91016 78.8651C8.96389 78.8651 9.8181 79.7201 9.8181 80.7747V86.6332C9.8181 91.9062 14.0892 96.1809 19.3578 96.1809H65.4741C70.7428 96.1809 75.0139 91.9062 75.0139 86.6332V44.0149C75.0139 42.9603 75.8681 42.1054 76.9218 42.1054Z" fill="url(#paint1_linear_18_57)" />
    <path fill-rule="evenodd" clip-rule="evenodd" d="M84.117 12.3261C84.6818 12.9374 84.6445 13.8912 84.0337 14.4565L68.9396 28.4251L60.6726 21.3646C60.0398 20.8242 59.9645 19.8726 60.5045 19.2393C61.0445 18.6059 61.9953 18.5306 62.6281 19.0711L68.8593 24.3929L81.9885 12.2427C82.5993 11.6775 83.5523 11.7148 84.117 12.3261Z" fill="url(#paint2_linear_18_57)" />
    <path fill-rule="evenodd" clip-rule="evenodd" d="M72.5723 35.0688C81.1945 35.0688 88.1841 28.0733 88.1841 19.444C88.1841 10.8146 81.1945 3.8191 72.5723 3.8191C63.9502 3.8191 56.9606 10.8146 56.9606 19.444C56.9606 28.0733 63.9502 35.0688 72.5723 35.0688ZM72.5723 38.8879C83.3019 38.8879 92 30.1826 92 19.444C92 8.70536 83.3019 0 72.5723 0C61.8428 0 53.1447 8.70536 53.1447 19.444C53.1447 30.1826 61.8428 38.8879 72.5723 38.8879Z" fill="url(#paint3_linear_18_57)" />
    <defs>
        <linearGradient id="paint0_linear_18_57" x1="46" y1="0" x2="46" y2="100" gradientUnits="userSpaceOnUse">
            <stop stop-color="#8C72A0" />
            <stop offset="1" stop-color="#C2C6D4" />
        </linearGradient>
        <linearGradient id="paint1_linear_18_57" x1="46" y1="0" x2="46" y2="100" gradientUnits="userSpaceOnUse">
            <stop stop-color="#8C72A0" />
            <stop offset="1" stop-color="#C2C6D4" />
        </linearGradient>
        <linearGradient id="paint2_linear_18_57" x1="46" y1="0" x2="46" y2="100" gradientUnits="userSpaceOnUse">
            <stop stop-color="#8C72A0" />
            <stop offset="1" stop-color="#C2C6D4" />
        </linearGradient>
        <linearGradient id="paint3_linear_18_57" x1="46" y1="0" x2="46" y2="100" gradientUnits="userSpaceOnUse">
            <stop stop-color="#8C72A0" />
            <stop offset="1" stop-color="#C2C6D4" />
        </linearGradient>
    </defs>
</svg>
    