<svg width="93" height="101" viewBox="0 0 93 101" fill="none" xmlns="http://www.w3.org/2000/svg">
<path d="M8.60173 57.9912C3.78476 57.9912 0 54.2059 0 49.3882C0 44.5705 3.78476 40.7852 8.60173 40.7852C13.4187 40.7852 17.2035 44.5705 17.2035 49.3882C17.2035 54.2059 13.4187 57.9912 8.60173 57.9912ZM8.60173 44.2264C5.67714 44.2264 3.44069 46.4632 3.44069 49.3882C3.44069 52.3132 5.67714 54.55 8.60173 54.55C11.5263 54.55 13.7628 52.3132 13.7628 49.3882C13.7628 46.4632 11.5263 44.2264 8.60173 44.2264ZM8.60173 77.9501C3.78476 77.9501 0 74.1648 0 69.3471C0 64.5295 3.78476 60.7442 8.60173 60.7442C13.4187 60.7442 17.2035 64.5295 17.2035 69.3471C17.2035 74.1648 13.4187 77.9501 8.60173 77.9501ZM8.60173 64.1853C5.67714 64.1853 3.44069 66.4221 3.44069 69.3471C3.44069 72.2722 5.67714 74.5089 8.60173 74.5089C11.5263 74.5089 13.7628 72.2722 13.7628 69.3471C13.7628 66.4221 11.5263 64.1853 8.60173 64.1853ZM63.3959 62.1206C62.0197 58.8515 59.7832 56.0985 56.6866 54.0338C55.3103 53.1735 54.7942 51.2809 55.4823 49.7323C56.5145 47.6676 56.8586 45.0867 56.5145 42.5058C55.6544 37.344 51.3535 33.2146 46.1924 32.6984C38.4509 31.8381 32.2576 37.8602 32.6017 45.4308C32.9458 50.4206 36.3865 54.7221 41.2034 56.0985C44.6441 57.1309 48.0848 56.4427 50.6654 54.8941C55.3103 56.7868 58.4069 59.7118 59.9552 63.4971C62.1917 68.6589 61.3315 74.853 60.2993 78.4663C59.9552 80.0148 58.5789 81.0472 57.0306 81.0472H32.0856C30.7093 81.0472 29.333 80.1869 28.8169 78.8104C24.8601 67.2824 32.4297 59.3677 32.7737 59.0236C33.4619 58.3353 33.4619 57.3029 32.7737 56.6147C32.0856 55.9265 31.0534 55.9265 30.3652 56.6147C30.3652 56.7868 19.355 68.1427 27.0966 83.6281C27.4407 84.3163 27.9568 84.6605 28.6449 84.6605H60.9874C61.6756 84.6605 62.1917 84.1443 62.3637 83.456C62.5357 82.9398 67.5248 71.756 63.3959 62.1206ZM36.0424 43.8823C36.3865 40.4411 38.6229 37.5161 41.8916 36.4837C47.9128 34.5911 53.934 39.4087 53.2459 45.6029C52.7298 49.7323 49.289 53.0015 45.1602 53.1735C39.8271 53.3456 35.6983 49.2161 36.0424 43.8823Z" fill="url(#paint0_linear_18_101)"/>
<path fill-rule="evenodd" clip-rule="evenodd" d="M19.3741 18.0808C14.101 18.0808 9.82635 22.3555 9.82635 27.6285V36.0989C9.82635 37.1535 8.97141 38.0085 7.9168 38.0085C6.86219 38.0085 6.00725 37.1535 6.00725 36.0989V27.6285C6.00725 20.2462 11.9918 14.2617 19.3741 14.2617H48.9329C49.9875 14.2617 50.8425 15.1166 50.8425 16.1713C50.8425 17.2259 49.9875 18.0808 48.9329 18.0808H19.3741ZM76.9864 42.6054C78.041 42.6054 78.896 43.4603 78.896 44.5149V87.1332C78.896 94.5155 72.9114 100.5 65.5291 100.5H19.3741C11.9918 100.5 6.00725 94.5155 6.00725 87.1332V81.2747C6.00725 80.2201 6.86219 79.3651 7.9168 79.3651C8.97141 79.3651 9.82635 80.2201 9.82635 81.2747V87.1332C9.82635 92.4062 14.101 96.6809 19.3741 96.6809H65.5291C70.8022 96.6809 75.0769 92.4062 75.0769 87.1332V44.5149C75.0769 43.4603 75.9318 42.6054 76.9864 42.6054Z" fill="url(#paint1_linear_18_101)"/>
<path fill-rule="evenodd" clip-rule="evenodd" d="M84.1877 12.8261C84.7529 13.4374 84.7156 14.3912 84.1043 14.9565L68.9975 28.9251L60.7235 21.8646C60.0902 21.3242 60.0149 20.3726 60.5553 19.7393C61.0958 19.1059 62.0473 19.0306 62.6807 19.5711L68.9171 24.8929L82.0573 12.7427C82.6686 12.1775 83.6224 12.2148 84.1877 12.8261Z" fill="url(#paint2_linear_18_101)"/>
<path fill-rule="evenodd" clip-rule="evenodd" d="M72.6333 35.5688C81.2627 35.5688 88.2582 28.5733 88.2582 19.944C88.2582 11.3146 81.2627 4.3191 72.6333 4.3191C64.0039 4.3191 57.0084 11.3146 57.0084 19.944C57.0084 28.5733 64.0039 35.5688 72.6333 35.5688ZM72.6333 39.3879C83.3719 39.3879 92.0773 30.6826 92.0773 19.944C92.0773 9.20536 83.3719 0.5 72.6333 0.5C61.8947 0.5 53.1893 9.20536 53.1893 19.944C53.1893 30.6826 61.8947 39.3879 72.6333 39.3879Z" fill="url(#paint3_linear_18_101)"/>
<defs>
<linearGradient id="paint0_linear_18_101" x1="46.0386" y1="0.5" x2="46.0386" y2="100.5" gradientUnits="userSpaceOnUse">
<stop stop-color="#9D19FF"/>
<stop offset="1" stop-color="#7D9EFF"/>
</linearGradient>
<linearGradient id="paint1_linear_18_101" x1="46.0386" y1="0.5" x2="46.0386" y2="100.5" gradientUnits="userSpaceOnUse">
<stop stop-color="#9D19FF"/>
<stop offset="1" stop-color="#7D9EFF"/>
</linearGradient>
<linearGradient id="paint2_linear_18_101" x1="46.0386" y1="0.5" x2="46.0386" y2="100.5" gradientUnits="userSpaceOnUse">
<stop stop-color="#9D19FF"/>
<stop offset="1" stop-color="#7D9EFF"/>
</linearGradient>
<linearGradient id="paint3_linear_18_101" x1="46.0386" y1="0.5" x2="46.0386" y2="100.5" gradientUnits="userSpaceOnUse">
<stop stop-color="#9D19FF"/>
<stop offset="1" stop-color="#7D9EFF"/>
</linearGradient>
</defs>
</svg>
