<svg width="52" height="29" viewBox="0 0 52 29" fill="none" xmlns="http://www.w3.org/2000/svg">
<path fill-rule="evenodd" clip-rule="evenodd" d="M24.6669 2.5788C25.1179 2.52623 25.5766 2.49921 26.0414 2.49921C26.5062 2.49921 26.9649 2.52623 27.4159 2.5788C27.8245 2.62643 28.1163 2.98983 28.0677 3.39047C28.0192 3.79112 27.6486 4.07729 27.24 4.02966C26.8473 3.98388 26.4473 3.96029 26.0414 3.96029C25.6355 3.96029 25.2356 3.98388 24.8428 4.02966C24.4343 4.07729 24.0637 3.79112 24.0151 3.39047C23.9665 2.98983 24.2584 2.62643 24.6669 2.5788ZM19.9654 5.03648C20.2198 5.35359 20.1639 5.81288 19.8405 6.06233C19.211 6.54789 18.6422 7.1057 18.147 7.72295C17.8926 8.04006 17.4242 8.09491 17.1008 7.84545C16.7774 7.596 16.7215 7.13671 16.9759 6.8196C17.5441 6.11126 18.1969 5.4712 18.9193 4.91398C19.2426 4.66453 19.711 4.71937 19.9654 5.03648ZM32.1174 5.03648C32.3718 4.71937 32.8402 4.66453 33.1636 4.91398C33.886 5.4712 34.5387 6.11126 35.107 6.8196C35.3614 7.13671 35.3054 7.596 34.982 7.84545C34.6586 8.09491 34.1902 8.04006 33.9359 7.72295C33.4407 7.1057 32.8718 6.54789 32.2423 6.06233C31.9189 5.81288 31.863 5.35359 32.1174 5.03648ZM15.4222 11.8164C15.8307 11.864 16.1226 12.2274 16.074 12.6281C16.0273 13.0132 16.0033 13.4054 16.0033 13.8034C16.0033 14.2014 16.0273 14.5935 16.074 14.9786C16.1226 15.3793 15.8307 15.7427 15.4222 15.7903C15.0136 15.8379 14.643 15.5518 14.5944 15.1511C14.5408 14.7089 14.5132 14.2591 14.5132 13.8034C14.5132 13.3476 14.5408 12.8978 14.5944 12.4556C14.643 12.0549 15.0136 11.7688 15.4222 11.8164ZM36.6607 11.8164C37.0693 11.7688 37.4399 12.0549 37.4884 12.4556C37.542 12.8978 37.5696 13.3476 37.5696 13.8034C37.5696 14.2591 37.542 14.7089 37.4884 15.1511C37.4399 15.5518 37.0693 15.8379 36.6607 15.7903C36.2521 15.7427 35.9602 15.3793 36.0088 14.9786C36.0555 14.5935 36.0796 14.2014 36.0796 13.8034C36.0796 13.4054 36.0555 13.0132 36.0088 12.6281C35.9602 12.2274 36.2521 11.864 36.6607 11.8164ZM17.1008 19.7613C17.4242 19.5118 17.8926 19.5666 18.147 19.8838C18.6422 20.501 19.211 21.0588 19.8405 21.5444C20.1639 21.7938 20.2198 22.2531 19.9654 22.5702C19.711 22.8873 19.2426 22.9422 18.9193 22.6927C18.1969 22.1355 17.5441 21.4955 16.9759 20.7871C16.7215 20.47 16.7774 20.0107 17.1008 19.7613ZM34.982 19.7613C35.3054 20.0107 35.3614 20.47 35.107 20.7871C34.5387 21.4955 33.886 22.1355 33.1636 22.6927C32.8402 22.9422 32.3718 22.8873 32.1174 22.5702C31.863 22.2531 31.9189 21.7938 32.2423 21.5444C32.8718 21.0588 33.4407 20.501 33.9359 19.8838C34.1902 19.5666 34.6586 19.5118 34.982 19.7613ZM24.0151 24.2162C24.0637 23.8156 24.4343 23.5294 24.8428 23.577C25.2356 23.6228 25.6355 23.6464 26.0414 23.6464C26.4473 23.6464 26.8473 23.6228 27.24 23.577C27.6486 23.5294 28.0192 23.8156 28.0677 24.2162C28.1163 24.6169 27.8245 24.9803 27.4159 25.0279C26.9649 25.0805 26.5062 25.1075 26.0414 25.1075C25.5766 25.1075 25.1179 25.0805 24.6669 25.0279C24.2584 24.9803 23.9665 24.6169 24.0151 24.2162Z" fill="url(#paint0_linear_191_1761)"/>
<path fill-rule="evenodd" clip-rule="evenodd" d="M26.0414 26.1456C32.993 26.1456 38.6283 20.6198 38.6283 13.8034C38.6283 6.9869 32.993 1.46108 26.0414 1.46108C19.0899 1.46108 13.4545 6.9869 13.4545 13.8034C13.4545 20.6198 19.0899 26.1456 26.0414 26.1456ZM26.0414 27.6067C33.8159 27.6067 40.1183 21.4267 40.1183 13.8034C40.1183 6.17997 33.8159 0 26.0414 0C18.2669 0 11.9645 6.17997 11.9645 13.8034C11.9645 21.4267 18.2669 27.6067 26.0414 27.6067Z" fill="url(#paint1_linear_191_1761)"/>
<path fill-rule="evenodd" clip-rule="evenodd" d="M39.769 7.60228C39.7599 7.19891 40.0861 6.86469 40.4974 6.85578C46.7135 6.72116 51.8595 11.5713 51.9972 17.6829C52.1348 23.7945 47.2122 28.8626 40.9961 28.9973C38.553 29.0502 36.2726 28.332 34.3983 27.0695C34.0591 26.8411 33.9731 26.3863 34.206 26.0537C34.439 25.7212 34.9028 25.6368 35.242 25.8652C36.8677 26.9602 38.8431 27.5825 40.9632 27.5365C46.3513 27.4199 50.6271 23.0252 50.5075 17.7151C50.3879 12.4051 45.9184 8.19981 40.5303 8.31651C40.119 8.32542 39.7781 8.00565 39.769 7.60228Z" fill="url(#paint2_linear_191_1761)"/>
<path fill-rule="evenodd" clip-rule="evenodd" d="M40.6715 11.4286C40.6624 11.0252 40.9886 10.691 41.3999 10.6821C41.8028 10.6734 42.1992 10.6968 42.5867 10.7501C42.9942 10.8061 43.2782 11.1755 43.2211 11.575C43.1639 11.9746 42.7873 12.253 42.3798 12.197C42.0714 12.1546 41.7551 12.1359 41.4328 12.1428C41.0215 12.1518 40.6806 11.832 40.6715 11.4286ZM44.6911 12.1394C44.9251 11.8076 45.3892 11.7246 45.7276 11.9542C46.3806 12.397 46.9575 12.9413 47.4345 13.5645C47.6816 13.8872 47.615 14.3451 47.286 14.5873C46.9569 14.8295 46.4899 14.7643 46.2429 14.4416C45.8619 13.9439 45.4011 13.5092 44.88 13.1558C44.5416 12.9263 44.457 12.4712 44.6911 12.1394ZM47.9198 16.0048C48.3245 15.9319 48.7129 16.1945 48.7872 16.5913C48.8579 16.9682 48.8988 17.3552 48.9077 17.7498C48.9166 18.1443 48.8931 18.5327 48.8395 18.9123C48.7831 19.312 48.407 19.5911 47.9994 19.5358C47.5918 19.4805 47.3071 19.1116 47.3635 18.712C47.4063 18.4091 47.4251 18.0985 47.418 17.782C47.4109 17.4655 47.3781 17.1561 47.3217 16.8554C47.2474 16.4585 47.5152 16.0778 47.9198 16.0048ZM47.43 20.9794C47.7696 21.2071 47.8567 21.6617 47.6244 21.9948C47.1759 22.638 46.6241 23.2067 45.9917 23.6774C45.6639 23.9214 45.1966 23.8586 44.9478 23.5372C44.699 23.2159 44.763 22.7576 45.0907 22.5137C45.5954 22.138 46.0362 21.6838 46.3945 21.1701C46.6267 20.837 47.0903 20.7516 47.43 20.9794ZM37.2252 22.861C37.4581 22.5285 37.9219 22.4441 38.2611 22.6725C38.4667 22.811 38.6815 22.9368 38.9044 23.0489C39.2705 23.233 39.4151 23.6733 39.2274 24.0323C39.0396 24.3913 38.5906 24.5331 38.2245 24.349C37.9446 24.2082 37.6751 24.0504 37.4174 23.8768C37.0783 23.6484 36.9922 23.1936 37.2252 22.861ZM43.5046 24.1647C43.5797 24.5614 43.3126 24.9427 42.9081 25.0163C42.5234 25.0863 42.1283 25.1269 41.7255 25.1356C41.4083 25.1425 41.0951 25.1294 40.787 25.0975C40.3778 25.0552 40.0811 24.6956 40.1243 24.2944C40.1675 23.8931 40.5342 23.6022 40.9434 23.6445C41.1888 23.6699 41.4388 23.6804 41.6926 23.6749C42.0149 23.6679 42.33 23.6355 42.6362 23.5798C43.0407 23.5061 43.4296 23.768 43.5046 24.1647Z" fill="url(#paint3_linear_191_1761)"/>
<path fill-rule="evenodd" clip-rule="evenodd" d="M12.231 7.60228C12.2401 7.19891 11.9139 6.86469 11.5026 6.85578C5.28651 6.72116 0.14048 11.5713 0.00281831 17.6829C-0.134844 23.7945 4.78778 28.8626 11.0039 28.9973C13.447 29.0502 15.7274 28.332 17.6017 27.0695C17.9409 26.8411 18.0269 26.3863 17.794 26.0537C17.561 25.7212 17.0972 25.6368 16.758 25.8652C15.1323 26.9602 13.1569 27.5825 11.0368 27.5365C5.6487 27.4199 1.37288 23.0252 1.49249 17.7151C1.6121 12.4051 6.08163 8.19981 11.4697 8.31651C11.881 8.32542 12.2219 8.00565 12.231 7.60228Z" fill="url(#paint4_linear_191_1761)"/>
<path fill-rule="evenodd" clip-rule="evenodd" d="M11.3285 11.4286C11.3375 11.0252 11.0114 10.691 10.6001 10.6821C10.1972 10.6734 9.80075 10.6968 9.41325 10.7501C9.00578 10.8061 8.72178 11.1755 8.77893 11.575C8.83608 11.9746 9.21273 12.253 9.6202 12.197C9.92857 12.1546 10.2449 12.1359 10.5672 12.1428C10.9785 12.1518 11.3194 11.832 11.3285 11.4286ZM7.30895 12.1394C7.07488 11.8076 6.6108 11.7246 6.27241 11.9542C5.61943 12.397 5.04253 12.9413 4.56546 13.5645C4.31844 13.8872 4.38495 14.3451 4.71401 14.5873C5.04308 14.8295 5.51009 14.7643 5.7571 14.4416C6.13814 13.9439 6.59892 13.5092 7.12004 13.1558C7.45843 12.9263 7.54301 12.4712 7.30895 12.1394ZM4.08015 16.0048C3.67546 15.9319 3.28712 16.1945 3.21276 16.5913C3.14214 16.9682 3.1012 17.3552 3.09231 17.7498C3.08342 18.1443 3.1069 18.5327 3.16049 18.9123C3.2169 19.312 3.59304 19.5911 4.00062 19.5358C4.4082 19.4805 4.69287 19.1116 4.63645 18.712C4.5937 18.4091 4.57486 18.0985 4.58198 17.782C4.58911 17.4655 4.62192 17.1561 4.67827 16.8554C4.75263 16.4585 4.48484 16.0778 4.08015 16.0048ZM4.57004 20.9794C4.23039 21.2071 4.14332 21.6617 4.37557 21.9948C4.82411 22.638 5.37594 23.2067 6.00834 23.6774C6.33608 23.9214 6.80343 23.8586 7.05221 23.5372C7.30099 23.2159 7.23699 22.7576 6.90925 22.5137C6.40456 22.138 5.9638 21.6838 5.60555 21.1701C5.3733 20.837 4.90969 20.7516 4.57004 20.9794ZM14.7748 22.861C14.5419 22.5285 14.0781 22.4441 13.7389 22.6725C13.5333 22.811 13.3185 22.9368 13.0956 23.0489C12.7295 23.233 12.5849 23.6733 12.7726 24.0323C12.9604 24.3913 13.4094 24.5331 13.7755 24.349C14.0554 24.2082 14.3249 24.0504 14.5826 23.8768C14.9217 23.6484 15.0078 23.1936 14.7748 22.861ZM8.49535 24.1647C8.42027 24.5614 8.68736 24.9427 9.09191 25.0163C9.47663 25.0863 9.87169 25.1269 10.2745 25.1356C10.5917 25.1425 10.9049 25.1294 11.213 25.0975C11.6222 25.0552 11.9189 24.6956 11.8757 24.2944C11.8325 23.8931 11.4658 23.6022 11.0566 23.6445C10.8112 23.6699 10.5612 23.6804 10.3074 23.6749C9.98511 23.6679 9.66997 23.6355 9.36381 23.5798C8.95926 23.5061 8.57043 23.768 8.49535 24.1647Z" fill="url(#paint5_linear_191_1761)"/>
<path d="M22.8411 17.3023C22.2911 17.3023 21.7641 17.2314 21.2599 17.0896C20.7557 16.9414 20.3498 16.7513 20.0421 16.5193L20.5822 15.3402C20.8769 15.5464 21.2239 15.7171 21.6233 15.8524C22.0292 15.9813 22.4385 16.0457 22.851 16.0457C23.1653 16.0457 23.4173 16.0167 23.6072 15.9588C23.8036 15.8943 23.9477 15.8073 24.0394 15.6978C24.131 15.5882 24.1769 15.4626 24.1769 15.3208C24.1769 15.1404 24.1048 14.9986 23.9608 14.8955C23.8167 14.786 23.6269 14.699 23.3911 14.6346C23.1554 14.5637 22.8935 14.4993 22.6054 14.4413C22.3239 14.3768 22.0391 14.2995 21.751 14.2093C21.4694 14.1191 21.2108 14.0031 20.9751 13.8613C20.7394 13.7196 20.5462 13.5327 20.3956 13.3007C20.2516 13.0688 20.1796 12.7724 20.1796 12.4115C20.1796 12.0249 20.2843 11.6737 20.4938 11.358C20.7099 11.0358 21.0307 10.7813 21.4563 10.5944C21.8885 10.4011 22.4286 10.3045 23.0769 10.3045C23.509 10.3045 23.9346 10.356 24.3536 10.4591C24.7727 10.5558 25.1426 10.704 25.4634 10.9037L24.9724 12.0926C24.6516 11.9121 24.3307 11.78 24.0099 11.6963C23.6891 11.6061 23.3748 11.561 23.067 11.561C22.7593 11.561 22.5072 11.5964 22.3108 11.6673C22.1144 11.7382 21.9736 11.8316 21.8885 11.9476C21.8034 12.0571 21.7608 12.186 21.7608 12.3342C21.7608 12.5082 21.8328 12.6499 21.9769 12.7595C22.1209 12.8626 22.3108 12.9463 22.5465 13.0108C22.7822 13.0752 23.0408 13.1397 23.3224 13.2041C23.6105 13.2685 23.8953 13.3426 24.1769 13.4264C24.4649 13.5102 24.7268 13.6229 24.9626 13.7647C25.1983 13.9065 25.3882 14.0933 25.5322 14.3253C25.6828 14.5573 25.7581 14.8504 25.7581 15.2048C25.7581 15.585 25.6501 15.933 25.434 16.2487C25.2179 16.5645 24.8938 16.819 24.4617 17.0123C24.0361 17.2056 23.4959 17.3023 22.8411 17.3023Z" fill="url(#paint6_linear_191_1761)"/>
<path d="M28.3185 13.4651H31.6185V14.7216H28.3185V13.4651ZM28.4363 17.1863H26.8453V10.4204H32.0408V11.6769H28.4363V17.1863Z" fill="url(#paint7_linear_191_1761)"/>
<defs>
<linearGradient id="paint0_linear_191_1761" x1="26" y1="0" x2="26" y2="29" gradientUnits="userSpaceOnUse">
<stop stop-color="#9D19FF"/>
<stop offset="1" stop-color="#7D9EFF"/>
</linearGradient>
<linearGradient id="paint1_linear_191_1761" x1="26" y1="0" x2="26" y2="29" gradientUnits="userSpaceOnUse">
<stop stop-color="#9D19FF"/>
<stop offset="1" stop-color="#7D9EFF"/>
</linearGradient>
<linearGradient id="paint2_linear_191_1761" x1="26" y1="0" x2="26" y2="29" gradientUnits="userSpaceOnUse">
<stop stop-color="#9D19FF"/>
<stop offset="1" stop-color="#7D9EFF"/>
</linearGradient>
<linearGradient id="paint3_linear_191_1761" x1="26" y1="0" x2="26" y2="29" gradientUnits="userSpaceOnUse">
<stop stop-color="#9D19FF"/>
<stop offset="1" stop-color="#7D9EFF"/>
</linearGradient>
<linearGradient id="paint4_linear_191_1761" x1="26" y1="0" x2="26" y2="29" gradientUnits="userSpaceOnUse">
<stop stop-color="#9D19FF"/>
<stop offset="1" stop-color="#7D9EFF"/>
</linearGradient>
<linearGradient id="paint5_linear_191_1761" x1="26" y1="0" x2="26" y2="29" gradientUnits="userSpaceOnUse">
<stop stop-color="#9D19FF"/>
<stop offset="1" stop-color="#7D9EFF"/>
</linearGradient>
<linearGradient id="paint6_linear_191_1761" x1="26" y1="0" x2="26" y2="29" gradientUnits="userSpaceOnUse">
<stop stop-color="#9D19FF"/>
<stop offset="1" stop-color="#7D9EFF"/>
</linearGradient>
<linearGradient id="paint7_linear_191_1761" x1="26" y1="0" x2="26" y2="29" gradientUnits="userSpaceOnUse">
<stop stop-color="#9D19FF"/>
<stop offset="1" stop-color="#7D9EFF"/>
</linearGradient>
</defs>
</svg>
