<svg width="52" height="29" viewBox="0 0 52 29" fill="none" xmlns="http://www.w3.org/2000/svg">
    <path fill-rule="evenodd" clip-rule="evenodd" d="M24.6669 2.5788C25.1179 2.52622 25.5766 2.49921 26.0414 2.49921C26.5062 2.49921 26.9649 2.52622 27.4159 2.5788C27.8245 2.62643 28.1163 2.98983 28.0677 3.39047C28.0192 3.79112 27.6486 4.07729 27.24 4.02966C26.8473 3.98388 26.4473 3.96029 26.0414 3.96029C25.6355 3.96029 25.2356 3.98388 24.8428 4.02966C24.4343 4.07729 24.0637 3.79112 24.0151 3.39047C23.9665 2.98983 24.2584 2.62643 24.6669 2.5788ZM19.9654 5.03648C20.2198 5.35359 20.1639 5.81288 19.8405 6.06233C19.211 6.54789 18.6422 7.1057 18.147 7.72295C17.8926 8.04006 17.4242 8.0949 17.1008 7.84545C16.7774 7.596 16.7215 7.13671 16.9759 6.8196C17.5441 6.11125 18.1969 5.4712 18.9193 4.91398C19.2426 4.66453 19.711 4.71937 19.9654 5.03648ZM32.1174 5.03648C32.3718 4.71937 32.8402 4.66453 33.1636 4.91398C33.886 5.4712 34.5387 6.11125 35.107 6.8196C35.3614 7.13671 35.3054 7.596 34.982 7.84545C34.6586 8.0949 34.1902 8.04006 33.9358 7.72295C33.4407 7.1057 32.8718 6.54789 32.2423 6.06233C31.9189 5.81288 31.863 5.35359 32.1174 5.03648ZM15.4222 11.8164C15.8308 11.864 16.1226 12.2274 16.074 12.6281C16.0273 13.0132 16.0033 13.4053 16.0033 13.8033C16.0033 14.2013 16.0273 14.5935 16.074 14.9786C16.1226 15.3793 15.8308 15.7427 15.4222 15.7903C15.0136 15.8379 14.643 15.5518 14.5944 15.1511C14.5408 14.7089 14.5132 14.2591 14.5132 13.8033C14.5132 13.3476 14.5408 12.8978 14.5944 12.4556C14.643 12.0549 15.0136 11.7688 15.4222 11.8164ZM36.6607 11.8164C37.0692 11.7688 37.4398 12.0549 37.4884 12.4556C37.542 12.8978 37.5696 13.3476 37.5696 13.8033C37.5696 14.2591 37.542 14.7089 37.4884 15.1511C37.4398 15.5518 37.0692 15.8379 36.6607 15.7903C36.2521 15.7427 35.9602 15.3793 36.0088 14.9786C36.0555 14.5935 36.0795 14.2013 36.0795 13.8033C36.0795 13.4053 36.0555 13.0132 36.0088 12.6281C35.9602 12.2274 36.2521 11.864 36.6607 11.8164ZM17.1008 19.7612C17.4242 19.5118 17.8926 19.5666 18.147 19.8837C18.6422 20.501 19.211 21.0588 19.8405 21.5444C20.1639 21.7938 20.2198 22.2531 19.9654 22.5702C19.711 22.8873 19.2426 22.9422 18.9193 22.6927C18.1969 22.1355 17.5441 21.4954 16.9759 20.7871C16.7215 20.47 16.7774 20.0107 17.1008 19.7612ZM34.982 19.7612C35.3054 20.0107 35.3614 20.47 35.107 20.7871C34.5387 21.4954 33.886 22.1355 33.1636 22.6927C32.8402 22.9422 32.3718 22.8873 32.1174 22.5702C31.863 22.2531 31.9189 21.7938 32.2423 21.5444C32.8718 21.0588 33.4407 20.501 33.9358 19.8837C34.1902 19.5666 34.6586 19.5118 34.982 19.7612ZM24.0151 24.2162C24.0637 23.8156 24.4343 23.5294 24.8428 23.577C25.2356 23.6228 25.6355 23.6464 26.0414 23.6464C26.4473 23.6464 26.8473 23.6228 27.24 23.577C27.6486 23.5294 28.0192 23.8156 28.0677 24.2162C28.1163 24.6169 27.8245 24.9803 27.4159 25.0279C26.9649 25.0805 26.5062 25.1075 26.0414 25.1075C25.5766 25.1075 25.1179 25.0805 24.6669 25.0279C24.2584 24.9803 23.9665 24.6169 24.0151 24.2162Z" fill="url(#paint0_linear_361_959)"/>
    <path fill-rule="evenodd" clip-rule="evenodd" d="M26.0414 26.1456C32.993 26.1456 38.6283 20.6198 38.6283 13.8033C38.6283 6.9869 32.993 1.46108 26.0414 1.46108C19.0899 1.46108 13.4545 6.9869 13.4545 13.8033C13.4545 20.6198 19.0899 26.1456 26.0414 26.1456ZM26.0414 27.6067C33.8159 27.6067 40.1183 21.4267 40.1183 13.8033C40.1183 6.17997 33.8159 0 26.0414 0C18.267 0 11.9645 6.17997 11.9645 13.8033C11.9645 21.4267 18.267 27.6067 26.0414 27.6067Z" fill="url(#paint1_linear_361_959)"/>
    <path fill-rule="evenodd" clip-rule="evenodd" d="M39.769 7.60229C39.76 7.19892 40.0861 6.86471 40.4974 6.8558C46.7135 6.72117 51.8595 11.5713 51.9972 17.6829C52.1348 23.7945 47.2122 28.8626 40.9962 28.9973C38.553 29.0502 36.2727 28.332 34.3983 27.0695C34.0592 26.8411 33.9731 26.3863 34.206 26.0537C34.439 25.7212 34.9028 25.6368 35.242 25.8652C36.8677 26.9602 38.8431 27.5825 40.9632 27.5365C46.3513 27.4199 50.6271 23.0252 50.5075 17.7151C50.3879 12.4051 45.9184 8.19983 40.5303 8.31652C40.119 8.32543 39.7781 8.00566 39.769 7.60229Z" fill="url(#paint2_linear_361_959)"/>
    <path fill-rule="evenodd" clip-rule="evenodd" d="M40.6715 11.4286C40.6625 11.0253 40.9886 10.691 41.3999 10.6821C41.8028 10.6734 42.1993 10.6968 42.5868 10.7501C42.9942 10.8061 43.2782 11.1755 43.2211 11.575C43.1639 11.9746 42.7873 12.2531 42.3798 12.197C42.0714 12.1546 41.7551 12.1359 41.4328 12.1429C41.0215 12.1518 40.6806 11.832 40.6715 11.4286ZM44.6911 12.1394C44.9251 11.8076 45.3892 11.7246 45.7276 11.9542C46.3806 12.397 46.9575 12.9413 47.4345 13.5645C47.6816 13.8872 47.6151 14.3451 47.286 14.5873C46.9569 14.8295 46.4899 14.7643 46.2429 14.4416C45.8619 13.9439 45.4011 13.5092 44.88 13.1558C44.5416 12.9263 44.457 12.4712 44.6911 12.1394ZM47.9199 16.0048C48.3245 15.9319 48.7129 16.1945 48.7872 16.5913C48.8579 16.9683 48.8988 17.3552 48.9077 17.7498C48.9166 18.1443 48.8931 18.5327 48.8395 18.9123C48.7831 19.312 48.407 19.5911 47.9994 19.5358C47.5918 19.4805 47.3071 19.1116 47.3636 18.712C47.4063 18.4091 47.4251 18.0985 47.418 17.782C47.4109 17.4656 47.3781 17.1561 47.3217 16.8554C47.2474 16.4586 47.5152 16.0778 47.9199 16.0048ZM47.43 20.9794C47.7696 21.2071 47.8567 21.6617 47.6244 21.9948C47.1759 22.638 46.6241 23.2067 45.9917 23.6774C45.6639 23.9214 45.1966 23.8586 44.9478 23.5373C44.699 23.2159 44.763 22.7576 45.0908 22.5137C45.5954 22.138 46.0362 21.6838 46.3945 21.1701C46.6267 20.837 47.0903 20.7516 47.43 20.9794ZM37.2252 22.861C37.4582 22.5285 37.922 22.4441 38.2611 22.6725C38.4667 22.811 38.6815 22.9368 38.9044 23.0489C39.2706 23.233 39.4151 23.6733 39.2274 24.0323C39.0396 24.3913 38.5906 24.5331 38.2245 24.349C37.9446 24.2082 37.6751 24.0504 37.4174 23.8768C37.0783 23.6484 36.9922 23.1936 37.2252 22.861ZM43.5047 24.1647C43.5797 24.5614 43.3127 24.9427 42.9081 25.0163C42.5234 25.0863 42.1283 25.1269 41.7255 25.1356C41.4083 25.1425 41.0951 25.1294 40.787 25.0975C40.3779 25.0552 40.0811 24.6956 40.1243 24.2944C40.1675 23.8931 40.5342 23.6022 40.9434 23.6445C41.1888 23.6699 41.4388 23.6804 41.6926 23.6749C42.0149 23.6679 42.33 23.6355 42.6362 23.5798C43.0407 23.5061 43.4296 23.768 43.5047 24.1647Z" fill="url(#paint3_linear_361_959)"/>
    <path fill-rule="evenodd" clip-rule="evenodd" d="M12.231 7.60229C12.24 7.19892 11.9139 6.86471 11.5026 6.8558C5.2865 6.72117 0.14048 11.5713 0.0028183 17.6829C-0.134843 23.7945 4.78777 28.8626 11.0038 28.9973C13.447 29.0502 15.7273 28.332 17.6017 27.0695C17.9408 26.8411 18.0269 26.3863 17.794 26.0537C17.561 25.7212 17.0972 25.6368 16.758 25.8652C15.1323 26.9602 13.1569 27.5825 11.0367 27.5365C5.6487 27.4199 1.37288 23.0252 1.49249 17.7151C1.6121 12.4051 6.08162 8.19983 11.4697 8.31652C11.881 8.32543 12.2219 8.00566 12.231 7.60229Z" fill="url(#paint4_linear_361_959)"/>
    <path fill-rule="evenodd" clip-rule="evenodd" d="M11.3285 11.4286C11.3375 11.0253 11.0114 10.691 10.6001 10.6821C10.1972 10.6734 9.80074 10.6968 9.41324 10.7501C9.00577 10.8061 8.72178 11.1755 8.77892 11.575C8.83607 11.9746 9.21272 12.2531 9.6202 12.197C9.92857 12.1546 10.2449 12.1359 10.5672 12.1429C10.9785 12.1518 11.3194 11.832 11.3285 11.4286ZM7.30894 12.1394C7.07487 11.8076 6.6108 11.7246 6.2724 11.9542C5.61942 12.397 5.04252 12.9413 4.56545 13.5645C4.31844 13.8872 4.38495 14.3451 4.71401 14.5873C5.04308 14.8295 5.51008 14.7643 5.7571 14.4416C6.13814 13.9439 6.59892 13.5092 7.12003 13.1558C7.45843 12.9263 7.54301 12.4712 7.30894 12.1394ZM4.08015 16.0048C3.67546 15.9319 3.28712 16.1945 3.21276 16.5913C3.14214 16.9683 3.1012 17.3552 3.09231 17.7498C3.08342 18.1443 3.1069 18.5327 3.16048 18.9123C3.2169 19.312 3.59304 19.5911 4.00062 19.5358C4.40819 19.4805 4.69286 19.1116 4.63645 18.712C4.59369 18.4091 4.57485 18.0985 4.58198 17.782C4.58911 17.4656 4.62192 17.1561 4.67826 16.8554C4.75262 16.4586 4.48484 16.0778 4.08015 16.0048ZM4.57003 20.9794C4.23038 21.2071 4.14332 21.6617 4.37556 21.9948C4.82411 22.638 5.37594 23.2067 6.00834 23.6774C6.33607 23.9214 6.80343 23.8586 7.05221 23.5373C7.30099 23.2159 7.23698 22.7576 6.90925 22.5137C6.40456 22.138 5.9638 21.6838 5.60554 21.1701C5.3733 20.837 4.90968 20.7516 4.57003 20.9794ZM14.7748 22.861C14.5418 22.5285 14.078 22.4441 13.7389 22.6725C13.5333 22.811 13.3185 22.9368 13.0956 23.0489C12.7294 23.233 12.5849 23.6733 12.7726 24.0323C12.9604 24.3913 13.4094 24.5331 13.7755 24.349C14.0554 24.2082 14.3249 24.0504 14.5826 23.8768C14.9217 23.6484 15.0078 23.1936 14.7748 22.861ZM8.49535 24.1647C8.42026 24.5614 8.68735 24.9427 9.0919 25.0163C9.47662 25.0863 9.87168 25.1269 10.2745 25.1356C10.5917 25.1425 10.9049 25.1294 11.213 25.0975C11.6221 25.0552 11.9189 24.6956 11.8757 24.2944C11.8325 23.8931 11.4658 23.6022 11.0566 23.6445C10.8112 23.6699 10.5612 23.6804 10.3074 23.6749C9.9851 23.6679 9.66996 23.6355 9.3638 23.5798C8.95925 23.5061 8.57043 23.768 8.49535 24.1647Z" fill="url(#paint5_linear_361_959)"/>
    <path fill-rule="evenodd" clip-rule="evenodd" d="M25.963 22.4545C30.619 22.4545 34.3935 18.7534 34.3935 14.1878C34.3935 9.62231 30.619 5.92121 25.963 5.92121C21.307 5.92121 17.5325 9.62231 17.5325 14.1878C17.5325 18.7534 21.307 22.4545 25.963 22.4545ZM26.087 7.38003C21.6862 7.38003 19.0203 11.1304 19.0203 14.431H19.3922C19.3922 13.2936 19.7251 12.1036 20.3468 11.0482L21.5728 12.2503H23.8554V13.542H25.5678V14.9789L24.0158 16.3837H22.2747V16.642H22.1429V18.4652L21.623 18.9287C21.5613 18.8752 21.5008 18.8209 21.4416 18.766C20.8965 18.2612 20.4592 17.706 20.1592 17.1765C19.9719 16.846 19.8411 16.5307 19.7687 16.2476C19.9144 16.1629 20.0121 16.0072 20.0121 15.8291C20.0121 15.5605 19.79 15.3428 19.5162 15.3428C19.2423 15.3428 19.0203 15.5605 19.0203 15.8291C19.0203 16.0582 19.1818 16.2503 19.3994 16.3018C19.4804 16.6356 19.63 16.9934 19.834 17.3536C20.1539 17.9182 20.6155 18.5027 21.1862 19.0312C22.3259 20.0866 23.9191 20.9349 25.7151 20.9349C28.4742 20.9349 30.3585 19.7342 31.4845 18.1758C32.6047 16.6257 32.9739 14.7226 32.7169 13.3049L32.3507 13.3688C32.4311 13.8123 32.4456 14.311 32.3887 14.8337H26.0947V13.542H27.8072V10.442H25.963V7.74579C26.0042 7.74509 26.0455 7.74473 26.087 7.74473C27.7643 7.74473 29.1422 8.47353 30.1692 9.3915C31.0173 10.1496 31.617 11.0288 31.9405 11.7114C31.8476 11.7998 31.7899 11.9235 31.7899 12.0604C31.7899 12.329 32.012 12.5467 32.2858 12.5467C32.5597 12.5467 32.7817 12.329 32.7817 12.0604C32.7817 11.7918 32.5597 11.5741 32.2858 11.5741L32.2855 11.5741C31.9415 10.8419 31.3085 9.91638 30.4197 9.12197C29.3443 8.1607 27.881 7.38003 26.087 7.38003ZM21.791 11.7337L20.6344 10.5995C21.6704 9.10986 23.3177 7.96972 25.4361 7.77439V10.442H23.8554V11.7337H21.791ZM25.7151 20.5702C24.3249 20.5702 23.0511 20.0242 22.034 19.2606L22.5082 18.8378H24.3823V16.7551L25.9343 15.3503H28.9268V19.8711H28.9318C28.0474 20.3071 26.9806 20.5702 25.7151 20.5702ZM31.1811 17.965C30.7354 18.5818 30.1633 19.1408 29.4537 19.5815V15.3503H32.3104C32.1395 16.2307 31.7709 17.1486 31.1811 17.965ZM23.8554 16.9003H22.6698V18.3211H23.8554V16.9003ZM24.3823 10.9587V13.0253H27.2803V10.9587H24.3823Z" fill="url(#paint6_linear_361_959)"/>
    <defs>
    <linearGradient id="paint0_linear_361_959" x1="26" y1="0" x2="26" y2="29" gradientUnits="userSpaceOnUse">
    <stop stop-color="#9D19FF"/>
    <stop offset="1" stop-color="#7D9EFF"/>
    </linearGradient>
    <linearGradient id="paint1_linear_361_959" x1="26" y1="0" x2="26" y2="29" gradientUnits="userSpaceOnUse">
    <stop stop-color="#9D19FF"/>
    <stop offset="1" stop-color="#7D9EFF"/>
    </linearGradient>
    <linearGradient id="paint2_linear_361_959" x1="26" y1="0" x2="26" y2="29" gradientUnits="userSpaceOnUse">
    <stop stop-color="#9D19FF"/>
    <stop offset="1" stop-color="#7D9EFF"/>
    </linearGradient>
    <linearGradient id="paint3_linear_361_959" x1="26" y1="0" x2="26" y2="29" gradientUnits="userSpaceOnUse">
    <stop stop-color="#9D19FF"/>
    <stop offset="1" stop-color="#7D9EFF"/>
    </linearGradient>
    <linearGradient id="paint4_linear_361_959" x1="26" y1="0" x2="26" y2="29" gradientUnits="userSpaceOnUse">
    <stop stop-color="#9D19FF"/>
    <stop offset="1" stop-color="#7D9EFF"/>
    </linearGradient>
    <linearGradient id="paint5_linear_361_959" x1="26" y1="0" x2="26" y2="29" gradientUnits="userSpaceOnUse">
    <stop stop-color="#9D19FF"/>
    <stop offset="1" stop-color="#7D9EFF"/>
    </linearGradient>
    <linearGradient id="paint6_linear_361_959" x1="26" y1="0" x2="26" y2="29" gradientUnits="userSpaceOnUse">
    <stop stop-color="#9D19FF"/>
    <stop offset="1" stop-color="#7D9EFF"/>
    </linearGradient>
    </defs>
    </svg>
    