<svg width="73" height="49" viewBox="0 0 73 49" fill="none" xmlns="http://www.w3.org/2000/svg">
    <path fill-rule="evenodd" clip-rule="evenodd" d="M62.3854 27.2764C62.4315 26.8477 62.4492 26.4226 62.4401 26.0026C62.4218 25.1494 63.1568 24.4562 64.082 24.4544C65.0071 24.4525 65.772 25.1426 65.7903 25.9958C65.802 26.5374 65.7791 27.0843 65.7201 27.6344C65.661 28.1845 65.5673 28.7238 65.4409 29.2506C65.2419 30.0804 64.348 30.5925 63.4443 30.3943C62.5407 30.1961 61.9695 29.3627 62.1685 28.5328C62.2665 28.1243 62.3394 27.7052 62.3854 27.2764ZM62.9447 20.9814C62.1647 21.4277 61.1289 21.1999 60.631 20.4728C60.1346 19.7476 59.5468 19.0773 58.8812 18.4774C58.2137 17.8757 58.1921 16.8976 58.8329 16.2927C59.4737 15.6877 60.5343 15.685 61.2018 16.2867C62.0592 17.0595 62.8162 17.9227 63.4556 18.8567C63.9534 19.5839 63.7247 20.5351 62.9447 20.9814ZM61.5958 33.5467C62.2633 34.1484 62.2849 35.1265 61.6441 35.7315C60.821 36.5085 59.898 37.1913 58.8962 37.7645C58.1162 38.2108 57.0803 37.9831 56.5825 37.2559C56.0847 36.5287 56.3134 35.5775 57.0934 35.1312C57.8712 34.6862 58.5879 34.1559 59.2269 33.5527C59.8677 32.9477 60.9283 32.9451 61.5958 33.5467ZM52.8354 38.2434C52.8538 39.0966 52.1187 39.7897 51.1936 39.7916C50.6063 39.7928 50.0127 39.7621 49.415 39.6979C48.4941 39.5991 47.8214 38.8319 47.9124 37.9845C48.0033 37.137 48.8236 36.5302 49.7444 36.629C50.2102 36.6791 50.6717 36.7029 51.1271 36.702C52.0522 36.7001 52.8171 37.3902 52.8354 38.2434ZM55.3808 14.5323C55.1818 15.3622 54.2879 15.8742 53.3842 15.676C52.9394 15.5785 52.4834 15.5038 52.0176 15.4538C51.0967 15.355 50.424 14.5878 50.515 13.7404C50.6059 12.8929 51.4262 12.2861 52.347 12.3849C52.9447 12.4491 53.5314 12.5451 54.105 12.6709C55.0087 12.8691 55.5799 13.7025 55.3808 14.5323Z" fill="url(#paint0_linear_344_831)"/>
    <path fill-rule="evenodd" clip-rule="evenodd" d="M68.7769 27.9625C69.7538 18.8616 62.5521 10.6349 52.7046 9.57776C51.5689 9.45584 50.7392 8.50972 50.8514 7.46454C50.9636 6.41935 51.9752 5.6709 53.1109 5.79281C65.2406 7.09493 74.0899 17.2227 72.8896 28.404C71.6892 39.5853 60.892 47.6041 48.7623 46.302C47.6266 46.18 46.7969 45.2339 46.9091 44.1887C47.0213 43.1435 48.0329 42.3951 49.1686 42.517C59.0161 43.5741 67.7999 37.0634 68.7769 27.9625Z" fill="url(#paint1_linear_344_831)"/>
    <path d="M50.0215 30.1596C49.4893 30.1596 48.9793 30.0905 48.4915 29.9523C48.0036 29.8078 47.6108 29.6226 47.313 29.3964L47.8357 28.247C48.1208 28.448 48.4566 28.6145 48.8431 28.7464C49.2359 28.872 49.6319 28.9348 50.031 28.9348C50.3352 28.9348 50.5791 28.9065 50.7628 28.85C50.9529 28.7872 51.0923 28.7024 51.181 28.5956C51.2697 28.4888 51.314 28.3664 51.314 28.2282C51.314 28.0523 51.2443 27.9141 51.105 27.8136C50.9656 27.7068 50.7818 27.6221 50.5537 27.5592C50.3257 27.4902 50.0722 27.4273 49.7935 27.3708C49.521 27.308 49.2454 27.2326 48.9666 27.1447C48.6942 27.0568 48.4439 26.9437 48.2159 26.8055C47.9878 26.6673 47.8009 26.4852 47.6551 26.2591C47.5157 26.0329 47.4461 25.744 47.4461 25.3923C47.4461 25.0154 47.5474 24.6731 47.7502 24.3653C47.9593 24.0513 48.2697 23.8032 48.6815 23.621C49.0997 23.4326 49.6224 23.3384 50.2496 23.3384C50.6678 23.3384 51.0796 23.3886 51.4851 23.4891C51.8906 23.5833 52.2486 23.7278 52.559 23.9225L52.0838 25.0814C51.7734 24.9055 51.4629 24.7767 51.1525 24.6951C50.842 24.6072 50.5379 24.5632 50.2401 24.5632C49.9423 24.5632 49.6984 24.5977 49.5083 24.6668C49.3183 24.7359 49.1821 24.827 49.0997 24.94C49.0173 25.0468 48.9761 25.1724 48.9761 25.3169C48.9761 25.4865 49.0458 25.6247 49.1852 25.7315C49.3246 25.832 49.5083 25.9136 49.7364 25.9764C49.9645 26.0392 50.2148 26.102 50.4872 26.1649C50.766 26.2277 51.0416 26.2999 51.314 26.3815C51.5928 26.4632 51.8462 26.5731 52.0743 26.7113C52.3024 26.8495 52.4862 27.0316 52.6255 27.2578C52.7713 27.4839 52.8441 27.7697 52.8441 28.1151C52.8441 28.4857 52.7396 28.8249 52.5305 29.1326C52.3214 29.4404 52.0078 29.6885 51.5896 29.8769C51.1778 30.0654 50.6551 30.1596 50.0215 30.1596Z" fill="url(#paint2_linear_344_831)"/>
    <path d="M55.3217 26.4192H58.5149V27.644H55.3217V26.4192ZM55.4357 30.0465H53.8961V23.4514H58.9236V24.6762H55.4357V30.0465Z" fill="url(#paint3_linear_344_831)"/>
    <path d="M5.21399 0C2.35672 0 0 2.35151 0 5.20704V15.642C0 18.4645 1.37997 20.9568 3.47599 22.547V43.4499C3.47599 46.3072 5.83098 48.6639 8.68999 48.6639H39.9739C42.8329 48.6639 45.1879 46.3072 45.1879 43.4499V22.547C47.284 20.9568 48.6639 18.4627 48.6639 15.642V5.20704C48.6557 3.82738 48.1035 2.50667 47.1273 1.53174C46.151 0.556812 44.8296 0.00638409 43.4499 0H5.21399ZM5.21399 3.47599H43.4499C44.4441 3.47599 45.1879 4.21986 45.1879 5.20704V15.642C45.1879 18.5618 42.8938 20.856 39.9739 20.856H38.2359C35.3161 20.856 33.0219 18.5618 33.0219 15.642C32.9889 13.3565 29.579 13.3565 29.546 15.642C29.546 18.5618 27.2518 20.856 24.332 20.856C21.4121 20.856 19.118 18.5618 19.118 15.642C19.0849 13.3565 15.675 13.3565 15.642 15.642C15.642 18.5618 13.3478 20.856 10.428 20.856H8.68999C5.77015 20.856 3.47599 18.5618 3.47599 15.642V5.20704C3.47098 4.97775 3.51256 4.74983 3.59821 4.53709C3.68387 4.32434 3.81182 4.13119 3.97431 3.96935C4.13681 3.8075 4.33046 3.68033 4.54355 3.59553C4.75664 3.51072 4.98473 3.47006 5.21399 3.47599ZM17.38 20.5814C18.9042 22.7156 21.2557 24.2103 24.0365 24.3111L24.0574 24.3146C24.2285 24.34 24.4024 24.34 24.5735 24.3146C27.3787 24.2312 29.7493 22.7313 31.284 20.5814C32.8621 22.7938 35.3231 24.332 38.2359 24.332H39.9739C40.5578 24.3315 41.14 24.2721 41.7119 24.1547V43.4499C41.7119 44.4441 40.9663 45.1879 39.9739 45.1879H31.284V36.4979C31.284 33.6407 28.929 31.2839 26.07 31.2839H22.594C19.735 31.2839 17.38 33.6407 17.38 36.4979V45.1879H8.68999C7.69759 45.1879 6.95199 44.4441 6.95199 43.4499V24.1547C7.52388 24.2721 8.10616 24.3315 8.68999 24.332H10.428C13.3409 24.332 15.8019 22.7938 17.38 20.5814ZM22.594 34.7599H26.07C27.0624 34.7599 27.808 35.5055 27.808 36.4979V45.1879H20.856V36.4979C20.856 35.5055 21.6016 34.7599 22.594 34.7599Z" fill="url(#paint4_linear_344_831)"/>
    <defs>
    <linearGradient id="paint0_linear_344_831" x1="36.4993" y1="0" x2="36.4993" y2="48.6639" gradientUnits="userSpaceOnUse">
    <stop stop-color="#9D19FF"/>
    <stop offset="1" stop-color="#7D9EFF"/>
    </linearGradient>
    <linearGradient id="paint1_linear_344_831" x1="36.4993" y1="0" x2="36.4993" y2="48.6639" gradientUnits="userSpaceOnUse">
    <stop stop-color="#9D19FF"/>
    <stop offset="1" stop-color="#7D9EFF"/>
    </linearGradient>
    <linearGradient id="paint2_linear_344_831" x1="36.4993" y1="0" x2="36.4993" y2="48.6639" gradientUnits="userSpaceOnUse">
    <stop stop-color="#9D19FF"/>
    <stop offset="1" stop-color="#7D9EFF"/>
    </linearGradient>
    <linearGradient id="paint3_linear_344_831" x1="36.4993" y1="0" x2="36.4993" y2="48.6639" gradientUnits="userSpaceOnUse">
    <stop stop-color="#9D19FF"/>
    <stop offset="1" stop-color="#7D9EFF"/>
    </linearGradient>
    <linearGradient id="paint4_linear_344_831" x1="36.4993" y1="0" x2="36.4993" y2="48.6639" gradientUnits="userSpaceOnUse">
    <stop stop-color="#9D19FF"/>
    <stop offset="1" stop-color="#7D9EFF"/>
    </linearGradient>
    </defs>
    </svg>
    