<svg width="16" height="16" viewBox="0 0 16 16" fill="none" xmlns="http://www.w3.org/2000/svg">
<path fill-rule="evenodd" clip-rule="evenodd" d="M8.74996 4.8958L8 4.1336L7.25004 4.8958C6.8952 5.25642 6.43135 5.48424 5.93367 5.54233L4.88178 5.66512L4.99848 6.73834C5.05369 7.24612 4.93913 7.75804 4.67336 8.19109L4.11165 9.1064L5.00713 9.68249C5.43081 9.95506 5.75181 10.3656 5.91808 10.8475L6.26952 11.8661L7.26947 11.5112C7.74258 11.3434 8.25742 11.3434 8.73053 11.5112L9.73048 11.8661L10.0819 10.8475C10.2482 10.3656 10.5692 9.95506 10.9929 9.68249L11.8884 9.1064L11.3266 8.19109C11.0609 7.75803 10.9463 7.24612 11.0015 6.73834L11.1182 5.66512L10.0663 5.54233C9.56865 5.48424 9.10479 5.25642 8.74996 4.8958ZM8.78457 3.33062C8.35082 2.88979 7.64918 2.88979 7.21543 3.33062L6.46547 4.09282C6.28805 4.27313 6.05612 4.38704 5.80728 4.41608L4.7554 4.53887C4.14702 4.60988 3.70956 5.16935 3.77705 5.79006L3.89375 6.86329C3.92136 7.11718 3.86408 7.37314 3.73119 7.58967L3.16947 8.50497C2.8446 9.03435 3.00073 9.732 3.51864 10.0652L4.41412 10.6413C4.62597 10.7776 4.78646 10.9828 4.8696 11.2238L5.22104 12.2424C5.4243 12.8315 6.05645 13.142 6.63478 12.9367L7.63473 12.5819C7.87129 12.4979 8.12871 12.4979 8.36526 12.5819L9.36522 12.9367C9.94355 13.142 10.5757 12.8315 10.779 12.2424L11.1304 11.2238C11.2135 10.9828 11.374 10.7776 11.5859 10.6413L12.4814 10.0652C12.9993 9.732 13.1554 9.03435 12.8305 8.50497L12.2688 7.58967C12.1359 7.37314 12.0786 7.11718 12.1062 6.86329L12.2229 5.79006C12.2904 5.16935 11.853 4.60988 11.2446 4.53887L10.1927 4.41608C9.94388 4.38704 9.71195 4.27313 9.53453 4.09282L8.78457 3.33062Z" fill="#5781FF"/>
<path fill-rule="evenodd" clip-rule="evenodd" d="M8 8.76806C8.30693 8.76806 8.55575 8.51429 8.55575 8.20126C8.55575 7.88822 8.30693 7.63446 8 7.63446C7.69307 7.63446 7.44425 7.88822 7.44425 8.20126C7.44425 8.51429 7.69307 8.76806 8 8.76806ZM8 9.90166C8.9208 9.90166 9.66725 9.14037 9.66725 8.20126C9.66725 7.26215 8.9208 6.50086 8 6.50086C7.0792 6.50086 6.33275 7.26215 6.33275 8.20126C6.33275 9.14037 7.0792 9.90166 8 9.90166Z" fill="#5781FF"/>
<path d="M8 0C6.41775 0 4.87103 0.469192 3.55544 1.34824C2.23985 2.22729 1.21447 3.47672 0.608967 4.93853C0.00346625 6.40034 -0.15496 8.00887 0.153721 9.56072C0.462403 11.1126 1.22433 12.538 2.34315 13.6568C3.46197 14.7757 4.88743 15.5376 6.43928 15.8463C7.99113 16.155 9.59966 15.9965 11.0615 15.391C12.5233 14.7855 13.7727 13.7602 14.6518 12.4446C15.5308 11.129 16 9.58225 16 8C15.9977 5.87897 15.1541 3.84547 13.6543 2.34568C12.1545 0.845885 10.121 0.00229405 8 0ZM8 14.6667C6.68146 14.6667 5.39253 14.2757 4.2962 13.5431C3.19987 12.8106 2.34539 11.7694 1.84081 10.5512C1.33622 9.33305 1.2042 7.9926 1.46143 6.6994C1.71867 5.40619 2.35361 4.2183 3.28596 3.28595C4.21831 2.3536 5.40619 1.71867 6.6994 1.46143C7.99261 1.2042 9.33305 1.33622 10.5512 1.8408C11.7694 2.34539 12.8106 3.19987 13.5431 4.2962C14.2757 5.39252 14.6667 6.68146 14.6667 8C14.6647 9.76751 13.9617 11.4621 12.7119 12.7119C11.4621 13.9617 9.76752 14.6647 8 14.6667Z" fill="#5781FF"/>
</svg>
