<svg width="30" height="29" viewBox="0 0 30 29" fill="none" xmlns="http://www.w3.org/2000/svg">
<path d="M3.84596 0.304195C2.17896 0.304195 0.803998 1.67612 0.803998 3.3421V9.43007C0.803998 11.0768 1.6091 12.5308 2.83197 13.4586V25.6538C2.83197 27.3208 4.20592 28.6958 5.87393 28.6958H24.1257C25.7937 28.6958 27.1676 27.3208 27.1676 25.6538V13.4586C28.3905 12.5308 29.1956 11.0758 29.1956 9.43007V3.3421C29.1908 2.53717 28.8687 1.76664 28.2991 1.19785C27.7295 0.629051 26.9586 0.30792 26.1537 0.304195H3.84596ZM3.84596 2.33217H26.1537C26.7337 2.33217 27.1676 2.76615 27.1676 3.3421V9.43007C27.1676 11.1336 25.8292 12.472 24.1257 12.472H23.1117C21.4082 12.472 20.0697 11.1336 20.0697 9.43007C20.0505 8.09668 18.061 8.09668 18.0418 9.43007C18.0418 11.1336 16.7033 12.472 14.9998 12.472C13.2963 12.472 11.9578 11.1336 11.9578 9.43007C11.9386 8.09668 9.94914 8.09668 9.92987 9.43007C9.92987 11.1336 8.59141 12.472 6.88791 12.472H5.87393C4.17043 12.472 2.83197 11.1336 2.83197 9.43007V3.3421C2.82904 3.20833 2.8533 3.07535 2.90328 2.95123C2.95325 2.82711 3.0279 2.71443 3.1227 2.62C3.2175 2.52558 3.33049 2.45138 3.45481 2.40191C3.57913 2.35243 3.7122 2.3287 3.84596 2.33217ZM10.9439 12.3118C11.8331 13.557 13.205 14.429 14.8274 14.4878L14.8396 14.4899C14.9394 14.5047 15.0409 14.5047 15.1407 14.4899C16.7773 14.4412 18.1604 13.5661 19.0557 12.3118C19.9764 13.6026 21.4123 14.5 23.1117 14.5H24.1257C24.4663 14.4997 24.806 14.4651 25.1397 14.3966V25.6538C25.1397 26.2338 24.7047 26.6678 24.1257 26.6678H19.0557V21.5979C19.0557 19.9309 17.6818 18.5559 16.0138 18.5559H13.9858C12.3178 18.5559 10.9439 19.9309 10.9439 21.5979V26.6678H5.87393C5.29494 26.6678 4.85994 26.2338 4.85994 25.6538V14.3966C5.19359 14.4651 5.53331 14.4997 5.87393 14.5H6.88791C8.58736 14.5 10.0232 13.6026 10.9439 12.3118ZM13.9858 20.5839H16.0138C16.5928 20.5839 17.0278 21.0189 17.0278 21.5979V26.6678H12.9718V21.5979C12.9718 21.0189 13.4068 20.5839 13.9858 20.5839Z" fill="white"/>
<path fill-rule="evenodd" clip-rule="evenodd" d="M29.1956 3.3421V9.43007C29.1956 11.0758 28.3905 12.5308 27.1676 13.4586V25.6538C27.1676 27.3208 25.7937 28.6958 24.1257 28.6958H5.87393C4.20592 28.6958 2.83197 27.3208 2.83197 25.6538V13.4586C1.6091 12.5308 0.803998 11.0768 0.803998 9.43007V3.3421C0.803998 1.67612 2.17896 0.304195 3.84596 0.304195H26.1537C26.9586 0.30792 27.7295 0.629051 28.2991 1.19785C28.8687 1.76664 29.1908 2.53717 29.1956 3.3421ZM2.52797 13.6071C1.3027 12.6233 0.5 11.1242 0.5 9.43007V3.3421C0.5 1.50765 2.01162 0 3.84615 0H26.1553C27.0403 0.00409862 27.888 0.357194 28.5142 0.982606C29.1405 1.60802 29.4947 2.45524 29.5 3.34028L29.5 3.3421L29.5 9.43007C29.5 11.1232 28.6973 12.6232 27.472 13.607V25.6538C27.472 27.4888 25.962 29 24.1259 29H5.87413C4.03805 29 2.52797 27.4888 2.52797 25.6538V13.6071ZM3.83828 2.63626C3.74568 2.63386 3.65355 2.65029 3.56749 2.68454C3.48142 2.71879 3.4032 2.77016 3.33757 2.83553C3.27193 2.9009 3.22025 2.97891 3.18566 3.06484C3.15106 3.15077 3.13426 3.24283 3.13629 3.33544L3.13644 3.3421L3.13636 9.43007C3.13636 10.9656 4.33863 12.1678 5.87413 12.1678H6.88811C8.42361 12.1678 9.62588 10.9656 9.62588 9.43007V9.42568C9.65092 7.69255 12.2372 7.69255 12.2622 9.42568L12.2623 9.43007C12.2623 10.9656 13.4645 12.1678 15 12.1678C16.5355 12.1678 17.7378 10.9656 17.7378 9.43007V9.42568C17.7628 7.69255 20.3491 7.69255 20.3741 9.42568L20.3742 9.43007C20.3742 10.9656 21.5764 12.1678 23.1119 12.1678H24.1259C25.6614 12.1678 26.8636 10.9656 26.8636 9.43007V3.3421C26.8636 2.93496 26.5667 2.63636 26.1538 2.63636L3.83828 2.63626ZM14.8396 14.4899L14.8274 14.4878C13.3176 14.4331 12.0248 13.674 11.136 12.5654C11.0697 12.4827 11.0055 12.3982 10.9439 12.3118C10.8822 12.3982 10.8185 12.4828 10.7524 12.5655C9.83 13.7187 8.47362 14.5 6.88791 14.5H5.87393C5.63631 14.4998 5.39933 14.4829 5.16434 14.4494C5.06248 14.4349 4.96083 14.4173 4.85994 14.3966V25.6538C4.85994 26.2338 5.29494 26.6678 5.87393 26.6678H10.9439V21.5979C10.9439 19.9309 12.3178 18.5559 13.9858 18.5559H16.0138C17.6818 18.5559 19.0557 19.9309 19.0557 21.5979V26.6678H24.1257C24.7047 26.6678 25.1397 26.2338 25.1397 25.6538V14.3966C25.0388 14.4173 24.9375 14.4349 24.8357 14.4494C24.6007 14.4829 24.3633 14.4998 24.1257 14.5H23.1117C21.526 14.5 20.17 13.7187 19.2477 12.5655C19.1815 12.4828 19.1174 12.3982 19.0557 12.3118C18.9941 12.3982 18.9303 12.4828 18.8641 12.5654C17.9689 13.6827 16.6646 14.4445 15.1407 14.4899C15.0409 14.5047 14.9394 14.5047 14.8396 14.4899ZM15.167 14.7934C15.0444 14.8099 14.9199 14.8091 14.7974 14.7911C13.221 14.728 11.8755 13.9447 10.9443 12.8118C9.97395 13.9952 8.55408 14.8042 6.88811 14.8042H5.87413C5.63668 14.804 5.39941 14.7881 5.16434 14.7565V25.6538C5.16434 26.0656 5.46294 26.3636 5.87413 26.3636H10.6399V21.5979C10.6399 19.763 12.1499 18.2518 13.986 18.2518H16.014C17.8501 18.2518 19.3601 19.763 19.3601 21.5979V26.3636H24.1259C24.5371 26.3636 24.8357 26.0656 24.8357 25.6538V14.7565C24.6006 14.7881 24.3636 14.804 24.1261 14.8042H23.1119C21.446 14.8042 20.0261 13.9953 19.0558 12.8119C18.1174 13.9542 16.7592 14.7407 15.167 14.7934ZM20.0697 9.43007C20.0697 11.1336 21.4082 12.472 23.1117 12.472H24.1257C25.8292 12.472 27.1676 11.1336 27.1676 9.43007V3.3421C27.1676 2.76615 26.7337 2.33217 26.1537 2.33217H3.84596C3.7122 2.3287 3.57913 2.35243 3.45481 2.40191C3.33049 2.45138 3.2175 2.52558 3.1227 2.62C3.0279 2.71443 2.95325 2.82711 2.90328 2.95123C2.8533 3.07535 2.82904 3.20833 2.83197 3.3421V9.43007C2.83197 11.1336 4.17043 12.472 5.87393 12.472H6.88791C8.59141 12.472 9.92987 11.1336 9.92987 9.43007C9.94914 8.09668 11.9386 8.09668 11.9578 9.43007C11.9578 11.1336 13.2963 12.472 14.9998 12.472C16.7033 12.472 18.0418 11.1336 18.0418 9.43007C18.061 8.09668 20.0505 8.09668 20.0697 9.43007ZM16.7238 21.5979C16.7238 21.1869 16.425 20.8881 16.014 20.8881H13.986C13.575 20.8881 13.2762 21.1869 13.2762 21.5979V26.3636H16.7238V21.5979ZM16.0138 20.5839H13.9858C13.4068 20.5839 12.9718 21.0189 12.9718 21.5979V26.6678H17.0278V21.5979C17.0278 21.0189 16.5928 20.5839 16.0138 20.5839Z" fill="white"/>
</svg>
