<svg width="16" height="16" viewBox="0 0 16 16" fill="none" xmlns="http://www.w3.org/2000/svg">
<path d="M8 0C6.41775 0 4.87103 0.469192 3.55544 1.34824C2.23985 2.22729 1.21447 3.47672 0.608967 4.93853C0.00346631 6.40034 -0.15496 8.00887 0.153721 9.56072C0.462403 11.1126 1.22433 12.538 2.34315 13.6569C3.46197 14.7757 4.88743 15.5376 6.43928 15.8463C7.99113 16.155 9.59966 15.9965 11.0615 15.391C12.5233 14.7855 13.7727 13.7602 14.6518 12.4446C15.5308 11.129 16 9.58225 16 8C15.9977 5.87897 15.1541 3.84547 13.6543 2.34568C12.1545 0.845885 10.121 0.00229405 8 0ZM8 14.6667C6.68146 14.6667 5.39253 14.2757 4.2962 13.5431C3.19987 12.8106 2.34539 11.7694 1.84081 10.5512C1.33622 9.33305 1.2042 7.9926 1.46143 6.6994C1.71867 5.40619 2.35361 4.2183 3.28596 3.28595C4.21831 2.3536 5.40619 1.71867 6.6994 1.46143C7.99261 1.2042 9.33305 1.33622 10.5512 1.8408C11.7694 2.34539 12.8106 3.19987 13.5431 4.2962C14.2757 5.39253 14.6667 6.68146 14.6667 8C14.6647 9.76751 13.9617 11.4621 12.7119 12.7119C11.4621 13.9617 9.76752 14.6647 8 14.6667Z" fill="#9D1AFF"/>
<path fill-rule="evenodd" clip-rule="evenodd" d="M12.5413 4.76216C12.828 5.06113 12.8181 5.5359 12.5191 5.82259L6.81596 11.2913C6.52142 11.5738 6.0551 11.5689 5.76654 11.2803L3.46967 8.98345C3.17678 8.69056 3.17678 8.21569 3.46967 7.92279C3.76256 7.6299 4.23744 7.6299 4.53033 7.92279L6.30788 9.70035L11.4809 4.73991C11.7799 4.45323 12.2546 4.46319 12.5413 4.76216Z" fill="#9D1AFF"/>
</svg>
