<svg width="135" height="135" viewBox="0 0 135 135" fill="none" xmlns="http://www.w3.org/2000/svg">
    <path opacity="0.3"
        d="M67.2414 0C49.414 0.0199332 32.3224 7.11067 19.7166 19.7166C7.11067 32.3224 0.0199332 49.414 0 67.2414C0.0298697 85.0657 7.1238 102.151 19.7275 114.755C32.3313 127.359 49.417 134.453 67.2414 134.483C85.0749 134.483 102.178 127.398 114.788 114.788C127.398 102.178 134.483 85.0749 134.483 67.2414C134.483 49.4079 127.398 32.3047 114.788 19.6945C102.178 7.08434 85.0749 0 67.2414 0V0ZM108.14 106.042C104.364 98.4253 98.5339 92.0151 91.3083 87.5351C84.0826 83.0552 75.7487 80.6836 67.2468 80.6881C58.745 80.6926 50.4136 83.0729 43.1927 87.5605C35.9717 92.0481 30.1485 98.4643 26.3801 106.085C16.3257 95.6576 10.7233 81.7268 10.7586 67.2414C10.7586 52.2612 16.7095 37.8946 27.302 27.302C37.8946 16.7095 52.2612 10.7586 67.2414 10.7586C82.2215 10.7586 96.5881 16.7095 107.181 27.302C117.773 37.8946 123.724 52.2612 123.724 67.2414C123.758 81.7066 118.17 95.619 108.14 106.042ZM67.2414 26.8966C62.4537 26.8966 57.7736 28.3163 53.7927 30.9761C49.8119 33.636 46.7093 37.4166 44.8771 41.8399C43.045 46.2631 42.5656 51.1303 43.4996 55.826C44.4336 60.5217 46.7391 64.8349 50.1245 68.2203C53.5099 71.6057 57.8232 73.9112 62.5188 74.8452C67.2145 75.7792 72.0817 75.2999 76.5049 73.4677C80.9282 71.6355 84.7088 68.5329 87.3687 64.5521C90.0286 60.5713 91.4483 55.8911 91.4483 51.1034C91.4483 47.9246 90.8221 44.7768 89.6056 41.8399C88.3891 38.903 86.6061 36.2344 84.3582 33.9866C82.1104 31.7388 79.4419 29.9557 76.5049 28.7392C73.568 27.5227 70.4203 26.8966 67.2414 26.8966V26.8966Z"
        fill="url(#paint0_linear_276_591)" />
    <defs>
        <linearGradient id="paint0_linear_276_591" x1="67.2414" y1="0" x2="67.2414" y2="134.483"
            gradientUnits="userSpaceOnUse">
            <stop stop-color="#9D19FF" />
            <stop offset="1" stop-color="#7D9EFF" />
        </linearGradient>
    </defs>
</svg>
    