<svg width="96" height="101" viewBox="0 0 96 101" fill="none" xmlns="http://www.w3.org/2000/svg">
<path fill-rule="evenodd" clip-rule="evenodd" d="M87.4996 12.8005C88.0637 13.4105 88.0265 14.3624 87.4164 14.9264L72.341 28.866L64.0842 21.8202C63.4522 21.2809 63.3771 20.3313 63.9164 19.6993C64.4557 19.0673 65.4053 18.9922 66.0373 19.5315L72.2608 24.8422L85.3737 12.7173C85.9838 12.1532 86.9356 12.1905 87.4996 12.8005Z" fill="url(#paint0_linear_18_102)"/>
<path fill-rule="evenodd" clip-rule="evenodd" d="M75.9693 35.496C84.5807 35.496 91.5617 28.515 91.5617 19.9036C91.5617 11.2921 84.5807 4.31116 75.9693 4.31116C67.3578 4.31116 60.3768 11.2921 60.3768 19.9036C60.3768 28.515 67.3578 35.496 75.9693 35.496ZM75.9693 39.3072C86.6856 39.3072 95.3728 30.6199 95.3728 19.9036C95.3728 9.18728 86.6856 0.5 75.9693 0.5C65.253 0.5 56.5657 9.18728 56.5657 19.9036C56.5657 30.6199 65.253 39.3072 75.9693 39.3072Z" fill="url(#paint1_linear_18_102)"/>
<path fill-rule="evenodd" clip-rule="evenodd" d="M17.4511 18.252C15.0693 18.252 13.1385 20.1828 13.1385 22.5646C13.1385 23.6171 12.2853 24.4702 11.2329 24.4702C10.1805 24.4702 9.32732 23.6171 9.32732 22.5646C9.32732 18.078 12.9645 14.4408 17.4511 14.4408H52.1638C53.2163 14.4408 54.0694 15.294 54.0694 16.3464C54.0694 17.3988 53.2163 18.252 52.1638 18.252H17.4511ZM80.159 42.7257C81.2115 42.7257 82.0646 43.5788 82.0646 44.6312V87.1609C82.0646 94.5279 76.0925 100.5 68.7256 100.5H22.6664C15.2994 100.5 9.32732 94.5279 9.32732 87.1609V81.3146C9.32732 80.2622 10.1805 79.409 11.2329 79.409C12.2853 79.409 13.1385 80.2622 13.1385 81.3146V87.1609C13.1385 92.4231 17.4043 96.6888 22.6664 96.6888H68.7256C73.9877 96.6888 78.2535 92.423 78.2535 87.1609V44.6312C78.2535 43.5788 79.1066 42.7257 80.159 42.7257Z" fill="url(#paint2_linear_18_102)"/>
<path fill-rule="evenodd" clip-rule="evenodd" d="M14.8293 38.2188C15.9048 37.1267 17.4667 36.7919 18.6786 36.7919C19.0318 36.7919 19.3475 36.8077 19.6026 36.8218L19.6416 36.8231C19.9718 36.834 20.7071 36.8583 21.3913 37.3026C22.1092 37.7687 22.4976 38.4969 22.7731 39.1489L22.7749 39.1532L22.7767 39.1574C22.8933 39.4376 23.0413 39.7937 23.2057 40.1893C23.4694 40.824 23.7755 41.5606 24.063 42.2498C24.2957 42.8077 24.514 43.3294 24.6847 43.7334C24.7702 43.9357 24.8425 44.1057 24.8983 44.2349C24.9262 44.2996 24.9488 44.3515 24.9661 44.3906C24.9745 44.4096 24.9805 44.423 24.9844 44.4316C24.9876 44.4387 24.9894 44.4427 24.9901 44.444C24.9904 44.4448 24.9904 44.4447 24.9899 44.4438C25.1832 44.8459 25.7429 46.0645 25.0838 47.37C24.7619 48.0432 24.4264 48.4268 24.1095 48.7892L24.0688 48.8358C24.052 48.8549 24.0353 48.8741 24.0187 48.8933C23.8308 49.1098 23.6438 49.3062 23.4896 49.4681C23.4655 49.4934 23.4421 49.518 23.4197 49.5416C23.2867 49.6817 23.173 49.8036 23.0652 49.9291C23.6448 50.851 24.8735 52.6492 26.5332 54.1132L26.5334 54.1134C28.8651 56.1708 30.7525 56.9286 31.6733 57.2983L31.6745 57.2988C31.7324 57.322 31.7864 57.3437 31.8364 57.3641C32.222 56.9147 32.6969 56.2521 33.2623 55.4631L33.2649 55.4594L33.2652 55.4591C33.3348 55.3619 33.4059 55.2628 33.4783 55.1619C33.9264 54.5358 34.5443 54.0429 35.3332 53.8394C36.0899 53.6442 36.7975 53.7688 37.3595 53.9769C37.8362 54.1472 38.999 54.6948 39.9966 55.172C41.0769 55.6888 42.1636 56.2211 42.5374 56.4054L42.5405 56.4069C42.6257 56.4491 42.7339 56.5008 42.8499 56.5563L42.8501 56.5564C43.0776 56.6651 43.3351 56.7882 43.5088 56.8823C43.782 57.0303 44.3446 57.3494 44.7027 57.9673L44.7082 57.9769L44.7137 57.9866C44.9697 58.4412 45.0149 58.9452 45.0312 59.172C45.0543 59.4933 45.0473 59.8543 45.0139 60.233C44.947 60.9938 44.7644 61.9296 44.4108 62.9246C43.924 64.2945 42.8112 65.3419 41.7461 66.0556C40.647 66.792 39.3552 67.3379 38.1648 67.5925L38.1626 67.593L38.1603 67.5935C37.3565 67.7633 36.3718 67.9166 34.7849 67.667C33.2745 67.4295 31.2587 66.8346 28.3183 65.6264C24.3014 63.9779 21.0661 61.1647 18.8224 58.774C17.6919 57.5694 16.7926 56.4501 16.1517 55.6005C15.8308 55.1751 15.5745 54.8171 15.3871 54.5507C15.3113 54.443 15.246 54.3492 15.1948 54.2756L15.1624 54.2289C15.1265 54.1775 15.1064 54.1489 15.0965 54.1349C15.0876 54.1223 15.0871 54.1216 15.0911 54.1267L15.0763 54.1075L15.0621 54.0878C15.0562 54.0798 15.0496 54.0707 15.0423 54.0607L15.0157 54.0243C14.7738 53.6944 14.0142 52.6581 13.2981 51.2586C12.5401 49.7771 11.7441 47.7264 11.7441 45.5343C11.7441 41.3241 13.9147 39.1394 14.7721 38.2764C14.7919 38.2565 14.811 38.2373 14.8293 38.2188ZM18.6786 40.4025C17.9716 40.4025 17.5312 40.6207 17.4015 40.7526L17.399 40.7551L17.3966 40.7576C17.3754 40.779 17.3534 40.801 17.3308 40.8238C16.6493 41.5086 15.3546 42.8095 15.3546 45.5343C15.3546 46.9054 15.8707 48.36 16.5124 49.614C17.0937 50.7501 17.7069 51.588 17.9374 51.903C17.9535 51.9251 17.9678 51.9445 17.98 51.9613C18.0222 52.0185 18.0834 52.1054 18.1629 52.2183L18.1631 52.2185C19.2106 53.7064 23.4483 59.7251 29.6891 62.2861L29.6899 62.2864C32.5125 63.4464 34.2331 63.9253 35.3458 64.1003C36.3806 64.263 36.9059 64.1681 37.4117 64.0614C38.1374 63.9058 39.0046 63.5463 39.7363 63.056C40.5027 62.5425 40.8929 62.0413 41.0087 61.7155C41.2578 61.0147 41.3765 60.3792 41.4173 59.9164C41.4177 59.9115 41.4181 59.9068 41.4185 59.902C41.4193 59.893 41.42 59.884 41.4207 59.8752L41.3835 59.8575C41.2557 59.7967 41.1022 59.7237 40.9402 59.6435C40.5739 59.4629 39.5015 58.9376 38.4385 58.4291C37.9061 58.1744 37.3819 57.9268 36.9523 57.7297C36.7372 57.631 36.5517 57.5477 36.404 57.4837C36.3619 57.4655 36.3243 57.4494 36.291 57.4354L36.182 57.5877C35.5761 58.4352 34.8932 59.3903 34.3055 60.0184L34.2993 60.025L34.2929 60.0317C33.1924 61.1842 31.6091 61.1762 30.5292 60.7304L30.5272 60.7296L30.5252 60.7288C30.4588 60.7012 30.3813 60.6701 30.2932 60.6347C29.2952 60.2339 26.9414 59.2885 24.1448 56.8209C21.7591 54.7166 20.1717 52.1356 19.7219 51.3835L19.718 51.3769L19.7141 51.3702C19.2717 50.616 19.1452 49.7827 19.423 48.9724C19.625 48.383 20.0206 47.9323 20.165 47.7677L20.1836 47.7464C20.4065 47.4744 20.6196 47.247 20.8011 47.0558C20.8287 47.0266 20.8554 46.9986 20.8812 46.9715L20.8813 46.9714C21.0376 46.8071 21.1625 46.6758 21.2917 46.5269L21.391 46.4127C21.5338 46.2485 21.6014 46.1707 21.6651 46.0857C21.6864 46.0573 21.7071 46.0281 21.7289 45.9934C21.5427 45.5974 20.5235 43.1442 19.8424 41.5048L19.8423 41.5045C19.6882 41.1336 19.5514 40.8044 19.4455 40.5501C19.4259 40.504 19.4078 40.4628 19.3909 40.4262C19.1545 40.4132 18.9244 40.4025 18.6786 40.4025ZM31.8002 57.6514L31.9015 57.4058C31.8558 57.4162 31.7669 57.4489 31.6817 57.5382L31.8002 57.6514Z" fill="url(#paint3_linear_18_102)"/>
<path fill-rule="evenodd" clip-rule="evenodd" d="M0 52.051C0 36.5636 12.5904 23.9687 28.0752 23.9687H28.0893C43.5741 23.9687 56.1645 36.5636 56.1645 52.051C56.1645 54.985 55.7126 57.8152 54.8748 60.4757H70.6068C71.6038 60.4757 72.4121 61.2839 72.4121 62.281C72.4121 63.278 71.6038 64.0862 70.6068 64.0862H53.4547C51.854 67.4492 49.604 70.4455 46.8679 72.9121H70.6068C71.6038 72.9121 72.4121 73.7204 72.4121 74.7174C72.4121 75.7144 71.6038 76.5227 70.6068 76.5227H42.1234C42.0415 76.5227 41.9608 76.5172 41.8818 76.5066C37.8071 78.8143 33.1013 80.1326 28.0926 80.1332C22.8889 80.143 17.7922 78.6974 13.3752 75.9682L0.687688 80.0213L4.80672 67.7435C1.76996 63.2622 0 57.8536 0 52.051ZM50.8467 61.0347C50.5544 61.3408 50.3688 61.7496 50.3492 62.2014C46.4866 70.6436 37.9614 76.5227 28.0893 76.5227H28.0859C23.3009 76.5316 18.6198 75.1271 14.6301 72.4853L13.9085 72.0075L6.37743 74.4133L8.81631 67.1436L8.26796 66.3903C5.33572 62.3622 3.61058 57.403 3.61058 52.051C3.61058 38.5567 14.5854 27.5793 28.0752 27.5793H28.0893C41.5791 27.5793 52.5539 38.5567 52.5539 52.051C52.5539 55.221 51.9483 58.2521 50.8467 61.0347Z" fill="url(#paint4_linear_18_102)"/>
<path d="M20.0588 85.7497C19.0617 85.7497 18.2535 86.5579 18.2535 87.555C18.2535 88.552 19.0617 89.3603 20.0588 89.3603H70.6068C71.6038 89.3603 72.4121 88.552 72.4121 87.555C72.4121 86.5579 71.6038 85.7497 70.6068 85.7497H20.0588Z" fill="url(#paint5_linear_18_102)"/>
<defs>
<linearGradient id="paint0_linear_18_102" x1="47.6864" y1="0.5" x2="47.6864" y2="100.5" gradientUnits="userSpaceOnUse">
<stop stop-color="#9D19FF"/>
<stop offset="1" stop-color="#7D9EFF"/>
</linearGradient>
<linearGradient id="paint1_linear_18_102" x1="47.6864" y1="0.5" x2="47.6864" y2="100.5" gradientUnits="userSpaceOnUse">
<stop stop-color="#9D19FF"/>
<stop offset="1" stop-color="#7D9EFF"/>
</linearGradient>
<linearGradient id="paint2_linear_18_102" x1="47.6864" y1="0.5" x2="47.6864" y2="100.5" gradientUnits="userSpaceOnUse">
<stop stop-color="#9D19FF"/>
<stop offset="1" stop-color="#7D9EFF"/>
</linearGradient>
<linearGradient id="paint3_linear_18_102" x1="47.6864" y1="0.5" x2="47.6864" y2="100.5" gradientUnits="userSpaceOnUse">
<stop stop-color="#9D19FF"/>
<stop offset="1" stop-color="#7D9EFF"/>
</linearGradient>
<linearGradient id="paint4_linear_18_102" x1="47.6864" y1="0.5" x2="47.6864" y2="100.5" gradientUnits="userSpaceOnUse">
<stop stop-color="#9D19FF"/>
<stop offset="1" stop-color="#7D9EFF"/>
</linearGradient>
<linearGradient id="paint5_linear_18_102" x1="47.6864" y1="0.5" x2="47.6864" y2="100.5" gradientUnits="userSpaceOnUse">
<stop stop-color="#9D19FF"/>
<stop offset="1" stop-color="#7D9EFF"/>
</linearGradient>
</defs>
</svg>
