<svg width="95" height="100" viewBox="0 0 95 100" fill="none" xmlns="http://www.w3.org/2000/svg">
    <path fill-rule="evenodd" clip-rule="evenodd" d="M87.1576 12.3005C87.7195 12.9105 87.6823 13.8624 87.0747 14.4264L72.0582 28.366L63.8337 21.3202C63.2042 20.7809 63.1293 19.8313 63.6665 19.1993C64.2038 18.5673 65.1496 18.4922 65.7792 19.0315L71.9784 24.3422L85.04 12.2173C85.6476 11.6532 86.5957 11.6905 87.1576 12.3005Z" fill="url(#paint0_linear_18_58)" />
    <path fill-rule="evenodd" clip-rule="evenodd" d="M75.6723 34.996C84.2501 34.996 91.2037 28.015 91.2037 19.4036C91.2037 10.7921 84.2501 3.81116 75.6723 3.81116C67.0945 3.81116 60.1408 10.7921 60.1408 19.4036C60.1408 28.015 67.0945 34.996 75.6723 34.996ZM75.6723 38.8072C86.3467 38.8072 95 30.1199 95 19.4036C95 8.68728 86.3467 0 75.6723 0C64.9979 0 56.3446 8.68728 56.3446 19.4036C56.3446 30.1199 64.9979 38.8072 75.6723 38.8072Z" fill="url(#paint1_linear_18_58)" />
    <path fill-rule="evenodd" clip-rule="evenodd" d="M17.3829 17.752C15.0104 17.752 13.0871 19.6828 13.0871 22.0646C13.0871 23.1171 12.2373 23.9702 11.189 23.9702C10.1407 23.9702 9.29086 23.1171 9.29086 22.0646C9.29086 17.578 12.9138 13.9408 17.3829 13.9408H51.9599C53.0082 13.9408 53.858 14.794 53.858 15.8464C53.858 16.8988 53.0082 17.752 51.9599 17.752H17.3829ZM79.8457 42.2257C80.894 42.2257 81.7438 43.0788 81.7438 44.1312V86.6609C81.7438 94.0279 75.7951 100 68.4569 100H22.5778C15.2396 100 9.29086 94.0279 9.29086 86.6609V80.8146C9.29086 79.7622 10.1407 78.909 11.189 78.909C12.2373 78.909 13.0871 79.7622 13.0871 80.8146V86.6609C13.0871 91.923 17.3362 96.1888 22.5778 96.1888H68.4569C73.6984 96.1888 77.9475 91.923 77.9475 86.6609V44.1312C77.9475 43.0788 78.7974 42.2257 79.8457 42.2257Z" fill="url(#paint2_linear_18_58)" />
    <path fill-rule="evenodd" clip-rule="evenodd" d="M14.7714 37.7188C15.8427 36.6267 17.3985 36.2919 18.6056 36.2919C18.9574 36.2919 19.2718 36.3077 19.526 36.3218L19.5648 36.3231C19.8937 36.334 20.6262 36.3583 21.3076 36.8026C22.0227 37.2687 22.4097 37.9969 22.684 38.6489L22.6858 38.6532L22.6876 38.6574C22.8038 38.9376 22.9512 39.2937 23.115 39.6893C23.3777 40.324 23.6826 41.0606 23.9689 41.7498C24.2007 42.3077 24.4182 42.8294 24.5882 43.2334C24.6733 43.4357 24.7454 43.6057 24.8009 43.7349C24.8287 43.7996 24.8512 43.8515 24.8685 43.8906C24.8769 43.9096 24.8828 43.923 24.8867 43.9316C24.8899 43.9387 24.8918 43.9427 24.8924 43.944C24.8927 43.9448 24.8927 43.9447 24.8923 43.9438C25.0848 44.3459 25.6423 45.5645 24.9857 46.87C24.6651 47.5432 24.331 47.9268 24.0152 48.2892L23.9747 48.3358C23.958 48.3549 23.9414 48.3741 23.9248 48.3933C23.7377 48.6098 23.5514 48.8062 23.3978 48.9681C23.3737 48.9934 23.3504 49.018 23.3281 49.0416C23.1956 49.1817 23.0825 49.3036 22.975 49.4291C23.5524 50.351 24.7762 52.1492 26.4294 53.6132L26.4296 53.6134C28.7523 55.6708 30.6323 56.4286 31.5495 56.7983L31.5507 56.7988C31.6083 56.822 31.6621 56.8437 31.712 56.8641C32.0961 56.4147 32.5691 55.7521 33.1322 54.9631L33.1349 54.9594L33.1351 54.9591C33.2045 54.8619 33.2753 54.7628 33.3474 54.6619C33.7937 54.0358 34.4092 53.5429 35.195 53.3394C35.9488 53.1442 36.6536 53.2688 37.2135 53.4769C37.6883 53.6472 38.8465 54.1948 39.8402 54.672C40.9163 55.1888 41.9988 55.7211 42.3711 55.9054L42.3742 55.9069C42.4591 55.9491 42.5668 56.0008 42.6824 56.0563L42.6826 56.0564C42.9092 56.1651 43.1657 56.2882 43.3387 56.3823C43.6109 56.5303 44.1712 56.8494 44.5279 57.4673L44.5335 57.4769L44.5389 57.4866C44.7939 57.9412 44.8389 58.4452 44.8552 58.672C44.8781 58.9933 44.8712 59.3543 44.838 59.733C44.7712 60.4938 44.5894 61.4296 44.2372 62.4246C43.7523 63.7945 42.6438 64.8419 41.5829 65.5556C40.4881 66.292 39.2013 66.8379 38.0156 67.0925L38.0134 67.093L38.0111 67.0935C37.2104 67.2633 36.2296 67.4166 34.6489 67.167C33.1444 66.9295 31.1365 66.3346 28.2076 65.1264C24.2064 63.4779 20.9838 60.6647 18.7488 58.274C17.6228 57.0694 16.727 55.9501 16.0886 55.1005C15.769 54.6751 15.5136 54.3171 15.327 54.0507C15.2515 53.943 15.1864 53.8492 15.1354 53.7756L15.1031 53.7289C15.0674 53.6775 15.0473 53.6489 15.0375 53.6349C15.0287 53.6223 15.0281 53.6216 15.0321 53.6267L15.0174 53.6075L15.0032 53.5878C14.9974 53.5798 14.9908 53.5707 14.9835 53.5607L14.957 53.5243C14.7161 53.1944 13.9594 52.1581 13.2461 50.7586C12.491 49.2771 11.6982 47.2264 11.6982 45.0343C11.6982 40.8241 13.8603 38.6394 14.7144 37.7764C14.7341 37.7565 14.7531 37.7373 14.7714 37.7188ZM18.6056 39.9025C17.9014 39.9025 17.4626 40.1207 17.3335 40.2526L17.331 40.2551L17.3285 40.2576C17.3074 40.279 17.2856 40.301 17.2631 40.3238C16.5842 41.0086 15.2946 42.3095 15.2946 45.0343C15.2946 46.4054 15.8087 47.86 16.4478 49.114C17.0269 50.2501 17.6376 51.088 17.8673 51.403C17.8834 51.4251 17.8975 51.4445 17.9097 51.4613C17.9518 51.5185 18.0127 51.6054 18.0919 51.7183L18.0921 51.7185C19.1355 53.2064 23.3566 59.2251 29.573 61.7861L29.5738 61.7864C32.3854 62.9464 34.0992 63.4253 35.2076 63.6003C36.2383 63.763 36.7617 63.6681 37.2654 63.5614C37.9883 63.4058 38.8521 63.0463 39.581 62.556C40.3444 62.0425 40.7331 61.5413 40.8484 61.2155C41.0965 60.5147 41.2148 59.8792 41.2554 59.4164C41.2558 59.4115 41.2562 59.4068 41.2566 59.402C41.2574 59.393 41.2581 59.384 41.2588 59.3752L41.2217 59.3575C41.0944 59.2967 40.9415 59.2237 40.7802 59.1435C40.4153 58.9629 39.3471 58.4376 38.2883 57.9291C37.7579 57.6744 37.2358 57.4268 36.8079 57.2297C36.5936 57.131 36.4088 57.0477 36.2617 56.9837C36.2198 56.9655 36.1823 56.9494 36.1491 56.9354L36.0406 57.0877C35.437 57.9352 34.7568 58.8903 34.1714 59.5184L34.1652 59.525L34.1589 59.5317C33.0627 60.6842 31.4855 60.6762 30.4098 60.2304L30.4078 60.2296L30.4058 60.2288C30.3398 60.2012 30.2625 60.1701 30.1747 60.1347C29.1807 59.7339 26.8361 58.7885 24.0504 56.3209C21.6741 54.2166 20.0929 51.6356 19.6448 50.8835L19.6409 50.8769L19.637 50.8702C19.1964 50.116 19.0703 49.2827 19.347 48.4724C19.5483 47.883 19.9423 47.4323 20.0862 47.2677L20.1047 47.2464C20.3267 46.9744 20.539 46.747 20.7198 46.5558C20.7473 46.5266 20.7738 46.4986 20.7995 46.4715L20.7997 46.4714C20.9554 46.3071 21.0798 46.1758 21.2085 46.0269L21.3074 45.9127C21.4496 45.7485 21.517 45.6707 21.5804 45.5858C21.6016 45.5573 21.6223 45.5281 21.6439 45.4934C21.4585 45.0974 20.4432 42.6442 19.7648 41.0048L19.7647 41.0045C19.6112 40.6336 19.475 40.3044 19.3695 40.0501C19.35 40.004 19.3319 39.9628 19.3151 39.9262C19.0796 39.9132 18.8504 39.9025 18.6056 39.9025ZM31.6759 57.1514L31.7768 56.9058C31.7313 56.9162 31.6427 56.9489 31.5578 57.0382L31.6759 57.1514Z" fill="url(#paint3_linear_18_58)" />
    <path fill-rule="evenodd" clip-rule="evenodd" d="M0 51.551C0 36.0636 12.5412 23.4687 27.9655 23.4687H27.9795C43.4038 23.4687 55.9449 36.0636 55.9449 51.551C55.9449 54.485 55.4948 57.3152 54.6603 59.9757H70.3308C71.3239 59.9757 72.129 60.7839 72.129 61.781C72.129 62.778 71.3239 63.5862 70.3308 63.5862H53.2458C51.6513 66.9492 49.4101 69.9455 46.6846 72.4121H70.3308C71.3239 72.4121 72.129 73.2204 72.129 74.2174C72.129 75.2144 71.3239 76.0227 70.3308 76.0227H41.9587C41.8771 76.0227 41.7968 76.0172 41.7181 76.0066C37.6593 78.3143 32.9719 79.6326 27.9828 79.6332C22.7994 79.643 17.7226 78.1974 13.3229 75.4682L0.684999 79.5213L4.78793 67.2435C1.76304 62.7622 0 57.3536 0 51.551ZM50.6479 60.5347C50.3568 60.8408 50.1719 61.2496 50.1524 61.7014C46.3049 70.1436 37.813 76.0227 27.9795 76.0227H27.9761C23.2098 76.0316 18.547 74.6271 14.5729 71.9853L13.8541 71.5075L6.3525 73.9133L8.78185 66.6436L8.23564 65.8903C5.31486 61.8622 3.59646 56.903 3.59646 51.551C3.59646 38.0567 14.5284 27.0793 27.9655 27.0793H27.9795C41.4166 27.0793 52.3485 38.0567 52.3485 51.551C52.3485 54.721 51.7452 57.7521 50.6479 60.5347Z" fill="url(#paint4_linear_18_58)" />
    <path d="M19.9803 85.2497C18.9872 85.2497 18.1821 86.058 18.1821 87.055C18.1821 88.052 18.9872 88.8603 19.9803 88.8603H70.3308C71.3239 88.8603 72.129 88.052 72.129 87.055C72.129 86.058 71.3239 85.2497 70.3308 85.2497H19.9803Z" fill="url(#paint5_linear_18_58)" />
    <defs>
        <linearGradient id="paint0_linear_18_58" x1="47.5" y1="0" x2="47.5" y2="100" gradientUnits="userSpaceOnUse">
            <stop stop-color="#8C72A0" />
            <stop offset="1" stop-color="#C2C6D4" />
        </linearGradient>
        <linearGradient id="paint1_linear_18_58" x1="47.5" y1="0" x2="47.5" y2="100" gradientUnits="userSpaceOnUse">
            <stop stop-color="#8C72A0" />
            <stop offset="1" stop-color="#C2C6D4" />
        </linearGradient>
        <linearGradient id="paint2_linear_18_58" x1="47.5" y1="0" x2="47.5" y2="100" gradientUnits="userSpaceOnUse">
            <stop stop-color="#8C72A0" />
            <stop offset="1" stop-color="#C2C6D4" />
        </linearGradient>
        <linearGradient id="paint3_linear_18_58" x1="47.5" y1="0" x2="47.5" y2="100" gradientUnits="userSpaceOnUse">
            <stop stop-color="#8C72A0" />
            <stop offset="1" stop-color="#C2C6D4" />
        </linearGradient>
        <linearGradient id="paint4_linear_18_58" x1="47.5" y1="0" x2="47.5" y2="100" gradientUnits="userSpaceOnUse">
            <stop stop-color="#8C72A0" />
            <stop offset="1" stop-color="#C2C6D4" />
        </linearGradient>
        <linearGradient id="paint5_linear_18_58" x1="47.5" y1="0" x2="47.5" y2="100" gradientUnits="userSpaceOnUse">
            <stop stop-color="#8C72A0" />
            <stop offset="1" stop-color="#C2C6D4" />
        </linearGradient>
    </defs>
</svg>
    