<svg width="75" height="79" viewBox="0 0 75 79" fill="none" xmlns="http://www.w3.org/2000/svg">
<path fill-rule="evenodd" clip-rule="evenodd" d="M68.2497 10.0944C68.6897 10.5702 68.6606 11.3126 68.1848 11.7526L56.426 22.6255L49.9857 17.1298C49.4927 16.7091 49.4341 15.9685 49.8548 15.4755C50.2755 14.9825 51.0161 14.9239 51.5091 15.3446L56.3635 19.4869L66.5915 10.0295C67.0673 9.58951 67.8097 9.61857 68.2497 10.0944Z" fill="#1C55FF"/>
<path fill-rule="evenodd" clip-rule="evenodd" d="M59.256 27.7969C65.973 27.7969 71.4181 22.3517 71.4181 15.6348C71.4181 8.91786 65.973 3.47271 59.256 3.47271C52.5391 3.47271 47.0939 8.91786 47.0939 15.6348C47.0939 22.3517 52.5391 27.7969 59.256 27.7969ZM59.256 30.7696C67.6147 30.7696 74.3908 23.9935 74.3908 15.6348C74.3908 7.27608 67.6147 0.5 59.256 0.5C50.8973 0.5 44.1212 7.27608 44.1212 15.6348C44.1212 23.9935 50.8973 30.7696 59.256 30.7696Z" fill="#1C55FF"/>
<path fill-rule="evenodd" clip-rule="evenodd" d="M13.6119 14.3466C11.7541 14.3466 10.248 15.8526 10.248 17.7104C10.248 18.5313 9.58255 19.1968 8.76166 19.1968C7.94077 19.1968 7.27531 18.5313 7.27531 17.7104C7.27531 14.2108 10.1123 11.3738 13.6119 11.3738H40.6878C41.5087 11.3738 42.1741 12.0393 42.1741 12.8602C42.1741 13.6811 41.5087 14.3466 40.6878 14.3466H13.6119ZM62.5241 33.436C63.345 33.436 64.0104 34.1015 64.0104 34.9224V68.0955C64.0104 73.8418 59.3522 78.5 53.6059 78.5H17.6798C11.9336 78.5 7.27531 73.8418 7.27531 68.0955V63.5354C7.27531 62.7145 7.94077 62.049 8.76166 62.049C9.58255 62.049 10.248 62.7145 10.248 63.5354V68.0955C10.248 72.2 13.5753 75.5273 17.6798 75.5273H53.6059C57.7104 75.5273 61.0377 72.2 61.0377 68.0955V34.9224C61.0377 34.1015 61.7032 33.436 62.5241 33.436Z" fill="#1C55FF"/>
<path fill-rule="evenodd" clip-rule="evenodd" d="M11.5669 29.9206C12.4058 29.0689 13.6241 28.8077 14.5693 28.8077C14.8448 28.8077 15.091 28.82 15.29 28.831L15.3205 28.832C15.578 28.8405 16.1516 28.8595 16.6852 29.206C17.2452 29.5696 17.5481 30.1376 17.763 30.6462L17.7644 30.6495L17.7658 30.6528C17.8568 30.8714 17.9722 31.1491 18.1004 31.4577C18.3061 31.9527 18.5449 32.5273 18.7691 33.0648C18.9506 33.5 19.121 33.907 19.2541 34.2221C19.3207 34.3798 19.3772 34.5125 19.4206 34.6132C19.4424 34.6637 19.46 34.7042 19.4736 34.7347C19.4801 34.7495 19.4848 34.7599 19.4878 34.7666C19.4904 34.7722 19.4918 34.7753 19.4923 34.7763C19.4925 34.7769 19.4925 34.7768 19.4922 34.7762C19.6429 35.0898 20.0795 36.0403 19.5653 37.0586C19.3143 37.5837 19.0526 37.8829 18.8054 38.1656L18.7736 38.2019C18.7606 38.2169 18.7476 38.2318 18.7346 38.2467C18.588 38.4156 18.4422 38.5688 18.3219 38.6951C18.3031 38.7149 18.2848 38.734 18.2673 38.7524C18.1636 38.8617 18.075 38.9568 17.9909 39.0547C18.443 39.7738 19.4013 41.1764 20.6959 42.3183L20.696 42.3184C22.5148 43.9232 23.9869 44.5143 24.7052 44.8027L24.7061 44.8031C24.7512 44.8212 24.7934 44.8381 24.8324 44.854C25.1332 44.5035 25.5036 43.9866 25.9446 43.3713L25.9467 43.3684L25.9468 43.3681C26.0012 43.2923 26.0566 43.215 26.1131 43.1363C26.4626 42.6479 26.9445 42.2634 27.5599 42.1047C28.1501 41.9525 28.702 42.0496 29.1404 42.212C29.5122 42.3448 30.4192 42.772 31.1973 43.1442C32.04 43.5473 32.8876 43.9625 33.1792 44.1062L33.1816 44.1074C33.2481 44.1403 33.3324 44.1806 33.4229 44.2239L33.4231 44.224C33.6005 44.3088 33.8014 44.4048 33.9369 44.4782C34.15 44.5936 34.5888 44.8425 34.8681 45.3245L34.8724 45.332L34.8767 45.3395C35.0764 45.6942 35.1116 46.0872 35.1243 46.2641C35.1423 46.5148 35.1369 46.7964 35.1109 47.0918C35.0586 47.6852 34.9162 48.4151 34.6405 49.1912C34.2607 50.2597 33.3927 51.0767 32.5619 51.6333C31.7046 52.2077 30.6971 52.6336 29.7686 52.8322L29.7668 52.8325L29.7651 52.8329C29.1381 52.9653 28.37 53.0849 27.1322 52.8903C25.9541 52.705 24.3818 52.241 22.0883 51.2986C18.9551 50.0128 16.4316 47.8185 14.6815 45.9537C13.7997 45.0142 13.0982 44.141 12.5983 43.4784C12.3481 43.1466 12.1481 42.8673 12.002 42.6596C11.9428 42.5755 11.8919 42.5023 11.852 42.4449L11.8266 42.4086C11.7987 42.3684 11.783 42.3461 11.7753 42.3352C11.7684 42.3254 11.768 42.3248 11.771 42.3288L11.7595 42.3138L11.7484 42.2985C11.7439 42.2922 11.7387 42.2851 11.733 42.2773L11.7122 42.249C11.5236 41.9916 10.9311 41.1833 10.3725 40.0917C9.78125 38.9362 9.16037 37.3366 9.16037 35.6268C9.16037 32.3428 10.8534 30.6387 11.5223 29.9656C11.5377 29.95 11.5526 29.9351 11.5669 29.9206ZM14.5693 31.624C14.0179 31.624 13.6743 31.7941 13.5732 31.897L13.5712 31.899L13.5693 31.9009C13.5528 31.9176 13.5357 31.9348 13.518 31.9525C12.9865 32.4867 11.9766 33.5014 11.9766 35.6268C11.9766 36.6962 12.3792 37.8308 12.8796 38.8089C13.3331 39.6951 13.8113 40.3486 13.9912 40.5944C14.0038 40.6115 14.0149 40.6267 14.0244 40.6398C14.0573 40.6845 14.105 40.7522 14.1671 40.8403L14.1672 40.8405C14.9843 42.001 18.2896 46.6956 23.1575 48.6932L23.1581 48.6934C25.3597 49.5982 26.7018 49.9717 27.5697 50.1082C28.3768 50.2351 28.7866 50.1611 29.1811 50.0779C29.7471 49.9565 30.4236 49.6761 30.9943 49.2937C31.5921 48.8932 31.8965 48.5022 31.9868 48.2481C32.181 47.7015 32.2737 47.2058 32.3055 46.8448C32.3058 46.841 32.3061 46.8373 32.3064 46.8336C32.307 46.8265 32.3076 46.8195 32.3082 46.8127L32.2791 46.7988C32.1794 46.7514 32.0597 46.6945 31.9334 46.6319C31.6477 46.4911 30.8112 46.0813 29.9821 45.6847C29.5667 45.4861 29.1579 45.2929 28.8228 45.1392C28.655 45.0622 28.5104 44.9972 28.3951 44.9473C28.3623 44.9331 28.3329 44.9205 28.307 44.9096L28.222 45.0284C27.7494 45.6894 27.2167 46.4344 26.7583 46.9243L26.7534 46.9295L26.7485 46.9347C25.8901 47.8337 24.6551 47.8274 23.8127 47.4797L23.8112 47.4791L23.8096 47.4784C23.7579 47.4569 23.6974 47.4326 23.6287 47.405C22.8503 47.0924 21.0143 46.355 18.8329 44.4303C16.9721 42.789 15.734 40.7758 15.3831 40.1891L15.38 40.184L15.377 40.1788C15.0319 39.5905 14.9332 38.9405 15.1499 38.3084C15.3075 37.8488 15.616 37.4972 15.7287 37.3688L15.7432 37.3522C15.9171 37.14 16.0833 36.9626 16.2249 36.8135C16.2464 36.7908 16.2672 36.7689 16.2873 36.7478L16.2874 36.7477C16.4093 36.6195 16.5068 36.5171 16.6075 36.401L16.685 36.3119C16.7964 36.1838 16.8491 36.1232 16.8988 36.0569C16.9154 36.0347 16.9315 36.0119 16.9485 35.9849C16.8033 35.6759 16.0083 33.7625 15.4771 32.4838L15.477 32.4835C15.3568 32.1942 15.2501 31.9375 15.1675 31.7391C15.1522 31.7031 15.1381 31.671 15.1249 31.6424C14.9405 31.6323 14.761 31.624 14.5693 31.624ZM24.8041 45.0781L24.8832 44.8865C24.8476 44.8946 24.7782 44.9202 24.7117 44.9898L24.8041 45.0781Z" fill="#1C55FF"/>
<path fill-rule="evenodd" clip-rule="evenodd" d="M0 40.7098C0 28.6296 9.82049 18.8056 21.8987 18.8056H21.9096C33.9878 18.8056 43.8083 28.6296 43.8083 40.7098C43.8083 42.9983 43.4559 45.2059 42.8024 47.281H55.0733C55.851 47.281 56.4814 47.9115 56.4814 48.6891C56.4814 49.4668 55.851 50.0973 55.0733 50.0973H41.6947C40.4461 52.7204 38.6912 55.0575 36.5569 56.9814H55.0733C55.851 56.9814 56.4814 57.6119 56.4814 58.3896C56.4814 59.1673 55.851 59.7977 55.0733 59.7977H32.8562C32.7923 59.7977 32.7294 59.7934 32.6678 59.7852C29.4895 61.5852 25.819 62.6135 21.9123 62.6139C17.8533 62.6215 13.8779 61.494 10.4326 59.3652L0.536397 62.5266L3.74924 52.9499C1.38057 49.4545 0 45.2358 0 40.7098ZM39.6604 47.7171C39.4325 47.9559 39.2877 48.2747 39.2724 48.6271C36.2596 55.212 29.6099 59.7977 21.9096 59.7977H21.907C18.1747 59.8047 14.5234 58.7091 11.4115 56.6485L10.8486 56.2758L4.9744 58.1524L6.87672 52.482L6.44901 51.8945C4.16186 48.7525 2.81625 44.8844 2.81625 40.7098C2.81625 30.1842 11.3766 21.6219 21.8987 21.6219H21.9096C32.4317 21.6219 40.9921 30.1842 40.9921 40.7098C40.9921 43.1824 40.5197 45.5467 39.6604 47.7171Z" fill="#1C55FF"/>
<path d="M15.6458 66.9948C14.8681 66.9948 14.2377 67.6252 14.2377 68.4029C14.2377 69.1806 14.8681 69.811 15.6458 69.811H55.0733C55.851 69.811 56.4814 69.1806 56.4814 68.4029C56.4814 67.6252 55.851 66.9948 55.0733 66.9948H15.6458Z" fill="#1C55FF"/>
</svg>
