<svg width="72" height="73" viewBox="0 0 72 73" fill="none" xmlns="http://www.w3.org/2000/svg">
<path fill-rule="evenodd" clip-rule="evenodd" d="M18 4.33337C18 2.12423 19.6118 0.333374 21.6 0.333374H68.4C70.3882 0.333374 72 2.12423 72 4.33337V68.3334C72 70.5426 70.3882 72.3334 68.4 72.3334H21.6C19.6118 72.3334 18 70.5426 18 68.3334V56.3334H3.6C1.61178 56.3334 0 54.5426 0 52.3334V20.3334C0 18.1242 1.61178 16.3334 3.6 16.3334H18V4.33337ZM44 16.3334V4.33337H22V16.3334H44ZM48 4.33337V16.3334H68V4.33337H48ZM44 20.3334H36V34.3334H44V20.3334ZM48 34.3334V20.3334H68V34.3334H48ZM44 38.3334H36V52.3334H44V38.3334ZM48 52.3334V38.3334H68V52.3334H48ZM44 56.3334H22V68.3334H44V56.3334ZM48 68.3334V56.3334H68V68.3334H48ZM32 20.3334V52.3334H3.6V20.3334H32ZM10.4516 26.3334H14.7464L18.2312 33.8414L21.914 26.3334H25.9262L20.3984 36.3334L26.0522 46.3334H21.8204L18.0224 38.4734L14.2406 46.3334H9.9458L15.6932 36.2974L10.4516 26.3334Z" fill="url(#paint0_linear_414_527)"/>
<defs>
<linearGradient id="paint0_linear_414_527" x1="36" y1="0.333374" x2="36" y2="72.3334" gradientUnits="userSpaceOnUse">
<stop stop-color="#9D19FF"/>
<stop offset="1" stop-color="#7D9EFF"/>
</linearGradient>
</defs>
</svg>
