<svg width="48" height="72" viewBox="0 0 48 72" fill="none" xmlns="http://www.w3.org/2000/svg">
<path d="M12.001 72C18.625 72 24.001 66.624 24.001 60V48H12.001C5.37701 48 0.00100708 53.376 0.00100708 60C0.00100708 66.624 5.37701 72 12.001 72Z" fill="#0ACF83"/>
<path d="M0.00100708 36C0.00100708 29.376 5.37701 24 12.001 24H24.001V48H12.001C5.37701 48 0.00100708 42.624 0.00100708 36Z" fill="#A259FF"/>
<path d="M0.00100708 12C0.00100708 5.376 5.37701 0 12.001 0H24.001V24H12.001C5.37701 24 0.00100708 18.624 0.00100708 12Z" fill="#F24E1E"/>
<path d="M24.001 0H36.001C42.625 0 48.001 5.376 48.001 12C48.001 18.624 42.625 24 36.001 24H24.001V0Z" fill="#FF7262"/>
<path d="M48.001 36C48.001 42.624 42.625 48 36.001 48C29.377 48 24.001 42.624 24.001 36C24.001 29.376 29.377 24 36.001 24C42.625 24 48.001 29.376 48.001 36Z" fill="#1ABCFE"/>
</svg>
