<svg width="192" height="48" viewBox="0 0 192 48" fill="none" xmlns="http://www.w3.org/2000/svg">
<path d="M60.2164 37.8498L62.5474 32.4015C65.0996 34.2916 68.4286 35.292 71.7583 35.292C74.2 35.292 75.7534 34.3473 75.7534 32.9021C75.6977 28.899 61.0488 32.0123 60.9374 21.9482C60.8817 16.8334 65.4323 12.8861 71.8698 12.8861C75.6977 12.8861 79.5273 13.8315 82.2458 16.0002L80.0676 21.5646C77.5663 19.9563 74.4769 18.8349 71.5363 18.8349C69.5388 18.8349 68.2065 19.7796 68.2065 21.0036C68.2622 24.9509 83.0234 22.7823 83.1897 32.4015C83.1897 37.6277 78.7497 41.2973 72.4237 41.2973C67.7633 41.2973 63.4904 40.1855 60.2156 37.8498M153.033 30.4286C152.444 31.4741 151.589 32.3442 150.553 32.9497C149.517 33.5553 148.339 33.8745 147.14 33.8746C143.401 33.8746 140.37 30.8377 140.37 27.0917C140.37 23.3457 143.401 20.3088 147.14 20.3088C148.339 20.3089 149.517 20.6281 150.553 21.2337C151.589 21.8392 152.444 22.7093 153.033 23.7548L159.513 20.1576C157.086 15.8195 152.456 12.8861 147.14 12.8861C139.309 12.8861 132.962 19.2456 132.962 27.0917C132.962 34.937 139.309 41.2973 147.14 41.2973C152.456 41.2973 157.086 38.3639 159.513 34.0258L153.033 30.4286ZM87.3949 40.741H95.4965V1.06079H87.3957L87.3949 40.741ZM163.605 1.06079V40.741H171.706V28.8529L181.306 40.741H191.662L179.454 26.6182L190.774 13.44H180.862L171.706 24.3962V1.06079H163.605ZM120.456 13.4416V16.6671C119.125 14.4427 115.851 12.8861 112.41 12.8861C105.307 12.8861 99.7032 19.1692 99.7032 27.0638C99.7032 34.9585 105.307 41.2973 112.41 41.2973C115.851 41.2973 119.125 39.7407 120.456 37.5163V40.741H128.558V13.4416H120.456ZM120.456 30.4835C119.291 32.4294 116.849 33.8738 114.131 33.8738C110.391 33.8738 107.361 30.8377 107.361 27.0917C107.361 23.3457 110.391 20.3088 114.131 20.3088C116.849 20.3088 119.291 21.8098 120.456 23.8105V30.4835Z" fill="#706D6E"/>
<path d="M17.4316 0.183838C14.8061 0.183838 12.678 2.31667 12.678 4.9469C12.6774 5.57177 12.7999 6.19064 13.0384 6.76818C13.277 7.34572 13.6269 7.87063 14.0683 8.31292C14.5097 8.75521 15.0339 9.10623 15.611 9.34593C16.1881 9.58564 16.8067 9.70934 17.4316 9.70996H22.1859V4.9469C22.1869 3.68485 21.6866 2.47406 20.7951 1.58084C19.9035 0.687611 18.6936 0.185104 17.4316 0.183838ZM17.4316 12.8853H4.75473C2.12928 12.8853 0.0012207 15.0182 0.0012207 17.6492C0.0012207 20.2794 2.12928 22.4123 4.75473 22.4123H17.4324C20.057 22.4123 22.1859 20.2794 22.1859 17.6492C22.1859 15.0182 20.057 12.8853 17.4316 12.8853Z" fill="#36C5F0"/>
<path d="M47.5395 17.6492C47.5395 15.0182 45.4107 12.8853 42.7852 12.8853C40.1597 12.8853 38.0317 15.0182 38.0317 17.6492V22.4123H42.7852C44.0472 22.411 45.2571 21.9085 46.1487 21.0153C47.0403 20.122 47.5406 18.9112 47.5395 17.6492ZM34.8627 17.6492V4.9469C34.8637 3.68485 34.3635 2.47406 33.4719 1.58084C32.5803 0.687611 31.3704 0.185104 30.1084 0.183838C27.4829 0.183838 25.3549 2.31667 25.3549 4.9469V17.6484C25.3549 20.2802 27.4829 22.4131 30.1084 22.4131C31.3704 22.4118 32.5803 21.9093 33.4719 21.0161C34.3635 20.1228 34.8637 18.912 34.8627 17.65" fill="#2EB67D"/>
<path d="M30.1084 47.8161C31.3704 47.8148 32.5803 47.3123 33.4719 46.4191C34.3635 45.5258 34.8637 44.3151 34.8627 43.053C34.8637 41.791 34.3635 40.5802 33.4719 39.6869C32.5803 38.7937 31.3704 38.2912 30.1084 38.2899H25.3549V43.053C25.3549 45.6832 27.4829 47.8161 30.1084 47.8161ZM30.1084 35.1146H42.786C45.4107 35.1146 47.5395 32.9817 47.5395 30.3507C47.5406 29.0887 47.0403 27.8779 46.1487 26.9846C45.2571 26.0914 44.0473 25.5889 42.7852 25.5876H30.1084C27.4829 25.5876 25.3549 27.7205 25.3549 30.3507C25.3542 30.9756 25.4767 31.5944 25.7152 32.172C25.9538 32.7495 26.3037 33.2744 26.7452 33.7167C27.1866 34.159 27.7108 34.51 28.2878 34.7497C28.8649 34.9894 29.4835 35.1131 30.1084 35.1138" fill="#ECB22E"/>
<path d="M0.0012231 30.3507C0.000595725 30.9756 0.123051 31.5944 0.361598 32.172C0.600145 32.7495 0.950112 33.2744 1.39152 33.7167C1.83292 34.159 2.35712 34.51 2.93418 34.7497C3.51124 34.9894 4.12987 35.1131 4.75474 35.1138C6.01679 35.1125 7.22665 34.61 8.11824 33.7168C9.00982 32.8235 9.5101 31.6128 9.50904 30.3507V25.5876H4.75474C2.12928 25.5876 0.0012231 27.7205 0.0012231 30.3507ZM12.6781 30.3507V43.0522C12.6781 45.6832 14.8061 47.8161 17.4316 47.8161C18.6936 47.8148 19.9035 47.3123 20.7951 46.4191C21.6866 45.5258 22.1869 44.3151 22.1859 43.053V30.3507C22.1865 29.7258 22.064 29.1068 21.8254 28.5292C21.5868 27.9516 21.2368 27.4267 20.7953 26.9844C20.3538 26.5421 19.8295 26.1911 19.2524 25.9514C18.6752 25.7118 18.0565 25.5882 17.4316 25.5876C14.8061 25.5876 12.6781 27.7205 12.6781 30.3507Z" fill="#E01E5A"/>
</svg>
