<svg width="176" height="137" viewBox="0 0 176 137" fill="none" xmlns="http://www.w3.org/2000/svg">
<path fill-rule="evenodd" clip-rule="evenodd" d="M39.1521 31.6036C40.0002 31.5022 40.8628 31.4501 41.7369 31.4501C42.611 31.4501 43.4736 31.5022 44.3217 31.6036C45.0901 31.6955 45.6389 32.3965 45.5475 33.1694C45.4562 33.9423 44.7593 34.4944 43.9909 34.4025C43.2523 34.3142 42.5002 34.2687 41.7369 34.2687C40.9736 34.2687 40.2215 34.3142 39.4829 34.4025C38.7146 34.4944 38.0176 33.9423 37.9263 33.1694C37.8349 32.3965 38.3838 31.6955 39.1521 31.6036ZM30.3107 36.3448C30.7891 36.9565 30.6839 37.8426 30.0757 38.3238C28.892 39.2605 27.8222 40.3366 26.891 41.5274C26.4126 42.1391 25.5317 42.2449 24.9236 41.7637C24.3154 41.2825 24.2102 40.3964 24.6886 39.7847C25.7573 38.4182 26.9848 37.1834 28.3433 36.1085C28.9514 35.6273 29.8323 35.7331 30.3107 36.3448ZM53.1632 36.3448C53.6416 35.7331 54.5224 35.6273 55.1306 36.1085C56.4891 37.1834 57.7166 38.4182 58.7852 39.7847C59.2636 40.3964 59.1584 41.2825 58.5503 41.7637C57.9421 42.2449 57.0613 42.1391 56.5829 41.5274C55.6517 40.3366 54.5819 39.2605 53.3981 38.3238C52.7899 37.8426 52.6848 36.9566 53.1632 36.3448ZM21.7668 49.4242C22.5352 49.5161 23.084 50.2171 22.9926 50.99C22.9048 51.7329 22.8596 52.4895 22.8596 53.2573C22.8596 54.0251 22.9048 54.7816 22.9926 55.5245C23.084 56.2974 22.5352 56.9985 21.7668 57.0903C20.9984 57.1822 20.3015 56.6302 20.2101 55.8573C20.1093 55.0042 20.0575 54.1365 20.0575 53.2573C20.0575 52.378 20.1093 51.5103 20.2101 50.6573C20.3015 49.8844 20.9984 49.3323 21.7668 49.4242ZM61.7071 49.4242C62.4754 49.3323 63.1724 49.8844 63.2637 50.6573C63.3645 51.5103 63.4163 52.378 63.4163 53.2573C63.4163 54.1365 63.3645 55.0042 63.2637 55.8573C63.1724 56.6302 62.4754 57.1822 61.7071 57.0903C60.9387 56.9985 60.3899 56.2974 60.4812 55.5245C60.569 54.7816 60.6142 54.0251 60.6142 53.2573C60.6142 52.4895 60.569 51.7329 60.4812 50.99C60.3899 50.2171 60.9387 49.5161 61.7071 49.4242ZM24.9236 64.7508C25.5317 64.2696 26.4126 64.3754 26.891 64.9872C27.8222 66.1779 28.892 67.254 30.0757 68.1907C30.6839 68.6719 30.7891 69.558 30.3107 70.1697C29.8323 70.7815 28.9514 70.8873 28.3433 70.406C26.9848 69.3311 25.7573 68.0963 24.6886 66.7298C24.2102 66.1181 24.3154 65.2321 24.9236 64.7508ZM58.5503 64.7508C59.1584 65.2321 59.2636 66.1181 58.7852 66.7298C57.7166 68.0963 56.4891 69.3311 55.1306 70.406C54.5224 70.8873 53.6416 70.7815 53.1632 70.1697C52.6848 69.558 52.7899 68.6719 53.3981 68.1907C54.5819 67.254 55.6517 66.1779 56.5829 64.9872C57.0613 64.3754 57.9421 64.2696 58.5503 64.7508ZM37.9263 73.3451C38.0176 72.5722 38.7146 72.0201 39.4829 72.112C40.2215 72.2003 40.9736 72.2458 41.7369 72.2458C42.5002 72.2458 43.2523 72.2003 43.9909 72.112C44.7593 72.0201 45.4562 72.5722 45.5475 73.3451C45.6389 74.118 45.0901 74.819 44.3217 74.9109C43.4736 75.0123 42.611 75.0644 41.7369 75.0644C40.8628 75.0644 40.0002 75.0123 39.1521 74.9109C38.3838 74.819 37.8349 74.118 37.9263 73.3451Z" fill="url(#paint0_linear_351_859)"/>
<path fill-rule="evenodd" clip-rule="evenodd" d="M41.7369 77.0671C54.8097 77.0671 65.4073 66.4071 65.4073 53.2573C65.4073 40.1074 54.8097 29.4474 41.7369 29.4474C28.6641 29.4474 18.0665 40.1074 18.0665 53.2573C18.0665 66.4071 28.6641 77.0671 41.7369 77.0671ZM41.7369 79.8858C56.3573 79.8858 68.2094 67.9638 68.2094 53.2573C68.2094 38.5507 56.3573 26.6288 41.7369 26.6288C27.1166 26.6288 15.2644 38.5507 15.2644 53.2573C15.2644 67.9638 27.1166 79.8858 41.7369 79.8858Z" fill="url(#paint1_linear_351_859)"/>
<path fill-rule="evenodd" clip-rule="evenodd" d="M2.54521 75.7519C2.87932 75.0499 3.71595 74.7532 4.41388 75.0893L11.4427 78.4739C12.1407 78.8099 12.4356 79.6515 12.1015 80.3535C11.7674 81.0556 10.9308 81.3523 10.2328 81.0162L3.20398 77.6316C2.50605 77.2955 2.21111 76.454 2.54521 75.7519Z" fill="url(#paint2_linear_351_859)"/>
<path fill-rule="evenodd" clip-rule="evenodd" d="M129.758 4.9903C129.188 4.4643 128.302 4.50297 127.779 5.07667L122.512 10.8544C121.989 11.4281 122.028 12.3196 122.598 12.8456C123.169 13.3716 124.055 13.3329 124.578 12.7592L129.844 6.98149C130.367 6.40779 130.328 5.5163 129.758 4.9903Z" fill="url(#paint3_linear_351_859)"/>
<path fill-rule="evenodd" clip-rule="evenodd" d="M8.20762 68.1121C8.85651 67.6881 9.72424 67.8735 10.1458 68.5262L14.3908 75.0997C14.8124 75.7524 14.628 76.6252 13.9791 77.0492C13.3303 77.4732 12.4625 77.2878 12.041 76.6351L7.79592 70.0616C7.3744 69.4089 7.55873 68.5361 8.20762 68.1121Z" fill="url(#paint4_linear_351_859)"/>
<path fill-rule="evenodd" clip-rule="evenodd" d="M121.671 0.0266526C120.912 -0.123256 120.176 0.374374 120.027 1.13814L118.526 8.83C118.377 9.59377 118.871 10.3344 119.631 10.4844C120.39 10.6343 121.126 10.1366 121.275 9.37287L122.776 1.68101C122.925 0.917241 122.431 0.176561 121.671 0.0266526Z" fill="url(#paint5_linear_351_859)"/>
<path fill-rule="evenodd" clip-rule="evenodd" d="M0.00759262 84.2036C-0.0722656 83.4295 0.486919 82.7367 1.25657 82.6564L9.00765 81.8474C9.7773 81.7671 10.466 82.3296 10.5458 83.1038C10.6257 83.8779 10.0665 84.5707 9.29685 84.651L1.54576 85.46C0.776111 85.5403 0.0874508 84.9778 0.00759262 84.2036Z" fill="url(#paint6_linear_351_859)"/>
<path fill-rule="evenodd" clip-rule="evenodd" d="M135.247 11.8797C135.034 11.1314 134.258 10.6986 133.514 10.9128L126.023 13.0707C125.279 13.285 124.848 14.0653 125.061 14.8135C125.274 15.5618 126.05 15.9947 126.794 15.7804L134.286 13.6225C135.03 13.4083 135.46 12.628 135.247 11.8797Z" fill="url(#paint7_linear_351_859)"/>
<path fill-rule="evenodd" clip-rule="evenodd" d="M41.7367 69.5014C50.4926 69.5014 57.5907 62.3615 57.5907 53.554C57.5907 44.7464 50.4926 37.6065 41.7367 37.6065C32.9808 37.6065 25.8827 44.7464 25.8827 53.554C25.8827 62.3615 32.9808 69.5014 41.7367 69.5014ZM41.9698 40.4208C33.694 40.4208 28.6805 47.6558 28.6805 54.023H29.3799C29.3799 51.8288 30.0059 49.5333 31.1751 47.4971L33.4806 49.8163H37.7732V52.308H40.9935V55.08L38.0749 57.79H34.8006V58.2883H34.5528V61.8056L33.5751 62.6997C33.4591 62.5964 33.3453 62.4918 33.2339 62.3859C32.2087 61.412 31.3864 60.3409 30.8223 59.3194C30.4701 58.6818 30.224 58.0737 30.088 57.5275C30.362 57.3641 30.5456 57.0637 30.5456 56.7201C30.5456 56.202 30.1281 55.782 29.613 55.782C29.098 55.782 28.6804 56.202 28.6804 56.7201C28.6804 57.1621 28.9843 57.5327 29.3934 57.632C29.5458 58.276 29.827 58.9662 30.2108 59.6611C30.8124 60.7503 31.6804 61.8778 32.7536 62.8974C34.8969 64.9335 37.893 66.5699 41.2704 66.5699C46.4591 66.5699 50.0026 64.2537 52.1203 61.2473C54.2268 58.2568 54.9212 54.5855 54.4379 51.8507L53.7492 51.9739C53.9004 52.8295 53.9275 53.7915 53.8206 54.7998H41.9844V52.308H45.2047V46.3278H41.7367V41.1264C41.8141 41.125 41.8918 41.1243 41.9698 41.1243C45.1242 41.1243 47.7153 42.5303 49.6467 44.3012C51.2416 45.7636 52.3695 47.4598 52.9777 48.7766C52.8031 48.9471 52.6946 49.1857 52.6946 49.4498C52.6946 49.9679 53.1121 50.3879 53.6272 50.3879C54.1422 50.3879 54.5598 49.9679 54.5598 49.4498C54.5598 48.9317 54.1422 48.5117 53.6272 48.5117H53.6265C52.9796 47.0993 51.7892 45.3137 50.1179 43.7812C48.0954 41.9268 45.3436 40.4208 41.9698 40.4208ZM33.891 48.8195L31.7159 46.6316C33.6642 43.7579 36.762 41.5584 40.7458 41.1816V46.3278H37.7732V48.8195H33.891ZM41.2704 65.8663C38.6561 65.8663 36.2608 64.813 34.3479 63.34L35.2398 62.5244H38.764V58.5065L41.6827 55.7965H47.3103V64.5178H47.3197C45.6566 65.3588 43.6504 65.8663 41.2704 65.8663ZM51.5496 60.8406C50.7114 62.0304 49.6355 63.1089 48.3012 63.959V55.7965H53.6733C53.352 57.495 52.6589 59.2657 51.5496 60.8406ZM37.7732 58.7867H35.5437V61.5277H37.7732V58.7867ZM38.764 47.3245V51.3113H44.2139V47.3245H38.764Z" fill="url(#paint8_linear_351_859)"/>
<path fill-rule="evenodd" clip-rule="evenodd" d="M136.289 92.5638C135.593 93.0606 134.918 93.6038 134.27 94.1934C133.621 94.7829 133.016 95.4034 132.454 96.0507C131.946 96.6371 132.006 97.5274 132.589 98.0392C133.172 98.5509 134.057 98.4904 134.566 97.904C135.055 97.3403 135.582 96.7992 136.149 96.2844C136.715 95.7695 137.303 95.296 137.91 94.8633C138.541 94.4132 138.69 93.5336 138.243 92.8986C137.795 92.2636 136.921 92.1137 136.289 92.5638ZM146.009 90.1175C146.062 90.894 146.731 91.4804 147.503 91.4272C149.005 91.3237 150.516 91.4004 152.001 91.6557C152.764 91.7868 153.488 91.2712 153.618 90.504C153.748 89.7367 153.236 89.0085 152.473 88.8773C150.769 88.5844 149.036 88.4963 147.311 88.6152C146.539 88.6684 145.956 89.341 146.009 90.1175ZM129.056 105.532C128.293 105.4 127.569 105.916 127.439 106.683C127.147 108.397 127.06 110.141 127.178 111.876C127.231 112.652 127.9 113.238 128.672 113.185C129.444 113.132 130.027 112.459 129.974 111.683C129.871 110.171 129.947 108.652 130.201 107.158C130.331 106.391 129.819 105.663 129.056 105.532ZM161.067 94.0577C160.558 94.6442 160.618 95.5344 161.201 96.0462C161.761 96.5381 162.299 97.0689 162.811 97.6385C163.323 98.2081 163.794 98.7998 164.224 99.4102C164.671 100.045 165.546 100.195 166.177 99.745C166.808 99.2949 166.957 98.4152 166.51 97.7802C166.016 97.0794 165.476 96.4007 164.89 95.7484C164.304 95.0962 163.687 94.4874 163.043 93.9225C162.46 93.4108 161.575 93.4713 161.067 94.0577ZM131.436 120.998C130.805 121.448 130.656 122.327 131.104 122.962C131.597 123.663 132.137 124.342 132.724 124.994C133.31 125.646 133.927 126.255 134.57 126.82C135.153 127.332 136.038 127.271 136.547 126.685C137.056 126.098 136.995 125.208 136.412 124.696C135.852 124.204 135.314 123.674 134.802 123.104C134.291 122.535 133.82 121.943 133.39 121.332C132.942 120.697 132.068 120.547 131.436 120.998ZM168.942 107.557C168.17 107.61 167.587 108.283 167.64 109.06C167.743 110.571 167.666 112.091 167.413 113.584C167.282 114.352 167.795 115.08 168.558 115.211C169.32 115.342 170.044 114.826 170.175 114.059C170.466 112.345 170.554 110.602 170.435 108.867C170.382 108.09 169.714 107.504 168.942 107.557ZM143.995 130.239C143.865 131.006 144.378 131.734 145.14 131.865C146.844 132.158 148.578 132.246 150.302 132.127C151.074 132.074 151.657 131.402 151.604 130.625C151.551 129.849 150.883 129.262 150.111 129.315C148.608 129.419 147.097 129.342 145.612 129.087C144.85 128.956 144.126 129.471 143.995 130.239ZM165.025 122.703C164.442 122.192 163.557 122.252 163.048 122.839C162.559 123.402 162.031 123.943 161.465 124.458C160.899 124.973 160.31 125.447 159.704 125.879C159.072 126.329 158.923 127.209 159.371 127.844C159.818 128.479 160.693 128.629 161.324 128.179C162.021 127.682 162.695 127.139 163.344 126.549C163.992 125.96 164.598 125.339 165.159 124.692C165.668 124.105 165.608 123.215 165.025 122.703Z" fill="url(#paint9_linear_351_859)"/>
<path fill-rule="evenodd" clip-rule="evenodd" d="M164.679 128.035C154.981 136.853 140.013 136.092 131.247 126.337C122.481 116.582 123.236 101.525 132.935 92.7076C142.633 83.89 157.601 84.6502 166.367 94.4055C175.133 104.161 174.377 119.217 164.679 128.035ZM166.558 130.126C155.712 139.987 138.971 139.137 129.168 128.227C119.364 117.317 120.209 100.478 131.056 90.6166C141.902 80.7551 158.642 81.6053 168.446 92.5155C178.249 103.426 177.404 120.265 166.558 130.126Z" fill="url(#paint10_linear_351_859)"/>
<path fill-rule="evenodd" clip-rule="evenodd" d="M161.992 119.374C166.854 112.048 164.891 102.146 157.609 97.256C150.326 92.366 140.482 94.3402 135.62 101.665C130.759 108.991 132.722 118.893 140.004 123.783C147.287 128.673 157.131 126.699 161.992 119.374ZM138.077 103.033C133.482 109.957 136.681 118.168 141.945 121.703L142.334 121.118C140.519 119.9 138.969 118.101 137.935 115.993L141.132 115.352L143.515 111.76L145.576 113.144L147.364 110.45L149.656 111.989L150.276 115.935L148.458 118.674L148.87 118.951L148.732 119.158L151.641 121.111L151.837 122.425C151.687 122.465 151.538 122.502 151.388 122.537C150.014 122.854 148.672 122.947 147.514 122.852C146.791 122.792 146.152 122.661 145.625 122.471C145.642 122.151 145.495 121.831 145.211 121.64C144.783 121.352 144.203 121.469 143.918 121.899C143.632 122.33 143.747 122.913 144.175 123.201C144.541 123.446 145.016 123.397 145.325 123.11C145.942 123.34 146.669 123.488 147.457 123.553C148.691 123.654 150.106 123.554 151.544 123.223C154.418 122.56 157.434 120.962 159.31 118.136C162.19 113.795 162.243 109.545 160.933 106.104C159.63 102.681 156.98 100.062 154.45 98.948L154.169 99.5925C154.961 99.941 155.771 100.452 156.546 101.102L149.974 111.004L147.914 109.621L149.702 106.926L144.757 103.606L142.832 106.508L138.531 103.62C138.573 103.554 138.615 103.489 138.659 103.424C140.41 100.785 143.011 99.3974 145.548 98.7648C147.642 98.2424 149.671 98.2406 151.097 98.4628C151.141 98.7035 151.278 98.9268 151.497 99.0734C151.925 99.3611 152.504 99.245 152.79 98.8141C153.076 98.3832 152.961 97.8007 152.532 97.513C152.104 97.2254 151.525 97.3415 151.239 97.7724L151.239 97.7729C149.712 97.5299 147.574 97.5345 145.379 98.0819C142.723 98.7443 139.95 100.21 138.077 103.033ZM140.536 114.455L137.519 115.06C136.225 111.834 136.126 108.021 138.026 104.479L142.281 107.337L140.631 109.824L142.691 111.207L140.536 114.455ZM158.728 117.746C157.276 119.933 155.076 121.352 152.796 122.134L152.616 120.935L154.573 117.987L151.251 115.756L150.631 111.81L153.755 107.102L160.966 111.944L160.971 111.936C160.743 113.794 160.049 115.754 158.728 117.746ZM160.279 106.356C160.798 107.717 161.092 109.216 161.054 110.805L154.305 106.273L157.288 101.778C158.514 102.99 159.593 104.553 160.279 106.356ZM150.932 116.741L149.695 118.606L151.961 120.128L153.199 118.263L150.932 116.741ZM142.005 109.548L145.302 111.761L148.327 107.202L145.031 104.989L142.005 109.548Z" fill="url(#paint11_linear_351_859)"/>
<path fill-rule="evenodd" clip-rule="evenodd" d="M63.0476 82.7044H21.0161C19.3871 82.7044 18.0665 84.0327 18.0665 85.6713V88.1933C18.0665 89.8319 19.3871 91.1602 21.0161 91.1602H63.0476C64.6766 91.1602 65.9972 89.8319 65.9972 88.1933V85.6713C65.9972 84.0327 64.6766 82.7044 63.0476 82.7044ZM21.0161 79.8858C17.8396 79.8858 15.2644 82.4761 15.2644 85.6713V88.1933C15.2644 91.3885 17.8396 93.9788 21.0161 93.9788H63.0476C66.2242 93.9788 68.7993 91.3885 68.7993 88.1933V85.6713C68.7993 82.4761 66.2242 79.8858 63.0476 79.8858H21.0161Z" fill="url(#paint12_linear_351_859)"/>
<path fill-rule="evenodd" clip-rule="evenodd" d="M63.0476 96.3524H21.0161C19.3871 96.3524 18.0665 97.6808 18.0665 99.3194V101.841C18.0665 103.48 19.3871 104.808 21.0161 104.808H63.0476C64.6766 104.808 65.9972 103.48 65.9972 101.841V99.3194C65.9972 97.6808 64.6766 96.3524 63.0476 96.3524ZM21.0161 93.5338C17.8396 93.5338 15.2644 96.1241 15.2644 99.3194V101.841C15.2644 105.037 17.8396 107.627 21.0161 107.627H63.0476C66.2242 107.627 68.7993 105.037 68.7993 101.841V99.3194C68.7993 96.1241 66.2242 93.5338 63.0476 93.5338H21.0161Z" fill="url(#paint13_linear_351_859)"/>
<path fill-rule="evenodd" clip-rule="evenodd" d="M63.0476 110H21.0161C19.3871 110 18.0665 111.329 18.0665 112.967V115.489C18.0665 117.128 19.3871 118.456 21.0161 118.456H63.0476C64.6766 118.456 65.9972 117.128 65.9972 115.489V112.967C65.9972 111.329 64.6766 110 63.0476 110ZM21.0161 107.182C17.8396 107.182 15.2644 109.772 15.2644 112.967V115.489C15.2644 118.685 17.8396 121.275 21.0161 121.275H63.0476C66.2242 121.275 68.7993 118.685 68.7993 115.489V112.967C68.7993 109.772 66.2242 107.182 63.0476 107.182H21.0161Z" fill="url(#paint14_linear_351_859)"/>
<path fill-rule="evenodd" clip-rule="evenodd" d="M63.0476 123.648H21.0161C19.3871 123.648 18.0665 124.977 18.0665 126.615V129.137C18.0665 130.776 19.3871 132.104 21.0161 132.104H63.0476C64.6766 132.104 65.9972 130.776 65.9972 129.137V126.615C65.9972 124.977 64.6766 123.648 63.0476 123.648ZM21.0161 120.83C17.8396 120.83 15.2644 123.42 15.2644 126.615V129.137C15.2644 132.333 17.8396 134.923 21.0161 134.923H63.0476C66.2242 134.923 68.7993 132.333 68.7993 129.137V126.615C68.7993 123.42 66.2242 120.83 63.0476 120.83H21.0161Z" fill="url(#paint15_linear_351_859)"/>
<path fill-rule="evenodd" clip-rule="evenodd" d="M116.583 124.094H74.551C72.922 124.094 71.6014 125.422 71.6014 127.06V129.582C71.6014 131.221 72.922 132.549 74.551 132.549H116.583C118.212 132.549 119.532 131.221 119.532 129.582V127.06C119.532 125.422 118.212 124.094 116.583 124.094ZM74.551 121.275C71.3744 121.275 68.7993 123.865 68.7993 127.06V129.582C68.7993 132.778 71.3744 135.368 74.551 135.368H116.583C119.759 135.368 122.334 132.778 122.334 129.582V127.06C122.334 123.865 119.759 121.275 116.583 121.275H74.551Z" fill="url(#paint16_linear_351_859)"/>
<path fill-rule="evenodd" clip-rule="evenodd" d="M116.583 110H74.551C72.922 110 71.6014 111.329 71.6014 112.967V115.489C71.6014 117.128 72.922 118.456 74.551 118.456H116.583C118.212 118.456 119.532 117.128 119.532 115.489V112.967C119.532 111.329 118.212 110 116.583 110ZM74.551 107.182C71.3744 107.182 68.7993 109.772 68.7993 112.967V115.489C68.7993 118.685 71.3744 121.275 74.551 121.275H116.583C119.759 121.275 122.334 118.685 122.334 115.489V112.967C122.334 109.772 119.759 107.182 116.583 107.182H74.551Z" fill="url(#paint17_linear_351_859)"/>
<path fill-rule="evenodd" clip-rule="evenodd" d="M116.583 95.9074H74.551C72.922 95.9074 71.6014 97.2357 71.6014 98.8743V101.396C71.6014 103.035 72.922 104.363 74.551 104.363H116.583C118.212 104.363 119.532 103.035 119.532 101.396V98.8743C119.532 97.2357 118.212 95.9074 116.583 95.9074ZM74.551 93.0887C71.3744 93.0887 68.7993 95.679 68.7993 98.8743V101.396C68.7993 104.592 71.3744 107.182 74.551 107.182H116.583C119.759 107.182 122.334 104.592 122.334 101.396V98.8743C122.334 95.679 119.759 93.0887 116.583 93.0887H74.551Z" fill="url(#paint18_linear_351_859)"/>
<path fill-rule="evenodd" clip-rule="evenodd" d="M116.583 82.7044H74.551C72.922 82.7044 71.6014 84.0327 71.6014 85.6713V88.1933C71.6014 89.8319 72.922 91.1602 74.551 91.1602H116.583C118.212 91.1602 119.532 89.8319 119.532 88.1933V85.6713C119.532 84.0327 118.212 82.7044 116.583 82.7044ZM74.551 79.8858C71.3744 79.8858 68.7993 82.4761 68.7993 85.6713V88.1933C68.7993 91.3885 71.3744 93.9788 74.551 93.9788H116.583C119.759 93.9788 122.334 91.3885 122.334 88.1933V85.6713C122.334 82.4761 119.759 79.8858 116.583 79.8858H74.551Z" fill="url(#paint19_linear_351_859)"/>
<path fill-rule="evenodd" clip-rule="evenodd" d="M116.583 69.5014H74.551C72.922 69.5014 71.6014 70.8297 71.6014 72.4683V74.9903C71.6014 76.6289 72.922 77.9572 74.551 77.9572H116.583C118.212 77.9572 119.532 76.6289 119.532 74.9903V72.4683C119.532 70.8297 118.212 69.5014 116.583 69.5014ZM74.551 66.6828C71.3744 66.6828 68.7993 69.2731 68.7993 72.4683V74.9903C68.7993 78.1856 71.3744 80.7758 74.551 80.7758H116.583C119.759 80.7758 122.334 78.1856 122.334 74.9903V72.4683C122.334 69.2731 119.759 66.6828 116.583 66.6828H74.551Z" fill="url(#paint20_linear_351_859)"/>
<path fill-rule="evenodd" clip-rule="evenodd" d="M116.583 56.2984H74.551C72.922 56.2984 71.6014 57.6268 71.6014 59.2654V61.7873C71.6014 63.4259 72.922 64.7542 74.551 64.7542H116.583C118.212 64.7542 119.532 63.4259 119.532 61.7873V59.2654C119.532 57.6268 118.212 56.2984 116.583 56.2984ZM74.551 53.4798C71.3744 53.4798 68.7993 56.0701 68.7993 59.2654V61.7873C68.7993 64.9826 71.3744 67.5729 74.551 67.5729H116.583C119.759 67.5729 122.334 64.9826 122.334 61.7873V59.2654C122.334 56.0701 119.759 53.4798 116.583 53.4798H74.551Z" fill="url(#paint21_linear_351_859)"/>
<path fill-rule="evenodd" clip-rule="evenodd" d="M116.583 43.0954H74.551C72.922 43.0954 71.6014 44.4238 71.6014 46.0624V48.5843C71.6014 50.2229 72.922 51.5513 74.551 51.5513H116.583C118.212 51.5513 119.532 50.2229 119.532 48.5843V46.0624C119.532 44.4238 118.212 43.0954 116.583 43.0954ZM74.551 40.2768C71.3744 40.2768 68.7993 42.8671 68.7993 46.0624V48.5843C68.7993 51.7796 71.3744 54.3699 74.551 54.3699H116.583C119.759 54.3699 122.334 51.7796 122.334 48.5843V46.0624C122.334 42.8671 119.759 40.2768 116.583 40.2768H74.551Z" fill="url(#paint22_linear_351_859)"/>
<path fill-rule="evenodd" clip-rule="evenodd" d="M116.583 29.8924H74.551C72.922 29.8924 71.6014 31.2208 71.6014 32.8594V35.3813C71.6014 37.0199 72.922 38.3483 74.551 38.3483H116.583C118.212 38.3483 119.532 37.0199 119.532 35.3813V32.8594C119.532 31.2208 118.212 29.8924 116.583 29.8924ZM74.551 27.0738C71.3744 27.0738 68.7993 29.6641 68.7993 32.8594V35.3813C68.7993 38.5766 71.3744 41.1669 74.551 41.1669H116.583C119.759 41.1669 122.334 38.5766 122.334 35.3813V32.8594C122.334 29.6641 119.759 27.0738 116.583 27.0738H74.551Z" fill="url(#paint23_linear_351_859)"/>
<path fill-rule="evenodd" clip-rule="evenodd" d="M116.583 16.6894H74.551C72.922 16.6894 71.6014 18.0178 71.6014 19.6564V22.1783C71.6014 23.8169 72.922 25.1453 74.551 25.1453H116.583C118.212 25.1453 119.532 23.8169 119.532 22.1783V19.6564C119.532 18.0178 118.212 16.6894 116.583 16.6894ZM74.551 13.8708C71.3744 13.8708 68.7993 16.4611 68.7993 19.6564V22.1783C68.7993 25.3736 71.3744 27.9639 74.551 27.9639H116.583C119.759 27.9639 122.334 25.3736 122.334 22.1783V19.6564C122.334 16.4611 119.759 13.8708 116.583 13.8708H74.551Z" fill="url(#paint24_linear_351_859)"/>
<defs>
<linearGradient id="paint0_linear_351_859" x1="87.6397" y1="0" x2="87.6397" y2="137" gradientUnits="userSpaceOnUse">
<stop stop-color="#9D19FF"/>
<stop offset="1" stop-color="#7D9EFF"/>
</linearGradient>
<linearGradient id="paint1_linear_351_859" x1="87.6397" y1="0" x2="87.6397" y2="137" gradientUnits="userSpaceOnUse">
<stop stop-color="#9D19FF"/>
<stop offset="1" stop-color="#7D9EFF"/>
</linearGradient>
<linearGradient id="paint2_linear_351_859" x1="87.6397" y1="0" x2="87.6397" y2="137" gradientUnits="userSpaceOnUse">
<stop stop-color="#9D19FF"/>
<stop offset="1" stop-color="#7D9EFF"/>
</linearGradient>
<linearGradient id="paint3_linear_351_859" x1="87.6397" y1="0" x2="87.6397" y2="137" gradientUnits="userSpaceOnUse">
<stop stop-color="#9D19FF"/>
<stop offset="1" stop-color="#7D9EFF"/>
</linearGradient>
<linearGradient id="paint4_linear_351_859" x1="87.6397" y1="0" x2="87.6397" y2="137" gradientUnits="userSpaceOnUse">
<stop stop-color="#9D19FF"/>
<stop offset="1" stop-color="#7D9EFF"/>
</linearGradient>
<linearGradient id="paint5_linear_351_859" x1="87.6397" y1="0" x2="87.6397" y2="137" gradientUnits="userSpaceOnUse">
<stop stop-color="#9D19FF"/>
<stop offset="1" stop-color="#7D9EFF"/>
</linearGradient>
<linearGradient id="paint6_linear_351_859" x1="87.6397" y1="0" x2="87.6397" y2="137" gradientUnits="userSpaceOnUse">
<stop stop-color="#9D19FF"/>
<stop offset="1" stop-color="#7D9EFF"/>
</linearGradient>
<linearGradient id="paint7_linear_351_859" x1="87.6397" y1="0" x2="87.6397" y2="137" gradientUnits="userSpaceOnUse">
<stop stop-color="#9D19FF"/>
<stop offset="1" stop-color="#7D9EFF"/>
</linearGradient>
<linearGradient id="paint8_linear_351_859" x1="87.6397" y1="0" x2="87.6397" y2="137" gradientUnits="userSpaceOnUse">
<stop stop-color="#9D19FF"/>
<stop offset="1" stop-color="#7D9EFF"/>
</linearGradient>
<linearGradient id="paint9_linear_351_859" x1="87.6397" y1="0" x2="87.6397" y2="137" gradientUnits="userSpaceOnUse">
<stop stop-color="#9D19FF"/>
<stop offset="1" stop-color="#7D9EFF"/>
</linearGradient>
<linearGradient id="paint10_linear_351_859" x1="87.6397" y1="0" x2="87.6397" y2="137" gradientUnits="userSpaceOnUse">
<stop stop-color="#9D19FF"/>
<stop offset="1" stop-color="#7D9EFF"/>
</linearGradient>
<linearGradient id="paint11_linear_351_859" x1="87.6397" y1="0" x2="87.6397" y2="137" gradientUnits="userSpaceOnUse">
<stop stop-color="#9D19FF"/>
<stop offset="1" stop-color="#7D9EFF"/>
</linearGradient>
<linearGradient id="paint12_linear_351_859" x1="87.6397" y1="0" x2="87.6397" y2="137" gradientUnits="userSpaceOnUse">
<stop stop-color="#9D19FF"/>
<stop offset="1" stop-color="#7D9EFF"/>
</linearGradient>
<linearGradient id="paint13_linear_351_859" x1="87.6397" y1="0" x2="87.6397" y2="137" gradientUnits="userSpaceOnUse">
<stop stop-color="#9D19FF"/>
<stop offset="1" stop-color="#7D9EFF"/>
</linearGradient>
<linearGradient id="paint14_linear_351_859" x1="87.6397" y1="0" x2="87.6397" y2="137" gradientUnits="userSpaceOnUse">
<stop stop-color="#9D19FF"/>
<stop offset="1" stop-color="#7D9EFF"/>
</linearGradient>
<linearGradient id="paint15_linear_351_859" x1="87.6397" y1="0" x2="87.6397" y2="137" gradientUnits="userSpaceOnUse">
<stop stop-color="#9D19FF"/>
<stop offset="1" stop-color="#7D9EFF"/>
</linearGradient>
<linearGradient id="paint16_linear_351_859" x1="87.6397" y1="0" x2="87.6397" y2="137" gradientUnits="userSpaceOnUse">
<stop stop-color="#9D19FF"/>
<stop offset="1" stop-color="#7D9EFF"/>
</linearGradient>
<linearGradient id="paint17_linear_351_859" x1="87.6397" y1="0" x2="87.6397" y2="137" gradientUnits="userSpaceOnUse">
<stop stop-color="#9D19FF"/>
<stop offset="1" stop-color="#7D9EFF"/>
</linearGradient>
<linearGradient id="paint18_linear_351_859" x1="87.6397" y1="0" x2="87.6397" y2="137" gradientUnits="userSpaceOnUse">
<stop stop-color="#9D19FF"/>
<stop offset="1" stop-color="#7D9EFF"/>
</linearGradient>
<linearGradient id="paint19_linear_351_859" x1="87.6397" y1="0" x2="87.6397" y2="137" gradientUnits="userSpaceOnUse">
<stop stop-color="#9D19FF"/>
<stop offset="1" stop-color="#7D9EFF"/>
</linearGradient>
<linearGradient id="paint20_linear_351_859" x1="87.6397" y1="0" x2="87.6397" y2="137" gradientUnits="userSpaceOnUse">
<stop stop-color="#9D19FF"/>
<stop offset="1" stop-color="#7D9EFF"/>
</linearGradient>
<linearGradient id="paint21_linear_351_859" x1="87.6397" y1="0" x2="87.6397" y2="137" gradientUnits="userSpaceOnUse">
<stop stop-color="#9D19FF"/>
<stop offset="1" stop-color="#7D9EFF"/>
</linearGradient>
<linearGradient id="paint22_linear_351_859" x1="87.6397" y1="0" x2="87.6397" y2="137" gradientUnits="userSpaceOnUse">
<stop stop-color="#9D19FF"/>
<stop offset="1" stop-color="#7D9EFF"/>
</linearGradient>
<linearGradient id="paint23_linear_351_859" x1="87.6397" y1="0" x2="87.6397" y2="137" gradientUnits="userSpaceOnUse">
<stop stop-color="#9D19FF"/>
<stop offset="1" stop-color="#7D9EFF"/>
</linearGradient>
<linearGradient id="paint24_linear_351_859" x1="87.6397" y1="0" x2="87.6397" y2="137" gradientUnits="userSpaceOnUse">
<stop stop-color="#9D19FF"/>
<stop offset="1" stop-color="#7D9EFF"/>
</linearGradient>
</defs>
</svg>
