<svg width="126" height="137" viewBox="0 0 126 137" fill="none" xmlns="http://www.w3.org/2000/svg">
<path fill-rule="evenodd" clip-rule="evenodd" d="M27.9265 16.8393C28.918 16.7219 29.9265 16.6615 30.9483 16.6615C31.9702 16.6615 32.9787 16.7219 33.9701 16.8393C34.8684 16.9457 35.51 17.7575 35.4033 18.6526C35.2965 19.5476 34.4817 20.1869 33.5834 20.0805C32.72 19.9782 31.8407 19.9255 30.9483 19.9255C30.056 19.9255 29.1767 19.9782 28.3133 20.0805C27.415 20.1869 26.6002 19.5476 26.4934 18.6526C26.3866 17.7575 27.0283 16.9457 27.9265 16.8393ZM17.5902 22.3297C18.1495 23.0381 18.0265 24.0641 17.3155 24.6214C15.9316 25.7061 14.681 26.9522 13.5923 28.3312C13.033 29.0396 12.0032 29.1621 11.2922 28.6048C10.5813 28.0475 10.4583 27.0215 11.0176 26.3131C12.2669 24.7307 13.702 23.3008 15.2902 22.056C16.0011 21.4987 17.0309 21.6213 17.5902 22.3297ZM44.3065 22.3297C44.8658 21.6213 45.8955 21.4987 46.6065 22.056C48.1947 23.3008 49.6298 24.7307 50.8791 26.3131C51.4384 27.0215 51.3154 28.0475 50.6044 28.6048C49.8934 29.1621 48.8637 29.0396 48.3044 28.3312C47.2157 26.9522 45.9651 25.7061 44.5811 24.6214C43.8701 24.0641 43.7472 23.0381 44.3065 22.3297ZM7.60174 37.4758C8.50002 37.5822 9.14165 38.394 9.03485 39.289C8.93221 40.1493 8.87933 41.0254 8.87933 41.9146C8.87933 42.8037 8.93221 43.6798 9.03485 44.5401C9.14165 45.4351 8.50002 46.2469 7.60174 46.3533C6.70346 46.4597 5.88869 45.8204 5.78189 44.9254C5.66402 43.9375 5.60346 42.9327 5.60346 41.9146C5.60346 40.8964 5.66402 39.8916 5.78189 38.9037C5.88869 38.0087 6.70346 37.3694 7.60174 37.4758ZM54.2949 37.4758C55.1932 37.3694 56.008 38.0087 56.1148 38.9037C56.2327 39.8916 56.2932 40.8964 56.2932 41.9146C56.2932 42.9327 56.2327 43.9375 56.1148 44.9254C56.008 45.8204 55.1932 46.4597 54.2949 46.3533C53.3967 46.2469 52.755 45.4351 52.8618 44.5401C52.9645 43.6798 53.0173 42.8037 53.0173 41.9146C53.0173 41.0254 52.9645 40.1493 52.8618 39.289C52.755 38.394 53.3967 37.5822 54.2949 37.4758ZM11.2922 55.2243C12.0032 54.667 13.033 54.7895 13.5923 55.498C14.681 56.8769 15.9316 58.123 17.3155 59.2077C18.0265 59.765 18.1495 60.791 17.5902 61.4994C17.0309 62.2078 16.0011 62.3304 15.2902 61.7731C13.702 60.5283 12.2669 59.0984 11.0176 57.516C10.4583 56.8076 10.5813 55.7816 11.2922 55.2243ZM50.6044 55.2243C51.3154 55.7816 51.4384 56.8076 50.8791 57.516C49.6298 59.0984 48.1947 60.5283 46.6065 61.7731C45.8955 62.3304 44.8658 62.2078 44.3065 61.4994C43.7472 60.791 43.8702 59.765 44.5811 59.2077C45.9651 58.123 47.2157 56.8769 48.3044 55.498C48.8637 54.7895 49.8934 54.667 50.6044 55.2243ZM26.4934 65.1766C26.6002 64.2815 27.415 63.6422 28.3133 63.7486C29.1767 63.8509 30.056 63.9036 30.9483 63.9036C31.8407 63.9036 32.72 63.8509 33.5834 63.7486C34.4817 63.6422 35.2965 64.2815 35.4033 65.1766C35.51 66.0716 34.8684 66.8834 33.9701 66.9898C32.9787 67.1073 31.9702 67.1676 30.9483 67.1676C29.9265 67.1676 28.918 67.1073 27.9265 66.9898C27.0283 66.8834 26.3866 66.0716 26.4934 65.1766Z" fill="url(#paint0_linear_350_848)"/>
<path fill-rule="evenodd" clip-rule="evenodd" d="M30.9483 69.4868C46.2314 69.4868 58.6208 57.1423 58.6208 41.9146C58.6208 26.6868 46.2314 14.3424 30.9483 14.3424C15.6653 14.3424 3.27587 26.6868 3.27587 41.9146C3.27587 57.1423 15.6653 69.4868 30.9483 69.4868ZM30.9483 72.7508C48.0406 72.7508 61.8967 58.9449 61.8967 41.9146C61.8967 24.8842 48.0406 11.0784 30.9483 11.0784C13.856 11.0784 0 24.8842 0 41.9146C0 58.9449 13.856 72.7508 30.9483 72.7508Z" fill="url(#paint1_linear_350_848)"/>
<path fill-rule="evenodd" clip-rule="evenodd" d="M62.6392 6.45485C62.0172 5.80041 60.9805 5.77231 60.3237 6.39207L53.7089 12.6337C53.0521 13.2535 53.0239 14.2864 53.6459 14.9408C54.2679 15.5953 55.3046 15.6234 55.9614 15.0036L62.5762 8.76199C63.233 8.14223 63.2612 7.10928 62.6392 6.45485Z" fill="url(#paint2_linear_350_848)"/>
<path fill-rule="evenodd" clip-rule="evenodd" d="M53.6152 0.0571057C52.742 -0.178408 51.8425 0.335956 51.6061 1.20597L49.2257 9.96786C48.9893 10.8379 49.5055 11.7341 50.3787 11.9696C51.2519 12.2051 52.1514 11.6907 52.3877 10.8207L54.7682 2.05884C55.0046 1.18883 54.4883 0.29262 53.6152 0.0571057Z" fill="url(#paint3_linear_350_848)"/>
<path fill-rule="evenodd" clip-rule="evenodd" d="M68.4755 14.8637C68.2884 13.9819 67.4192 13.4182 66.5342 13.6046L57.6209 15.4821C56.7359 15.6685 56.1701 16.5345 56.3572 17.4163C56.5443 18.2982 57.4134 18.8619 58.2985 18.6755L67.2117 16.798C68.0968 16.6116 68.6626 15.7456 68.4755 14.8637Z" fill="url(#paint4_linear_350_848)"/>
<path fill-rule="evenodd" clip-rule="evenodd" d="M55.8622 76.0148H6.72415C4.81972 76.0148 3.27587 77.553 3.27587 79.4505V82.371C3.27587 84.2685 4.81972 85.8067 6.72415 85.8067H55.8622C57.7666 85.8067 59.3105 84.2685 59.3105 82.371V79.4505C59.3105 77.553 57.7666 76.0148 55.8622 76.0148ZM6.72415 72.7508C3.0105 72.7508 0 75.7504 0 79.4505V82.371C0 86.0712 3.01051 89.0707 6.72415 89.0707H55.8622C59.5758 89.0707 62.5863 86.0712 62.5863 82.371V79.4505C62.5863 75.7504 59.5758 72.7508 55.8622 72.7508H6.72415Z" fill="url(#paint5_linear_350_848)"/>
<path fill-rule="evenodd" clip-rule="evenodd" d="M55.8622 91.8194H6.72415C4.81972 91.8194 3.27587 93.3576 3.27587 95.2552V98.1756C3.27587 100.073 4.81972 101.611 6.72415 101.611H55.8622C57.7666 101.611 59.3105 100.073 59.3105 98.1756V95.2552C59.3105 93.3576 57.7666 91.8194 55.8622 91.8194ZM6.72415 88.5554C3.0105 88.5554 0 91.555 0 95.2552V98.1756C0 101.876 3.01051 104.875 6.72415 104.875H55.8622C59.5758 104.875 62.5863 101.876 62.5863 98.1756V95.2552C62.5863 91.555 59.5758 88.5554 55.8622 88.5554H6.72415Z" fill="url(#paint6_linear_350_848)"/>
<path fill-rule="evenodd" clip-rule="evenodd" d="M55.8622 107.624H6.72415C4.81972 107.624 3.27587 109.162 3.27587 111.06V113.98C3.27587 115.878 4.81972 117.416 6.72415 117.416H55.8622C57.7666 117.416 59.3105 115.878 59.3105 113.98V111.06C59.3105 109.162 57.7666 107.624 55.8622 107.624ZM6.72415 104.36C3.0105 104.36 0 107.36 0 111.06V113.98C0 117.68 3.01051 120.68 6.72415 120.68H55.8622C59.5758 120.68 62.5863 117.68 62.5863 113.98V111.06C62.5863 107.36 59.5758 104.36 55.8622 104.36H6.72415Z" fill="url(#paint7_linear_350_848)"/>
<path fill-rule="evenodd" clip-rule="evenodd" d="M55.8622 123.429H6.72415C4.81972 123.429 3.27587 124.967 3.27587 126.864V129.785C3.27587 131.682 4.81972 133.221 6.72415 133.221H55.8622C57.7666 133.221 59.3105 131.682 59.3105 129.785V126.864C59.3105 124.967 57.7666 123.429 55.8622 123.429ZM6.72415 120.165C3.0105 120.165 0 123.164 0 126.864V129.785C0 133.485 3.01051 136.485 6.72415 136.485H55.8622C59.5758 136.485 62.5863 133.485 62.5863 129.785V126.864C62.5863 123.164 59.5758 120.165 55.8622 120.165H6.72415Z" fill="url(#paint8_linear_350_848)"/>
<path fill-rule="evenodd" clip-rule="evenodd" d="M118.449 123.944H69.3105C67.406 123.944 65.8622 125.482 65.8622 127.38V130.3C65.8622 132.198 67.406 133.736 69.3105 133.736H118.449C120.353 133.736 121.897 132.198 121.897 130.3V127.38C121.897 125.482 120.353 123.944 118.449 123.944ZM69.3105 120.68C65.5968 120.68 62.5863 123.68 62.5863 127.38V130.3C62.5863 134 65.5968 137 69.3105 137H118.449C122.162 137 125.173 134 125.173 130.3V127.38C125.173 123.68 122.162 120.68 118.449 120.68H69.3105Z" fill="url(#paint9_linear_350_848)"/>
<path fill-rule="evenodd" clip-rule="evenodd" d="M118.449 107.624H69.3105C67.406 107.624 65.8622 109.162 65.8622 111.06V113.98C65.8622 115.878 67.406 117.416 69.3105 117.416H118.449C120.353 117.416 121.897 115.878 121.897 113.98V111.06C121.897 109.162 120.353 107.624 118.449 107.624ZM69.3105 104.36C65.5968 104.36 62.5863 107.36 62.5863 111.06V113.98C62.5863 117.68 65.5968 120.68 69.3105 120.68H118.449C122.162 120.68 125.173 117.68 125.173 113.98V111.06C125.173 107.36 122.162 104.36 118.449 104.36H69.3105Z" fill="url(#paint10_linear_350_848)"/>
<path fill-rule="evenodd" clip-rule="evenodd" d="M118.449 91.304H69.3105C67.406 91.304 65.8622 92.8423 65.8622 94.7398V97.6602C65.8622 99.5578 67.406 101.096 69.3105 101.096H118.449C120.353 101.096 121.897 99.5578 121.897 97.6602V94.7398C121.897 92.8423 120.353 91.304 118.449 91.304ZM69.3105 88.04C65.5968 88.04 62.5863 91.0396 62.5863 94.7398V97.6602C62.5863 101.36 65.5968 104.36 69.3105 104.36H118.449C122.162 104.36 125.173 101.36 125.173 97.6602V94.7398C125.173 91.0396 122.162 88.04 118.449 88.04H69.3105Z" fill="url(#paint11_linear_350_848)"/>
<path fill-rule="evenodd" clip-rule="evenodd" d="M30.9483 60.382C41.1847 60.382 49.4829 52.1138 49.4829 41.9146C49.4829 31.7153 41.1847 23.4472 30.9483 23.4472C20.712 23.4472 12.4138 31.7153 12.4138 41.9146C12.4138 52.1138 20.712 60.382 30.9483 60.382ZM31.2209 26.7062C21.5458 26.7062 15.6846 35.0844 15.6846 42.4577H16.5023C16.5023 39.9169 17.2342 37.2586 18.601 34.9007L21.2964 37.5863H26.3147V40.4718H30.0795V43.6818L26.6675 46.82H22.8395V47.3971H22.5499V51.4701L21.4068 52.5055C21.2712 52.3859 21.1382 52.2647 21.0079 52.1421C19.8095 51.0143 18.8481 49.774 18.1885 48.5911C17.7769 47.8527 17.4892 47.1485 17.3302 46.5161C17.6504 46.3268 17.8651 45.9789 17.8651 45.581C17.8651 44.981 17.377 44.4947 16.7749 44.4947C16.1727 44.4947 15.6846 44.981 15.6846 45.581C15.6846 46.0928 16.0399 46.522 16.5181 46.637C16.6962 47.3828 17.0251 48.1821 17.4738 48.9867C18.177 50.2481 19.1918 51.5537 20.4464 52.7344C22.9521 55.0923 26.4548 56.9872 30.4033 56.9872C36.4692 56.9872 40.6119 54.305 43.0875 50.8236C45.5502 47.3606 46.362 43.1092 45.797 39.9422L44.9919 40.0848C45.1687 41.0756 45.2004 42.1897 45.0753 43.3573H31.2379V40.4718H35.0028V33.5465H30.9483V27.5233C31.0388 27.5217 31.1297 27.5209 31.2209 27.5209C34.9086 27.5209 37.9378 29.149 40.1957 31.1997C42.0603 32.8932 43.3789 34.8575 44.09 36.3823C43.8858 36.5797 43.759 36.8561 43.759 37.1619C43.759 37.7619 44.2471 38.2483 44.8492 38.2483C45.4514 38.2483 45.9395 37.7619 45.9395 37.1619C45.9395 36.562 45.4514 36.0756 44.8492 36.0756L44.8485 36.0756C44.0922 34.44 42.7005 32.3723 40.7466 30.5976C38.3822 28.4502 35.1651 26.7062 31.2209 26.7062ZM21.7762 36.4321L19.2333 33.8984C21.511 30.5706 25.1326 28.0235 29.7899 27.5872V33.5465H26.3147V36.4321H21.7762ZM30.4033 56.1725C27.3469 56.1725 24.5466 54.9528 22.3103 53.247L23.353 52.3025H27.4731V47.6497L30.8852 44.5115H37.4644V54.6109H37.4753C35.531 55.5847 33.1856 56.1725 30.4033 56.1725ZM42.4204 50.3526C41.4405 51.7305 40.1827 52.9793 38.6228 53.9637V44.5115H44.9031C44.5275 46.4783 43.7172 48.5289 42.4204 50.3526ZM26.3147 47.9742H23.7083V51.1483H26.3147V47.9742ZM27.4731 34.7008V39.3176H33.8444V34.7008H27.4731Z" fill="url(#paint12_linear_350_848)"/>
<defs>
<linearGradient id="paint0_linear_350_848" x1="62.5863" y1="0" x2="62.5863" y2="137" gradientUnits="userSpaceOnUse">
<stop stop-color="#9D19FF"/>
<stop offset="1" stop-color="#7D9EFF"/>
</linearGradient>
<linearGradient id="paint1_linear_350_848" x1="62.5863" y1="0" x2="62.5863" y2="137" gradientUnits="userSpaceOnUse">
<stop stop-color="#9D19FF"/>
<stop offset="1" stop-color="#7D9EFF"/>
</linearGradient>
<linearGradient id="paint2_linear_350_848" x1="62.5863" y1="0" x2="62.5863" y2="137" gradientUnits="userSpaceOnUse">
<stop stop-color="#9D19FF"/>
<stop offset="1" stop-color="#7D9EFF"/>
</linearGradient>
<linearGradient id="paint3_linear_350_848" x1="62.5863" y1="0" x2="62.5863" y2="137" gradientUnits="userSpaceOnUse">
<stop stop-color="#9D19FF"/>
<stop offset="1" stop-color="#7D9EFF"/>
</linearGradient>
<linearGradient id="paint4_linear_350_848" x1="62.5863" y1="0" x2="62.5863" y2="137" gradientUnits="userSpaceOnUse">
<stop stop-color="#9D19FF"/>
<stop offset="1" stop-color="#7D9EFF"/>
</linearGradient>
<linearGradient id="paint5_linear_350_848" x1="62.5863" y1="0" x2="62.5863" y2="137" gradientUnits="userSpaceOnUse">
<stop stop-color="#9D19FF"/>
<stop offset="1" stop-color="#7D9EFF"/>
</linearGradient>
<linearGradient id="paint6_linear_350_848" x1="62.5863" y1="0" x2="62.5863" y2="137" gradientUnits="userSpaceOnUse">
<stop stop-color="#9D19FF"/>
<stop offset="1" stop-color="#7D9EFF"/>
</linearGradient>
<linearGradient id="paint7_linear_350_848" x1="62.5863" y1="0" x2="62.5863" y2="137" gradientUnits="userSpaceOnUse">
<stop stop-color="#9D19FF"/>
<stop offset="1" stop-color="#7D9EFF"/>
</linearGradient>
<linearGradient id="paint8_linear_350_848" x1="62.5863" y1="0" x2="62.5863" y2="137" gradientUnits="userSpaceOnUse">
<stop stop-color="#9D19FF"/>
<stop offset="1" stop-color="#7D9EFF"/>
</linearGradient>
<linearGradient id="paint9_linear_350_848" x1="62.5863" y1="0" x2="62.5863" y2="137" gradientUnits="userSpaceOnUse">
<stop stop-color="#9D19FF"/>
<stop offset="1" stop-color="#7D9EFF"/>
</linearGradient>
<linearGradient id="paint10_linear_350_848" x1="62.5863" y1="0" x2="62.5863" y2="137" gradientUnits="userSpaceOnUse">
<stop stop-color="#9D19FF"/>
<stop offset="1" stop-color="#7D9EFF"/>
</linearGradient>
<linearGradient id="paint11_linear_350_848" x1="62.5863" y1="0" x2="62.5863" y2="137" gradientUnits="userSpaceOnUse">
<stop stop-color="#9D19FF"/>
<stop offset="1" stop-color="#7D9EFF"/>
</linearGradient>
<linearGradient id="paint12_linear_350_848" x1="62.5863" y1="0" x2="62.5863" y2="137" gradientUnits="userSpaceOnUse">
<stop stop-color="#9D19FF"/>
<stop offset="1" stop-color="#7D9EFF"/>
</linearGradient>
</defs>
</svg>
