<svg width="68" height="137" viewBox="0 0 68 137" fill="none" xmlns="http://www.w3.org/2000/svg">
<path fill-rule="evenodd" clip-rule="evenodd" d="M30.3389 6.29354C31.416 6.16523 32.5115 6.09931 33.6217 6.09931C34.7318 6.09931 35.8274 6.16523 36.9045 6.29354C37.8804 6.40978 38.5774 7.29666 38.4614 8.27443C38.3454 9.2522 37.4602 9.9506 36.4844 9.83436C35.5464 9.72262 34.5911 9.66507 33.6217 9.66507C32.6523 9.66507 31.697 9.72262 30.759 9.83436C29.7831 9.9506 28.898 9.2522 28.782 8.27443C28.6659 7.29666 29.363 6.40978 30.3389 6.29354ZM19.1097 12.2915C19.7173 13.0654 19.5837 14.1863 18.8113 14.7951C17.3078 15.9801 15.9491 17.3414 14.7664 18.8478C14.1588 19.6217 13.0401 19.7556 12.2677 19.1468C11.4953 18.538 11.3617 17.4171 11.9693 16.6432C13.3265 14.9145 14.8856 13.3524 16.6109 11.9925C17.3833 11.3837 18.502 11.5176 19.1097 12.2915ZM48.1337 12.2915C48.7413 11.5176 49.86 11.3838 50.6324 11.9925C52.3578 13.3524 53.9168 14.9145 55.2741 16.6432C55.8817 17.4171 55.7481 18.538 54.9757 19.1468C54.2033 19.7556 53.0846 19.6217 52.477 18.8478C51.2943 17.3414 49.9356 15.9801 48.4321 14.7951C47.6597 14.1863 47.5261 13.0654 48.1337 12.2915ZM8.25839 28.8379C9.23426 28.9541 9.93131 29.841 9.81529 30.8187C9.70378 31.7586 9.64633 32.7157 9.64633 33.687C9.64633 34.6583 9.70378 35.6154 9.81529 36.5552C9.93131 37.533 9.23426 38.4199 8.25839 38.5361C7.28251 38.6524 6.39736 37.954 6.28134 36.9762C6.15328 35.897 6.08749 34.7993 6.08749 33.687C6.08749 32.5747 6.15328 31.477 6.28134 30.3978C6.39736 29.42 7.28251 28.7216 8.25839 28.8379ZM58.985 28.8379C59.9609 28.7216 60.846 29.42 60.962 30.3978C61.0901 31.477 61.1559 32.5747 61.1559 33.687C61.1559 34.7993 61.0901 35.897 60.962 36.9762C60.846 37.954 59.9609 38.6524 58.985 38.5361C58.0091 38.4199 57.3121 37.533 57.4281 36.5552C57.5396 35.6154 57.597 34.6583 57.597 33.687C57.597 32.7157 57.5396 31.7586 57.4281 30.8187C57.3121 29.841 58.0091 28.9541 58.985 28.8379ZM12.2677 48.2272C13.0401 47.6184 14.1588 47.7523 14.7664 48.5262C15.9491 50.0326 17.3078 51.3939 18.8113 52.5789C19.5837 53.1877 19.7173 54.3086 19.1097 55.0825C18.502 55.8564 17.3833 55.9902 16.6109 55.3814C14.8856 54.0215 13.3265 52.4595 11.9693 50.7308C11.3617 49.9569 11.4953 48.836 12.2677 48.2272ZM54.9757 48.2272C55.7481 48.836 55.8817 49.9569 55.2741 50.7308C53.9168 52.4595 52.3578 54.0215 50.6324 55.3814C49.86 55.9902 48.7413 55.8564 48.1337 55.0825C47.5261 54.3086 47.6597 53.1877 48.4321 52.5789C49.9356 51.3939 51.2943 50.0326 52.477 48.5262C53.0846 47.7523 54.2033 47.6184 54.9757 48.2272ZM28.782 59.0995C28.898 58.1218 29.7831 57.4234 30.759 57.5396C31.697 57.6513 32.6523 57.7089 33.6217 57.7089C34.5911 57.7089 35.5464 57.6513 36.4844 57.5396C37.4602 57.4234 38.3454 58.1218 38.4614 59.0995C38.5774 60.0773 37.8804 60.9642 36.9045 61.0804C35.8274 61.2087 34.7318 61.2747 33.6217 61.2747C32.5115 61.2747 31.416 61.2087 30.3389 61.0804C29.363 60.9642 28.6659 60.0773 28.782 59.0995Z" fill="url(#paint0_linear_344_827)"/>
<path fill-rule="evenodd" clip-rule="evenodd" d="M33.6217 63.8082C50.2249 63.8082 63.6845 50.3225 63.6845 33.687C63.6845 17.0515 50.2249 3.56575 33.6217 3.56575C17.0184 3.56575 3.55884 17.0515 3.55884 33.687C3.55884 50.3225 17.0184 63.8082 33.6217 63.8082ZM33.6217 67.374C52.1904 67.374 67.2434 52.2918 67.2434 33.687C67.2434 15.0822 52.1904 0 33.6217 0C15.0529 0 0 15.0822 0 33.687C0 52.2918 15.0529 67.374 33.6217 67.374Z" fill="url(#paint1_linear_344_827)"/>
<path fill-rule="evenodd" clip-rule="evenodd" d="M60.6876 70.9397H7.30499C5.23605 70.9397 3.55884 72.6202 3.55884 74.6931V77.8836C3.55884 79.9565 5.23605 81.637 7.30499 81.637H60.6876C62.7565 81.637 64.4338 79.9565 64.4338 77.8836V74.6931C64.4338 72.6202 62.7565 70.9397 60.6876 70.9397ZM7.30499 67.374C3.27055 67.374 0 70.6509 0 74.6931V77.8836C0 81.9258 3.27056 85.2027 7.30499 85.2027H60.6876C64.722 85.2027 67.9926 81.9258 67.9926 77.8836V74.6931C67.9926 70.6509 64.722 67.374 60.6876 67.374H7.30499Z" fill="url(#paint2_linear_344_827)"/>
<path fill-rule="evenodd" clip-rule="evenodd" d="M60.6876 88.2055H7.30499C5.23605 88.2055 3.55884 89.8859 3.55884 91.9589V95.1493C3.55884 97.2223 5.23605 98.9027 7.30499 98.9027H60.6876C62.7565 98.9027 64.4338 97.2223 64.4338 95.1493V91.9589C64.4338 89.8859 62.7565 88.2055 60.6876 88.2055ZM7.30499 84.6397C3.27055 84.6397 0 87.9166 0 91.9589V95.1493C0 99.1916 3.27056 102.468 7.30499 102.468H60.6876C64.722 102.468 67.9926 99.1916 67.9926 95.1493V91.9589C67.9926 87.9166 64.722 84.6397 60.6876 84.6397H7.30499Z" fill="url(#paint3_linear_344_827)"/>
<path fill-rule="evenodd" clip-rule="evenodd" d="M60.6876 105.471H7.30499C5.23605 105.471 3.55884 107.152 3.55884 109.225V112.415C3.55884 114.488 5.23605 116.168 7.30499 116.168H60.6876C62.7565 116.168 64.4338 114.488 64.4338 112.415V109.225C64.4338 107.152 62.7565 105.471 60.6876 105.471ZM7.30499 101.905C3.27055 101.905 0 105.182 0 109.225V112.415C0 116.457 3.27056 119.734 7.30499 119.734H60.6876C64.722 119.734 67.9926 116.457 67.9926 112.415V109.225C67.9926 105.182 64.722 101.905 60.6876 101.905H7.30499Z" fill="url(#paint4_linear_344_827)"/>
<path fill-rule="evenodd" clip-rule="evenodd" d="M60.6876 122.737H7.30499C5.23605 122.737 3.55884 124.417 3.55884 126.49V129.681C3.55884 131.754 5.23605 133.434 7.30499 133.434H60.6876C62.7565 133.434 64.4338 131.754 64.4338 129.681V126.49C64.4338 124.417 62.7565 122.737 60.6876 122.737ZM7.30499 119.171C3.27055 119.171 0 122.448 0 126.49V129.681C0 133.723 3.27056 137 7.30499 137H60.6876C64.722 137 67.9926 133.723 67.9926 129.681V126.49C67.9926 122.448 64.722 119.171 60.6876 119.171H7.30499Z" fill="url(#paint5_linear_344_827)"/>
<path fill-rule="evenodd" clip-rule="evenodd" d="M33.6217 53.8616C44.7422 53.8616 53.7572 44.8291 53.7572 33.687C53.7572 22.5448 44.7422 13.5123 33.6217 13.5123C22.5011 13.5123 13.4861 22.5448 13.4861 33.687C13.4861 44.8291 22.5011 53.8616 33.6217 53.8616ZM33.9178 17.0726C23.407 17.0726 17.0395 26.2254 17.0395 34.2804H17.9278C17.9278 31.5046 18.7229 28.6005 20.2078 26.0247L23.136 28.9585H28.5878V32.1108H32.6778V35.6175L28.971 39.0459H24.8124V39.6763H24.4978V44.1259L23.2559 45.257C23.1086 45.1264 22.9641 44.994 22.8226 44.86C21.5206 43.628 20.4762 42.273 19.7597 40.9807C19.3124 40.1741 18.9999 39.4047 18.8272 38.7138C19.1751 38.5071 19.4084 38.127 19.4084 37.6924C19.4084 37.0369 18.8781 36.5056 18.2239 36.5056C17.5698 36.5056 17.0395 37.0369 17.0395 37.6924C17.0395 38.2515 17.4254 38.7203 17.945 38.846C18.1385 39.6608 18.4957 40.5339 18.9832 41.413C19.7472 42.7909 20.8496 44.2173 22.2126 45.5071C24.9348 48.083 28.74 50.153 33.0295 50.153C39.6195 50.153 44.12 47.2229 46.8095 43.4197C49.4849 39.6364 50.3668 34.992 49.753 31.5323L48.8783 31.6881C49.0704 32.7704 49.1048 33.9875 48.969 35.2631H33.9363V32.1108H38.0263V24.5453H33.6217V17.9652C33.72 17.9635 33.8187 17.9626 33.9178 17.9626C37.924 17.9626 41.2149 19.7412 43.6679 21.9815C45.6935 23.8316 47.126 25.9775 47.8985 27.6433C47.6767 27.8589 47.5389 28.1608 47.5389 28.495C47.5389 29.1504 48.0692 29.6817 48.7233 29.6817C49.3775 29.6817 49.9078 29.1504 49.9078 28.495C49.9078 27.8395 49.3775 27.3082 48.7233 27.3082L48.7225 27.3082C47.9009 25.5213 46.3891 23.2625 44.2663 21.3238C41.6977 18.9778 38.2027 17.0726 33.9178 17.0726ZM23.6572 27.6976L20.8946 24.9296C23.3691 21.2942 27.3035 18.5117 32.3632 18.035V24.5453H28.5878V27.6976H23.6572ZM33.0295 49.263C29.7092 49.263 26.6669 47.9305 24.2375 46.067L25.3703 45.0352H29.8463V39.9523L33.5531 36.524H40.7006V47.557H40.7125C38.6002 48.6209 36.0522 49.263 33.0295 49.263ZM46.0847 42.9051C45.0202 44.4103 43.6537 45.7747 41.9591 46.8501V36.524H48.7819C48.3739 38.6726 47.4936 40.9128 46.0847 42.9051ZM28.5878 40.3068H25.7562V43.7743H28.5878V40.3068ZM29.8463 25.8062V30.8499H36.7679V25.8062H29.8463Z" fill="url(#paint6_linear_344_827)"/>
<defs>
<linearGradient id="paint0_linear_344_827" x1="33.9963" y1="0" x2="33.9963" y2="137" gradientUnits="userSpaceOnUse">
<stop stop-color="#9D19FF"/>
<stop offset="1" stop-color="#7D9EFF"/>
</linearGradient>
<linearGradient id="paint1_linear_344_827" x1="33.9963" y1="0" x2="33.9963" y2="137" gradientUnits="userSpaceOnUse">
<stop stop-color="#9D19FF"/>
<stop offset="1" stop-color="#7D9EFF"/>
</linearGradient>
<linearGradient id="paint2_linear_344_827" x1="33.9963" y1="0" x2="33.9963" y2="137" gradientUnits="userSpaceOnUse">
<stop stop-color="#9D19FF"/>
<stop offset="1" stop-color="#7D9EFF"/>
</linearGradient>
<linearGradient id="paint3_linear_344_827" x1="33.9963" y1="0" x2="33.9963" y2="137" gradientUnits="userSpaceOnUse">
<stop stop-color="#9D19FF"/>
<stop offset="1" stop-color="#7D9EFF"/>
</linearGradient>
<linearGradient id="paint4_linear_344_827" x1="33.9963" y1="0" x2="33.9963" y2="137" gradientUnits="userSpaceOnUse">
<stop stop-color="#9D19FF"/>
<stop offset="1" stop-color="#7D9EFF"/>
</linearGradient>
<linearGradient id="paint5_linear_344_827" x1="33.9963" y1="0" x2="33.9963" y2="137" gradientUnits="userSpaceOnUse">
<stop stop-color="#9D19FF"/>
<stop offset="1" stop-color="#7D9EFF"/>
</linearGradient>
<linearGradient id="paint6_linear_344_827" x1="33.9963" y1="0" x2="33.9963" y2="137" gradientUnits="userSpaceOnUse">
<stop stop-color="#9D19FF"/>
<stop offset="1" stop-color="#7D9EFF"/>
</linearGradient>
</defs>
</svg>
