<svg width="160" height="137" viewBox="0 0 160 137" fill="none" xmlns="http://www.w3.org/2000/svg">
<path fill-rule="evenodd" clip-rule="evenodd" d="M18.5715 56.6019C19.2308 56.5233 19.9014 56.4829 20.581 56.4829C21.2606 56.4829 21.9312 56.5233 22.5905 56.6019C23.1879 56.6731 23.6146 57.2163 23.5436 57.8151C23.4725 58.414 22.9307 58.8417 22.3333 58.7705C21.7592 58.7021 21.1744 58.6668 20.581 58.6668C19.9876 58.6668 19.4028 58.7021 18.8286 58.7705C18.2313 58.8417 17.6894 58.414 17.6184 57.8151C17.5474 57.2163 17.9741 56.6731 18.5715 56.6019ZM11.6977 60.2754C12.0696 60.7494 11.9878 61.4359 11.515 61.8088C10.5947 62.5346 9.763 63.3683 9.03902 64.291C8.66709 64.7649 7.98228 64.8469 7.50947 64.4741C7.03665 64.1012 6.95488 63.4147 7.32682 62.9407C8.15764 61.8819 9.11197 60.9252 10.1681 60.0923C10.6409 59.7195 11.3257 59.8015 11.6977 60.2754ZM29.4643 60.2754C29.8362 59.8015 30.521 59.7195 30.9939 60.0923C32.05 60.9252 33.0043 61.8819 33.8352 62.9407C34.2071 63.4147 34.1253 64.1012 33.6525 64.4741C33.1797 64.8469 32.4949 64.7649 32.123 64.291C31.399 63.3683 30.5673 62.5346 29.647 61.8088C29.1741 61.4359 29.0924 60.7494 29.4643 60.2754ZM5.05524 70.4095C5.65261 70.4807 6.0793 71.0239 6.00828 71.6227C5.94002 72.1983 5.90485 72.7845 5.90485 73.3794C5.90485 73.9743 5.94002 74.5605 6.00828 75.1361C6.0793 75.735 5.65261 76.2782 5.05524 76.3494C4.45788 76.4206 3.91604 75.9928 3.84502 75.394C3.76664 74.733 3.72636 74.0607 3.72636 73.3794C3.72636 72.6982 3.76664 72.0259 3.84502 71.3649C3.91604 70.7661 4.45788 70.3383 5.05524 70.4095ZM36.1067 70.4095C36.7041 70.3383 37.2459 70.7661 37.317 71.3649C37.3953 72.0259 37.4356 72.6982 37.4356 73.3794C37.4356 74.0607 37.3953 74.733 37.317 75.394C37.2459 75.9928 36.7041 76.4206 36.1067 76.3494C35.5094 76.2782 35.0827 75.735 35.1537 75.1361C35.222 74.5605 35.2571 73.9743 35.2571 73.3794C35.2571 72.7845 35.222 72.1983 35.1537 71.6227C35.0827 71.0239 35.5094 70.4807 36.1067 70.4095ZM7.50947 82.2848C7.98228 81.912 8.66709 81.9939 9.03902 82.4679C9.763 83.3906 10.5947 84.2243 11.515 84.9501C11.9878 85.323 12.0696 86.0095 11.6977 86.4835C11.3257 86.9574 10.6409 87.0394 10.1681 86.6666C9.11197 85.8337 8.15764 84.877 7.32682 83.8182C6.95488 83.3442 7.03665 82.6577 7.50947 82.2848ZM33.6525 82.2848C34.1253 82.6577 34.2071 83.3442 33.8352 83.8182C33.0043 84.877 32.05 85.8337 30.9939 86.6666C30.521 87.0394 29.8362 86.9574 29.4643 86.4835C29.0924 86.0095 29.1741 85.323 29.647 84.9501C30.5673 84.2243 31.399 83.3906 32.123 82.4679C32.4949 81.9939 33.1797 81.912 33.6525 82.2848ZM17.6184 88.9438C17.6894 88.3449 18.2313 87.9172 18.8286 87.9884C19.4028 88.0568 19.9876 88.0921 20.581 88.0921C21.1744 88.0921 21.7592 88.0568 22.3333 87.9884C22.9307 87.9172 23.4725 88.3449 23.5436 88.9438C23.6146 89.5426 23.1879 90.0858 22.5905 90.157C21.9312 90.2356 21.2606 90.276 20.581 90.276C19.9014 90.276 19.2308 90.2356 18.5715 90.157C17.9741 90.0858 17.5474 89.5426 17.6184 88.9438Z" fill="url(#paint0_linear_344_798)"/>
<path fill-rule="evenodd" clip-rule="evenodd" d="M20.581 91.8277C30.7444 91.8277 38.9835 83.5681 38.9835 73.3794C38.9835 63.1908 30.7444 54.9312 20.581 54.9312C10.4176 54.9312 2.17849 63.1908 2.17849 73.3794C2.17849 83.5681 10.4176 91.8277 20.581 91.8277ZM20.581 94.0116C31.9476 94.0116 41.162 84.7743 41.162 73.3794C41.162 61.9846 31.9476 52.7473 20.581 52.7473C9.21442 52.7473 1.25222e-06 61.9846 1.48242e-06 73.3794C1.71262e-06 84.7743 9.21442 94.0116 20.581 94.0116Z" fill="url(#paint1_linear_344_798)"/>
<path fill-rule="evenodd" clip-rule="evenodd" d="M30.9 80.5377C34.6795 74.862 33.1536 67.1894 27.4919 63.4005C21.8302 59.6117 14.1767 61.1414 10.3972 66.8171C6.61778 72.4929 8.14364 80.1655 13.8053 83.9543C19.467 87.7431 27.1206 86.2135 30.9 80.5377ZM12.3069 67.8766C8.73471 73.2412 11.2215 79.6034 15.3145 82.3425L15.6164 81.8891C14.2059 80.9452 13.0005 79.5519 12.1963 77.9181L14.6823 77.4213L16.5351 74.6387L18.1369 75.7107L19.5269 73.6232L21.3088 74.8156L21.7911 77.8733L20.3777 79.9958L20.6981 80.2102L20.5911 80.3708L22.8521 81.8838L23.0048 82.9023C22.8884 82.933 22.772 82.9618 22.6558 82.9885C21.5873 83.234 20.5438 83.3063 19.6436 83.2326C19.0818 83.1865 18.5846 83.0844 18.1749 82.9377C18.1881 82.6898 18.0742 82.4415 17.8533 82.2937C17.5203 82.0708 17.0701 82.1608 16.8478 82.4947C16.6254 82.8285 16.7152 83.2799 17.0482 83.5027C17.3324 83.6929 17.7018 83.6553 17.9422 83.4329C18.4219 83.6112 18.987 83.7257 19.5994 83.7759C20.5592 83.8545 21.6587 83.7769 22.7773 83.5198C25.0114 83.0064 27.3565 81.7682 28.8143 79.5788C31.054 76.2154 31.0946 72.9221 30.0761 70.2561C29.063 67.6042 27.0028 65.5747 25.0361 64.7116L24.8181 65.2109C25.4333 65.481 26.0634 65.8772 26.6655 66.3803L21.5564 74.0528L19.9547 72.9809L21.3447 70.8934L17.5004 68.3208L16.0034 70.5688L12.6599 68.3313C12.6924 68.2805 12.7255 68.2299 12.7592 68.1793C14.1208 66.1346 16.143 65.0597 18.115 64.5696C19.7435 64.1649 21.3208 64.1634 22.4298 64.3356C22.464 64.5221 22.5705 64.6951 22.7403 64.8088C23.0734 65.0316 23.5236 64.9416 23.7459 64.6078C23.9682 64.2739 23.8784 63.8226 23.5454 63.5997C23.2124 63.3768 22.7622 63.4668 22.5398 63.8007L22.5396 63.8011C21.3523 63.6128 19.6907 63.6163 17.9842 64.0405C15.9191 64.5538 13.7632 65.6897 12.3069 67.8766ZM14.2187 76.7265L11.8733 77.1952C10.867 74.6961 10.7903 71.7418 12.2676 68.9973L15.5757 71.2111L14.2926 73.1381L15.8944 74.21L14.2187 76.7265ZM28.3621 79.2762C27.2336 80.9709 25.5226 82.0705 23.75 82.6767L23.6107 81.7477L25.1319 79.4632L22.5491 77.7348L22.0669 74.6771L24.4961 71.0292L30.1023 74.7809L30.1063 74.7748C29.9291 76.2147 29.3893 77.7335 28.3621 79.2762ZM29.5683 70.4511C29.9714 71.5062 30.2003 72.6676 30.1708 73.8982L24.9238 70.3869L27.2426 66.9046C28.1957 67.8435 29.0348 69.0545 29.5683 70.4511ZM22.3015 78.4977L21.3392 79.9428L23.1012 81.122L24.0635 79.6768L22.3015 78.4977ZM15.361 72.9245L17.9239 74.6396L20.2763 71.1069L17.7134 69.3918L15.361 72.9245Z" fill="url(#paint2_linear_344_798)"/>
<path fill-rule="evenodd" clip-rule="evenodd" d="M33.8064 4.8481C34.181 4.37623 34.8662 4.29814 35.3369 4.67368L40.0773 8.45574C40.548 8.83128 40.6259 9.51824 40.2513 9.99011C39.8767 10.462 39.1914 10.5401 38.7207 10.1645L33.9804 6.38247C33.5097 6.00693 33.4318 5.31997 33.8064 4.8481Z" fill="url(#paint3_linear_344_798)"/>
<path fill-rule="evenodd" clip-rule="evenodd" d="M2.21457 29.3428C2.43159 28.7804 3.06236 28.5008 3.62342 28.7184L9.27387 30.9094C9.83493 31.127 10.1138 31.7593 9.89681 32.3218C9.67979 32.8842 9.04903 33.1638 8.48796 32.9462L2.83752 30.7552C2.27645 30.5376 1.99755 29.9053 2.21457 29.3428Z" fill="url(#paint4_linear_344_798)"/>
<path fill-rule="evenodd" clip-rule="evenodd" d="M39.4186 0.066629C39.9836 -0.140359 40.6091 0.151029 40.8155 0.717462L42.895 6.42199C43.1014 6.98843 42.8108 7.61541 42.2457 7.8224C41.6807 8.02939 41.0553 7.738 40.8488 7.17157L38.7694 1.46703C38.5629 0.9006 38.8536 0.273617 39.4186 0.066629Z" fill="url(#paint5_linear_344_798)"/>
<path fill-rule="evenodd" clip-rule="evenodd" d="M87.8672 3.18012C88.3253 3.57099 88.3806 4.26015 87.9906 4.7194L84.0639 9.34446C83.674 9.8037 82.9866 9.85913 82.5284 9.46825C82.0703 9.07738 82.0151 8.38822 82.405 7.92897L86.3317 3.30391C86.7216 2.84467 87.4091 2.78924 87.8672 3.18012Z" fill="url(#paint6_linear_344_798)"/>
<path fill-rule="evenodd" clip-rule="evenodd" d="M91.988 11.3276C92.0119 11.9302 91.544 12.4381 90.9429 12.4621L84.8892 12.7033C84.2881 12.7272 83.7815 12.2581 83.7576 11.6555C83.7337 11.0529 84.2016 10.545 84.8027 10.5211L90.8564 10.2799C91.4575 10.256 91.9641 10.725 91.988 11.3276Z" fill="url(#paint7_linear_344_798)"/>
<path fill-rule="evenodd" clip-rule="evenodd" d="M30.4214 10.7878C30.4949 10.1892 31.0384 9.76365 31.6355 9.83726L37.6486 10.5785C38.2457 10.6521 38.6702 11.197 38.5968 11.7956C38.5234 12.3941 37.9798 12.8197 37.3827 12.7461L31.3696 12.0048C30.7725 11.9312 30.348 11.3863 30.4214 10.7878Z" fill="url(#paint8_linear_344_798)"/>
<path fill-rule="evenodd" clip-rule="evenodd" d="M0.752641 36.0247C0.64448 35.4314 1.03652 34.8626 1.62829 34.7542L7.58799 33.6622C8.17976 33.5538 8.74716 33.9468 8.85532 34.54C8.96348 35.1333 8.57144 35.7021 7.97967 35.8105L2.01998 36.9025C1.42821 37.0109 0.860801 36.6179 0.752641 36.0247Z" fill="url(#paint9_linear_344_798)"/>
<path fill-rule="evenodd" clip-rule="evenodd" d="M37.149 96.1955L4.47164 96.1955C3.20517 96.1955 2.17849 97.2248 2.17849 98.4944L2.17849 100.448C2.17849 101.718 3.20517 102.747 4.47164 102.747L37.149 102.747C38.4154 102.747 39.4421 101.718 39.4421 100.448L39.4421 98.4944C39.4421 97.2248 38.4154 96.1955 37.149 96.1955ZM4.47164 94.0116C2.00202 94.0116 1.93978e-06 96.0186 1.98979e-06 98.4944L2.02927e-06 100.448C2.07928e-06 102.924 2.00202 104.931 4.47164 104.931L37.149 104.931C39.6186 104.931 41.6206 102.924 41.6206 100.448L41.6206 98.4944C41.6206 96.0186 39.6186 94.0116 37.149 94.0116L4.47164 94.0116Z" fill="url(#paint10_linear_344_798)"/>
<path fill-rule="evenodd" clip-rule="evenodd" d="M37.149 106.77L4.47164 106.77C3.20517 106.77 2.17849 107.799 2.17849 109.069L2.17849 111.023C2.17849 112.293 3.20517 113.322 4.47164 113.322L37.149 113.322C38.4154 113.322 39.4421 112.293 39.4421 111.023L39.4421 109.069C39.4421 107.799 38.4154 106.77 37.149 106.77ZM4.47164 104.586C2.00202 104.586 2.15341e-06 106.593 2.20343e-06 109.069L2.2429e-06 111.023C2.29292e-06 113.499 2.00202 115.506 4.47164 115.506L37.149 115.506C39.6186 115.506 41.6206 113.499 41.6206 111.023L41.6206 109.069C41.6206 106.593 39.6186 104.586 37.149 104.586L4.47164 104.586Z" fill="url(#paint11_linear_344_798)"/>
<path fill-rule="evenodd" clip-rule="evenodd" d="M37.149 117.345L4.47164 117.345C3.20517 117.345 2.17849 118.374 2.17849 119.644L2.17849 121.598C2.17849 122.867 3.20517 123.897 4.47164 123.897L37.149 123.897C38.4154 123.897 39.4421 122.867 39.4421 121.598L39.4421 119.644C39.4421 118.374 38.4154 117.345 37.149 117.345ZM4.47164 115.161C2.00202 115.161 2.36704e-06 117.168 2.41706e-06 119.644L2.45653e-06 121.598C2.50655e-06 124.073 2.00202 126.08 4.47164 126.08L37.149 126.08C39.6186 126.08 41.6206 124.073 41.6206 121.598L41.6206 119.644C41.6206 117.168 39.6186 115.161 37.149 115.161L4.47164 115.161Z" fill="url(#paint12_linear_344_798)"/>
<path fill-rule="evenodd" clip-rule="evenodd" d="M37.149 127.92L4.47164 127.92C3.20517 127.92 2.17849 128.949 2.17849 130.218L2.17849 132.172C2.17849 133.442 3.20517 134.471 4.47164 134.471L37.149 134.471C38.4154 134.471 39.4421 133.442 39.4421 132.172L39.4421 130.218C39.4421 128.949 38.4154 127.92 37.149 127.92ZM4.47164 125.736C2.00202 125.736 2.58067e-06 127.743 2.63069e-06 130.218L2.67016e-06 132.172C2.72018e-06 134.648 2.00202 136.655 4.47164 136.655L37.149 136.655C39.6186 136.655 41.6206 134.648 41.6206 132.172L41.6206 130.218C41.6206 127.743 39.6186 125.736 37.149 125.736L4.47164 125.736Z" fill="url(#paint13_linear_344_798)"/>
<path fill-rule="evenodd" clip-rule="evenodd" d="M78.7696 128.264L46.0923 128.264C44.8258 128.264 43.7991 129.294 43.7991 130.563L43.7991 132.517C43.7991 133.787 44.8258 134.816 46.0923 134.816L78.7696 134.816C80.0361 134.816 81.0628 133.787 81.0628 132.517L81.0628 130.563C81.0628 129.294 80.0361 128.264 78.7696 128.264ZM46.0923 126.08C43.6227 126.08 41.6206 128.087 41.6206 130.563L41.6206 132.517C41.6206 134.993 43.6227 137 46.0923 137L78.7696 137C81.2392 137 83.2412 134.993 83.2412 132.517L83.2412 130.563C83.2412 128.087 81.2392 126.08 78.7696 126.08L46.0923 126.08Z" fill="url(#paint14_linear_344_798)"/>
<path fill-rule="evenodd" clip-rule="evenodd" d="M78.7696 117.345L46.0923 117.345C44.8258 117.345 43.7991 118.374 43.7991 119.644L43.7991 121.598C43.7991 122.867 44.8258 123.897 46.0923 123.897L78.7696 123.897C80.0361 123.897 81.0628 122.867 81.0628 121.598L81.0628 119.644C81.0628 118.374 80.0361 117.345 78.7696 117.345ZM46.0923 115.161C43.6227 115.161 41.6206 117.168 41.6206 119.644L41.6206 121.598C41.6206 124.073 43.6227 126.08 46.0923 126.08L78.7696 126.08C81.2392 126.08 83.2412 124.073 83.2412 121.598L83.2412 119.644C83.2412 117.168 81.2392 115.161 78.7696 115.161L46.0923 115.161Z" fill="url(#paint15_linear_344_798)"/>
<path fill-rule="evenodd" clip-rule="evenodd" d="M78.7696 106.425L46.0923 106.425C44.8258 106.425 43.7991 107.455 43.7991 108.724L43.7991 110.678C43.7991 111.948 44.8258 112.977 46.0923 112.977L78.7696 112.977C80.0361 112.977 81.0628 111.948 81.0628 110.678L81.0628 108.724C81.0628 107.455 80.0361 106.425 78.7696 106.425ZM46.0923 104.241C43.6227 104.241 41.6206 106.248 41.6206 108.724L41.6206 110.678C41.6206 113.154 43.6227 115.161 46.0923 115.161L78.7696 115.161C81.2392 115.161 83.2412 113.154 83.2412 110.678L83.2412 108.724C83.2412 106.248 81.2392 104.241 78.7696 104.241L46.0923 104.241Z" fill="url(#paint16_linear_344_798)"/>
<path fill-rule="evenodd" clip-rule="evenodd" d="M78.7696 96.1955L46.0923 96.1955C44.8258 96.1955 43.7991 97.2247 43.7991 98.4943L43.7991 100.448C43.7991 101.718 44.8258 102.747 46.0923 102.747L78.7696 102.747C80.0361 102.747 81.0628 101.718 81.0628 100.448L81.0628 98.4943C81.0627 97.2247 80.0361 96.1955 78.7696 96.1955ZM46.0923 94.0116C43.6227 94.0116 41.6206 96.0186 41.6206 98.4944L41.6206 100.448C41.6206 102.924 43.6227 104.931 46.0923 104.931L78.7696 104.931C81.2392 104.931 83.2412 102.924 83.2412 100.448L83.2412 98.4943C83.2412 96.0186 81.2392 94.0116 78.7696 94.0116L46.0923 94.0116Z" fill="url(#paint17_linear_344_798)"/>
<path fill-rule="evenodd" clip-rule="evenodd" d="M78.7696 85.9656L46.0923 85.9656C44.8258 85.9656 43.7991 86.9949 43.7991 88.2645L43.7991 90.2185C43.7991 91.4881 44.8258 92.5174 46.0923 92.5174L78.7696 92.5174C80.0361 92.5174 81.0627 91.4881 81.0627 90.2185L81.0627 88.2645C81.0627 86.9949 80.0361 85.9656 78.7696 85.9656ZM46.0923 83.7817C43.6227 83.7817 41.6206 85.7887 41.6206 88.2645L41.6206 90.2185C41.6206 92.6943 43.6227 94.7013 46.0923 94.7013L78.7696 94.7013C81.2392 94.7013 83.2412 92.6943 83.2412 90.2185L83.2412 88.2645C83.2412 85.7887 81.2392 83.7817 78.7696 83.7817L46.0923 83.7817Z" fill="url(#paint18_linear_344_798)"/>
<path fill-rule="evenodd" clip-rule="evenodd" d="M78.7696 75.7358L46.0923 75.7358C44.8258 75.7358 43.7991 76.765 43.7991 78.0346L43.7991 79.9886C43.7991 81.2583 44.8258 82.2875 46.0923 82.2875L78.7696 82.2875C80.0361 82.2875 81.0627 81.2583 81.0627 79.9886L81.0627 78.0346C81.0627 76.765 80.0361 75.7358 78.7696 75.7358ZM46.0923 73.5519C43.6227 73.5519 41.6206 75.5589 41.6206 78.0346L41.6206 79.9886C41.6206 82.4644 43.6227 84.4714 46.0923 84.4714L78.7696 84.4714C81.2392 84.4714 83.2412 82.4644 83.2412 79.9886L83.2412 78.0346C83.2412 75.5589 81.2392 73.5519 78.7696 73.5519L46.0923 73.5519Z" fill="url(#paint19_linear_344_798)"/>
<path fill-rule="evenodd" clip-rule="evenodd" d="M78.7696 65.5059L46.0923 65.5059C44.8258 65.5059 43.7991 66.5351 43.7991 67.8048L43.7991 69.7588C43.7991 71.0284 44.8258 72.0576 46.0923 72.0576L78.7696 72.0576C80.0361 72.0576 81.0627 71.0284 81.0627 69.7588L81.0627 67.8048C81.0627 66.5351 80.0361 65.5059 78.7696 65.5059ZM46.0923 63.322C43.6227 63.322 41.6206 65.329 41.6206 67.8048L41.6206 69.7588C41.6206 72.2345 43.6227 74.2415 46.0923 74.2415L78.7696 74.2415C81.2392 74.2415 83.2412 72.2345 83.2412 69.7588L83.2412 67.8048C83.2412 65.329 81.2392 63.322 78.7696 63.322L46.0923 63.322Z" fill="url(#paint20_linear_344_798)"/>
<path fill-rule="evenodd" clip-rule="evenodd" d="M78.7696 55.2761L46.0923 55.2761C44.8258 55.2761 43.7991 56.3053 43.7991 57.5749L43.7991 59.5289C43.7991 60.7985 44.8258 61.8278 46.0923 61.8278L78.7696 61.8278C80.0361 61.8278 81.0627 60.7985 81.0627 59.5289L81.0627 57.5749C81.0627 56.3053 80.0361 55.2761 78.7696 55.2761ZM46.0923 53.0922C43.6227 53.0922 41.6206 55.0991 41.6206 57.5749L41.6206 59.5289C41.6206 62.0047 43.6227 64.0117 46.0923 64.0117L78.7696 64.0117C81.2392 64.0117 83.2412 62.0047 83.2412 59.5289L83.2412 57.5749C83.2412 55.0991 81.2392 53.0922 78.7696 53.0922L46.0923 53.0922Z" fill="url(#paint21_linear_344_798)"/>
<path fill-rule="evenodd" clip-rule="evenodd" d="M78.7696 45.0462L46.0923 45.0462C44.8258 45.0462 43.7991 46.0754 43.7991 47.345L43.7991 49.2991C43.7991 50.5687 44.8258 51.5979 46.0923 51.5979L78.7696 51.5979C80.0361 51.5979 81.0627 50.5687 81.0627 49.2991L81.0627 47.345C81.0627 46.0754 80.0361 45.0462 78.7696 45.0462ZM46.0923 42.8623C43.6227 42.8623 41.6206 44.8693 41.6206 47.345L41.6206 49.2991C41.6206 51.7748 43.6227 53.7818 46.0923 53.7818L78.7696 53.7818C81.2392 53.7818 83.2412 51.7748 83.2412 49.2991L83.2412 47.345C83.2412 44.8693 81.2392 42.8623 78.7696 42.8623L46.0923 42.8623Z" fill="url(#paint22_linear_344_798)"/>
<path fill-rule="evenodd" clip-rule="evenodd" d="M78.7696 34.1267L46.0923 34.1267C44.8258 34.1267 43.7991 35.1559 43.7991 36.4255L43.7991 38.3795C43.7991 39.6492 44.8258 40.6784 46.0923 40.6784L78.7696 40.6784C80.0361 40.6784 81.0627 39.6492 81.0627 38.3795L81.0627 36.4255C81.0627 35.1559 80.0361 34.1267 78.7696 34.1267ZM46.0923 31.9428C43.6227 31.9428 41.6206 33.9498 41.6206 36.4255L41.6206 38.3795C41.6206 40.8553 43.6227 42.8623 46.0923 42.8623L78.7696 42.8623C81.2392 42.8623 83.2412 40.8553 83.2412 38.3795L83.2412 36.4255C83.2412 33.9498 81.2392 31.9428 78.7696 31.9428L46.0923 31.9428Z" fill="url(#paint23_linear_344_798)"/>
<path fill-rule="evenodd" clip-rule="evenodd" d="M78.7696 23.2072L46.0923 23.2072C44.8258 23.2072 43.7991 24.2364 43.7991 25.506L43.7991 27.46C43.7991 28.7297 44.8258 29.7589 46.0923 29.7589L78.7696 29.7589C80.0361 29.7589 81.0627 28.7297 81.0627 27.46L81.0627 25.506C81.0627 24.2364 80.0361 23.2072 78.7696 23.2072ZM46.0923 21.0233C43.6227 21.0233 41.6206 23.0303 41.6206 25.506L41.6206 27.46C41.6206 29.9358 43.6227 31.9428 46.0923 31.9428L78.7696 31.9428C81.2392 31.9428 83.2412 29.9358 83.2412 27.46L83.2412 25.506C83.2412 23.0303 81.2392 21.0233 78.7696 21.0233L46.0923 21.0233Z" fill="url(#paint24_linear_344_798)"/>
<path fill-rule="evenodd" clip-rule="evenodd" d="M78.7696 12.2877L46.0923 12.2877C44.8258 12.2877 43.7991 13.3169 43.7991 14.5865L43.7991 16.5405C43.7991 17.8101 44.8258 18.8394 46.0923 18.8394L78.7696 18.8394C80.0361 18.8394 81.0627 17.8101 81.0627 16.5405L81.0627 14.5865C81.0627 13.3169 80.0361 12.2877 78.7696 12.2877ZM46.0923 10.1038C43.6227 10.1038 41.6206 12.1107 41.6206 14.5865L41.6206 16.5405C41.6206 19.0163 43.6227 21.0233 46.0923 21.0233L78.7696 21.0233C81.2392 21.0233 83.2412 19.0163 83.2412 16.5405L83.2412 14.5865C83.2412 12.1107 81.2392 10.1038 78.7696 10.1038L46.0923 10.1038Z" fill="url(#paint25_linear_344_798)"/>
<path fill-rule="evenodd" clip-rule="evenodd" d="M123.371 128.264L90.6937 128.264C89.4273 128.264 88.4006 129.294 88.4006 130.563L88.4006 132.517C88.4006 133.787 89.4273 134.816 90.6937 134.816L123.371 134.816C124.638 134.816 125.664 133.787 125.664 132.517L125.664 130.563C125.664 129.294 124.638 128.264 123.371 128.264ZM90.6937 126.08C88.2241 126.08 86.2221 128.087 86.2221 130.563L86.2221 132.517C86.2221 134.993 88.2241 137 90.6937 137L123.371 137C125.841 137 127.843 134.993 127.843 132.517L127.843 130.563C127.843 128.087 125.841 126.08 123.371 126.08L90.6937 126.08Z" fill="url(#paint26_linear_344_798)"/>
<path fill-rule="evenodd" clip-rule="evenodd" d="M123.371 117.345L90.6937 117.345C89.4273 117.345 88.4006 118.374 88.4006 119.644L88.4006 121.598C88.4006 122.867 89.4273 123.897 90.6937 123.897L123.371 123.897C124.638 123.897 125.664 122.867 125.664 121.598L125.664 119.644C125.664 118.374 124.638 117.345 123.371 117.345ZM90.6937 115.161C88.2241 115.161 86.2221 117.168 86.2221 119.644L86.2221 121.598C86.2221 124.073 88.2241 126.08 90.6937 126.08L123.371 126.08C125.841 126.08 127.843 124.073 127.843 121.598L127.843 119.644C127.843 117.168 125.841 115.161 123.371 115.161L90.6937 115.161Z" fill="url(#paint27_linear_344_798)"/>
<path fill-rule="evenodd" clip-rule="evenodd" d="M123.371 106.425L90.6937 106.425C89.4273 106.425 88.4006 107.455 88.4006 108.724L88.4006 110.678C88.4006 111.948 89.4273 112.977 90.6937 112.977L123.371 112.977C124.638 112.977 125.664 111.948 125.664 110.678L125.664 108.724C125.664 107.455 124.638 106.425 123.371 106.425ZM90.6937 104.241C88.2241 104.241 86.2221 106.248 86.2221 108.724L86.2221 110.678C86.2221 113.154 88.2241 115.161 90.6937 115.161L123.371 115.161C125.841 115.161 127.843 113.154 127.843 110.678L127.843 108.724C127.843 106.248 125.841 104.241 123.371 104.241L90.6937 104.241Z" fill="url(#paint28_linear_344_798)"/>
<path fill-rule="evenodd" clip-rule="evenodd" d="M123.371 96.1955L90.6937 96.1955C89.4273 96.1955 88.4006 97.2247 88.4006 98.4943L88.4006 100.448C88.4006 101.718 89.4273 102.747 90.6937 102.747L123.371 102.747C124.638 102.747 125.664 101.718 125.664 100.448L125.664 98.4943C125.664 97.2247 124.638 96.1955 123.371 96.1955ZM90.6937 94.0116C88.2241 94.0116 86.2221 96.0186 86.2221 98.4943L86.2221 100.448C86.2221 102.924 88.2241 104.931 90.6937 104.931L123.371 104.931C125.841 104.931 127.843 102.924 127.843 100.448L127.843 98.4943C127.843 96.0186 125.841 94.0116 123.371 94.0116L90.6937 94.0116Z" fill="url(#paint29_linear_344_798)"/>
<path fill-rule="evenodd" clip-rule="evenodd" d="M123.371 85.9656L90.6937 85.9656C89.4273 85.9656 88.4006 86.9948 88.4006 88.2645L88.4006 90.2185C88.4006 91.4881 89.4273 92.5173 90.6937 92.5173L123.371 92.5173C124.638 92.5173 125.664 91.4881 125.664 90.2185L125.664 88.2645C125.664 86.9948 124.638 85.9656 123.371 85.9656ZM90.6937 83.7817C88.2241 83.7817 86.2221 85.7887 86.2221 88.2645L86.2221 90.2185C86.2221 92.6942 88.2241 94.7012 90.6937 94.7012L123.371 94.7012C125.841 94.7012 127.843 92.6942 127.843 90.2185L127.843 88.2645C127.843 85.7887 125.841 83.7817 123.371 83.7817L90.6937 83.7817Z" fill="url(#paint30_linear_344_798)"/>
<path fill-rule="evenodd" clip-rule="evenodd" d="M123.371 75.7358L90.6937 75.7358C89.4273 75.7358 88.4006 76.765 88.4006 78.0346L88.4006 79.9886C88.4006 81.2582 89.4273 82.2875 90.6937 82.2875L123.371 82.2875C124.638 82.2875 125.664 81.2582 125.664 79.9886L125.664 78.0346C125.664 76.765 124.638 75.7358 123.371 75.7358ZM90.6937 73.5519C88.2241 73.5519 86.2221 75.5589 86.2221 78.0346L86.2221 79.9886C86.2221 82.4644 88.2241 84.4714 90.6937 84.4714L123.371 84.4714C125.841 84.4714 127.843 82.4644 127.843 79.9886L127.843 78.0346C127.843 75.5589 125.841 73.5519 123.371 73.5519L90.6937 73.5519Z" fill="url(#paint31_linear_344_798)"/>
<path fill-rule="evenodd" clip-rule="evenodd" d="M123.371 65.5059L90.6937 65.5059C89.4273 65.5059 88.4006 66.5351 88.4006 67.8047L88.4006 69.7588C88.4006 71.0284 89.4273 72.0576 90.6937 72.0576L123.371 72.0576C124.638 72.0576 125.664 71.0284 125.664 69.7588L125.664 67.8047C125.664 66.5351 124.638 65.5059 123.371 65.5059ZM90.6937 63.322C88.2241 63.322 86.2221 65.329 86.2221 67.8047L86.2221 69.7588C86.2221 72.2345 88.2241 74.2415 90.6937 74.2415L123.371 74.2415C125.841 74.2415 127.843 72.2345 127.843 69.7588L127.843 67.8047C127.843 65.329 125.841 63.322 123.371 63.322L90.6937 63.322Z" fill="url(#paint32_linear_344_798)"/>
<path fill-rule="evenodd" clip-rule="evenodd" d="M123.371 55.276L90.6937 55.276C89.4273 55.276 88.4006 56.3053 88.4006 57.5749L88.4006 59.5289C88.4006 60.7985 89.4273 61.8277 90.6937 61.8277L123.371 61.8277C124.638 61.8277 125.664 60.7985 125.664 59.5289L125.664 57.5749C125.664 56.3053 124.638 55.276 123.371 55.276ZM90.6937 53.0921C88.2241 53.0921 86.2221 55.0991 86.2221 57.5749L86.2221 59.5289C86.2221 62.0047 88.2241 64.0117 90.6937 64.0117L123.371 64.0116C125.841 64.0116 127.843 62.0047 127.843 59.5289L127.843 57.5749C127.843 55.0991 125.841 53.0921 123.371 53.0921L90.6937 53.0921Z" fill="url(#paint33_linear_344_798)"/>
<path fill-rule="evenodd" clip-rule="evenodd" d="M123.371 45.0462L90.6937 45.0462C89.4273 45.0462 88.4006 46.0754 88.4006 47.345L88.4006 49.299C88.4006 50.5687 89.4273 51.5979 90.6937 51.5979L123.371 51.5979C124.638 51.5979 125.664 50.5687 125.664 49.299L125.664 47.345C125.664 46.0754 124.638 45.0462 123.371 45.0462ZM90.6937 42.8623C88.2241 42.8623 86.2221 44.8693 86.2221 47.345L86.2221 49.299C86.2221 51.7748 88.2241 53.7818 90.6937 53.7818L123.371 53.7818C125.841 53.7818 127.843 51.7748 127.843 49.299L127.843 47.345C127.843 44.8693 125.841 42.8623 123.371 42.8623L90.6937 42.8623Z" fill="url(#paint34_linear_344_798)"/>
<path fill-rule="evenodd" clip-rule="evenodd" d="M157.24 127.51L135.488 103.063C134.645 102.116 133.195 102.033 132.25 102.878L130.795 104.179C129.85 105.024 129.767 106.477 130.611 107.425L152.362 131.871C153.205 132.818 154.655 132.901 155.6 132.056L157.055 130.755C158 129.91 158.083 128.457 157.24 127.51ZM137.113 101.61C135.469 99.7622 132.643 99.6004 130.8 101.248L129.345 102.549C127.502 104.197 127.341 107.031 128.985 108.878L150.737 133.325C152.381 135.172 155.207 135.334 157.05 133.686L158.505 132.385C160.348 130.737 160.509 127.904 158.865 126.056L137.113 101.61Z" fill="url(#paint35_linear_344_798)"/>
<path fill-rule="evenodd" clip-rule="evenodd" d="M20.3938 23.5625C20.7729 22.5406 22.0573 22.2189 22.8713 22.942L27.8083 27.3285L34.3995 27.6052C35.4861 27.6508 36.1882 28.7761 35.7537 29.7755L33.118 35.8381L34.8922 42.2078C35.1847 43.2579 34.3341 44.275 33.2517 44.1696L26.6856 43.5301L21.191 47.19C20.2851 47.7934 19.0574 47.2968 18.8229 46.2321L17.4006 39.7743L12.2304 35.6666C11.3781 34.9894 11.4699 33.6653 12.4074 33.1128L18.0944 29.7611L20.3938 23.5625ZM22.115 25.1883L20.0582 30.733C19.9341 31.0676 19.6987 31.349 19.3918 31.5299L14.3047 34.528L18.9294 38.2024C19.2085 38.4241 19.4027 38.7354 19.4795 39.0839L20.7517 44.8605L25.6668 41.5867C25.9633 41.3892 26.3187 41.3002 26.6731 41.3347L32.5465 41.9067L30.9594 36.209C30.8637 35.8652 30.8891 35.4988 31.0313 35.1717L33.389 29.7486L27.4931 29.501C27.1374 29.4861 26.7977 29.3487 26.5312 29.112L22.115 25.1883Z" fill="url(#paint36_linear_344_798)"/>
<path fill-rule="evenodd" clip-rule="evenodd" d="M131.049 8.4507C130.526 8.04169 129.972 7.65954 129.391 7.30731C128.809 6.95508 128.214 6.64204 127.609 6.36756C127.061 6.11887 126.416 6.36266 126.168 6.91206C125.92 7.46147 126.163 8.10845 126.711 8.35713C127.238 8.59617 127.756 8.86907 128.264 9.17665C128.772 9.48424 129.255 9.81749 129.711 10.1737C130.185 10.5442 130.87 10.4589 131.24 9.98316C131.609 9.50737 131.524 8.82127 131.049 8.4507ZM135.039 15.1579C134.476 15.3709 134.192 16.0009 134.404 16.5651C134.818 17.6634 135.099 18.8081 135.243 19.9731C135.317 20.5716 135.861 20.9967 136.458 20.9226C137.055 20.8485 137.479 20.3033 137.405 19.7048C137.24 18.3679 136.917 17.0543 136.442 15.794C136.23 15.2298 135.601 14.945 135.039 15.1579ZM119.831 5.9492C119.757 5.3507 119.213 4.92558 118.616 4.99967C117.283 5.16518 115.972 5.48944 114.715 5.96509C114.152 6.17802 113.868 6.80804 114.081 7.37226C114.293 7.93648 114.921 8.22126 115.484 8.00832C116.58 7.59384 117.722 7.31125 118.884 7.16703C119.481 7.09294 119.905 6.5477 119.831 5.9492ZM135.498 27.2752C134.95 27.0266 134.304 27.2703 134.056 27.8197C133.818 28.3478 133.545 28.8678 133.239 29.377C132.932 29.8862 132.599 30.3698 132.244 30.8271C131.874 31.3029 131.96 31.989 132.434 32.3596C132.909 32.7301 133.593 32.6448 133.963 32.169C134.371 31.6439 134.752 31.0893 135.103 30.5062C135.455 29.923 135.767 29.3267 136.041 28.7203C136.289 28.1709 136.046 27.5239 135.498 27.2752ZM108.919 11.1807C108.444 10.8102 107.76 10.8955 107.39 11.3713C106.982 11.8964 106.601 12.451 106.249 13.0341C105.898 13.6173 105.586 14.2136 105.312 14.82C105.064 15.3694 105.307 16.0164 105.855 16.2651C106.403 16.5138 107.049 16.27 107.297 15.7206C107.535 15.1925 107.807 14.6725 108.114 14.1633C108.421 13.6541 108.753 13.1705 109.109 12.7132C109.478 12.2374 109.393 11.5513 108.919 11.1807ZM127.272 36.168C127.06 35.6038 126.431 35.319 125.869 35.532C124.773 35.9465 123.631 36.2291 122.469 36.3733C121.872 36.4474 121.448 36.9926 121.522 37.5911C121.596 38.1896 122.14 38.6147 122.737 38.5406C124.07 38.3751 125.381 38.0509 126.638 37.5752C127.201 37.3623 127.485 36.7323 127.272 36.168ZM104.895 22.6177C104.298 22.6918 103.874 23.237 103.947 23.8355C104.113 25.1724 104.436 26.486 104.91 27.7463C105.123 28.3105 105.751 28.5953 106.314 28.3824C106.877 28.1694 107.161 27.5394 106.949 26.9752C106.535 25.8769 106.253 24.7322 106.109 23.5672C106.036 22.9687 105.492 22.5436 104.895 22.6177ZM115.185 36.6282C115.433 36.0788 115.19 35.4319 114.642 35.1832C114.115 34.9441 113.596 34.6712 113.088 34.3637C112.58 34.0561 112.098 33.7228 111.642 33.3666C111.167 32.9961 110.483 33.0814 110.113 33.5572C109.744 34.0329 109.829 34.719 110.303 35.0896C110.827 35.4986 111.38 35.8808 111.962 36.233C112.544 36.5852 113.139 36.8983 113.743 37.1728C114.291 37.4214 114.937 37.1777 115.185 36.6282Z" fill="url(#paint37_linear_344_798)"/>
<path fill-rule="evenodd" clip-rule="evenodd" d="M111.162 37.5612C102.462 32.2934 99.6696 20.953 104.924 12.2318C110.179 3.51068 121.491 0.711222 130.191 5.97909C138.891 11.247 141.683 22.5873 136.428 31.3085C131.173 40.0296 119.861 42.8291 111.162 37.5612ZM110.035 39.4306C100.306 33.5391 97.1829 20.8563 103.06 11.1027C108.937 1.34912 121.588 -1.78173 131.317 4.10974C141.047 10.0012 144.17 22.684 138.293 32.4376C132.416 42.1912 119.765 45.322 110.035 39.4306Z" fill="url(#paint38_linear_344_798)"/>
<path fill-rule="evenodd" clip-rule="evenodd" d="M112.223 30.6515C117.142 35.3692 124.944 35.1965 129.65 30.2656C134.356 25.3348 134.184 17.5132 129.265 12.7955C124.347 8.07777 116.545 8.25054 111.839 13.1814C107.133 18.1122 107.305 25.9338 112.223 30.6515ZM127.893 14.4966C123.244 10.0376 116.562 11.3868 113.16 14.9514L113.552 15.3283C114.725 14.0999 116.303 13.152 118.048 12.642L118.104 15.1826L120.515 17.4954L119.184 18.8905L120.993 20.6256L119.512 22.1774L116.424 22.122L114.585 20.3578L114.318 20.6368L114.179 20.5033L112.3 22.4724L111.273 22.4462C111.263 22.3259 111.255 22.206 111.249 22.0867C111.194 20.9891 111.304 19.9464 111.533 19.0705C111.676 18.5238 111.862 18.0508 112.078 17.6718C112.319 17.7279 112.583 17.6586 112.766 17.4663C113.043 17.1762 113.033 16.7161 112.744 16.4386C112.454 16.1611 111.995 16.1713 111.718 16.4613C111.482 16.7088 111.455 17.08 111.632 17.356C111.373 17.7986 111.162 18.3366 111.007 18.9324C110.763 19.8663 110.648 20.9652 110.706 22.1142C110.822 24.409 111.631 26.9394 113.528 28.7591C116.443 31.5548 119.671 32.1673 122.467 31.6253C125.248 31.086 127.6 29.4048 128.789 27.6134L128.337 27.3113C127.964 27.8717 127.466 28.4249 126.867 28.9318L120.218 22.5545L121.549 21.1595L123.358 22.8946L126.554 19.5466L124.606 17.678L127.385 14.766C127.429 14.807 127.473 14.8485 127.517 14.8905C129.289 16.5901 129.993 18.7733 130.132 20.8053C130.246 22.4833 129.974 24.0407 129.612 25.1056C129.423 25.107 129.234 25.1821 129.093 25.33C128.816 25.62 128.826 26.0801 129.116 26.3576C129.405 26.6351 129.864 26.625 130.141 26.3349C130.417 26.0449 130.407 25.5848 130.118 25.3073L130.118 25.3069C130.509 24.1676 130.794 22.5266 130.674 20.7681C130.529 18.6402 129.788 16.3144 127.893 14.4966ZM118.867 14.8457L118.814 12.4488C121.444 11.8898 124.359 12.3275 126.799 14.263L124.049 17.1441L122.379 15.5424L121.048 16.9374L118.867 14.8457ZM113.904 28.3653C112.435 26.9566 111.652 25.0764 111.365 23.221L112.302 23.245L114.282 25.1439L116.428 22.8945L119.516 22.9499L122.677 25.9821L118.017 30.8646L118.023 30.8696C116.639 30.4444 115.241 29.6476 113.904 28.3653ZM122.363 31.09C121.257 31.3046 120.076 31.3286 118.872 31.0856L123.234 26.516L126.252 29.4104C125.164 30.1882 123.828 30.8061 122.363 31.09ZM115.722 22.5175L114.47 21.3162L113.005 22.8507L114.258 24.052L115.722 22.5175ZM122.403 16.6343L120.273 18.8663L123.334 21.8027L125.465 19.5707L122.403 16.6343Z" fill="url(#paint39_linear_344_798)"/>
<defs>
<linearGradient id="paint0_linear_344_798" x1="80" y1="-1.61617e-06" x2="80" y2="137" gradientUnits="userSpaceOnUse">
<stop stop-color="#9D19FF"/>
<stop offset="1" stop-color="#7D9EFF"/>
</linearGradient>
<linearGradient id="paint1_linear_344_798" x1="80" y1="-1.61617e-06" x2="80" y2="137" gradientUnits="userSpaceOnUse">
<stop stop-color="#9D19FF"/>
<stop offset="1" stop-color="#7D9EFF"/>
</linearGradient>
<linearGradient id="paint2_linear_344_798" x1="80" y1="-1.61617e-06" x2="80" y2="137" gradientUnits="userSpaceOnUse">
<stop stop-color="#9D19FF"/>
<stop offset="1" stop-color="#7D9EFF"/>
</linearGradient>
<linearGradient id="paint3_linear_344_798" x1="80" y1="-1.61617e-06" x2="80" y2="137" gradientUnits="userSpaceOnUse">
<stop stop-color="#9D19FF"/>
<stop offset="1" stop-color="#7D9EFF"/>
</linearGradient>
<linearGradient id="paint4_linear_344_798" x1="80" y1="-1.61617e-06" x2="80" y2="137" gradientUnits="userSpaceOnUse">
<stop stop-color="#9D19FF"/>
<stop offset="1" stop-color="#7D9EFF"/>
</linearGradient>
<linearGradient id="paint5_linear_344_798" x1="80" y1="-1.61617e-06" x2="80" y2="137" gradientUnits="userSpaceOnUse">
<stop stop-color="#9D19FF"/>
<stop offset="1" stop-color="#7D9EFF"/>
</linearGradient>
<linearGradient id="paint6_linear_344_798" x1="80" y1="-1.61617e-06" x2="80" y2="137" gradientUnits="userSpaceOnUse">
<stop stop-color="#9D19FF"/>
<stop offset="1" stop-color="#7D9EFF"/>
</linearGradient>
<linearGradient id="paint7_linear_344_798" x1="80" y1="-1.61617e-06" x2="80" y2="137" gradientUnits="userSpaceOnUse">
<stop stop-color="#9D19FF"/>
<stop offset="1" stop-color="#7D9EFF"/>
</linearGradient>
<linearGradient id="paint8_linear_344_798" x1="80" y1="-1.61617e-06" x2="80" y2="137" gradientUnits="userSpaceOnUse">
<stop stop-color="#9D19FF"/>
<stop offset="1" stop-color="#7D9EFF"/>
</linearGradient>
<linearGradient id="paint9_linear_344_798" x1="80" y1="-1.61617e-06" x2="80" y2="137" gradientUnits="userSpaceOnUse">
<stop stop-color="#9D19FF"/>
<stop offset="1" stop-color="#7D9EFF"/>
</linearGradient>
<linearGradient id="paint10_linear_344_798" x1="80" y1="-1.61617e-06" x2="80" y2="137" gradientUnits="userSpaceOnUse">
<stop stop-color="#9D19FF"/>
<stop offset="1" stop-color="#7D9EFF"/>
</linearGradient>
<linearGradient id="paint11_linear_344_798" x1="80" y1="-1.61617e-06" x2="80" y2="137" gradientUnits="userSpaceOnUse">
<stop stop-color="#9D19FF"/>
<stop offset="1" stop-color="#7D9EFF"/>
</linearGradient>
<linearGradient id="paint12_linear_344_798" x1="80" y1="-1.61617e-06" x2="80" y2="137" gradientUnits="userSpaceOnUse">
<stop stop-color="#9D19FF"/>
<stop offset="1" stop-color="#7D9EFF"/>
</linearGradient>
<linearGradient id="paint13_linear_344_798" x1="80" y1="-1.61617e-06" x2="80" y2="137" gradientUnits="userSpaceOnUse">
<stop stop-color="#9D19FF"/>
<stop offset="1" stop-color="#7D9EFF"/>
</linearGradient>
<linearGradient id="paint14_linear_344_798" x1="80" y1="-1.61617e-06" x2="80" y2="137" gradientUnits="userSpaceOnUse">
<stop stop-color="#9D19FF"/>
<stop offset="1" stop-color="#7D9EFF"/>
</linearGradient>
<linearGradient id="paint15_linear_344_798" x1="80" y1="-1.61617e-06" x2="80" y2="137" gradientUnits="userSpaceOnUse">
<stop stop-color="#9D19FF"/>
<stop offset="1" stop-color="#7D9EFF"/>
</linearGradient>
<linearGradient id="paint16_linear_344_798" x1="80" y1="-1.61617e-06" x2="80" y2="137" gradientUnits="userSpaceOnUse">
<stop stop-color="#9D19FF"/>
<stop offset="1" stop-color="#7D9EFF"/>
</linearGradient>
<linearGradient id="paint17_linear_344_798" x1="80" y1="-1.61617e-06" x2="80" y2="137" gradientUnits="userSpaceOnUse">
<stop stop-color="#9D19FF"/>
<stop offset="1" stop-color="#7D9EFF"/>
</linearGradient>
<linearGradient id="paint18_linear_344_798" x1="80" y1="-1.61617e-06" x2="80" y2="137" gradientUnits="userSpaceOnUse">
<stop stop-color="#9D19FF"/>
<stop offset="1" stop-color="#7D9EFF"/>
</linearGradient>
<linearGradient id="paint19_linear_344_798" x1="80" y1="-1.61617e-06" x2="80" y2="137" gradientUnits="userSpaceOnUse">
<stop stop-color="#9D19FF"/>
<stop offset="1" stop-color="#7D9EFF"/>
</linearGradient>
<linearGradient id="paint20_linear_344_798" x1="80" y1="-1.61617e-06" x2="80" y2="137" gradientUnits="userSpaceOnUse">
<stop stop-color="#9D19FF"/>
<stop offset="1" stop-color="#7D9EFF"/>
</linearGradient>
<linearGradient id="paint21_linear_344_798" x1="80" y1="-1.61617e-06" x2="80" y2="137" gradientUnits="userSpaceOnUse">
<stop stop-color="#9D19FF"/>
<stop offset="1" stop-color="#7D9EFF"/>
</linearGradient>
<linearGradient id="paint22_linear_344_798" x1="80" y1="-1.61617e-06" x2="80" y2="137" gradientUnits="userSpaceOnUse">
<stop stop-color="#9D19FF"/>
<stop offset="1" stop-color="#7D9EFF"/>
</linearGradient>
<linearGradient id="paint23_linear_344_798" x1="80" y1="-1.61617e-06" x2="80" y2="137" gradientUnits="userSpaceOnUse">
<stop stop-color="#9D19FF"/>
<stop offset="1" stop-color="#7D9EFF"/>
</linearGradient>
<linearGradient id="paint24_linear_344_798" x1="80" y1="-1.61617e-06" x2="80" y2="137" gradientUnits="userSpaceOnUse">
<stop stop-color="#9D19FF"/>
<stop offset="1" stop-color="#7D9EFF"/>
</linearGradient>
<linearGradient id="paint25_linear_344_798" x1="80" y1="-1.61617e-06" x2="80" y2="137" gradientUnits="userSpaceOnUse">
<stop stop-color="#9D19FF"/>
<stop offset="1" stop-color="#7D9EFF"/>
</linearGradient>
<linearGradient id="paint26_linear_344_798" x1="80" y1="-1.61617e-06" x2="80" y2="137" gradientUnits="userSpaceOnUse">
<stop stop-color="#9D19FF"/>
<stop offset="1" stop-color="#7D9EFF"/>
</linearGradient>
<linearGradient id="paint27_linear_344_798" x1="80" y1="-1.61617e-06" x2="80" y2="137" gradientUnits="userSpaceOnUse">
<stop stop-color="#9D19FF"/>
<stop offset="1" stop-color="#7D9EFF"/>
</linearGradient>
<linearGradient id="paint28_linear_344_798" x1="80" y1="-1.61617e-06" x2="80" y2="137" gradientUnits="userSpaceOnUse">
<stop stop-color="#9D19FF"/>
<stop offset="1" stop-color="#7D9EFF"/>
</linearGradient>
<linearGradient id="paint29_linear_344_798" x1="80" y1="-1.61617e-06" x2="80" y2="137" gradientUnits="userSpaceOnUse">
<stop stop-color="#9D19FF"/>
<stop offset="1" stop-color="#7D9EFF"/>
</linearGradient>
<linearGradient id="paint30_linear_344_798" x1="80" y1="-1.61617e-06" x2="80" y2="137" gradientUnits="userSpaceOnUse">
<stop stop-color="#9D19FF"/>
<stop offset="1" stop-color="#7D9EFF"/>
</linearGradient>
<linearGradient id="paint31_linear_344_798" x1="80" y1="-1.61617e-06" x2="80" y2="137" gradientUnits="userSpaceOnUse">
<stop stop-color="#9D19FF"/>
<stop offset="1" stop-color="#7D9EFF"/>
</linearGradient>
<linearGradient id="paint32_linear_344_798" x1="80" y1="-1.61617e-06" x2="80" y2="137" gradientUnits="userSpaceOnUse">
<stop stop-color="#9D19FF"/>
<stop offset="1" stop-color="#7D9EFF"/>
</linearGradient>
<linearGradient id="paint33_linear_344_798" x1="80" y1="-1.61617e-06" x2="80" y2="137" gradientUnits="userSpaceOnUse">
<stop stop-color="#9D19FF"/>
<stop offset="1" stop-color="#7D9EFF"/>
</linearGradient>
<linearGradient id="paint34_linear_344_798" x1="80" y1="-1.61617e-06" x2="80" y2="137" gradientUnits="userSpaceOnUse">
<stop stop-color="#9D19FF"/>
<stop offset="1" stop-color="#7D9EFF"/>
</linearGradient>
<linearGradient id="paint35_linear_344_798" x1="80" y1="-1.61617e-06" x2="80" y2="137" gradientUnits="userSpaceOnUse">
<stop stop-color="#9D19FF"/>
<stop offset="1" stop-color="#7D9EFF"/>
</linearGradient>
<linearGradient id="paint36_linear_344_798" x1="80" y1="-1.61617e-06" x2="80" y2="137" gradientUnits="userSpaceOnUse">
<stop stop-color="#9D19FF"/>
<stop offset="1" stop-color="#7D9EFF"/>
</linearGradient>
<linearGradient id="paint37_linear_344_798" x1="80" y1="-1.61617e-06" x2="80" y2="137" gradientUnits="userSpaceOnUse">
<stop stop-color="#9D19FF"/>
<stop offset="1" stop-color="#7D9EFF"/>
</linearGradient>
<linearGradient id="paint38_linear_344_798" x1="80" y1="-1.61617e-06" x2="80" y2="137" gradientUnits="userSpaceOnUse">
<stop stop-color="#9D19FF"/>
<stop offset="1" stop-color="#7D9EFF"/>
</linearGradient>
<linearGradient id="paint39_linear_344_798" x1="80" y1="-1.61617e-06" x2="80" y2="137" gradientUnits="userSpaceOnUse">
<stop stop-color="#9D19FF"/>
<stop offset="1" stop-color="#7D9EFF"/>
</linearGradient>
</defs>
</svg>
