<svg width="67" height="101" viewBox="0 0 67 101" fill="none" xmlns="http://www.w3.org/2000/svg">
<path fill-rule="evenodd" clip-rule="evenodd" d="M37.104 6.42264C36.0426 6.2968 34.9631 6.23214 33.8691 6.23214C32.7752 6.23214 31.6956 6.2968 30.6342 6.42264C29.6726 6.53665 28.9857 7.40648 29.1001 8.36547C29.2144 9.32445 30.0866 10.0094 31.0482 9.89543C31.9726 9.78585 32.9139 9.7294 33.8691 9.7294C34.8244 9.7294 35.7657 9.78585 36.69 9.89543C37.6517 10.0094 38.5239 9.32445 38.6382 8.36547C38.7525 7.40648 38.0657 6.53665 37.104 6.42264ZM48.1693 12.3054C47.5706 13.0644 47.7022 14.1638 48.4633 14.7609C49.9449 15.9231 51.2837 17.2583 52.4492 18.7357C53.0479 19.4948 54.1503 19.626 54.9114 19.0289C55.6725 18.4319 55.8042 17.3325 55.2054 16.5735C53.868 14.878 52.3317 13.3459 50.6316 12.0122C49.8704 11.4151 48.7681 11.5463 48.1693 12.3054ZM19.569 12.3054C18.9702 11.5463 17.8678 11.4151 17.1067 12.0122C15.4065 13.3459 13.8703 14.878 12.5328 16.5735C11.9341 17.3325 12.0658 18.4319 12.8269 19.0289C13.588 19.626 14.6904 19.4948 15.2891 18.7357C16.4546 17.2583 17.7934 15.9231 19.2749 14.7609C20.0361 14.1638 20.1677 13.0644 19.569 12.3054ZM58.8622 28.5339C57.9005 28.6479 57.2137 29.5177 57.328 30.4767C57.4379 31.3985 57.4945 32.3372 57.4945 33.2898C57.4945 34.2425 57.4379 35.1812 57.328 36.103C57.2137 37.062 57.9005 37.9318 58.8622 38.0458C59.8238 38.1598 60.696 37.4748 60.8104 36.5158C60.9365 35.4574 61.0014 34.3808 61.0014 33.2898C61.0014 32.1989 60.9365 31.1223 60.8104 30.0638C60.696 29.1048 59.8238 28.4198 58.8622 28.5339ZM8.87611 28.5339C7.91449 28.4198 7.04226 29.1048 6.92793 30.0638C6.80174 31.1223 6.73691 32.1989 6.73691 33.2898C6.73691 34.3808 6.80174 35.4574 6.92793 36.5158C7.04226 37.4748 7.91449 38.1598 8.87611 38.0458C9.83774 37.9318 10.5246 37.062 10.4103 36.103C10.3004 35.1812 10.2438 34.2425 10.2438 33.2898C10.2438 32.3372 10.3004 31.3985 10.4103 30.4767C10.5246 29.5177 9.83774 28.6479 8.87611 28.5339ZM54.9114 47.5507C54.1503 46.9536 53.0479 47.0849 52.4492 47.8439C51.2837 49.3214 49.9449 50.6566 48.4633 51.8188C47.7022 52.4159 47.5706 53.5153 48.1693 54.2743C48.7681 55.0333 49.8704 55.1646 50.6316 54.5675C52.3317 53.2337 53.868 51.7017 55.2054 50.0062C55.8042 49.2472 55.6725 48.1478 54.9114 47.5507ZM12.8269 47.5507C12.0658 48.1478 11.9341 49.2472 12.5328 50.0062C13.8703 51.7017 15.4065 53.2337 17.1067 54.5675C17.8678 55.1646 18.9702 55.0333 19.569 54.2743C20.1677 53.5153 20.0361 52.4159 19.2749 51.8188C17.7934 50.6566 16.4546 49.3214 15.2891 47.8439C14.6904 47.0849 13.588 46.9536 12.8269 47.5507ZM38.6382 58.2142C38.5239 57.2552 37.6517 56.5702 36.69 56.6842C35.7657 56.7938 34.8244 56.8503 33.8691 56.8503C32.9139 56.8503 31.9726 56.7938 31.0482 56.6842C30.0866 56.5702 29.2144 57.2552 29.1001 58.2142C28.9857 59.1732 29.6726 60.043 30.6342 60.157C31.6956 60.2829 32.7752 60.3475 33.8691 60.3475C34.9631 60.3475 36.0426 60.2829 37.104 60.157C38.0657 60.043 38.7525 59.1732 38.6382 58.2142Z" fill="url(#paint0_linear_344_816)"/>
<path fill-rule="evenodd" clip-rule="evenodd" d="M33.8691 62.8324C17.5083 62.8324 4.24518 49.6058 4.24518 33.2898C4.24518 16.9739 17.5083 3.74725 33.8691 3.74725C50.23 3.74725 63.4931 16.9739 63.4931 33.2898C63.4931 49.6058 50.23 62.8324 33.8691 62.8324ZM33.8691 66.3297C15.5715 66.3297 0.73829 51.5372 0.73829 33.2898C0.73829 15.0424 15.5715 0.25 33.8691 0.25C52.1668 0.25 67 15.0424 67 33.2898C67 51.5372 52.1668 66.3297 33.8691 66.3297Z" fill="url(#paint1_linear_344_816)"/>
<path fill-rule="evenodd" clip-rule="evenodd" d="M33.8691 53.0769C22.9109 53.0769 14.0275 44.2179 14.0275 33.2898C14.0275 22.3617 22.9109 13.5027 33.8691 13.5027C44.8274 13.5027 53.7107 22.3617 53.7107 33.2898C53.7107 44.2179 44.8274 53.0769 33.8691 53.0769ZM33.5773 16.9946C43.9347 16.9946 50.2093 25.9715 50.2093 33.8718H49.3339C49.3339 31.1493 48.5505 28.3011 47.0872 25.7747L44.2018 28.6522H38.8295V31.7439H34.7992V35.1833L38.4519 38.5458H42.5498V39.1641H42.8599V43.5282L44.0836 44.6376C44.2287 44.5095 44.3711 44.3796 44.5106 44.2482C45.7935 43.0399 46.8227 41.7109 47.5288 40.4434C47.9695 39.6523 48.2774 38.8978 48.4477 38.2201C48.1048 38.0174 47.875 37.6446 47.875 37.2183C47.875 36.5754 48.3975 36.0543 49.0421 36.0543C49.6867 36.0543 50.2093 36.5754 50.2093 37.2183C50.2093 37.7667 49.829 38.2265 49.317 38.3497C49.1263 39.1488 48.7743 40.0052 48.294 40.8674C47.5411 42.2188 46.4548 43.6178 45.1116 44.8829C42.4292 47.4093 38.6796 49.4396 34.4526 49.4396C27.9589 49.4396 23.5241 46.5657 20.8739 42.8355C18.2375 39.125 17.3685 34.5698 17.9734 31.1765L18.8352 31.3293C18.646 32.3909 18.612 33.5846 18.7459 34.8357H33.5591V31.7439H29.5288V24.3238H33.8691V17.8701C33.7723 17.8684 33.675 17.8675 33.5773 17.8675C29.6296 17.8675 26.3867 19.612 23.9696 21.8093C21.9736 23.6238 20.562 25.7284 19.8007 27.3622C20.0193 27.5738 20.1551 27.8698 20.1551 28.1975C20.1551 28.8404 19.6325 29.3615 18.9879 29.3615C18.3433 29.3615 17.8208 28.8404 17.8208 28.1975C17.8208 27.5547 18.3433 27.0336 18.9879 27.0336L18.9887 27.0336C19.7984 25.281 21.2882 23.0656 23.3799 21.1641C25.911 18.8632 29.355 16.9946 33.5773 16.9946ZM43.6881 27.4155L46.4104 24.7007C43.972 21.1351 40.0951 18.4061 35.1092 17.9385V24.3238H38.8295V27.4155H43.6881ZM34.4526 48.5666C37.7246 48.5666 40.7224 47.2598 43.1164 45.432L42.0001 44.4201H37.5894V39.4348L33.9367 36.0724H26.8936V46.8934H26.8819C28.9633 47.9369 31.4741 48.5666 34.4526 48.5666ZM21.5881 42.3309C22.637 43.8072 23.9836 45.1453 25.6535 46.2001V36.0724H18.9302C19.3323 38.1797 20.1998 40.3768 21.5881 42.3309ZM38.8295 39.7825H41.6198V43.1834H38.8295V39.7825ZM37.5894 25.5605V30.5073H30.7689V25.5605H37.5894Z" fill="url(#paint2_linear_344_816)"/>
<path fill-rule="evenodd" clip-rule="evenodd" d="M7.19834 69.8269H59.8017C61.8404 69.8269 63.4931 71.4751 63.4931 73.5082V76.6374C63.4931 78.6705 61.8404 80.3187 59.8017 80.3187H7.19834C5.15961 80.3187 3.50688 78.6705 3.50688 76.6374V73.5082C3.50688 71.4751 5.15961 69.8269 7.19834 69.8269ZM59.8017 66.3297C63.7772 66.3297 67 69.5436 67 73.5082V76.6374C67 80.602 63.7772 83.8159 59.8017 83.8159H7.19834C3.22281 83.8159 -2.48849e-06 80.602 -2.48849e-06 76.6374V73.5082C-2.48849e-06 69.5436 3.22281 66.3297 7.19834 66.3297H59.8017Z" fill="url(#paint3_linear_344_816)"/>
<path fill-rule="evenodd" clip-rule="evenodd" d="M7.19834 86.761H59.8017C61.8404 86.761 63.4931 88.4092 63.4931 90.4423V93.5714C63.4931 95.6046 61.8404 97.2527 59.8017 97.2527H7.19834C5.15961 97.2527 3.50688 95.6046 3.50688 93.5714V90.4423C3.50688 88.4092 5.15961 86.761 7.19834 86.761ZM59.8017 83.2637C63.7772 83.2637 67 86.4777 67 90.4423V93.5714C67 97.536 63.7772 100.75 59.8017 100.75H7.19834C3.22281 100.75 -2.48849e-06 97.536 -2.48849e-06 93.5714V90.4423C-2.48849e-06 86.4777 3.22281 83.2637 7.19834 83.2637H59.8017Z" fill="url(#paint4_linear_344_816)"/>
<defs>
<linearGradient id="paint0_linear_344_816" x1="33.5" y1="0.25" x2="33.5" y2="100.75" gradientUnits="userSpaceOnUse">
<stop stop-color="#9D19FF"/>
<stop offset="1" stop-color="#7D9EFF"/>
</linearGradient>
<linearGradient id="paint1_linear_344_816" x1="33.5" y1="0.25" x2="33.5" y2="100.75" gradientUnits="userSpaceOnUse">
<stop stop-color="#9D19FF"/>
<stop offset="1" stop-color="#7D9EFF"/>
</linearGradient>
<linearGradient id="paint2_linear_344_816" x1="33.5" y1="0.25" x2="33.5" y2="100.75" gradientUnits="userSpaceOnUse">
<stop stop-color="#9D19FF"/>
<stop offset="1" stop-color="#7D9EFF"/>
</linearGradient>
<linearGradient id="paint3_linear_344_816" x1="33.5" y1="0.25" x2="33.5" y2="100.75" gradientUnits="userSpaceOnUse">
<stop stop-color="#9D19FF"/>
<stop offset="1" stop-color="#7D9EFF"/>
</linearGradient>
<linearGradient id="paint4_linear_344_816" x1="33.5" y1="0.25" x2="33.5" y2="100.75" gradientUnits="userSpaceOnUse">
<stop stop-color="#9D19FF"/>
<stop offset="1" stop-color="#7D9EFF"/>
</linearGradient>
</defs>
</svg>
