<svg width="274" height="163" viewBox="0 0 274 163" fill="none" xmlns="http://www.w3.org/2000/svg">
<path d="M94.9034 47.6966C92.9776 47.6966 91.1258 47.3837 89.3482 46.7581C87.5952 46.1074 86.2373 45.2816 85.2744 44.2806L86.3484 42.1409C87.2619 43.0418 88.484 43.8051 90.0148 44.4307C91.5702 45.0314 93.1998 45.3317 94.9034 45.3317C96.5329 45.3317 97.8538 45.1315 98.8661 44.731C99.903 44.3056 100.656 43.7425 101.125 43.0418C101.619 42.3411 101.866 41.5653 101.866 40.7145C101.866 39.6884 101.57 38.8626 100.977 38.237C100.409 37.6113 99.6561 37.1233 98.7179 36.773C97.7797 36.3976 96.7427 36.0723 95.607 35.797C94.4713 35.5217 93.3356 35.2339 92.1998 34.9336C91.0641 34.6083 90.0148 34.1829 89.0519 33.6573C88.1137 33.1318 87.3483 32.4436 86.7558 31.5927C86.1879 30.7169 85.904 29.5782 85.904 28.1768C85.904 26.8755 86.2373 25.6868 86.9039 24.6107C87.5952 23.5096 88.6445 22.6337 90.0518 21.983C91.4591 21.3073 93.2615 20.9695 95.4589 20.9695C96.9156 20.9695 98.3599 21.1822 99.7919 21.6076C101.224 22.008 102.458 22.5711 103.495 23.2968L102.57 25.5116C101.458 24.7608 100.273 24.2103 99.0142 23.8599C97.7797 23.5096 96.5823 23.3344 95.4218 23.3344C93.8664 23.3344 92.5825 23.5471 91.5702 23.9725C90.558 24.398 89.8049 24.9735 89.3111 25.6993C88.842 26.4 88.6075 27.2008 88.6075 28.1017C88.6075 29.1277 88.8914 29.9536 89.4593 30.5792C90.0518 31.2048 90.8172 31.6928 91.7554 32.0432C92.7183 32.3936 93.7676 32.7064 94.9034 32.9816C96.0391 33.2569 97.1625 33.5572 98.2735 33.8826C99.4092 34.2079 100.446 34.6333 101.384 35.1589C102.347 35.6594 103.113 36.335 103.681 37.1859C104.273 38.0368 104.569 39.1504 104.569 40.5268C104.569 41.8031 104.224 42.9918 103.532 44.0929C102.841 45.169 101.779 46.0449 100.347 46.7206C98.9401 47.3712 97.1254 47.6966 94.9034 47.6966Z" fill="#9D19FF"/>
<path d="M118.059 47.659C116.133 47.659 114.405 47.2336 112.874 46.3827C111.368 45.5068 110.183 44.3181 109.318 42.8166C108.454 41.2901 108.022 39.5508 108.022 37.5988C108.022 35.6218 108.454 33.8826 109.318 32.381C110.183 30.8795 111.368 29.7033 112.874 28.8525C114.405 28.0016 116.133 27.5762 118.059 27.5762C119.713 27.5762 121.207 27.9015 122.54 28.5522C123.873 29.2028 124.922 30.1788 125.688 31.4801L123.725 32.8315C123.058 31.8305 122.231 31.0922 121.244 30.6168C120.256 30.1413 119.182 29.9035 118.022 29.9035C116.639 29.9035 115.392 30.2289 114.281 30.8795C113.17 31.5052 112.294 32.3936 111.652 33.5447C111.01 34.6959 110.689 36.0473 110.689 37.5988C110.689 39.1504 111.01 40.5018 111.652 41.6529C112.294 42.8041 113.17 43.705 114.281 44.3557C115.392 44.9813 116.639 45.2941 118.022 45.2941C119.182 45.2941 120.256 45.0564 121.244 44.5809C122.231 44.1054 123.058 43.3797 123.725 42.4037L125.688 43.7551C124.922 45.0314 123.873 46.0073 122.54 46.683C121.207 47.3337 119.713 47.659 118.059 47.659Z" fill="#9D19FF"/>
<path d="M130.853 47.4713V27.7639H133.372V33.1318L133.112 32.1933C133.656 30.6918 134.569 29.5532 135.853 28.7774C137.137 27.9766 138.729 27.5762 140.63 27.5762V30.1663C140.532 30.1663 140.433 30.1663 140.334 30.1663C140.235 30.1413 140.137 30.1288 140.038 30.1288C137.989 30.1288 136.384 30.7669 135.223 32.0432C134.063 33.2945 133.483 35.0838 133.483 37.4111V47.4713H130.853Z" fill="#9D19FF"/>
<path d="M156.166 47.4713V43.1169L156.055 42.4037V35.1213C156.055 33.4446 155.586 32.1558 154.648 31.2549C153.734 30.354 152.364 29.9035 150.537 29.9035C149.278 29.9035 148.08 30.1162 146.944 30.5417C145.809 30.9671 144.846 31.5302 144.056 32.2309L142.871 30.2414C143.858 29.3905 145.043 28.7399 146.426 28.2894C147.809 27.8139 149.265 27.5762 150.796 27.5762C153.314 27.5762 155.253 28.2143 156.61 29.4906C157.993 30.7419 158.684 32.6563 158.684 35.2339V47.4713H156.166ZM149.463 47.659C148.006 47.659 146.735 47.4213 145.648 46.9458C144.587 46.4453 143.772 45.7696 143.204 44.9187C142.636 44.0429 142.352 43.0418 142.352 41.9157C142.352 40.8897 142.587 39.9637 143.056 39.1379C143.55 38.287 144.34 37.6113 145.426 37.1108C146.537 36.5853 148.018 36.3225 149.87 36.3225H156.573V38.312H149.944C148.068 38.312 146.759 38.6499 146.019 39.3256C145.303 40.0013 144.945 40.8396 144.945 41.8406C144.945 42.9668 145.377 43.8677 146.241 44.5434C147.105 45.219 148.315 45.5569 149.87 45.5569C151.352 45.5569 152.623 45.219 153.685 44.5434C154.771 43.8426 155.561 42.8416 156.055 41.5403L156.648 43.3797C156.154 44.681 155.29 45.7195 154.055 46.4953C152.845 47.2711 151.315 47.659 149.463 47.659Z" fill="#9D19FF"/>
<path d="M175.863 47.659C174.184 47.659 172.665 47.2711 171.307 46.4953C169.95 45.6945 168.863 44.5559 168.048 43.0794C167.258 41.5779 166.863 39.751 166.863 37.5988C166.863 35.4466 167.258 33.6323 168.048 32.1558C168.838 30.6543 169.912 29.5156 171.27 28.7399C172.628 27.9641 174.159 27.5762 175.863 27.5762C177.714 27.5762 179.369 28.0016 180.825 28.8525C182.307 29.6783 183.467 30.8545 184.307 32.381C185.146 33.8826 185.566 35.6218 185.566 37.5988C185.566 39.6009 185.146 41.3526 184.307 42.8541C183.467 44.3557 182.307 45.5319 180.825 46.3827C179.369 47.2336 177.714 47.659 175.863 47.659ZM165.826 54.7537V27.7639H168.345V33.6949L168.085 37.6364L168.456 41.6154V54.7537H165.826ZM175.678 45.2941C177.06 45.2941 178.295 44.9813 179.381 44.3557C180.467 43.705 181.331 42.8041 181.973 41.6529C182.615 40.4767 182.936 39.1254 182.936 37.5988C182.936 36.0723 182.615 34.7334 181.973 33.5823C181.331 32.4311 180.467 31.5302 179.381 30.8795C178.295 30.2289 177.06 29.9035 175.678 29.9035C174.295 29.9035 173.048 30.2289 171.937 30.8795C170.851 31.5302 169.987 32.4311 169.345 33.5823C168.727 34.7334 168.419 36.0723 168.419 37.5988C168.419 39.1254 168.727 40.4767 169.345 41.6529C169.987 42.8041 170.851 43.705 171.937 44.3557C173.048 44.9813 174.295 45.2941 175.678 45.2941Z" fill="#9D19FF"/>
<path d="M199.185 47.659C197.16 47.659 195.382 47.2336 193.852 46.3827C192.321 45.5068 191.123 44.3181 190.259 42.8166C189.395 41.2901 188.963 39.5508 188.963 37.5988C188.963 35.6468 189.37 33.9201 190.185 32.4186C191.025 30.9171 192.16 29.7409 193.592 28.89C195.049 28.0141 196.679 27.5762 198.481 27.5762C200.308 27.5762 201.925 28.0016 203.333 28.8525C204.765 29.6783 205.888 30.8545 206.703 32.381C207.517 33.8826 207.925 35.6218 207.925 37.5988C207.925 37.724 207.912 37.8616 207.888 38.0117C207.888 38.1369 207.888 38.2745 207.888 38.4247H190.963V36.4351H206.48L205.443 37.2234C205.443 35.797 205.135 34.5332 204.518 33.4321C203.925 32.306 203.11 31.4301 202.073 30.8044C201.036 30.1788 199.839 29.866 198.481 29.866C197.148 29.866 195.95 30.1788 194.889 30.8044C193.827 31.4301 193 32.306 192.407 33.4321C191.815 34.5582 191.518 35.8471 191.518 37.2985V37.7114C191.518 39.213 191.839 40.5393 192.481 41.6905C193.148 42.8166 194.062 43.705 195.222 44.3557C196.407 44.9813 197.753 45.2941 199.259 45.2941C200.444 45.2941 201.543 45.0814 202.555 44.656C203.592 44.2305 204.481 43.5799 205.221 42.704L206.703 44.4307C205.839 45.4818 204.752 46.2826 203.444 46.8332C202.16 47.3837 200.74 47.659 199.185 47.659Z" fill="#9D19FF"/>
<path d="M216.277 33.9201H229.979V36.3225H216.277V33.9201ZM216.573 47.4713H213.832V21.1947H231.609V23.5971H216.573V47.4713Z" fill="#9D19FF"/>
<path d="M243.987 47.659C242.111 47.659 240.42 47.2336 238.913 46.3827C237.432 45.5068 236.259 44.3181 235.395 42.8166C234.531 41.2901 234.099 39.5508 234.099 37.5988C234.099 35.6218 234.531 33.8826 235.395 32.381C236.259 30.8795 237.432 29.7033 238.913 28.8525C240.395 28.0016 242.086 27.5762 243.987 27.5762C245.913 27.5762 247.617 28.0016 249.098 28.8525C250.604 29.7033 251.777 30.8795 252.616 32.381C253.48 33.8826 253.912 35.6218 253.912 37.5988C253.912 39.5508 253.48 41.2901 252.616 42.8166C251.777 44.3181 250.604 45.5068 249.098 46.3827C247.592 47.2336 245.888 47.659 243.987 47.659ZM243.987 45.2941C245.395 45.2941 246.641 44.9813 247.728 44.3557C248.814 43.705 249.666 42.8041 250.283 41.6529C250.925 40.4767 251.246 39.1254 251.246 37.5988C251.246 36.0473 250.925 34.6959 250.283 33.5447C249.666 32.3936 248.814 31.5052 247.728 30.8795C246.641 30.2289 245.407 29.9035 244.024 29.9035C242.642 29.9035 241.407 30.2289 240.321 30.8795C239.234 31.5052 238.37 32.3936 237.728 33.5447C237.086 34.6959 236.765 36.0473 236.765 37.5988C236.765 39.1254 237.086 40.4767 237.728 41.6529C238.37 42.8041 239.234 43.705 240.321 44.3557C241.407 44.9813 242.629 45.2941 243.987 45.2941Z" fill="#9D19FF"/>
<path d="M255.631 47.4713L263.853 36.6604L263.815 37.9742L256.001 27.7639H258.964L265.371 36.2099L264.26 36.1724L270.667 27.7639H273.556L265.667 38.0868L265.704 36.6604L274 47.4713H271L264.223 38.4622L265.26 38.6124L258.594 47.4713H255.631Z" fill="#9D19FF"/>
<path fill-rule="evenodd" clip-rule="evenodd" d="M34.0156 67.5684C52.6741 67.5684 67.7998 52.4427 67.7998 33.7842C67.7998 15.1257 52.6741 0 34.0156 0C15.357 0 0.231339 15.1257 0.231339 33.7842C0.231339 52.4427 15.357 67.5684 34.0156 67.5684ZM34.5124 5.96193C16.8769 5.96193 6.19327 21.2891 6.19327 34.7779H7.68375C7.68375 30.1296 9.01769 25.2665 11.5092 20.953L16.4222 25.866H25.5695V31.1448H32.4319V37.0171L26.2125 42.7582H19.235V43.8139H18.7071V51.265L16.6234 53.1593C16.3763 52.9405 16.1338 52.7188 15.8963 52.4945C13.7118 50.4314 11.9595 48.1622 10.7572 45.9982C10.0068 44.6474 9.48245 43.3591 9.1926 42.2021C9.77646 41.8559 10.1679 41.2194 10.1679 40.4914C10.1679 39.3938 9.27813 38.5041 8.18057 38.5041C7.08302 38.5041 6.19327 39.3938 6.19327 40.4914C6.19327 41.4277 6.84073 42.2127 7.71234 42.4232C8.037 43.7877 8.63644 45.2499 9.45432 46.7221C10.7362 49.0295 12.5859 51.4181 14.8729 53.5781C19.4402 57.8916 25.8247 61.3581 33.0219 61.3581C44.0788 61.3581 51.6298 56.4513 56.1424 50.0825C60.6313 43.7472 62.1111 35.9696 61.0811 30.176L59.6136 30.4369C59.9359 32.2494 59.9936 34.2875 59.7657 36.4236H34.5434V31.1448H41.4059V18.4757H34.0156V7.45673C34.1805 7.45385 34.3461 7.45241 34.5124 7.45241C41.2342 7.45241 46.7558 10.4309 50.8714 14.1824C54.2701 17.2805 56.6736 20.874 57.9698 23.6635C57.5977 24.0247 57.3664 24.5302 57.3664 25.0897C57.3664 26.1873 58.2562 27.0771 59.3537 27.0771C60.4513 27.0771 61.341 26.1873 61.341 25.0897C61.341 23.9922 60.4513 23.1024 59.3537 23.1024L59.3524 23.1024C57.9738 20.1101 55.4371 16.3276 51.8755 13.0809C47.5658 9.1524 41.7017 5.96193 34.5124 5.96193ZM17.2968 23.7545L12.6616 19.1193C16.8134 13.0314 23.4147 8.37189 31.904 7.57362V18.4757H25.5695V23.7545H17.2968ZM33.0219 59.8676C27.4509 59.8676 22.3465 57.6363 18.2703 54.5157L20.171 52.7878H27.681V44.2761L33.9005 38.5351H45.8928V57.0109H45.9126C42.3687 58.7924 38.0935 59.8676 33.0219 59.8676ZM54.9263 49.2208C53.1403 51.7414 50.8476 54.026 48.0043 55.8269V38.5351H59.4519C58.7672 42.1332 57.2902 45.8845 54.9263 49.2208ZM25.5695 44.8697H20.8186V50.6763H25.5695V44.8697ZM27.681 20.5873V29.0333H39.2943V20.5873H27.681Z" fill="#9D19FF"/>
<path d="M92.6116 142.248L81.2698 116.548H84.1967L94.8068 140.742H93.197L103.88 116.548H106.624L95.2824 142.248H92.6116Z" fill="#1C55FF"/>
<path d="M116.486 142.431C114.486 142.431 112.73 142.015 111.218 141.183C109.706 140.326 108.523 139.164 107.669 137.695C106.815 136.202 106.388 134.501 106.388 132.592C106.388 130.683 106.791 128.994 107.596 127.526C108.425 126.057 109.547 124.907 110.962 124.074C112.401 123.218 114.011 122.79 115.791 122.79C117.596 122.79 119.194 123.206 120.584 124.038C121.999 124.845 123.108 125.996 123.913 127.489C124.718 128.957 125.121 130.658 125.121 132.592C125.121 132.714 125.109 132.849 125.084 132.996C125.084 133.118 125.084 133.253 125.084 133.4H108.364V131.454H123.694L122.669 132.225C122.669 130.83 122.365 129.594 121.755 128.517C121.169 127.415 120.364 126.559 119.34 125.947C118.316 125.335 117.133 125.029 115.791 125.029C114.474 125.029 113.291 125.335 112.242 125.947C111.193 126.559 110.376 127.415 109.791 128.517C109.206 129.618 108.913 130.879 108.913 132.298V132.702C108.913 134.171 109.23 135.468 109.864 136.594C110.523 137.695 111.425 138.564 112.572 139.2C113.742 139.812 115.072 140.118 116.559 140.118C117.73 140.118 118.816 139.91 119.816 139.494C120.84 139.078 121.718 138.442 122.45 137.585L123.913 139.274C123.06 140.302 121.986 141.085 120.694 141.623C119.425 142.162 118.023 142.431 116.486 142.431Z" fill="#1C55FF"/>
<path d="M130.408 142.248V122.973H132.896V128.223L132.64 127.305C133.176 125.837 134.079 124.723 135.347 123.964C136.616 123.181 138.189 122.79 140.067 122.79V125.323C139.969 125.323 139.872 125.323 139.774 125.323C139.677 125.298 139.579 125.286 139.481 125.286C137.457 125.286 135.872 125.91 134.725 127.158C133.579 128.382 133.006 130.132 133.006 132.408V142.248H130.408Z" fill="#1C55FF"/>
<path d="M144.807 142.248V122.973H147.404V142.248H144.807ZM146.124 118.714C145.587 118.714 145.136 118.531 144.77 118.164C144.404 117.797 144.221 117.356 144.221 116.842C144.221 116.328 144.404 115.9 144.77 115.557C145.136 115.19 145.587 115.006 146.124 115.006C146.661 115.006 147.112 115.178 147.478 115.52C147.843 115.863 148.026 116.291 148.026 116.805C148.026 117.344 147.843 117.797 147.478 118.164C147.136 118.531 146.685 118.714 146.124 118.714Z" fill="#1C55FF"/>
<path d="M155.071 142.248V120.55C155.071 118.837 155.571 117.454 156.571 116.401C157.571 115.349 159.01 114.823 160.889 114.823C161.62 114.823 162.328 114.921 163.011 115.116C163.694 115.312 164.267 115.618 164.73 116.034L163.852 117.98C163.486 117.662 163.059 117.429 162.572 117.283C162.084 117.111 161.559 117.026 160.998 117.026C159.901 117.026 159.059 117.331 158.474 117.943C157.888 118.555 157.596 119.461 157.596 120.66V123.597L157.669 124.809V142.248H155.071ZM151.632 125.139V122.973H163.523V125.139H151.632Z" fill="#1C55FF"/>
<path d="M167.534 149.554C166.631 149.554 165.766 149.407 164.936 149.113C164.131 148.819 163.436 148.379 162.851 147.791L164.058 145.845C164.546 146.311 165.07 146.665 165.631 146.91C166.217 147.179 166.863 147.314 167.57 147.314C168.424 147.314 169.156 147.069 169.766 146.58C170.4 146.115 170.997 145.283 171.558 144.083L172.802 141.256L173.095 140.852L180.998 122.973H183.559L173.937 144.561C173.4 145.809 172.802 146.8 172.144 147.534C171.51 148.269 170.814 148.783 170.058 149.076C169.302 149.394 168.461 149.554 167.534 149.554ZM172.656 142.798L163.802 122.973H166.509L174.339 140.669L172.656 142.798Z" fill="#1C55FF"/>
<path d="M190.181 128.994H203.718V131.344H190.181V128.994ZM190.473 142.248H187.766V116.548H205.327V118.898H190.473V142.248Z" fill="#1C55FF"/>
<path d="M217.556 142.431C215.702 142.431 214.031 142.015 212.544 141.183C211.08 140.326 209.922 139.164 209.068 137.695C208.214 136.202 207.787 134.501 207.787 132.592C207.787 130.658 208.214 128.957 209.068 127.489C209.922 126.02 211.08 124.87 212.544 124.038C214.007 123.206 215.678 122.79 217.556 122.79C219.458 122.79 221.141 123.206 222.605 124.038C224.093 124.87 225.251 126.02 226.081 127.489C226.934 128.957 227.361 130.658 227.361 132.592C227.361 134.501 226.934 136.202 226.081 137.695C225.251 139.164 224.093 140.326 222.605 141.183C221.117 142.015 219.434 142.431 217.556 142.431ZM217.556 140.118C218.946 140.118 220.178 139.812 221.251 139.2C222.324 138.564 223.166 137.683 223.776 136.557C224.41 135.407 224.727 134.085 224.727 132.592C224.727 131.074 224.41 129.753 223.776 128.627C223.166 127.501 222.324 126.632 221.251 126.02C220.178 125.384 218.958 125.066 217.593 125.066C216.227 125.066 215.007 125.384 213.934 126.02C212.861 126.632 212.007 127.501 211.373 128.627C210.739 129.753 210.422 131.074 210.422 132.592C210.422 134.085 210.739 135.407 211.373 136.557C212.007 137.683 212.861 138.564 213.934 139.2C215.007 139.812 216.214 140.118 217.556 140.118Z" fill="#1C55FF"/>
<path d="M229.059 142.248L237.181 131.674L237.144 132.959L229.425 122.973H232.351L238.681 131.234L237.583 131.197L243.913 122.973H246.767L238.974 133.069L239.01 131.674L247.206 142.248H244.242L237.547 133.436L238.571 133.583L231.986 142.248H229.059Z" fill="#1C55FF"/>
<path d="M20.6423 117.398L10.8861 117.191C13.8352 111.627 18.6852 106.867 25.0688 104.501V112.988H20.6423V117.398Z" fill="#1C55FF"/>
<path d="M26.5442 112.988V104.006C28.8999 103.296 31.4465 102.905 34.1676 102.905C37.4082 102.905 40.367 103.605 43.0205 104.751V113.384L38.5688 117.168H30.9707V112.988H26.5442Z" fill="#1C55FF"/>
<path d="M15.7387 147.494C14.4554 146.282 13.3227 144.998 12.3651 143.707L19.1801 137.346L24.8228 142.338V145.449H35.6431V142.744H41.6047L43.7881 140.56L51.6183 147.52C47.3281 151.793 41.1214 154.793 32.6921 154.793C26.0457 154.793 20.0703 151.585 15.7387 147.494Z" fill="#1C55FF"/>
<path d="M30.9707 118.644V123.316H26.5442V129.71H19.9045V136.017L24.8228 140.368V134.874H35.6431V141.268H40.9935L43.2213 139.04L44.9879 137.053V131.186H40.5614V121.585L38.4603 118.644H30.9707Z" fill="#1C55FF"/>
<path d="M42.0369 122.087V129.71H49.4143V122.087H42.0369Z" fill="#1C55FF"/>
<path d="M22.1178 114.463V121.841H29.4952V114.463H22.1178Z" fill="#1C55FF"/>
<path d="M26.2983 136.35V143.973H34.1676V136.35H26.2983Z" fill="#1C55FF"/>
<path fill-rule="evenodd" clip-rule="evenodd" d="M33.6758 162.417C52.1466 162.417 67.1202 147.443 67.1202 128.972C67.1202 110.501 52.1466 95.5278 33.6758 95.5278C15.2049 95.5278 0.231339 110.501 0.231339 128.972C0.231339 147.443 15.2049 162.417 33.6758 162.417ZM34.1676 101.43C16.7095 101.43 6.1333 116.603 6.1333 129.956H7.60879C7.60879 126.192 8.49236 122.286 10.1639 118.651L20.6423 118.874V123.316H25.0688V128.235H18.429V136.029L11.512 142.485C11.1997 142.008 10.9124 141.533 10.6514 141.063C9.90847 139.726 9.38941 138.451 9.10247 137.305C9.68046 136.963 10.0679 136.333 10.0679 135.612C10.0679 134.525 9.18715 133.645 8.10063 133.645C7.0141 133.645 6.1333 134.525 6.1333 135.612C6.1333 136.539 6.77426 137.316 7.6371 137.524C7.95849 138.875 8.5519 140.323 9.36156 141.78C10.6306 144.064 12.4616 146.429 14.7256 148.567C19.247 152.837 25.5673 156.269 32.6921 156.269C43.6378 156.269 51.1129 151.411 55.5801 145.107C60.0238 138.835 61.4887 131.136 60.4691 125.4L59.0164 125.659C59.9641 130.989 58.601 138.291 54.3762 144.254C53.8412 145.009 53.2604 145.742 52.6324 146.448L44.7998 139.485L46.4634 137.614V131.186H50.8898V120.611H41.6788L39.8344 118.029L44.496 114.067V105.449C46.6876 106.578 48.648 108.005 50.3621 109.568C53.7266 112.635 56.1059 116.192 57.3891 118.953C57.0207 119.311 56.7918 119.811 56.7918 120.365C56.7918 121.452 57.6726 122.333 58.7591 122.333C59.8456 122.333 60.7264 121.452 60.7264 120.365C60.7264 119.279 59.8456 118.398 58.7591 118.398L58.7577 118.398C57.393 115.436 54.8819 111.691 51.3561 108.477C47.0897 104.588 41.2847 101.43 34.1676 101.43Z" fill="#1C55FF"/>
</svg>
