<svg width="197" height="66" viewBox="0 0 197 66" fill="none" xmlns="http://www.w3.org/2000/svg">
<path d="M24.2624 0.498169H26.0142C32.0961 0.631821 38.0788 3.10439 42.3758 7.48151C40.7892 9.11875 39.1696 10.6892 37.6161 12.3264C35.2031 10.1211 32.2944 8.41708 29.1213 7.81564C24.4276 6.81325 19.3704 7.7154 15.437 10.4219C11.1401 13.262 8.23133 18.0735 7.60331 23.2191C6.90918 28.2979 8.33049 33.644 11.6028 37.5867C14.7429 41.4292 19.5357 43.835 24.4937 44.002C29.1213 44.2693 33.9471 42.8326 37.3186 39.5581C39.9629 37.2526 41.1859 33.7442 41.5825 30.3361C36.0956 30.3361 30.6087 30.3695 25.1218 30.3361V23.453H48.2263C49.4162 30.8373 47.6974 39.1571 42.1444 44.4364C38.4424 48.1787 33.3191 50.384 28.0966 50.8183C23.0394 51.3195 17.8169 50.3505 13.3216 47.878C7.93385 44.971 3.63687 40.0593 1.52143 34.2788C-0.46179 28.9661 -0.494843 22.9518 1.35616 17.6057C3.0419 12.7274 6.28116 8.41708 10.4459 5.4099C14.4454 2.43613 19.3043 0.798887 24.2624 0.498169Z" fill="#3780FF"/>
<path d="M156.808 2.23547H163.881V49.9494C161.534 49.9494 159.155 49.9828 156.808 49.916C156.841 34.0448 156.808 18.1401 156.808 2.23547Z" fill="#38B137"/>
<path d="M63.9599 18.775C68.323 17.9397 73.0497 18.8753 76.6525 21.5149C79.9248 23.8538 82.2055 27.5293 82.8997 31.5388C83.7921 36.1833 82.6683 41.2621 79.6934 44.9375C76.4872 49.0473 71.2317 51.2526 66.1084 50.9184C61.4148 50.6511 56.8533 48.2788 54.0768 44.4029C50.9367 40.126 50.1765 34.2453 51.8953 29.2333C53.6141 23.8538 58.473 19.744 63.9599 18.775ZM64.9515 25.1235C63.1666 25.5913 61.5139 26.6271 60.324 28.0973C57.1178 31.9732 57.3161 38.2883 60.8528 41.8969C62.8691 43.9685 65.9101 44.9375 68.7196 44.3695C71.3309 43.9017 73.6116 42.1308 74.8676 39.7919C77.0492 35.8157 76.4211 30.336 73.0827 27.2286C70.9342 25.2238 67.7941 24.3884 64.9515 25.1235Z" fill="#FA3913"/>
<path d="M98.9968 18.7749C103.988 17.806 109.442 19.2093 113.177 22.7511C119.259 28.2643 119.92 38.5889 114.73 44.9374C111.59 48.947 106.5 51.1522 101.476 50.9184C96.683 50.7847 91.9564 48.379 89.1138 44.4028C85.9075 40.0257 85.2134 34.0113 87.0314 28.8991C88.8493 23.6867 93.6091 19.7105 98.9968 18.7749ZM99.9884 25.1234C98.2035 25.5912 96.5508 26.627 95.3609 28.0638C92.1877 31.8729 92.32 38.0877 95.7245 41.7297C97.7408 43.9016 100.881 44.9708 103.79 44.3694C106.368 43.8682 108.682 42.1307 109.938 39.7918C112.086 35.7822 111.458 30.3025 108.087 27.195C105.938 25.1903 102.798 24.3883 99.9884 25.1234Z" fill="#FCBD06"/>
<path d="M128.712 20.713C132.513 18.3072 137.57 17.6389 141.669 19.7106C142.958 20.2786 144.016 21.2476 145.041 22.2165C145.074 21.3144 145.041 20.3788 145.074 19.4433C147.288 19.4767 149.503 19.4433 151.75 19.4767V48.947C151.717 53.391 150.594 58.1022 147.42 61.3433C143.95 64.9185 138.628 66.0211 133.835 65.2861C128.712 64.5176 124.25 60.7419 122.267 55.9638C124.25 54.9948 126.332 54.2263 128.382 53.3242C129.538 56.064 131.885 58.403 134.827 58.9376C137.769 59.4722 141.173 58.7371 143.09 56.2645C145.14 53.7251 145.14 50.2502 145.041 47.1427C143.52 48.6463 141.768 49.9829 139.653 50.484C135.058 51.7872 130.001 50.1833 126.464 47.0425C122.895 43.9017 120.779 39.0568 120.978 34.2453C121.077 28.7989 124.118 23.5531 128.712 20.713ZM135.554 24.9898C133.538 25.324 131.654 26.46 130.365 28.0304C127.258 31.7727 127.258 37.7536 130.398 41.4291C132.183 43.6009 135.058 44.8038 137.835 44.5031C140.446 44.2358 142.859 42.5651 144.148 40.2596C146.33 36.3503 145.966 31.0376 143.024 27.6295C141.206 25.5244 138.298 24.4886 135.554 24.9898Z" fill="#3780FF"/>
<path d="M172.376 22.417C176.342 18.6747 182.457 17.405 187.548 19.3764C192.373 21.2141 195.447 25.8586 197.001 30.6366C189.828 33.6438 182.689 36.6176 175.516 39.6248C176.508 41.5293 178.028 43.2668 180.078 43.9685C182.953 45.0043 186.391 44.6367 188.804 42.6988C189.762 41.9637 190.522 40.9947 191.25 40.0591C193.068 41.2954 194.886 42.4983 196.704 43.7346C194.125 47.6439 189.795 50.3838 185.135 50.8182C179.978 51.453 174.491 49.4482 171.153 45.3718C165.666 38.9565 166.195 28.1975 172.376 22.417ZM175.913 28.5984C174.789 30.2357 174.326 32.2405 174.359 34.2118C179.152 32.2071 183.945 30.2023 188.738 28.1641C187.944 26.2929 186.027 25.1569 184.077 24.8562C180.937 24.2881 177.665 25.9922 175.913 28.5984Z" fill="#FA3913"/>
</svg>
