<svg width="234" height="50" viewBox="0 0 234 50" fill="none" xmlns="http://www.w3.org/2000/svg">
<path d="M233.001 22.6492V18.5826H227.912V12.2605L227.741 12.3129L222.962 13.7641L222.867 13.7926V18.5828H215.324V15.9142C215.324 14.6716 215.604 13.7207 216.155 13.0866C216.703 12.4601 217.487 12.1415 218.487 12.1415C219.205 12.1415 219.949 12.3095 220.698 12.6408L220.886 12.724V8.44131L220.797 8.4091C220.099 8.15991 219.149 8.03442 217.971 8.03442C216.487 8.03442 215.139 8.35497 213.962 8.99023C212.786 9.6264 211.86 10.5346 211.211 11.6892C210.565 12.8426 210.237 14.1746 210.237 15.6487V18.5826H206.694V22.6492H210.237V39.7811H215.324V22.6492H222.867V33.5362C222.867 38.02 224.999 40.2922 229.201 40.2922C229.892 40.2922 230.619 40.2119 231.361 40.0546C232.117 39.8931 232.631 39.7319 232.934 39.5596L233.001 39.5203V35.4161L232.794 35.5518C232.518 35.7344 232.174 35.8836 231.771 35.9945C231.367 36.1075 231.029 36.1641 230.767 36.1641C229.782 36.1641 229.054 35.9008 228.602 35.3812C228.145 34.8568 227.913 33.94 227.913 32.6573V22.6492H233.001ZM195.335 36.1647C193.489 36.1647 192.033 35.5572 191.008 34.3605C189.976 33.1577 189.453 31.4429 189.453 29.2642C189.453 27.0164 189.976 25.2571 191.008 24.0331C192.035 22.8172 193.476 22.2 195.294 22.2C197.057 22.2 198.461 22.7894 199.467 23.9528C200.478 25.1222 200.991 26.8674 200.991 29.1414C200.991 31.4434 200.508 33.2116 199.557 34.3945C198.613 35.5684 197.192 36.1647 195.335 36.1647ZM195.561 18.0719C192.039 18.0719 189.241 19.0961 187.247 21.1163C185.253 23.1366 184.243 25.9324 184.243 29.4269C184.243 32.7459 185.229 35.4156 187.175 37.3606C189.121 39.3062 191.77 40.2917 195.046 40.2917C198.46 40.2917 201.202 39.2532 203.196 37.2051C205.19 35.1593 206.2 32.3898 206.2 28.977C206.2 25.6061 205.252 22.9165 203.382 20.9845C201.511 19.0516 198.879 18.0719 195.561 18.0719ZM176.042 18.0719C173.646 18.0719 171.664 18.6801 170.15 19.8793C168.627 21.0856 167.854 22.6677 167.854 24.5823C167.854 25.5775 168.021 26.4615 168.349 27.2113C168.679 27.9635 169.19 28.6258 169.869 29.1817C170.543 29.7331 171.583 30.3106 172.961 30.8983C174.119 31.3714 174.983 31.7715 175.532 32.0869C176.069 32.3961 176.449 32.7068 176.664 33.0094C176.873 33.3056 176.979 33.7109 176.979 34.2111C176.979 35.6353 175.904 36.3283 173.693 36.3283C172.873 36.3283 171.937 36.1583 170.912 35.8232C169.895 35.4932 168.934 35.0099 168.065 34.3902L167.854 34.2399V39.0999L167.931 39.1357C168.651 39.4655 169.558 39.7435 170.628 39.9623C171.695 40.1812 172.665 40.2926 173.508 40.2926C176.107 40.2926 178.201 39.6815 179.729 38.4752C181.266 37.2606 182.045 35.6411 182.045 33.6603C182.045 32.2314 181.626 31.0061 180.799 30.0178C179.978 29.0377 178.553 28.1378 176.565 27.3423C174.982 26.7115 173.967 26.1879 173.549 25.7859C173.145 25.3976 172.94 24.8485 172.94 24.153C172.94 23.5365 173.193 23.0426 173.712 22.6427C174.235 22.2407 174.964 22.0363 175.877 22.0363C176.724 22.0363 177.591 22.1691 178.454 22.4295C179.316 22.6899 180.072 23.0386 180.704 23.4652L180.912 23.6061V18.9959L180.832 18.9619C180.249 18.7139 179.481 18.5016 178.547 18.3294C177.618 18.1582 176.775 18.0719 176.042 18.0719ZM154.594 36.1647C152.748 36.1647 151.292 35.5572 150.267 34.3605C149.234 33.1577 148.712 31.4434 148.712 29.2642C148.712 27.0164 149.235 25.2571 150.268 24.0331C151.293 22.8172 152.735 22.2 154.553 22.2C156.316 22.2 157.72 22.7894 158.726 23.9528C159.737 25.1222 160.25 26.8674 160.25 29.1414C160.25 31.4434 159.767 33.2116 158.816 34.3945C157.871 35.5684 156.452 36.1647 154.594 36.1647ZM154.821 18.0719C151.297 18.0719 148.5 19.0961 146.506 21.1163C144.513 23.1366 143.501 25.9324 143.501 29.4269C143.501 32.7473 144.489 35.4156 146.435 37.3606C148.381 39.3062 151.029 40.2917 154.305 40.2917C157.719 40.2917 160.462 39.2532 162.456 37.2051C164.449 35.1593 165.459 32.3898 165.459 28.977C165.459 25.6061 164.511 22.9165 162.641 20.9845C160.769 19.0516 158.138 18.0719 154.821 18.0719ZM135.78 22.2537V18.5826H130.756V39.7806H135.78V28.937C135.78 27.0931 136.202 25.5783 137.033 24.4342C137.853 23.3037 138.947 22.7308 140.282 22.7308C140.735 22.7308 141.243 22.8049 141.793 22.9514C142.338 23.097 142.732 23.2551 142.965 23.4216L143.176 23.5734V18.5463L143.095 18.5117C142.627 18.3144 141.965 18.2148 141.127 18.2148C139.864 18.2148 138.734 18.6175 137.767 19.4102C136.917 20.107 136.303 21.0623 135.834 22.2537H135.78ZM121.758 18.0719C119.453 18.0719 117.397 18.5624 115.648 19.5294C113.895 20.4987 112.54 21.8824 111.618 23.6419C110.7 25.3972 110.234 27.4475 110.234 29.734C110.234 31.7369 110.686 33.5749 111.579 35.1948C112.473 36.8175 113.738 38.0869 115.339 38.9673C116.938 39.8466 118.786 40.2924 120.832 40.2924C123.22 40.2924 125.258 39.8186 126.893 38.8843L126.959 38.8467V34.2784L126.748 34.4314C126.007 34.9667 125.18 35.3939 124.29 35.7017C123.402 36.0093 122.592 36.1647 121.882 36.1647C119.91 36.1647 118.328 35.5525 117.179 34.3455C116.028 33.1369 115.444 31.4398 115.444 29.3043C115.444 27.1553 116.053 25.4146 117.252 24.1302C118.449 22.8496 120.034 22.2 121.965 22.2C123.616 22.2 125.226 22.755 126.748 23.851L126.959 24.0029V19.1894L126.891 19.1514C126.318 18.8331 125.537 18.5703 124.566 18.371C123.6 18.1721 122.656 18.0719 121.758 18.0719ZM106.773 18.5828H101.749V39.7806H106.773V18.5828ZM104.313 9.55236C103.486 9.55236 102.764 9.83174 102.172 10.3854C101.577 10.9406 101.275 11.6396 101.275 12.4645C101.275 13.2765 101.573 13.9628 102.163 14.5032C102.748 15.0421 103.472 15.3152 104.313 15.3152C105.154 15.3152 105.88 15.0421 106.473 14.5041C107.069 13.9628 107.371 13.2767 107.371 12.4645C107.371 11.6684 107.077 10.9766 106.497 10.4077C105.918 9.84002 105.182 9.55236 104.313 9.55236ZM91.7762 17.0188V39.7806H96.9039V10.2013H89.8069L80.7862 32.1719L72.0321 10.2013H64.6462V39.7804H69.4649V17.0165H69.6303L78.8744 39.7806H82.5109L91.6107 17.0188H91.7762Z" fill="#706D6E"/>
<path d="M23.6376 23.7743H0.000976562V0.316772H23.6376V23.7743Z" fill="#F1511B"/>
<path d="M49.735 23.7743H26.0989V0.316772H49.735V23.7743Z" fill="#80CC28"/>
<path d="M23.6369 49.6831H0.000976562V26.2258H23.6369V49.6831Z" fill="#00ADEF"/>
<path d="M49.735 49.6831H26.0989V26.2258H49.735V49.6831Z" fill="#FBBC09"/>
</svg>
