<svg width="235" height="58" viewBox="0 0 235 58" fill="none" xmlns="http://www.w3.org/2000/svg">
<path d="M81.2654 40.9422C79.6123 40.9422 78.0228 40.6737 76.4969 40.1367C74.9922 39.5781 73.8265 38.8693 73 38.01L73.9219 36.1733C74.7061 36.9467 75.7551 37.6019 77.0691 38.1389C78.4043 38.6544 79.8031 38.9122 81.2654 38.9122C82.6642 38.9122 83.798 38.7404 84.667 38.3967C85.5571 38.0315 86.2035 37.5481 86.6062 36.9467C87.03 36.3452 87.242 35.6793 87.242 34.9489C87.242 34.0681 86.9876 33.3593 86.479 32.8222C85.9915 32.2852 85.3451 31.8663 84.5398 31.5656C83.7344 31.2433 82.8443 30.9641 81.8694 30.7278C80.8945 30.4915 79.9196 30.2444 78.9447 29.9867C77.9698 29.7074 77.0691 29.3422 76.2426 28.8911C75.4372 28.44 74.7802 27.8493 74.2716 27.1189C73.7842 26.367 73.5404 25.3896 73.5404 24.1867C73.5404 23.0696 73.8265 22.0493 74.3988 21.1256C74.9922 20.1804 75.8929 19.4285 77.1009 18.87C78.3089 18.29 79.8561 18 81.7423 18C82.9927 18 84.2325 18.1826 85.4617 18.5478C86.6909 18.8915 87.7506 19.3748 88.6407 19.9978L87.846 21.8989C86.8923 21.2544 85.875 20.7819 84.7941 20.4811C83.7344 20.1804 82.7066 20.03 81.7105 20.03C80.3753 20.03 79.2732 20.2126 78.4043 20.5778C77.5354 20.943 76.889 21.437 76.4651 22.06C76.0624 22.6615 75.8611 23.3489 75.8611 24.1222C75.8611 25.003 76.1048 25.7119 76.5923 26.2489C77.1009 26.7859 77.7579 27.2048 78.5633 27.5056C79.3898 27.8063 80.2905 28.0748 81.2654 28.3111C82.2403 28.5474 83.2046 28.8052 84.1583 29.0844C85.1332 29.3637 86.0233 29.7289 86.8287 30.18C87.6552 30.6096 88.3122 31.1896 88.7997 31.92C89.3083 32.6504 89.5626 33.6063 89.5626 34.7878C89.5626 35.8833 89.2659 36.9037 88.6725 37.8489C88.0791 38.7726 87.1678 39.5244 85.9386 40.1044C84.7305 40.663 83.1728 40.9422 81.2654 40.9422Z" fill="#9D19FF"/>
<path d="M101.142 40.91C99.4886 40.91 98.005 40.5448 96.6911 39.8144C95.3983 39.0626 94.381 38.0422 93.6392 36.7533C92.8974 35.443 92.5266 33.95 92.5266 32.2744C92.5266 30.5774 92.8974 29.0844 93.6392 27.7956C94.381 26.5067 95.3983 25.497 96.6911 24.7667C98.005 24.0363 99.4886 23.6711 101.142 23.6711C102.562 23.6711 103.844 23.9504 104.988 24.5089C106.133 25.0674 107.033 25.9052 107.69 27.0222L106.006 28.1822C105.433 27.323 104.723 26.6893 103.876 26.2811C103.028 25.873 102.106 25.6689 101.11 25.6689C99.923 25.6689 98.8528 25.9481 97.8991 26.5067C96.9454 27.0437 96.193 27.8063 95.642 28.7944C95.091 29.7826 94.8154 30.9426 94.8154 32.2744C94.8154 33.6063 95.091 34.7663 95.642 35.7544C96.193 36.7426 96.9454 37.5159 97.8991 38.0744C98.8528 38.6115 99.923 38.88 101.11 38.88C102.106 38.88 103.028 38.6759 103.876 38.2678C104.723 37.8596 105.433 37.2367 106.006 36.3989L107.69 37.5589C107.033 38.6544 106.133 39.4922 104.988 40.0722C103.844 40.6307 102.562 40.91 101.142 40.91Z" fill="#9D19FF"/>
<path d="M112.124 40.7489V23.8322H114.286V28.44L114.064 27.6344C114.53 26.3456 115.314 25.3681 116.416 24.7022C117.518 24.0148 118.885 23.6711 120.517 23.6711V25.8944C120.432 25.8944 120.347 25.8944 120.263 25.8944C120.178 25.873 120.093 25.8622 120.008 25.8622C118.249 25.8622 116.872 26.41 115.876 27.5056C114.88 28.5796 114.381 30.1156 114.381 32.1133V40.7489H112.124Z" fill="#9D19FF"/>
<path d="M133.853 40.7489V37.0111L133.757 36.3989V30.1478C133.757 28.7085 133.355 27.6022 132.549 26.8289C131.765 26.0556 130.589 25.6689 129.021 25.6689C127.94 25.6689 126.912 25.8515 125.937 26.2167C124.962 26.5819 124.135 27.0652 123.457 27.6667L122.44 25.9589C123.288 25.2285 124.305 24.67 125.492 24.2833C126.679 23.8752 127.929 23.6711 129.243 23.6711C131.405 23.6711 133.069 24.2189 134.234 25.3144C135.421 26.3885 136.014 28.0319 136.014 30.2444V40.7489H133.853ZM128.099 40.91C126.848 40.91 125.757 40.7059 124.824 40.2978C123.913 39.8681 123.214 39.2881 122.726 38.5578C122.239 37.8059 121.995 36.9467 121.995 35.98C121.995 35.0993 122.196 34.3044 122.599 33.5956C123.023 32.8652 123.701 32.2852 124.634 31.8556C125.587 31.4044 126.859 31.1789 128.448 31.1789H134.202V32.8867H128.512C126.901 32.8867 125.778 33.1767 125.142 33.7567C124.528 34.3367 124.22 35.0563 124.22 35.9156C124.22 36.8822 124.591 37.6556 125.333 38.2356C126.075 38.8156 127.113 39.1056 128.448 39.1056C129.72 39.1056 130.811 38.8156 131.723 38.2356C132.655 37.6341 133.333 36.7748 133.757 35.6578L134.266 37.2367C133.842 38.3537 133.1 39.2452 132.041 39.9111C131.002 40.577 129.688 40.91 128.099 40.91Z" fill="#9D19FF"/>
<path d="M150.76 40.91C149.319 40.91 148.015 40.577 146.85 39.9111C145.684 39.2237 144.752 38.2463 144.052 36.9789C143.374 35.69 143.035 34.1219 143.035 32.2744C143.035 30.427 143.374 28.8696 144.052 27.6022C144.731 26.3133 145.652 25.3359 146.818 24.67C147.984 24.0041 149.298 23.6711 150.76 23.6711C152.35 23.6711 153.769 24.0363 155.02 24.7667C156.291 25.4756 157.288 26.4852 158.008 27.7956C158.729 29.0844 159.089 30.5774 159.089 32.2744C159.089 33.993 158.729 35.4967 158.008 36.7856C157.288 38.0744 156.291 39.0841 155.02 39.8144C153.769 40.5448 152.35 40.91 150.76 40.91ZM142.145 47V23.8322H144.307V28.9233L144.084 32.3067L144.402 35.7222V47H142.145ZM150.601 38.88C151.788 38.88 152.848 38.6115 153.78 38.0744C154.713 37.5159 155.454 36.7426 156.005 35.7544C156.556 34.7448 156.832 33.5848 156.832 32.2744C156.832 30.9641 156.556 29.8148 156.005 28.8267C155.454 27.8385 154.713 27.0652 153.78 26.5067C152.848 25.9481 151.788 25.6689 150.601 25.6689C149.414 25.6689 148.344 25.9481 147.39 26.5067C146.458 27.0652 145.716 27.8385 145.165 28.8267C144.635 29.8148 144.37 30.9641 144.37 32.2744C144.37 33.5848 144.635 34.7448 145.165 35.7544C145.716 36.7426 146.458 37.5159 147.39 38.0744C148.344 38.6115 149.414 38.88 150.601 38.88Z" fill="#9D19FF"/>
<path d="M170.779 40.91C169.041 40.91 167.516 40.5448 166.202 39.8144C164.888 39.0626 163.86 38.0422 163.118 36.7533C162.376 35.443 162.005 33.95 162.005 32.2744C162.005 30.5989 162.355 29.1167 163.054 27.8278C163.775 26.5389 164.75 25.5293 165.979 24.7989C167.229 24.047 168.628 23.6711 170.175 23.6711C171.744 23.6711 173.132 24.0363 174.34 24.7667C175.569 25.4756 176.533 26.4852 177.233 27.7956C177.932 29.0844 178.282 30.5774 178.282 32.2744C178.282 32.3819 178.271 32.5 178.25 32.6289C178.25 32.7363 178.25 32.8544 178.25 32.9833H163.722V31.2756H177.042L176.152 31.9522C176.152 30.7278 175.887 29.643 175.357 28.6978C174.848 27.7311 174.149 26.9793 173.259 26.4422C172.369 25.9052 171.341 25.6367 170.175 25.6367C169.031 25.6367 168.003 25.9052 167.092 26.4422C166.18 26.9793 165.47 27.7311 164.962 28.6978C164.453 29.6644 164.199 30.7707 164.199 32.0167V32.3711C164.199 33.66 164.474 34.7985 165.025 35.7867C165.598 36.7533 166.382 37.5159 167.378 38.0744C168.395 38.6115 169.55 38.88 170.843 38.88C171.86 38.88 172.803 38.6974 173.672 38.3322C174.562 37.967 175.325 37.4085 175.961 36.6567L177.233 38.1389C176.491 39.0411 175.558 39.7285 174.435 40.2011C173.333 40.6737 172.115 40.91 170.779 40.91Z" fill="#9D19FF"/>
<path d="M185.451 29.1167H197.213V31.1789H185.451V29.1167ZM185.705 40.7489H183.353V18.1933H198.612V20.2556H185.705V40.7489Z" fill="#9D19FF"/>
<path d="M209.237 40.91C207.627 40.91 206.175 40.5448 204.882 39.8144C203.611 39.0626 202.604 38.0422 201.862 36.7533C201.12 35.443 200.749 33.95 200.749 32.2744C200.749 30.5774 201.12 29.0844 201.862 27.7956C202.604 26.5067 203.611 25.497 204.882 24.7667C206.154 24.0363 207.605 23.6711 209.237 23.6711C210.89 23.6711 212.353 24.0363 213.624 24.7667C214.917 25.497 215.924 26.5067 216.644 27.7956C217.386 29.0844 217.757 30.5774 217.757 32.2744C217.757 33.95 217.386 35.443 216.644 36.7533C215.924 38.0422 214.917 39.0626 213.624 39.8144C212.332 40.5448 210.869 40.91 209.237 40.91ZM209.237 38.88C210.445 38.88 211.516 38.6115 212.448 38.0744C213.381 37.5159 214.112 36.7426 214.642 35.7544C215.193 34.7448 215.468 33.5848 215.468 32.2744C215.468 30.9426 215.193 29.7826 214.642 28.7944C214.112 27.8063 213.381 27.0437 212.448 26.5067C211.516 25.9481 210.456 25.6689 209.269 25.6689C208.082 25.6689 207.023 25.9481 206.09 26.5067C205.158 27.0437 204.416 27.8063 203.865 28.7944C203.314 29.7826 203.038 30.9426 203.038 32.2744C203.038 33.5848 203.314 34.7448 203.865 35.7544C204.416 36.7426 205.158 37.5159 206.09 38.0744C207.023 38.6115 208.072 38.88 209.237 38.88Z" fill="#9D19FF"/>
<path d="M219.232 40.7489L226.29 31.4689L226.258 32.5967L219.55 23.8322H222.093L227.593 31.0822L226.639 31.05L232.139 23.8322H234.618L227.847 32.6933L227.879 31.4689L235 40.7489H232.425L226.607 33.0156L227.498 33.1444L221.775 40.7489H219.232Z" fill="#9D19FF"/>
<path fill-rule="evenodd" clip-rule="evenodd" d="M29 58C45.0163 58 58 45.0163 58 29C58 12.9837 45.0163 0 29 0C12.9837 0 0 12.9837 0 29C0 45.0163 12.9837 58 29 58ZM29.4265 5.11765C14.2883 5.11765 5.11765 18.2743 5.11765 29.8529H6.39707C6.39707 25.8629 7.54211 21.6885 9.68077 17.9858L13.8981 22.2031H21.75V26.7344H27.6406V31.7751L22.3019 36.7031H16.3125V37.6094H15.8594V44.0054L14.0708 45.6313C13.8586 45.4436 13.6505 45.2533 13.4466 45.0607C11.5715 43.2897 10.0673 41.3419 9.03531 39.4844C8.39114 38.3249 7.94106 37.2189 7.69225 36.2258C8.19343 35.9286 8.52942 35.3822 8.52942 34.7574C8.52942 33.8152 7.76567 33.0515 6.82354 33.0515C5.8814 33.0515 5.11765 33.8152 5.11765 34.7574C5.11765 35.561 5.67343 36.2349 6.42161 36.4156C6.70029 37.5868 7.21484 38.842 7.91691 40.1057C9.01728 42.0864 10.605 44.1368 12.5681 45.9908C16.4886 49.6935 21.9691 52.6691 28.1471 52.6691C37.6381 52.6691 44.1199 48.4572 47.9935 42.9902C51.8467 37.5521 53.1169 30.8759 52.2328 25.9027L50.9731 26.1267C51.2497 27.6825 51.2993 29.432 51.1037 31.2656H29.4531V26.7344H35.3438V15.8594H29V6.40077C29.1416 6.3983 29.2838 6.39707 29.4265 6.39707C35.1964 6.39707 39.9361 8.95374 43.4689 12.1741C46.3863 14.8334 48.4494 17.918 49.562 20.3125C49.2426 20.6225 49.0441 21.0565 49.0441 21.5368C49.0441 22.4789 49.8079 23.2426 50.75 23.2426C51.6921 23.2426 52.4559 22.4789 52.4559 21.5368C52.4559 20.5946 51.6921 19.8309 50.75 19.8309L50.7488 19.8309C49.5655 17.2623 47.3881 14.0154 44.3308 11.2285C40.6313 7.85632 35.5977 5.11765 29.4265 5.11765ZM14.6488 20.3906L10.67 16.4118C14.2338 11.186 19.9003 7.18634 27.1875 6.50111V15.8594H21.75V20.3906H14.6488ZM28.1471 51.3897C23.3649 51.3897 18.9834 49.4744 15.4845 46.7957L17.116 45.3125H23.5625V38.0062L28.9012 33.0781H39.1953V48.9375H39.2123C36.1702 50.4668 32.5005 51.3897 28.1471 51.3897ZM46.9496 42.2506C45.4165 44.4143 43.4485 46.3754 41.0078 47.9212V33.0781H50.8342C50.2466 36.1667 48.9787 39.3867 46.9496 42.2506ZM21.75 38.5156H17.6719V43.5H21.75V38.5156ZM23.5625 17.6719V24.9219H33.5312V17.6719H23.5625Z" fill="#9D19FF"/>
</svg>
