<svg width="238" height="64" viewBox="0 0 238 64" fill="none" xmlns="http://www.w3.org/2000/svg">
    <path d="M88.955 45L78.105 20.5H80.905L91.055 43.565H89.515L99.735 20.5H102.36L91.51 45H88.955ZM111.794 45.175C109.881 45.175 108.201 44.7783 106.754 43.985C105.308 43.1683 104.176 42.06 103.359 40.66C102.543 39.2367 102.134 37.615 102.134 35.795C102.134 33.975 102.519 32.365 103.289 30.965C104.083 29.565 105.156 28.4683 106.509 27.675C107.886 26.8583 109.426 26.45 111.129 26.45C112.856 26.45 114.384 26.8467 115.714 27.64C117.068 28.41 118.129 29.5067 118.899 30.93C119.669 32.33 120.054 33.9517 120.054 35.795C120.054 35.9117 120.043 36.04 120.019 36.18C120.019 36.2967 120.019 36.425 120.019 36.565H104.024V34.71H118.689L117.709 35.445C117.709 34.115 117.418 32.9367 116.834 31.91C116.274 30.86 115.504 30.0433 114.524 29.46C113.544 28.8767 112.413 28.585 111.129 28.585C109.869 28.585 108.738 28.8767 107.734 29.46C106.731 30.0433 105.949 30.86 105.389 31.91C104.829 32.96 104.549 34.1617 104.549 35.515V35.9C104.549 37.3 104.853 38.5367 105.459 39.61C106.089 40.66 106.953 41.4883 108.049 42.095C109.169 42.6783 110.441 42.97 111.864 42.97C112.984 42.97 114.023 42.7717 114.979 42.375C115.959 41.9783 116.799 41.3717 117.499 40.555L118.899 42.165C118.083 43.145 117.056 43.8917 115.819 44.405C114.606 44.9183 113.264 45.175 111.794 45.175ZM125.112 45V26.625H127.492V31.63L127.247 30.755C127.761 29.355 128.624 28.2933 129.837 27.57C131.051 26.8233 132.556 26.45 134.352 26.45V28.865C134.259 28.865 134.166 28.865 134.072 28.865C133.979 28.8417 133.886 28.83 133.792 28.83C131.856 28.83 130.339 29.425 129.242 30.615C128.146 31.7817 127.597 33.45 127.597 35.62V45H125.112ZM138.887 45V26.625H141.372V45H138.887ZM140.147 22.565C139.634 22.565 139.202 22.39 138.852 22.04C138.502 21.69 138.327 21.27 138.327 20.78C138.327 20.29 138.502 19.8817 138.852 19.555C139.202 19.205 139.634 19.03 140.147 19.03C140.66 19.03 141.092 19.1933 141.442 19.52C141.792 19.8467 141.967 20.255 141.967 20.745C141.967 21.2583 141.792 21.69 141.442 22.04C141.115 22.39 140.684 22.565 140.147 22.565ZM148.706 45V24.315C148.706 22.6817 149.185 21.3633 150.141 20.36C151.098 19.3567 152.475 18.855 154.271 18.855C154.971 18.855 155.648 18.9483 156.301 19.135C156.955 19.3217 157.503 19.6133 157.946 20.01L157.106 21.865C156.756 21.5617 156.348 21.34 155.881 21.2C155.415 21.0367 154.913 20.955 154.376 20.955C153.326 20.955 152.521 21.2467 151.961 21.83C151.401 22.4133 151.121 23.2767 151.121 24.42V27.22L151.191 28.375V45H148.706ZM145.416 28.69V26.625H156.791V28.69H145.416ZM160.628 51.965C159.765 51.965 158.937 51.825 158.143 51.545C157.373 51.265 156.708 50.845 156.148 50.285L157.303 48.43C157.77 48.8733 158.272 49.2117 158.808 49.445C159.368 49.7017 159.987 49.83 160.663 49.83C161.48 49.83 162.18 49.5967 162.763 49.13C163.37 48.6867 163.942 47.8933 164.478 46.75L165.668 44.055L165.948 43.67L173.508 26.625H175.958L166.753 47.205C166.24 48.395 165.668 49.34 165.038 50.04C164.432 50.74 163.767 51.23 163.043 51.51C162.32 51.8133 161.515 51.965 160.628 51.965ZM165.528 45.525L157.058 26.625H159.648L167.138 43.495L165.528 45.525ZM182.293 32.365H195.243V34.605H182.293V32.365ZM182.573 45H179.983V20.5H196.783V22.74H182.573V45ZM208.481 45.175C206.708 45.175 205.11 44.7783 203.686 43.985C202.286 43.1683 201.178 42.06 200.361 40.66C199.545 39.2367 199.136 37.615 199.136 35.795C199.136 33.9517 199.545 32.33 200.361 30.93C201.178 29.53 202.286 28.4333 203.686 27.64C205.086 26.8467 206.685 26.45 208.481 26.45C210.301 26.45 211.911 26.8467 213.311 27.64C214.735 28.4333 215.843 29.53 216.636 30.93C217.453 32.33 217.861 33.9517 217.861 35.795C217.861 37.615 217.453 39.2367 216.636 40.66C215.843 42.06 214.735 43.1683 213.311 43.985C211.888 44.7783 210.278 45.175 208.481 45.175ZM208.481 42.97C209.811 42.97 210.99 42.6783 212.016 42.095C213.043 41.4883 213.848 40.6483 214.431 39.575C215.038 38.4783 215.341 37.2183 215.341 35.795C215.341 34.3483 215.038 33.0883 214.431 32.015C213.848 30.9417 213.043 30.1133 212.016 29.53C210.99 28.9233 209.823 28.62 208.516 28.62C207.21 28.62 206.043 28.9233 205.016 29.53C203.99 30.1133 203.173 30.9417 202.566 32.015C201.96 33.0883 201.656 34.3483 201.656 35.795C201.656 37.2183 201.96 38.4783 202.566 39.575C203.173 40.6483 203.99 41.4883 205.016 42.095C206.043 42.6783 207.198 42.97 208.481 42.97ZM219.485 45L227.255 34.92L227.22 36.145L219.835 26.625H222.635L228.69 34.5L227.64 34.465L233.695 26.625H236.425L228.97 36.25L229.005 34.92L236.845 45H234.01L227.605 36.6L228.585 36.74L222.285 45H219.485Z" fill="#1C55FF" />
    <path fill-rule="evenodd" clip-rule="evenodd" d="M32 64C49.6731 64 64 49.6731 64 32C64 14.3269 49.6731 0 32 0C14.3269 0 0 14.3269 0 32C0 49.6731 14.3269 64 32 64ZM32.4706 5.64707C15.7664 5.64707 5.64707 20.1647 5.64707 32.9412H7.05883C7.05883 29.3397 7.90424 25.6022 9.5036 22.1248L19.5294 22.3381V26.5882H23.7647V31.2941H17.4118V38.7521L10.7935 44.9292C10.4947 44.4731 10.2198 44.0186 9.97 43.569C9.25919 42.2895 8.76254 41.0692 8.488 39.9733C9.04102 39.6454 9.41177 39.0425 9.41177 38.3529C9.41177 37.3133 8.56901 36.4706 7.52942 36.4706C6.48983 36.4706 5.64707 37.3133 5.64707 38.3529C5.64707 39.2398 6.26034 39.9834 7.08592 40.1827C7.39342 41.4751 7.96121 42.8601 8.7359 44.2546C9.95011 46.4402 11.7021 48.7026 13.8683 50.7485C18.1944 54.8342 24.2417 58.1177 31.0588 58.1177C41.5317 58.1177 48.684 53.47 52.9583 47.4375C57.2101 41.4368 58.6118 34.07 57.6362 28.5823L56.2462 28.8294C57.153 33.93 55.8487 40.9162 51.8064 46.6213C51.2946 47.3437 50.7388 48.0456 50.1379 48.7206L42.6436 42.059L44.2353 40.2684V34.1177H48.4706V24H39.6574L37.8927 21.5294L42.3529 17.7382V9.49293C44.4499 10.5731 46.3256 11.9385 47.9657 13.4334C51.1848 16.3679 53.4614 19.7716 54.6891 22.4138C54.3367 22.7559 54.1177 23.2347 54.1177 23.7647C54.1177 24.8043 54.9604 25.6471 56 25.6471C57.0396 25.6471 57.8824 24.8043 57.8824 23.7647C57.8824 22.7251 57.0396 21.8823 56 21.8823L55.9987 21.8824C54.6929 19.0481 52.2903 15.4653 48.9167 12.3901C44.8346 8.66904 39.2803 5.64707 32.4706 5.64707ZM19.5294 20.926L10.1946 20.7274C13.0164 15.4034 17.6568 10.849 23.7647 8.58602V16.7059H19.5294V20.926ZM25.1765 16.7059V8.11228C27.4303 7.4329 29.867 7.05883 32.4706 7.05883C35.5712 7.05883 38.4023 7.72793 40.9412 8.82486V17.0853L36.6817 20.7059H29.4118V16.7059H25.1765ZM14.8376 49.7221C13.6097 48.5624 12.526 47.334 11.6097 46.0985L18.1304 40.0125L23.5294 44.7886V47.7647H33.8824V45.1765H39.5865L41.6756 43.0874L49.1676 49.747C45.0627 53.8352 39.124 56.7059 31.0588 56.7059C24.6995 56.7059 18.9821 53.6364 14.8376 49.7221ZM29.4118 22.1177V26.5882H25.1765V32.7059H18.8235V38.7408L23.5294 42.9037V37.6471H33.8824V43.7647H39.0017L41.1333 41.6332L42.8235 39.7316V34.1177H38.5882V24.9321L36.5779 22.1177H29.4118ZM40 25.4118V32.7059H47.0588V25.4118H40ZM20.9412 18.1177V25.1765H28V18.1177H20.9412ZM24.9412 39.0588V46.3529H32.4706V39.0588H24.9412Z" fill="#1C55FF" />
</svg>
    