<svg width="30" height="30" viewBox="0 0 30 30" fill="none" xmlns="http://www.w3.org/2000/svg">
<path d="M15 30C23.2843 30 30 23.2843 30 15C30 6.71573 23.2843 0 15 0C6.71573 0 0 6.71573 0 15C0 23.2843 6.71573 30 15 30Z" fill="#E13138"/>
<path d="M15.5879 8.03076C11.3939 8.03076 9.27588 10.9936 9.27588 13.4646C9.27588 14.964 9.85188 16.2895 11.0819 16.7873C11.2859 16.8712 11.4659 16.7933 11.5259 16.5713C11.5679 16.4214 11.7539 16.0316 11.7959 15.8756C11.8559 15.6597 11.8319 15.5817 11.6699 15.3898C11.3159 14.976 11.0939 14.5442 11.0939 13.7885C11.0939 11.2695 12.6659 9.47618 15.3419 9.47618C17.7119 9.47618 19.0139 10.9456 19.0139 12.8528C19.0139 15.3598 17.8859 17.399 16.2119 17.399C15.2879 17.399 14.5979 16.7273 14.8199 15.8037C15.0839 14.7001 15.5999 13.5126 15.5999 12.7149C15.5999 12.0012 15.2159 11.4914 14.4119 11.4914C13.4699 11.4914 12.7079 12.373 12.7079 13.6625C12.7079 14.4842 12.9779 14.892 12.9779 14.892C12.9779 14.892 12.0239 19.0723 11.8499 19.7801C11.5139 21.1895 11.8019 22.9108 11.8259 23.0847C11.8379 23.1867 11.9759 23.2107 12.0359 23.1327C12.1199 23.0248 13.2479 21.6513 13.6319 20.2839C13.7399 19.9 14.2559 17.8968 14.2559 17.8968C14.5619 18.4726 15.4619 18.8444 16.4099 18.8444C19.2479 18.8444 21.1739 16.4274 21.1739 13.0208C21.1799 10.4358 18.9599 8.03076 15.5879 8.03076V8.03076Z" fill="white"/>
</svg>
